<?xml version="1.0" encoding="utf-8" standalone="no"?>
<!DOCTYPE svg PUBLIC "-//W3C//DTD SVG 1.1//EN"
  "http://www.w3.org/Graphics/SVG/1.1/DTD/svg11.dtd">
<svg xmlns:xlink="http://www.w3.org/1999/xlink" width="710.145666pt" height="214.987214pt" viewBox="0 0 710.145666 214.987214" xmlns="http://www.w3.org/2000/svg" version="1.1">
 <metadata>
  <rdf:RDF xmlns:dc="http://purl.org/dc/elements/1.1/" xmlns:cc="http://creativecommons.org/ns#" xmlns:rdf="http://www.w3.org/1999/02/22-rdf-syntax-ns#">
   <cc:Work>
    <dc:type rdf:resource="http://purl.org/dc/dcmitype/StillImage"/>
    <dc:date>2022-05-11T19:34:14.660832</dc:date>
    <dc:format>image/svg+xml</dc:format>
    <dc:creator>
     <cc:Agent>
      <dc:title>Matplotlib v3.5.1, https://matplotlib.org/</dc:title>
     </cc:Agent>
    </dc:creator>
   </cc:Work>
  </rdf:RDF>
 </metadata>
 <defs>
  <style type="text/css">*{stroke-linejoin: round; stroke-linecap: butt}</style>
 </defs>
 <g id="figure_1">
  <g id="patch_1">
   <path d="M 0 214.987214 
L 710.145666 214.987214 
L 710.145666 0 
L 0 0 
z
" style="fill: #ffffff"/>
  </g>
  <g id="axes_1">
   <g id="patch_2">
    <path d="M 26.925 164.398836 
L 341.971727 164.398836 
L 341.971727 51.48 
L 26.925 51.48 
z
" style="fill: #e5e5e5"/>
   </g>
   <g id="matplotlib.axis_1">
    <g id="xtick_1">
     <g id="line2d_1">
      <path d="M 40.546328 164.398836 
L 40.546328 51.48 
" clip-path="url(#pe1d41dfad2)" style="fill: none; stroke: #ffffff; stroke-width: 0.8; stroke-linecap: square"/>
     </g>
     <g id="line2d_2">
      <defs>
       <path id="m14e8b4d766" d="M 0 0 
L 0 3.5 
" style="stroke: #555555; stroke-width: 0.8"/>
      </defs>
      <g>
       <use xlink:href="#m14e8b4d766" x="40.546328" y="164.398836" style="fill: #555555; stroke: #555555; stroke-width: 0.8"/>
      </g>
     </g>
     <g id="text_1">
      <!-- 2015-01 -->
      <g style="fill: #555555" transform="translate(23.8227 176.771742)rotate(-315)scale(0.1 -0.1)">
       <defs>
        <path id="DejaVuSans-32" d="M 1228 531 
L 3431 531 
L 3431 0 
L 469 0 
L 469 531 
Q 828 903 1448 1529 
Q 2069 2156 2228 2338 
Q 2531 2678 2651 2914 
Q 2772 3150 2772 3378 
Q 2772 3750 2511 3984 
Q 2250 4219 1831 4219 
Q 1534 4219 1204 4116 
Q 875 4013 500 3803 
L 500 4441 
Q 881 4594 1212 4672 
Q 1544 4750 1819 4750 
Q 2544 4750 2975 4387 
Q 3406 4025 3406 3419 
Q 3406 3131 3298 2873 
Q 3191 2616 2906 2266 
Q 2828 2175 2409 1742 
Q 1991 1309 1228 531 
z
" transform="scale(0.015625)"/>
        <path id="DejaVuSans-30" d="M 2034 4250 
Q 1547 4250 1301 3770 
Q 1056 3291 1056 2328 
Q 1056 1369 1301 889 
Q 1547 409 2034 409 
Q 2525 409 2770 889 
Q 3016 1369 3016 2328 
Q 3016 3291 2770 3770 
Q 2525 4250 2034 4250 
z
M 2034 4750 
Q 2819 4750 3233 4129 
Q 3647 3509 3647 2328 
Q 3647 1150 3233 529 
Q 2819 -91 2034 -91 
Q 1250 -91 836 529 
Q 422 1150 422 2328 
Q 422 3509 836 4129 
Q 1250 4750 2034 4750 
z
" transform="scale(0.015625)"/>
        <path id="DejaVuSans-31" d="M 794 531 
L 1825 531 
L 1825 4091 
L 703 3866 
L 703 4441 
L 1819 4666 
L 2450 4666 
L 2450 531 
L 3481 531 
L 3481 0 
L 794 0 
L 794 531 
z
" transform="scale(0.015625)"/>
        <path id="DejaVuSans-35" d="M 691 4666 
L 3169 4666 
L 3169 4134 
L 1269 4134 
L 1269 2991 
Q 1406 3038 1543 3061 
Q 1681 3084 1819 3084 
Q 2600 3084 3056 2656 
Q 3513 2228 3513 1497 
Q 3513 744 3044 326 
Q 2575 -91 1722 -91 
Q 1428 -91 1123 -41 
Q 819 9 494 109 
L 494 744 
Q 775 591 1075 516 
Q 1375 441 1709 441 
Q 2250 441 2565 725 
Q 2881 1009 2881 1497 
Q 2881 1984 2565 2268 
Q 2250 2553 1709 2553 
Q 1456 2553 1204 2497 
Q 953 2441 691 2322 
L 691 4666 
z
" transform="scale(0.015625)"/>
        <path id="DejaVuSans-2d" d="M 313 2009 
L 1997 2009 
L 1997 1497 
L 313 1497 
L 313 2009 
z
" transform="scale(0.015625)"/>
       </defs>
       <use xlink:href="#DejaVuSans-32"/>
       <use xlink:href="#DejaVuSans-30" x="63.623047"/>
       <use xlink:href="#DejaVuSans-31" x="127.246094"/>
       <use xlink:href="#DejaVuSans-35" x="190.869141"/>
       <use xlink:href="#DejaVuSans-2d" x="254.492188"/>
       <use xlink:href="#DejaVuSans-30" x="290.576172"/>
       <use xlink:href="#DejaVuSans-31" x="354.199219"/>
      </g>
     </g>
    </g>
    <g id="xtick_2">
     <g id="line2d_3">
      <path d="M 72.175069 164.398836 
L 72.175069 51.48 
" clip-path="url(#pe1d41dfad2)" style="fill: none; stroke: #ffffff; stroke-width: 0.8; stroke-linecap: square"/>
     </g>
     <g id="line2d_4">
      <g>
       <use xlink:href="#m14e8b4d766" x="72.175069" y="164.398836" style="fill: #555555; stroke: #555555; stroke-width: 0.8"/>
      </g>
     </g>
     <g id="text_2">
      <!-- 2015-07 -->
      <g style="fill: #555555" transform="translate(55.451442 176.771742)rotate(-315)scale(0.1 -0.1)">
       <defs>
        <path id="DejaVuSans-37" d="M 525 4666 
L 3525 4666 
L 3525 4397 
L 1831 0 
L 1172 0 
L 2766 4134 
L 525 4134 
L 525 4666 
z
" transform="scale(0.015625)"/>
       </defs>
       <use xlink:href="#DejaVuSans-32"/>
       <use xlink:href="#DejaVuSans-30" x="63.623047"/>
       <use xlink:href="#DejaVuSans-31" x="127.246094"/>
       <use xlink:href="#DejaVuSans-35" x="190.869141"/>
       <use xlink:href="#DejaVuSans-2d" x="254.492188"/>
       <use xlink:href="#DejaVuSans-30" x="290.576172"/>
       <use xlink:href="#DejaVuSans-37" x="354.199219"/>
      </g>
     </g>
    </g>
    <g id="xtick_3">
     <g id="line2d_5">
      <path d="M 104.328044 164.398836 
L 104.328044 51.48 
" clip-path="url(#pe1d41dfad2)" style="fill: none; stroke: #ffffff; stroke-width: 0.8; stroke-linecap: square"/>
     </g>
     <g id="line2d_6">
      <g>
       <use xlink:href="#m14e8b4d766" x="104.328044" y="164.398836" style="fill: #555555; stroke: #555555; stroke-width: 0.8"/>
      </g>
     </g>
     <g id="text_3">
      <!-- 2016-01 -->
      <g style="fill: #555555" transform="translate(87.604416 176.771742)rotate(-315)scale(0.1 -0.1)">
       <defs>
        <path id="DejaVuSans-36" d="M 2113 2584 
Q 1688 2584 1439 2293 
Q 1191 2003 1191 1497 
Q 1191 994 1439 701 
Q 1688 409 2113 409 
Q 2538 409 2786 701 
Q 3034 994 3034 1497 
Q 3034 2003 2786 2293 
Q 2538 2584 2113 2584 
z
M 3366 4563 
L 3366 3988 
Q 3128 4100 2886 4159 
Q 2644 4219 2406 4219 
Q 1781 4219 1451 3797 
Q 1122 3375 1075 2522 
Q 1259 2794 1537 2939 
Q 1816 3084 2150 3084 
Q 2853 3084 3261 2657 
Q 3669 2231 3669 1497 
Q 3669 778 3244 343 
Q 2819 -91 2113 -91 
Q 1303 -91 875 529 
Q 447 1150 447 2328 
Q 447 3434 972 4092 
Q 1497 4750 2381 4750 
Q 2619 4750 2861 4703 
Q 3103 4656 3366 4563 
z
" transform="scale(0.015625)"/>
       </defs>
       <use xlink:href="#DejaVuSans-32"/>
       <use xlink:href="#DejaVuSans-30" x="63.623047"/>
       <use xlink:href="#DejaVuSans-31" x="127.246094"/>
       <use xlink:href="#DejaVuSans-36" x="190.869141"/>
       <use xlink:href="#DejaVuSans-2d" x="254.492188"/>
       <use xlink:href="#DejaVuSans-30" x="290.576172"/>
       <use xlink:href="#DejaVuSans-31" x="354.199219"/>
      </g>
     </g>
    </g>
    <g id="xtick_4">
     <g id="line2d_7">
      <path d="M 136.13153 164.398836 
L 136.13153 51.48 
" clip-path="url(#pe1d41dfad2)" style="fill: none; stroke: #ffffff; stroke-width: 0.8; stroke-linecap: square"/>
     </g>
     <g id="line2d_8">
      <g>
       <use xlink:href="#m14e8b4d766" x="136.13153" y="164.398836" style="fill: #555555; stroke: #555555; stroke-width: 0.8"/>
      </g>
     </g>
     <g id="text_4">
      <!-- 2016-07 -->
      <g style="fill: #555555" transform="translate(119.407902 176.771742)rotate(-315)scale(0.1 -0.1)">
       <use xlink:href="#DejaVuSans-32"/>
       <use xlink:href="#DejaVuSans-30" x="63.623047"/>
       <use xlink:href="#DejaVuSans-31" x="127.246094"/>
       <use xlink:href="#DejaVuSans-36" x="190.869141"/>
       <use xlink:href="#DejaVuSans-2d" x="254.492188"/>
       <use xlink:href="#DejaVuSans-30" x="290.576172"/>
       <use xlink:href="#DejaVuSans-37" x="354.199219"/>
      </g>
     </g>
    </g>
    <g id="xtick_5">
     <g id="line2d_9">
      <path d="M 168.284504 164.398836 
L 168.284504 51.48 
" clip-path="url(#pe1d41dfad2)" style="fill: none; stroke: #ffffff; stroke-width: 0.8; stroke-linecap: square"/>
     </g>
     <g id="line2d_10">
      <g>
       <use xlink:href="#m14e8b4d766" x="168.284504" y="164.398836" style="fill: #555555; stroke: #555555; stroke-width: 0.8"/>
      </g>
     </g>
     <g id="text_5">
      <!-- 2017-01 -->
      <g style="fill: #555555" transform="translate(151.560876 176.771742)rotate(-315)scale(0.1 -0.1)">
       <use xlink:href="#DejaVuSans-32"/>
       <use xlink:href="#DejaVuSans-30" x="63.623047"/>
       <use xlink:href="#DejaVuSans-31" x="127.246094"/>
       <use xlink:href="#DejaVuSans-37" x="190.869141"/>
       <use xlink:href="#DejaVuSans-2d" x="254.492188"/>
       <use xlink:href="#DejaVuSans-30" x="290.576172"/>
       <use xlink:href="#DejaVuSans-31" x="354.199219"/>
      </g>
     </g>
    </g>
    <g id="xtick_6">
     <g id="line2d_11">
      <path d="M 199.913246 164.398836 
L 199.913246 51.48 
" clip-path="url(#pe1d41dfad2)" style="fill: none; stroke: #ffffff; stroke-width: 0.8; stroke-linecap: square"/>
     </g>
     <g id="line2d_12">
      <g>
       <use xlink:href="#m14e8b4d766" x="199.913246" y="164.398836" style="fill: #555555; stroke: #555555; stroke-width: 0.8"/>
      </g>
     </g>
     <g id="text_6">
      <!-- 2017-07 -->
      <g style="fill: #555555" transform="translate(183.189618 176.771742)rotate(-315)scale(0.1 -0.1)">
       <use xlink:href="#DejaVuSans-32"/>
       <use xlink:href="#DejaVuSans-30" x="63.623047"/>
       <use xlink:href="#DejaVuSans-31" x="127.246094"/>
       <use xlink:href="#DejaVuSans-37" x="190.869141"/>
       <use xlink:href="#DejaVuSans-2d" x="254.492188"/>
       <use xlink:href="#DejaVuSans-30" x="290.576172"/>
       <use xlink:href="#DejaVuSans-37" x="354.199219"/>
      </g>
     </g>
    </g>
    <g id="xtick_7">
     <g id="line2d_13">
      <path d="M 232.06622 164.398836 
L 232.06622 51.48 
" clip-path="url(#pe1d41dfad2)" style="fill: none; stroke: #ffffff; stroke-width: 0.8; stroke-linecap: square"/>
     </g>
     <g id="line2d_14">
      <g>
       <use xlink:href="#m14e8b4d766" x="232.06622" y="164.398836" style="fill: #555555; stroke: #555555; stroke-width: 0.8"/>
      </g>
     </g>
     <g id="text_7">
      <!-- 2018-01 -->
      <g style="fill: #555555" transform="translate(215.342592 176.771742)rotate(-315)scale(0.1 -0.1)">
       <defs>
        <path id="DejaVuSans-38" d="M 2034 2216 
Q 1584 2216 1326 1975 
Q 1069 1734 1069 1313 
Q 1069 891 1326 650 
Q 1584 409 2034 409 
Q 2484 409 2743 651 
Q 3003 894 3003 1313 
Q 3003 1734 2745 1975 
Q 2488 2216 2034 2216 
z
M 1403 2484 
Q 997 2584 770 2862 
Q 544 3141 544 3541 
Q 544 4100 942 4425 
Q 1341 4750 2034 4750 
Q 2731 4750 3128 4425 
Q 3525 4100 3525 3541 
Q 3525 3141 3298 2862 
Q 3072 2584 2669 2484 
Q 3125 2378 3379 2068 
Q 3634 1759 3634 1313 
Q 3634 634 3220 271 
Q 2806 -91 2034 -91 
Q 1263 -91 848 271 
Q 434 634 434 1313 
Q 434 1759 690 2068 
Q 947 2378 1403 2484 
z
M 1172 3481 
Q 1172 3119 1398 2916 
Q 1625 2713 2034 2713 
Q 2441 2713 2670 2916 
Q 2900 3119 2900 3481 
Q 2900 3844 2670 4047 
Q 2441 4250 2034 4250 
Q 1625 4250 1398 4047 
Q 1172 3844 1172 3481 
z
" transform="scale(0.015625)"/>
       </defs>
       <use xlink:href="#DejaVuSans-32"/>
       <use xlink:href="#DejaVuSans-30" x="63.623047"/>
       <use xlink:href="#DejaVuSans-31" x="127.246094"/>
       <use xlink:href="#DejaVuSans-38" x="190.869141"/>
       <use xlink:href="#DejaVuSans-2d" x="254.492188"/>
       <use xlink:href="#DejaVuSans-30" x="290.576172"/>
       <use xlink:href="#DejaVuSans-31" x="354.199219"/>
      </g>
     </g>
    </g>
    <g id="xtick_8">
     <g id="line2d_15">
      <path d="M 263.694961 164.398836 
L 263.694961 51.48 
" clip-path="url(#pe1d41dfad2)" style="fill: none; stroke: #ffffff; stroke-width: 0.8; stroke-linecap: square"/>
     </g>
     <g id="line2d_16">
      <g>
       <use xlink:href="#m14e8b4d766" x="263.694961" y="164.398836" style="fill: #555555; stroke: #555555; stroke-width: 0.8"/>
      </g>
     </g>
     <g id="text_8">
      <!-- 2018-07 -->
      <g style="fill: #555555" transform="translate(246.971334 176.771742)rotate(-315)scale(0.1 -0.1)">
       <use xlink:href="#DejaVuSans-32"/>
       <use xlink:href="#DejaVuSans-30" x="63.623047"/>
       <use xlink:href="#DejaVuSans-31" x="127.246094"/>
       <use xlink:href="#DejaVuSans-38" x="190.869141"/>
       <use xlink:href="#DejaVuSans-2d" x="254.492188"/>
       <use xlink:href="#DejaVuSans-30" x="290.576172"/>
       <use xlink:href="#DejaVuSans-37" x="354.199219"/>
      </g>
     </g>
    </g>
    <g id="xtick_9">
     <g id="line2d_17">
      <path d="M 295.847936 164.398836 
L 295.847936 51.48 
" clip-path="url(#pe1d41dfad2)" style="fill: none; stroke: #ffffff; stroke-width: 0.8; stroke-linecap: square"/>
     </g>
     <g id="line2d_18">
      <g>
       <use xlink:href="#m14e8b4d766" x="295.847936" y="164.398836" style="fill: #555555; stroke: #555555; stroke-width: 0.8"/>
      </g>
     </g>
     <g id="text_9">
      <!-- 2019-01 -->
      <g style="fill: #555555" transform="translate(279.124308 176.771742)rotate(-315)scale(0.1 -0.1)">
       <defs>
        <path id="DejaVuSans-39" d="M 703 97 
L 703 672 
Q 941 559 1184 500 
Q 1428 441 1663 441 
Q 2288 441 2617 861 
Q 2947 1281 2994 2138 
Q 2813 1869 2534 1725 
Q 2256 1581 1919 1581 
Q 1219 1581 811 2004 
Q 403 2428 403 3163 
Q 403 3881 828 4315 
Q 1253 4750 1959 4750 
Q 2769 4750 3195 4129 
Q 3622 3509 3622 2328 
Q 3622 1225 3098 567 
Q 2575 -91 1691 -91 
Q 1453 -91 1209 -44 
Q 966 3 703 97 
z
M 1959 2075 
Q 2384 2075 2632 2365 
Q 2881 2656 2881 3163 
Q 2881 3666 2632 3958 
Q 2384 4250 1959 4250 
Q 1534 4250 1286 3958 
Q 1038 3666 1038 3163 
Q 1038 2656 1286 2365 
Q 1534 2075 1959 2075 
z
" transform="scale(0.015625)"/>
       </defs>
       <use xlink:href="#DejaVuSans-32"/>
       <use xlink:href="#DejaVuSans-30" x="63.623047"/>
       <use xlink:href="#DejaVuSans-31" x="127.246094"/>
       <use xlink:href="#DejaVuSans-39" x="190.869141"/>
       <use xlink:href="#DejaVuSans-2d" x="254.492188"/>
       <use xlink:href="#DejaVuSans-30" x="290.576172"/>
       <use xlink:href="#DejaVuSans-31" x="354.199219"/>
      </g>
     </g>
    </g>
    <g id="xtick_10">
     <g id="line2d_19">
      <path d="M 327.476677 164.398836 
L 327.476677 51.48 
" clip-path="url(#pe1d41dfad2)" style="fill: none; stroke: #ffffff; stroke-width: 0.8; stroke-linecap: square"/>
     </g>
     <g id="line2d_20">
      <g>
       <use xlink:href="#m14e8b4d766" x="327.476677" y="164.398836" style="fill: #555555; stroke: #555555; stroke-width: 0.8"/>
      </g>
     </g>
     <g id="text_10">
      <!-- 2019-07 -->
      <g style="fill: #555555" transform="translate(310.753049 176.771742)rotate(-315)scale(0.1 -0.1)">
       <use xlink:href="#DejaVuSans-32"/>
       <use xlink:href="#DejaVuSans-30" x="63.623047"/>
       <use xlink:href="#DejaVuSans-31" x="127.246094"/>
       <use xlink:href="#DejaVuSans-39" x="190.869141"/>
       <use xlink:href="#DejaVuSans-2d" x="254.492188"/>
       <use xlink:href="#DejaVuSans-30" x="290.576172"/>
       <use xlink:href="#DejaVuSans-37" x="354.199219"/>
      </g>
     </g>
    </g>
   </g>
   <g id="matplotlib.axis_2">
    <g id="ytick_1">
     <g id="line2d_21">
      <path d="M 26.925 164.073134 
L 341.971727 164.073134 
" clip-path="url(#pe1d41dfad2)" style="fill: none; stroke: #ffffff; stroke-width: 0.8; stroke-linecap: square"/>
     </g>
     <g id="line2d_22">
      <defs>
       <path id="m7040b702ef" d="M 0 0 
L -3.5 0 
" style="stroke: #555555; stroke-width: 0.8"/>
      </defs>
      <g>
       <use xlink:href="#m7040b702ef" x="26.925" y="164.073134" style="fill: #555555; stroke: #555555; stroke-width: 0.8"/>
      </g>
     </g>
     <g id="text_11">
      <!-- 0 -->
      <g style="fill: #555555" transform="translate(13.5625 167.872353)scale(0.1 -0.1)">
       <use xlink:href="#DejaVuSans-30"/>
      </g>
     </g>
    </g>
    <g id="ytick_2">
     <g id="line2d_23">
      <path d="M 26.925 139.452974 
L 341.971727 139.452974 
" clip-path="url(#pe1d41dfad2)" style="fill: none; stroke: #ffffff; stroke-width: 0.8; stroke-linecap: square"/>
     </g>
     <g id="line2d_24">
      <g>
       <use xlink:href="#m7040b702ef" x="26.925" y="139.452974" style="fill: #555555; stroke: #555555; stroke-width: 0.8"/>
      </g>
     </g>
     <g id="text_12">
      <!-- 5 -->
      <g style="fill: #555555" transform="translate(13.5625 143.252193)scale(0.1 -0.1)">
       <use xlink:href="#DejaVuSans-35"/>
      </g>
     </g>
    </g>
    <g id="ytick_3">
     <g id="line2d_25">
      <path d="M 26.925 114.832815 
L 341.971727 114.832815 
" clip-path="url(#pe1d41dfad2)" style="fill: none; stroke: #ffffff; stroke-width: 0.8; stroke-linecap: square"/>
     </g>
     <g id="line2d_26">
      <g>
       <use xlink:href="#m7040b702ef" x="26.925" y="114.832815" style="fill: #555555; stroke: #555555; stroke-width: 0.8"/>
      </g>
     </g>
     <g id="text_13">
      <!-- 10 -->
      <g style="fill: #555555" transform="translate(7.2 118.632033)scale(0.1 -0.1)">
       <use xlink:href="#DejaVuSans-31"/>
       <use xlink:href="#DejaVuSans-30" x="63.623047"/>
      </g>
     </g>
    </g>
    <g id="ytick_4">
     <g id="line2d_27">
      <path d="M 26.925 90.212655 
L 341.971727 90.212655 
" clip-path="url(#pe1d41dfad2)" style="fill: none; stroke: #ffffff; stroke-width: 0.8; stroke-linecap: square"/>
     </g>
     <g id="line2d_28">
      <g>
       <use xlink:href="#m7040b702ef" x="26.925" y="90.212655" style="fill: #555555; stroke: #555555; stroke-width: 0.8"/>
      </g>
     </g>
     <g id="text_14">
      <!-- 15 -->
      <g style="fill: #555555" transform="translate(7.2 94.011873)scale(0.1 -0.1)">
       <use xlink:href="#DejaVuSans-31"/>
       <use xlink:href="#DejaVuSans-35" x="63.623047"/>
      </g>
     </g>
    </g>
    <g id="ytick_5">
     <g id="line2d_29">
      <path d="M 26.925 65.592495 
L 341.971727 65.592495 
" clip-path="url(#pe1d41dfad2)" style="fill: none; stroke: #ffffff; stroke-width: 0.8; stroke-linecap: square"/>
     </g>
     <g id="line2d_30">
      <g>
       <use xlink:href="#m7040b702ef" x="26.925" y="65.592495" style="fill: #555555; stroke: #555555; stroke-width: 0.8"/>
      </g>
     </g>
     <g id="text_15">
      <!-- 20 -->
      <g style="fill: #555555" transform="translate(7.2 69.391714)scale(0.1 -0.1)">
       <use xlink:href="#DejaVuSans-32"/>
       <use xlink:href="#DejaVuSans-30" x="63.623047"/>
      </g>
     </g>
    </g>
   </g>
   <g id="line2d_31">
    <path d="M 41.245306 159.23379 
L 41.42005 159.150634 
L 41.594795 159.196458 
L 41.769539 159.042821 
L 41.944284 159.163817 
L 42.468517 159.2163 
L 42.643261 159.112232 
L 42.99275 159.223263 
L 43.167494 159.153233 
L 43.866472 159.266161 
L 44.215961 159.054137 
L 44.390705 158.957015 
L 45.439172 158.742371 
L 45.613916 158.554828 
L 46.312894 158.401078 
L 46.662383 158.199386 
L 47.361361 157.912039 
L 47.71085 157.753155 
L 47.885594 157.540176 
L 49.982527 157.378898 
L 50.332016 157.211541 
L 50.50676 157.244653 
L 51.030994 157.008289 
L 51.380483 156.645495 
L 53.65216 156.522251 
L 54.001649 156.316374 
L 54.176393 156.23326 
L 55.399604 156.164767 
L 55.923838 155.981058 
L 56.098582 156.057864 
L 57.147049 155.760637 
L 57.321793 155.841556 
L 57.496538 155.688611 
L 58.37026 155.803003 
L 58.894493 155.522487 
L 59.069237 155.531156 
L 60.117704 155.340324 
L 60.292448 155.013064 
L 60.816682 155.104635 
L 60.991426 154.869988 
L 61.515659 154.975976 
L 62.039893 155.031859 
L 62.389381 154.784905 
L 62.564126 154.871478 
L 62.73887 154.703649 
L 63.437848 154.613238 
L 63.612592 154.447294 
L 63.787337 154.499384 
L 63.962081 154.412646 
L 64.835803 154.255086 
L 65.185292 154.107213 
L 66.059014 154.069043 
L 66.408503 153.917936 
L 67.107481 153.827361 
L 67.631714 153.59066 
L 68.505436 153.394821 
L 68.854925 153.225697 
L 70.60237 152.80105 
L 70.951858 152.693077 
L 71.301347 152.778792 
L 71.825581 152.880422 
L 72.175069 152.537364 
L 73.39828 152.387655 
L 73.573025 152.441833 
L 73.747769 152.275877 
L 74.272003 152.289881 
L 74.621491 152.030141 
L 74.796236 151.879583 
L 74.97098 152.026213 
L 75.669958 152.024683 
L 75.844702 151.908117 
L 76.019447 151.978507 
L 76.194191 151.824126 
L 76.893169 151.890542 
L 77.417402 151.520281 
L 77.941635 151.393642 
L 78.465869 150.889771 
L 78.640613 150.867923 
L 79.339591 150.5387 
L 79.514335 150.701068 
L 79.68908 150.574121 
L 79.863824 150.684332 
L 80.737546 150.48596 
L 81.611268 151.442931 
L 81.786013 151.47117 
L 82.310246 150.482699 
L 82.834479 150.409329 
L 83.009224 150.679 
L 83.358713 150.51442 
L 83.533457 150.701277 
L 84.756668 150.483261 
L 85.280901 150.547923 
L 85.63039 150.099782 
L 85.805135 150.064815 
L 85.979879 150.27668 
L 86.678857 150.134939 
L 87.20309 150.082296 
L 87.727323 150.30589 
L 87.902068 150.515896 
L 88.076812 150.338816 
L 88.251557 150.381057 
L 88.426301 150.161953 
L 89.649512 149.786808 
L 90.34849 149.71885 
L 90.523234 149.88311 
L 90.697979 149.869429 
L 90.872723 149.725015 
L 91.92119 149.568919 
L 92.095934 149.363074 
L 92.794912 149.23579 
L 92.969656 148.948959 
L 93.144401 148.92511 
L 93.319145 148.706942 
L 94.192867 148.351614 
L 94.542356 148.180362 
L 95.066589 148.401952 
L 95.416078 148.201712 
L 95.590823 148.291644 
L 96.2898 148.005571 
L 96.814034 147.466936 
L 96.988778 147.388118 
L 98.211989 147.154732 
L 98.736222 147.322935 
L 98.910967 147.109622 
L 99.260456 147.356351 
L 99.4352 147.009943 
L 100.308922 147.220942 
L 100.483667 147.047516 
L 100.658411 147.167302 
L 101.357389 146.82744 
L 101.532133 146.646469 
L 101.881622 146.926706 
L 102.5806 146.819631 
L 102.930089 146.550205 
L 103.629066 146.563983 
L 103.803811 146.383101 
L 103.978555 146.457355 
L 104.1533 146.719436 
L 105.201766 146.988855 
L 105.551255 147.431699 
L 106.250233 147.311532 
L 106.424977 147.749997 
L 106.599722 147.63336 
L 106.774466 147.758478 
L 107.473444 147.660111 
L 107.648188 147.818468 
L 107.822932 147.700404 
L 107.997677 147.36303 
L 108.52191 147.403076 
L 108.696655 147.209847 
L 108.871399 147.305181 
L 109.220888 146.719454 
L 109.745121 146.735312 
L 109.919866 147.080734 
L 110.09461 147.045222 
L 110.269354 146.877317 
L 110.444099 147.217421 
L 111.143077 147.493795 
L 111.492565 147.625041 
L 111.66731 147.144768 
L 112.541032 146.569086 
L 112.890521 146.335616 
L 113.589499 146.092529 
L 113.938987 145.786507 
L 114.113732 145.613296 
L 114.637965 145.696145 
L 114.987454 145.163738 
L 115.336943 144.995725 
L 116.210665 144.909866 
L 116.560154 144.566326 
L 117.259132 144.603974 
L 117.783365 144.272399 
L 119.530809 143.958776 
L 119.705554 143.678352 
L 120.055042 143.621309 
L 120.229787 143.565672 
L 120.75402 143.600317 
L 120.928765 143.874022 
L 121.103509 143.578355 
L 121.278253 143.643892 
L 121.452998 143.513236 
L 121.977231 143.445502 
L 122.32672 142.944843 
L 122.676209 143.004437 
L 123.549931 142.580412 
L 123.724675 142.802513 
L 123.89942 142.65599 
L 124.423653 142.661108 
L 124.773142 142.376613 
L 124.947886 142.572285 
L 125.646864 142.320661 
L 125.821608 142.486074 
L 125.996353 142.31824 
L 126.171097 142.437598 
L 126.345842 142.146362 
L 126.870075 142.101309 
L 127.044819 141.722652 
L 127.394308 141.944016 
L 127.569053 141.979529 
L 128.093286 141.837033 
L 128.26803 141.909671 
L 128.617519 141.722163 
L 128.792264 141.718597 
L 129.316497 141.889678 
L 129.491241 141.498196 
L 129.84073 141.274915 
L 130.015475 141.090459 
L 130.889197 140.900496 
L 131.238686 140.925326 
L 131.937663 140.890878 
L 132.287152 140.460773 
L 132.461897 140.642824 
L 132.98613 140.758784 
L 133.335619 141.077156 
L 133.510363 140.955973 
L 133.685108 140.981908 
L 134.733574 140.71534 
L 134.908319 141.368721 
L 135.432552 141.657177 
L 135.956785 140.436668 
L 136.13153 140.514016 
L 136.830507 140.508361 
L 137.354741 140.042072 
L 138.053718 140.018623 
L 138.403207 139.693271 
L 139.276929 139.773572 
L 139.626418 139.79995 
L 139.801163 139.495575 
L 140.325396 139.567293 
L 140.50014 139.27909 
L 140.849629 139.187377 
L 141.024374 139.061044 
L 141.898096 138.716032 
L 142.247585 138.292853 
L 142.771818 138.350238 
L 142.946562 138.175158 
L 143.296051 138.127977 
L 143.470796 138.019647 
L 143.995029 138.044845 
L 144.169773 138.351917 
L 144.519262 138.065884 
L 144.694007 138.221211 
L 145.392984 138.221435 
L 145.567729 138.43127 
L 145.742473 138.388914 
L 145.917218 138.487099 
L 146.616195 138.228229 
L 146.965684 137.973053 
L 147.140429 137.688791 
L 148.188895 137.645314 
L 148.36364 138.36792 
L 148.887873 137.980472 
L 149.062617 138.503868 
L 149.412106 137.967483 
L 149.586851 138.112145 
L 150.285828 137.860726 
L 150.460573 137.351651 
L 150.635317 137.282892 
L 150.810062 137.396691 
L 151.334295 137.556287 
L 151.683784 137.270811 
L 151.858528 137.483754 
L 152.033273 137.123569 
L 152.557506 137.218361 
L 152.73225 137.489592 
L 153.081739 137.07562 
L 153.780717 137.011585 
L 153.955461 137.432385 
L 154.130206 137.088625 
L 154.479695 136.996102 
L 155.003928 136.914768 
L 155.353417 136.413019 
L 155.702905 136.327249 
L 156.227139 135.952256 
L 156.576628 136.204837 
L 156.751372 136.574728 
L 156.926116 136.655502 
L 157.45035 136.21538 
L 157.799839 136.686462 
L 158.149327 136.681199 
L 159.02305 135.611277 
L 159.197794 135.592404 
L 159.372538 135.107277 
L 159.896772 134.834804 
L 160.421005 134.013923 
L 160.595749 133.982211 
L 161.469472 133.354462 
L 161.81896 133.082888 
L 162.343194 133.307318 
L 162.517938 133.147467 
L 162.692683 133.154034 
L 162.867427 133.358582 
L 163.741149 132.723209 
L 164.090638 132.026489 
L 164.265382 132.131838 
L 164.789616 132.127059 
L 164.96436 131.993751 
L 165.139105 132.047632 
L 165.313849 131.80528 
L 165.488593 131.906825 
L 166.012827 131.616406 
L 166.187571 131.385722 
L 166.53706 131.765092 
L 166.711804 131.619543 
L 167.410782 131.39446 
L 167.585527 131.757519 
L 167.760271 131.542766 
L 167.935015 131.707264 
L 168.633993 131.778059 
L 168.808738 131.523472 
L 169.158226 131.372796 
L 170.031949 131.01004 
L 170.206693 131.282097 
L 170.381437 131.149729 
L 171.080415 131.525966 
L 171.604648 130.949938 
L 172.128882 130.939573 
L 172.303626 130.608347 
L 172.47837 129.97337 
L 172.653115 129.760714 
L 172.827859 129.734693 
L 173.352093 129.910962 
L 173.526837 129.848725 
L 174.05107 129.010533 
L 174.924792 128.475329 
L 175.099537 128.506864 
L 175.274281 128.373012 
L 175.798515 128.39275 
L 176.497492 127.76124 
L 177.371214 127.470227 
L 177.545959 127.608706 
L 178.244937 127.415249 
L 178.419681 127.607879 
L 178.594425 127.058259 
L 178.76917 127.404314 
L 178.943914 127.29606 
L 179.642892 127.382812 
L 179.817636 127.719767 
L 180.691359 127.616258 
L 180.866103 127.780164 
L 181.040847 127.421393 
L 181.215592 127.626663 
L 181.390336 127.38976 
L 181.91457 127.304705 
L 182.089314 127.960304 
L 182.613547 127.407155 
L 183.137781 127.611138 
L 183.312525 127.322211 
L 183.487269 127.306818 
L 183.836758 126.794754 
L 184.71048 127.24057 
L 184.885225 127.0989 
L 185.059969 127.231179 
L 185.584203 127.252152 
L 185.758947 127.008787 
L 186.108436 127.737939 
L 186.982158 127.25997 
L 187.156902 127.364637 
L 187.331647 127.007265 
L 187.506391 127.058901 
L 188.380113 126.114559 
L 188.554858 125.756212 
L 188.729602 125.763795 
L 189.42858 125.630295 
L 189.603324 125.673661 
L 189.778069 125.538851 
L 189.952813 125.262 
L 190.651791 125.522311 
L 191.00128 124.848406 
L 191.176024 124.767443 
L 191.875002 124.271163 
L 192.049746 124.965746 
L 192.224491 124.851533 
L 192.399235 124.367438 
L 193.098213 123.897876 
L 193.447702 123.262252 
L 193.622446 123.172408 
L 194.321424 123.110089 
L 194.670913 122.654287 
L 194.845657 122.327857 
L 195.544635 122.226709 
L 195.894124 121.752648 
L 196.068868 122.112231 
L 196.593101 122.294075 
L 196.94259 121.886114 
L 197.292079 121.65319 
L 197.816312 121.126998 
L 197.991057 121.519841 
L 198.51529 121.586853 
L 199.039523 121.69588 
L 199.214268 122.062404 
L 199.389012 121.65626 
L 199.563757 121.864112 
L 199.738501 121.643342 
L 200.262734 121.835726 
L 200.612223 121.650273 
L 200.786968 121.847757 
L 200.961712 121.327782 
L 201.66069 120.97944 
L 201.835434 120.646763 
L 202.010179 120.789162 
L 202.184923 120.504309 
L 202.883901 120.411255 
L 203.23339 120.119979 
L 203.408134 119.831692 
L 203.932367 119.851066 
L 204.281856 119.1025 
L 204.456601 119.40686 
L 204.631345 119.16902 
L 205.155578 119.411029 
L 205.505067 118.931939 
L 205.854556 118.697027 
L 206.728278 118.160711 
L 206.903023 118.819212 
L 207.077767 118.845602 
L 207.951489 117.682463 
L 208.126234 118.357466 
L 208.300978 118.363616 
L 208.825211 118.120832 
L 208.999956 117.51025 
L 209.1747 117.372657 
L 209.524189 117.393175 
L 210.048422 117.264526 
L 210.223167 117.469818 
L 210.397911 117.312548 
L 210.7474 116.404179 
L 211.621122 116.939619 
L 211.970611 116.833266 
L 212.669589 116.332248 
L 213.019078 116.261639 
L 213.193822 115.765811 
L 213.8928 115.208828 
L 214.067544 114.961526 
L 214.242289 115.049886 
L 214.417033 114.845388 
L 215.116011 115.30435 
L 215.4655 114.914743 
L 215.640244 114.927657 
L 216.164477 114.822445 
L 216.339222 114.664309 
L 216.688711 114.089541 
L 216.863455 113.936884 
L 218.610899 113.297825 
L 219.135133 112.895979 
L 219.309877 112.601655 
L 219.83411 112.794994 
L 220.008855 112.433946 
L 220.183599 112.745496 
L 220.533088 111.787775 
L 221.057321 111.894386 
L 221.232066 111.481759 
L 221.40681 111.647759 
L 221.581554 111.461262 
L 221.756299 111.006399 
L 222.280532 110.796035 
L 222.630021 110.926966 
L 222.804765 111.614138 
L 222.97951 111.27294 
L 223.678488 110.858948 
L 223.853232 111.095699 
L 224.027976 110.692617 
L 224.202721 110.669459 
L 225.425932 109.334718 
L 225.950165 109.277434 
L 226.12491 108.763475 
L 226.299654 109.069085 
L 226.474398 108.511988 
L 226.649143 108.480256 
L 227.173376 108.882883 
L 227.348121 108.835976 
L 227.522865 108.940006 
L 227.872354 108.341039 
L 228.396587 108.283835 
L 228.746076 108.419059 
L 228.92082 108.392596 
L 229.095565 107.867116 
L 229.794543 107.550669 
L 229.969287 107.58922 
L 230.144031 107.754355 
L 230.318776 107.585045 
L 231.192498 107.489072 
L 231.367242 107.154232 
L 231.541987 107.575262 
L 232.240965 107.379087 
L 232.590453 106.309739 
L 233.289431 105.517348 
L 233.464176 105.323668 
L 233.63892 105.50411 
L 233.988409 104.436385 
L 234.687387 104.462997 
L 234.862131 103.892983 
L 235.036875 103.930348 
L 235.21162 103.343066 
L 235.735853 103.236249 
L 235.910598 103.019278 
L 236.260086 103.392337 
L 236.434831 102.792435 
L 236.959064 103.130941 
L 237.133808 103.476307 
L 237.308553 102.771172 
L 237.483297 102.88687 
L 237.658042 103.475705 
L 238.182275 105.807024 
L 238.357019 104.787576 
L 238.531764 104.583284 
L 238.706508 106.749273 
L 238.881253 105.695488 
L 239.58023 104.338149 
L 239.929719 102.27503 
L 240.104464 102.042213 
L 241.15293 101.991003 
L 241.327675 101.058317 
L 241.851908 100.759491 
L 242.376141 102.577262 
L 242.550886 102.180805 
L 243.075119 101.527596 
L 243.424608 100.663579 
L 243.599352 100.11288 
L 243.774097 98.804336 
L 244.29833 98.562531 
L 244.473074 98.90078 
L 244.997308 98.434952 
L 245.521541 98.804425 
L 245.696285 97.982143 
L 245.87103 98.04722 
L 246.220519 100.721043 
L 246.744752 98.81805 
L 247.094241 100.566554 
L 247.268985 99.825615 
L 247.967963 101.294026 
L 248.492196 99.474996 
L 248.666941 100.803473 
L 249.191174 100.495688 
L 249.365918 99.30223 
L 249.540663 99.722002 
L 249.715407 99.271004 
L 249.890152 99.567024 
L 250.414385 99.20858 
L 250.589129 98.106831 
L 250.763874 97.996159 
L 250.938618 98.371841 
L 251.113363 98.482309 
L 251.637596 98.672175 
L 251.81234 99.239892 
L 252.336574 97.778831 
L 252.860807 98.369456 
L 253.035551 98.225658 
L 253.210296 98.934126 
L 253.38504 98.600222 
L 253.559785 97.597699 
L 254.258762 96.878601 
L 254.782996 95.436468 
L 255.307229 95.400613 
L 255.481973 95.779926 
L 255.656718 95.579831 
L 256.006207 95.696461 
L 256.53044 94.999772 
L 256.705184 95.293911 
L 257.054673 94.816579 
L 257.229418 94.740776 
L 257.928395 95.152304 
L 258.10314 94.175987 
L 258.277884 94.557154 
L 258.452629 93.896814 
L 258.976862 92.980922 
L 259.151606 92.937611 
L 259.326351 92.416107 
L 259.501095 92.618527 
L 259.67584 92.433167 
L 260.200073 92.344368 
L 260.374817 92.031817 
L 260.549562 92.081024 
L 260.724306 91.858964 
L 260.899051 91.943501 
L 261.423284 91.796586 
L 261.598028 92.098617 
L 261.772773 92.050752 
L 261.947517 92.417097 
L 262.122262 92.440508 
L 262.646495 93.751905 
L 262.821239 93.577703 
L 262.995984 94.522815 
L 263.170728 93.837407 
L 263.345473 94.07329 
L 263.869706 93.833936 
L 264.04445 94.321678 
L 265.092917 92.677467 
L 265.267661 92.31796 
L 265.442406 92.773539 
L 265.791895 92.320036 
L 266.316128 92.262445 
L 266.665617 91.487564 
L 266.840361 91.729757 
L 267.015106 91.352987 
L 267.714083 91.322402 
L 267.888828 90.590933 
L 268.063572 90.472277 
L 268.76255 91.616605 
L 268.937294 91.136556 
L 269.112039 91.073102 
L 269.286783 90.267574 
L 269.461527 90.214719 
L 270.33525 89.359776 
L 270.509994 89.329502 
L 270.684738 89.594395 
L 271.208972 89.823491 
L 271.383716 89.214158 
L 271.558461 89.932799 
L 271.733205 89.260132 
L 271.907949 89.20472 
L 272.432183 88.839836 
L 272.606927 88.325021 
L 273.13116 87.686943 
L 273.655394 86.949436 
L 273.830138 86.908496 
L 274.004883 86.398588 
L 274.179627 86.310547 
L 274.354371 86.031152 
L 275.053349 85.488186 
L 275.228094 86.027111 
L 275.402838 85.985969 
L 275.577582 85.709259 
L 276.101816 85.758486 
L 276.27656 85.180615 
L 276.451305 85.254048 
L 276.800793 84.783262 
L 277.325027 85.560921 
L 277.499771 84.952561 
L 277.674516 85.735301 
L 277.84926 85.369782 
L 278.024004 85.467105 
L 278.548238 85.476524 
L 278.722982 84.969418 
L 278.897727 85.354049 
L 279.072471 85.190967 
L 279.247215 84.811127 
L 279.771449 84.587996 
L 279.946193 85.076472 
L 280.120938 84.876136 
L 280.470426 86.223886 
L 281.169404 86.565342 
L 281.518893 90.663312 
L 281.693637 89.367233 
L 282.217871 89.666484 
L 282.392615 87.635182 
L 282.56736 87.487922 
L 282.916848 88.792747 
L 283.441082 88.675627 
L 283.615826 89.205772 
L 283.790571 91.148738 
L 283.965315 90.368133 
L 284.140059 91.667061 
L 284.664293 92.193574 
L 285.013781 89.65611 
L 285.188526 88.595403 
L 285.36327 88.650791 
L 285.887504 88.202669 
L 286.062248 87.553555 
L 286.236992 85.68521 
L 286.586481 86.386802 
L 287.110715 88.157345 
L 287.285459 88.037852 
L 287.460203 88.579701 
L 287.634948 87.626193 
L 287.809692 87.897707 
L 288.333926 89.323327 
L 288.50867 90.357612 
L 288.683414 90.12358 
L 289.032903 90.35626 
L 289.557137 89.184125 
L 289.731881 89.095799 
L 289.906625 87.164056 
L 290.08137 87.029882 
L 290.256114 86.309199 
L 290.780348 85.254072 
L 290.955092 87.655666 
L 291.304581 87.655145 
L 291.479325 89.46484 
L 292.003559 89.29525 
L 292.178303 89.357163 
L 292.353047 88.775929 
L 292.527792 88.773682 
L 292.702536 89.730978 
L 293.22677 91.512411 
L 293.401514 91.279289 
L 293.925747 94.053395 
L 294.449981 95.933325 
L 294.974214 92.004102 
L 295.148958 91.992314 
L 295.673192 91.188424 
L 296.02268 91.50506 
L 296.197425 92.983604 
L 296.372169 90.826986 
L 296.896403 89.913183 
L 297.071147 88.92234 
L 297.245891 88.65642 
L 297.420636 87.923065 
L 297.59538 87.672119 
L 298.119614 88.160295 
L 298.294358 87.110315 
L 298.469102 86.927229 
L 298.643847 86.255558 
L 298.818591 85.128538 
L 299.517569 86.188836 
L 299.692313 85.991207 
L 300.041802 84.602688 
L 300.74078 85.299222 
L 301.090269 83.070875 
L 301.789246 82.669367 
L 302.138735 81.83503 
L 302.31348 81.962812 
L 302.488224 81.591748 
L 303.012457 81.490418 
L 303.361946 80.01601 
L 303.536691 79.608668 
L 303.711435 78.645374 
L 304.410413 78.700693 
L 304.759902 77.880986 
L 304.934646 76.857947 
L 305.458879 76.777685 
L 305.633624 77.060378 
L 305.808368 76.914206 
L 306.157857 76.112932 
L 306.856835 76.658379 
L 307.206324 77.684865 
L 307.381068 77.463299 
L 308.25479 75.480624 
L 308.429535 75.55954 
L 308.604279 74.500876 
L 309.303257 73.813428 
L 309.478001 74.026833 
L 309.652746 72.646711 
L 309.82749 74.021201 
L 310.351723 73.802465 
L 310.526468 73.061829 
L 310.701212 73.571245 
L 311.050701 72.160927 
L 311.749679 70.826263 
L 312.273912 69.854477 
L 312.798145 69.697006 
L 312.97289 70.108121 
L 313.322379 69.544677 
L 313.497123 68.637769 
L 314.021356 68.740828 
L 314.196101 68.284836 
L 314.370845 68.704908 
L 314.54559 68.150483 
L 315.244567 67.961778 
L 315.419312 66.818604 
L 315.594056 66.721628 
L 315.768801 67.253816 
L 315.943545 66.360517 
L 316.467778 66.259528 
L 316.642523 65.550379 
L 316.817267 66.005374 
L 316.992012 65.744193 
L 317.166756 64.467666 
L 317.690989 64.779309 
L 317.865734 66.148054 
L 318.215223 66.019017 
L 318.389967 65.438921 
L 318.9142 67.672275 
L 319.438434 64.484844 
L 319.613178 65.208093 
L 320.137411 65.8349 
L 320.312156 64.758467 
L 320.4869 64.794547 
L 320.661645 65.477875 
L 320.836389 65.177786 
L 321.535367 65.591668 
L 321.710111 65.916113 
L 321.884856 64.842065 
L 322.0596 65.634428 
L 322.583833 65.74566 
L 322.933322 61.969611 
L 323.282811 60.336461 
L 323.807044 59.588919 
L 323.981789 60.398682 
L 324.156533 60.609305 
L 324.331278 60.188206 
L 324.506022 60.365881 
L 325.030255 60.514605 
L 325.554489 57.516819 
L 325.729233 58.115369 
L 326.253466 58.194701 
L 326.602955 59.528516 
L 326.952444 57.607619 
L 327.651422 56.612674 
L 327.651422 56.612674 
" clip-path="url(#pe1d41dfad2)" style="fill: none; stroke: #e24a33; stroke-width: 1.5; stroke-linecap: square"/>
   </g>
   <g id="patch_3">
    <path d="M 26.925 164.398836 
L 26.925 51.48 
" style="fill: none; stroke: #ffffff; stroke-linejoin: miter; stroke-linecap: square"/>
   </g>
   <g id="patch_4">
    <path d="M 341.971727 164.398836 
L 341.971727 51.48 
" style="fill: none; stroke: #ffffff; stroke-linejoin: miter; stroke-linecap: square"/>
   </g>
   <g id="patch_5">
    <path d="M 26.925 164.398836 
L 341.971727 164.398836 
" style="fill: none; stroke: #ffffff; stroke-linejoin: miter; stroke-linecap: square"/>
   </g>
   <g id="patch_6">
    <path d="M 26.925 51.48 
L 341.971727 51.48 
" style="fill: none; stroke: #ffffff; stroke-linejoin: miter; stroke-linecap: square"/>
   </g>
   <g id="text_16">
    <!-- In sample: SR = 0.30141 -->
    <g transform="translate(122.070239 45.48)scale(0.1 -0.1)">
     <defs>
      <path id="DejaVuSans-49" d="M 628 4666 
L 1259 4666 
L 1259 0 
L 628 0 
L 628 4666 
z
" transform="scale(0.015625)"/>
      <path id="DejaVuSans-6e" d="M 3513 2113 
L 3513 0 
L 2938 0 
L 2938 2094 
Q 2938 2591 2744 2837 
Q 2550 3084 2163 3084 
Q 1697 3084 1428 2787 
Q 1159 2491 1159 1978 
L 1159 0 
L 581 0 
L 581 3500 
L 1159 3500 
L 1159 2956 
Q 1366 3272 1645 3428 
Q 1925 3584 2291 3584 
Q 2894 3584 3203 3211 
Q 3513 2838 3513 2113 
z
" transform="scale(0.015625)"/>
      <path id="DejaVuSans-20" transform="scale(0.015625)"/>
      <path id="DejaVuSans-73" d="M 2834 3397 
L 2834 2853 
Q 2591 2978 2328 3040 
Q 2066 3103 1784 3103 
Q 1356 3103 1142 2972 
Q 928 2841 928 2578 
Q 928 2378 1081 2264 
Q 1234 2150 1697 2047 
L 1894 2003 
Q 2506 1872 2764 1633 
Q 3022 1394 3022 966 
Q 3022 478 2636 193 
Q 2250 -91 1575 -91 
Q 1294 -91 989 -36 
Q 684 19 347 128 
L 347 722 
Q 666 556 975 473 
Q 1284 391 1588 391 
Q 1994 391 2212 530 
Q 2431 669 2431 922 
Q 2431 1156 2273 1281 
Q 2116 1406 1581 1522 
L 1381 1569 
Q 847 1681 609 1914 
Q 372 2147 372 2553 
Q 372 3047 722 3315 
Q 1072 3584 1716 3584 
Q 2034 3584 2315 3537 
Q 2597 3491 2834 3397 
z
" transform="scale(0.015625)"/>
      <path id="DejaVuSans-61" d="M 2194 1759 
Q 1497 1759 1228 1600 
Q 959 1441 959 1056 
Q 959 750 1161 570 
Q 1363 391 1709 391 
Q 2188 391 2477 730 
Q 2766 1069 2766 1631 
L 2766 1759 
L 2194 1759 
z
M 3341 1997 
L 3341 0 
L 2766 0 
L 2766 531 
Q 2569 213 2275 61 
Q 1981 -91 1556 -91 
Q 1019 -91 701 211 
Q 384 513 384 1019 
Q 384 1609 779 1909 
Q 1175 2209 1959 2209 
L 2766 2209 
L 2766 2266 
Q 2766 2663 2505 2880 
Q 2244 3097 1772 3097 
Q 1472 3097 1187 3025 
Q 903 2953 641 2809 
L 641 3341 
Q 956 3463 1253 3523 
Q 1550 3584 1831 3584 
Q 2591 3584 2966 3190 
Q 3341 2797 3341 1997 
z
" transform="scale(0.015625)"/>
      <path id="DejaVuSans-6d" d="M 3328 2828 
Q 3544 3216 3844 3400 
Q 4144 3584 4550 3584 
Q 5097 3584 5394 3201 
Q 5691 2819 5691 2113 
L 5691 0 
L 5113 0 
L 5113 2094 
Q 5113 2597 4934 2840 
Q 4756 3084 4391 3084 
Q 3944 3084 3684 2787 
Q 3425 2491 3425 1978 
L 3425 0 
L 2847 0 
L 2847 2094 
Q 2847 2600 2669 2842 
Q 2491 3084 2119 3084 
Q 1678 3084 1418 2786 
Q 1159 2488 1159 1978 
L 1159 0 
L 581 0 
L 581 3500 
L 1159 3500 
L 1159 2956 
Q 1356 3278 1631 3431 
Q 1906 3584 2284 3584 
Q 2666 3584 2933 3390 
Q 3200 3197 3328 2828 
z
" transform="scale(0.015625)"/>
      <path id="DejaVuSans-70" d="M 1159 525 
L 1159 -1331 
L 581 -1331 
L 581 3500 
L 1159 3500 
L 1159 2969 
Q 1341 3281 1617 3432 
Q 1894 3584 2278 3584 
Q 2916 3584 3314 3078 
Q 3713 2572 3713 1747 
Q 3713 922 3314 415 
Q 2916 -91 2278 -91 
Q 1894 -91 1617 61 
Q 1341 213 1159 525 
z
M 3116 1747 
Q 3116 2381 2855 2742 
Q 2594 3103 2138 3103 
Q 1681 3103 1420 2742 
Q 1159 2381 1159 1747 
Q 1159 1113 1420 752 
Q 1681 391 2138 391 
Q 2594 391 2855 752 
Q 3116 1113 3116 1747 
z
" transform="scale(0.015625)"/>
      <path id="DejaVuSans-6c" d="M 603 4863 
L 1178 4863 
L 1178 0 
L 603 0 
L 603 4863 
z
" transform="scale(0.015625)"/>
      <path id="DejaVuSans-65" d="M 3597 1894 
L 3597 1613 
L 953 1613 
Q 991 1019 1311 708 
Q 1631 397 2203 397 
Q 2534 397 2845 478 
Q 3156 559 3463 722 
L 3463 178 
Q 3153 47 2828 -22 
Q 2503 -91 2169 -91 
Q 1331 -91 842 396 
Q 353 884 353 1716 
Q 353 2575 817 3079 
Q 1281 3584 2069 3584 
Q 2775 3584 3186 3129 
Q 3597 2675 3597 1894 
z
M 3022 2063 
Q 3016 2534 2758 2815 
Q 2500 3097 2075 3097 
Q 1594 3097 1305 2825 
Q 1016 2553 972 2059 
L 3022 2063 
z
" transform="scale(0.015625)"/>
      <path id="DejaVuSans-3a" d="M 750 794 
L 1409 794 
L 1409 0 
L 750 0 
L 750 794 
z
M 750 3309 
L 1409 3309 
L 1409 2516 
L 750 2516 
L 750 3309 
z
" transform="scale(0.015625)"/>
      <path id="DejaVuSans-53" d="M 3425 4513 
L 3425 3897 
Q 3066 4069 2747 4153 
Q 2428 4238 2131 4238 
Q 1616 4238 1336 4038 
Q 1056 3838 1056 3469 
Q 1056 3159 1242 3001 
Q 1428 2844 1947 2747 
L 2328 2669 
Q 3034 2534 3370 2195 
Q 3706 1856 3706 1288 
Q 3706 609 3251 259 
Q 2797 -91 1919 -91 
Q 1588 -91 1214 -16 
Q 841 59 441 206 
L 441 856 
Q 825 641 1194 531 
Q 1563 422 1919 422 
Q 2459 422 2753 634 
Q 3047 847 3047 1241 
Q 3047 1584 2836 1778 
Q 2625 1972 2144 2069 
L 1759 2144 
Q 1053 2284 737 2584 
Q 422 2884 422 3419 
Q 422 4038 858 4394 
Q 1294 4750 2059 4750 
Q 2388 4750 2728 4690 
Q 3069 4631 3425 4513 
z
" transform="scale(0.015625)"/>
      <path id="DejaVuSans-52" d="M 2841 2188 
Q 3044 2119 3236 1894 
Q 3428 1669 3622 1275 
L 4263 0 
L 3584 0 
L 2988 1197 
Q 2756 1666 2539 1819 
Q 2322 1972 1947 1972 
L 1259 1972 
L 1259 0 
L 628 0 
L 628 4666 
L 2053 4666 
Q 2853 4666 3247 4331 
Q 3641 3997 3641 3322 
Q 3641 2881 3436 2590 
Q 3231 2300 2841 2188 
z
M 1259 4147 
L 1259 2491 
L 2053 2491 
Q 2509 2491 2742 2702 
Q 2975 2913 2975 3322 
Q 2975 3731 2742 3939 
Q 2509 4147 2053 4147 
L 1259 4147 
z
" transform="scale(0.015625)"/>
      <path id="DejaVuSans-3d" d="M 678 2906 
L 4684 2906 
L 4684 2381 
L 678 2381 
L 678 2906 
z
M 678 1631 
L 4684 1631 
L 4684 1100 
L 678 1100 
L 678 1631 
z
" transform="scale(0.015625)"/>
      <path id="DejaVuSans-2e" d="M 684 794 
L 1344 794 
L 1344 0 
L 684 0 
L 684 794 
z
" transform="scale(0.015625)"/>
      <path id="DejaVuSans-33" d="M 2597 2516 
Q 3050 2419 3304 2112 
Q 3559 1806 3559 1356 
Q 3559 666 3084 287 
Q 2609 -91 1734 -91 
Q 1441 -91 1130 -33 
Q 819 25 488 141 
L 488 750 
Q 750 597 1062 519 
Q 1375 441 1716 441 
Q 2309 441 2620 675 
Q 2931 909 2931 1356 
Q 2931 1769 2642 2001 
Q 2353 2234 1838 2234 
L 1294 2234 
L 1294 2753 
L 1863 2753 
Q 2328 2753 2575 2939 
Q 2822 3125 2822 3475 
Q 2822 3834 2567 4026 
Q 2313 4219 1838 4219 
Q 1578 4219 1281 4162 
Q 984 4106 628 3988 
L 628 4550 
Q 988 4650 1302 4700 
Q 1616 4750 1894 4750 
Q 2613 4750 3031 4423 
Q 3450 4097 3450 3541 
Q 3450 3153 3228 2886 
Q 3006 2619 2597 2516 
z
" transform="scale(0.015625)"/>
      <path id="DejaVuSans-34" d="M 2419 4116 
L 825 1625 
L 2419 1625 
L 2419 4116 
z
M 2253 4666 
L 3047 4666 
L 3047 1625 
L 3713 1625 
L 3713 1100 
L 3047 1100 
L 3047 0 
L 2419 0 
L 2419 1100 
L 313 1100 
L 313 1709 
L 2253 4666 
z
" transform="scale(0.015625)"/>
     </defs>
     <use xlink:href="#DejaVuSans-49"/>
     <use xlink:href="#DejaVuSans-6e" x="29.492188"/>
     <use xlink:href="#DejaVuSans-20" x="92.871094"/>
     <use xlink:href="#DejaVuSans-73" x="124.658203"/>
     <use xlink:href="#DejaVuSans-61" x="176.757812"/>
     <use xlink:href="#DejaVuSans-6d" x="238.037109"/>
     <use xlink:href="#DejaVuSans-70" x="335.449219"/>
     <use xlink:href="#DejaVuSans-6c" x="398.925781"/>
     <use xlink:href="#DejaVuSans-65" x="426.708984"/>
     <use xlink:href="#DejaVuSans-3a" x="488.232422"/>
     <use xlink:href="#DejaVuSans-20" x="521.923828"/>
     <use xlink:href="#DejaVuSans-53" x="553.710938"/>
     <use xlink:href="#DejaVuSans-52" x="617.1875"/>
     <use xlink:href="#DejaVuSans-20" x="686.669922"/>
     <use xlink:href="#DejaVuSans-3d" x="718.457031"/>
     <use xlink:href="#DejaVuSans-20" x="802.246094"/>
     <use xlink:href="#DejaVuSans-30" x="834.033203"/>
     <use xlink:href="#DejaVuSans-2e" x="897.65625"/>
     <use xlink:href="#DejaVuSans-33" x="929.443359"/>
     <use xlink:href="#DejaVuSans-30" x="993.066406"/>
     <use xlink:href="#DejaVuSans-31" x="1056.689453"/>
     <use xlink:href="#DejaVuSans-34" x="1120.3125"/>
     <use xlink:href="#DejaVuSans-31" x="1183.935547"/>
    </g>
   </g>
  </g>
  <g id="axes_2">
   <g id="patch_7">
    <path d="M 382.442702 164.398836 
L 697.489429 164.398836 
L 697.489429 51.48 
L 382.442702 51.48 
z
" style="fill: #e5e5e5"/>
   </g>
   <g id="matplotlib.axis_3">
    <g id="xtick_11">
     <g id="line2d_32">
      <path d="M 393.598299 164.398836 
L 393.598299 51.48 
" clip-path="url(#pb0b37449fd)" style="fill: none; stroke: #ffffff; stroke-width: 0.8; stroke-linecap: square"/>
     </g>
     <g id="line2d_33">
      <g>
       <use xlink:href="#m14e8b4d766" x="393.598299" y="164.398836" style="fill: #555555; stroke: #555555; stroke-width: 0.8"/>
      </g>
     </g>
     <g id="text_17">
      <!-- 2019-07 -->
      <g style="fill: #555555" transform="translate(376.874671 176.771742)rotate(-315)scale(0.1 -0.1)">
       <use xlink:href="#DejaVuSans-32"/>
       <use xlink:href="#DejaVuSans-30" x="63.623047"/>
       <use xlink:href="#DejaVuSans-31" x="127.246094"/>
       <use xlink:href="#DejaVuSans-39" x="190.869141"/>
       <use xlink:href="#DejaVuSans-2d" x="254.492188"/>
       <use xlink:href="#DejaVuSans-30" x="290.576172"/>
       <use xlink:href="#DejaVuSans-37" x="354.199219"/>
      </g>
     </g>
    </g>
    <g id="xtick_12">
     <g id="line2d_34">
      <path d="M 442.65128 164.398836 
L 442.65128 51.48 
" clip-path="url(#pb0b37449fd)" style="fill: none; stroke: #ffffff; stroke-width: 0.8; stroke-linecap: square"/>
     </g>
     <g id="line2d_35">
      <g>
       <use xlink:href="#m14e8b4d766" x="442.65128" y="164.398836" style="fill: #555555; stroke: #555555; stroke-width: 0.8"/>
      </g>
     </g>
     <g id="text_18">
      <!-- 2019-08 -->
      <g style="fill: #555555" transform="translate(425.927652 176.771742)rotate(-315)scale(0.1 -0.1)">
       <use xlink:href="#DejaVuSans-32"/>
       <use xlink:href="#DejaVuSans-30" x="63.623047"/>
       <use xlink:href="#DejaVuSans-31" x="127.246094"/>
       <use xlink:href="#DejaVuSans-39" x="190.869141"/>
       <use xlink:href="#DejaVuSans-2d" x="254.492188"/>
       <use xlink:href="#DejaVuSans-30" x="290.576172"/>
       <use xlink:href="#DejaVuSans-38" x="354.199219"/>
      </g>
     </g>
    </g>
    <g id="xtick_13">
     <g id="line2d_36">
      <path d="M 491.704261 164.398836 
L 491.704261 51.48 
" clip-path="url(#pb0b37449fd)" style="fill: none; stroke: #ffffff; stroke-width: 0.8; stroke-linecap: square"/>
     </g>
     <g id="line2d_37">
      <g>
       <use xlink:href="#m14e8b4d766" x="491.704261" y="164.398836" style="fill: #555555; stroke: #555555; stroke-width: 0.8"/>
      </g>
     </g>
     <g id="text_19">
      <!-- 2019-09 -->
      <g style="fill: #555555" transform="translate(474.980633 176.771742)rotate(-315)scale(0.1 -0.1)">
       <use xlink:href="#DejaVuSans-32"/>
       <use xlink:href="#DejaVuSans-30" x="63.623047"/>
       <use xlink:href="#DejaVuSans-31" x="127.246094"/>
       <use xlink:href="#DejaVuSans-39" x="190.869141"/>
       <use xlink:href="#DejaVuSans-2d" x="254.492188"/>
       <use xlink:href="#DejaVuSans-30" x="290.576172"/>
       <use xlink:href="#DejaVuSans-39" x="354.199219"/>
      </g>
     </g>
    </g>
    <g id="xtick_14">
     <g id="line2d_38">
      <path d="M 539.174888 164.398836 
L 539.174888 51.48 
" clip-path="url(#pb0b37449fd)" style="fill: none; stroke: #ffffff; stroke-width: 0.8; stroke-linecap: square"/>
     </g>
     <g id="line2d_39">
      <g>
       <use xlink:href="#m14e8b4d766" x="539.174888" y="164.398836" style="fill: #555555; stroke: #555555; stroke-width: 0.8"/>
      </g>
     </g>
     <g id="text_20">
      <!-- 2019-10 -->
      <g style="fill: #555555" transform="translate(522.45126 176.771742)rotate(-315)scale(0.1 -0.1)">
       <use xlink:href="#DejaVuSans-32"/>
       <use xlink:href="#DejaVuSans-30" x="63.623047"/>
       <use xlink:href="#DejaVuSans-31" x="127.246094"/>
       <use xlink:href="#DejaVuSans-39" x="190.869141"/>
       <use xlink:href="#DejaVuSans-2d" x="254.492188"/>
       <use xlink:href="#DejaVuSans-31" x="290.576172"/>
       <use xlink:href="#DejaVuSans-30" x="354.199219"/>
      </g>
     </g>
    </g>
    <g id="xtick_15">
     <g id="line2d_40">
      <path d="M 588.227869 164.398836 
L 588.227869 51.48 
" clip-path="url(#pb0b37449fd)" style="fill: none; stroke: #ffffff; stroke-width: 0.8; stroke-linecap: square"/>
     </g>
     <g id="line2d_41">
      <g>
       <use xlink:href="#m14e8b4d766" x="588.227869" y="164.398836" style="fill: #555555; stroke: #555555; stroke-width: 0.8"/>
      </g>
     </g>
     <g id="text_21">
      <!-- 2019-11 -->
      <g style="fill: #555555" transform="translate(571.504242 176.771742)rotate(-315)scale(0.1 -0.1)">
       <use xlink:href="#DejaVuSans-32"/>
       <use xlink:href="#DejaVuSans-30" x="63.623047"/>
       <use xlink:href="#DejaVuSans-31" x="127.246094"/>
       <use xlink:href="#DejaVuSans-39" x="190.869141"/>
       <use xlink:href="#DejaVuSans-2d" x="254.492188"/>
       <use xlink:href="#DejaVuSans-31" x="290.576172"/>
       <use xlink:href="#DejaVuSans-31" x="354.199219"/>
      </g>
     </g>
    </g>
    <g id="xtick_16">
     <g id="line2d_42">
      <path d="M 635.698496 164.398836 
L 635.698496 51.48 
" clip-path="url(#pb0b37449fd)" style="fill: none; stroke: #ffffff; stroke-width: 0.8; stroke-linecap: square"/>
     </g>
     <g id="line2d_43">
      <g>
       <use xlink:href="#m14e8b4d766" x="635.698496" y="164.398836" style="fill: #555555; stroke: #555555; stroke-width: 0.8"/>
      </g>
     </g>
     <g id="text_22">
      <!-- 2019-12 -->
      <g style="fill: #555555" transform="translate(618.974869 176.771742)rotate(-315)scale(0.1 -0.1)">
       <use xlink:href="#DejaVuSans-32"/>
       <use xlink:href="#DejaVuSans-30" x="63.623047"/>
       <use xlink:href="#DejaVuSans-31" x="127.246094"/>
       <use xlink:href="#DejaVuSans-39" x="190.869141"/>
       <use xlink:href="#DejaVuSans-2d" x="254.492188"/>
       <use xlink:href="#DejaVuSans-31" x="290.576172"/>
       <use xlink:href="#DejaVuSans-32" x="354.199219"/>
      </g>
     </g>
    </g>
    <g id="xtick_17">
     <g id="line2d_44">
      <path d="M 684.751477 164.398836 
L 684.751477 51.48 
" clip-path="url(#pb0b37449fd)" style="fill: none; stroke: #ffffff; stroke-width: 0.8; stroke-linecap: square"/>
     </g>
     <g id="line2d_45">
      <g>
       <use xlink:href="#m14e8b4d766" x="684.751477" y="164.398836" style="fill: #555555; stroke: #555555; stroke-width: 0.8"/>
      </g>
     </g>
     <g id="text_23">
      <!-- 2020-01 -->
      <g style="fill: #555555" transform="translate(668.02785 176.771742)rotate(-315)scale(0.1 -0.1)">
       <use xlink:href="#DejaVuSans-32"/>
       <use xlink:href="#DejaVuSans-30" x="63.623047"/>
       <use xlink:href="#DejaVuSans-32" x="127.246094"/>
       <use xlink:href="#DejaVuSans-30" x="190.869141"/>
       <use xlink:href="#DejaVuSans-2d" x="254.492188"/>
       <use xlink:href="#DejaVuSans-30" x="290.576172"/>
       <use xlink:href="#DejaVuSans-31" x="354.199219"/>
      </g>
     </g>
    </g>
   </g>
   <g id="matplotlib.axis_4">
    <g id="ytick_6">
     <g id="line2d_46">
      <path d="M 382.442702 146.969417 
L 697.489429 146.969417 
" clip-path="url(#pb0b37449fd)" style="fill: none; stroke: #ffffff; stroke-width: 0.8; stroke-linecap: square"/>
     </g>
     <g id="line2d_47">
      <g>
       <use xlink:href="#m7040b702ef" x="382.442702" y="146.969417" style="fill: #555555; stroke: #555555; stroke-width: 0.8"/>
      </g>
     </g>
     <g id="text_24">
      <!-- 1.0 -->
      <g style="fill: #555555" transform="translate(359.539577 150.768636)scale(0.1 -0.1)">
       <use xlink:href="#DejaVuSans-31"/>
       <use xlink:href="#DejaVuSans-2e" x="63.623047"/>
       <use xlink:href="#DejaVuSans-30" x="95.410156"/>
      </g>
     </g>
    </g>
    <g id="ytick_7">
     <g id="line2d_48">
      <path d="M 382.442702 121.098315 
L 697.489429 121.098315 
" clip-path="url(#pb0b37449fd)" style="fill: none; stroke: #ffffff; stroke-width: 0.8; stroke-linecap: square"/>
     </g>
     <g id="line2d_49">
      <g>
       <use xlink:href="#m7040b702ef" x="382.442702" y="121.098315" style="fill: #555555; stroke: #555555; stroke-width: 0.8"/>
      </g>
     </g>
     <g id="text_25">
      <!-- 1.2 -->
      <g style="fill: #555555" transform="translate(359.539577 124.897533)scale(0.1 -0.1)">
       <use xlink:href="#DejaVuSans-31"/>
       <use xlink:href="#DejaVuSans-2e" x="63.623047"/>
       <use xlink:href="#DejaVuSans-32" x="95.410156"/>
      </g>
     </g>
    </g>
    <g id="ytick_8">
     <g id="line2d_50">
      <path d="M 382.442702 95.227212 
L 697.489429 95.227212 
" clip-path="url(#pb0b37449fd)" style="fill: none; stroke: #ffffff; stroke-width: 0.8; stroke-linecap: square"/>
     </g>
     <g id="line2d_51">
      <g>
       <use xlink:href="#m7040b702ef" x="382.442702" y="95.227212" style="fill: #555555; stroke: #555555; stroke-width: 0.8"/>
      </g>
     </g>
     <g id="text_26">
      <!-- 1.4 -->
      <g style="fill: #555555" transform="translate(359.539577 99.026431)scale(0.1 -0.1)">
       <use xlink:href="#DejaVuSans-31"/>
       <use xlink:href="#DejaVuSans-2e" x="63.623047"/>
       <use xlink:href="#DejaVuSans-34" x="95.410156"/>
      </g>
     </g>
    </g>
    <g id="ytick_9">
     <g id="line2d_52">
      <path d="M 382.442702 69.35611 
L 697.489429 69.35611 
" clip-path="url(#pb0b37449fd)" style="fill: none; stroke: #ffffff; stroke-width: 0.8; stroke-linecap: square"/>
     </g>
     <g id="line2d_53">
      <g>
       <use xlink:href="#m7040b702ef" x="382.442702" y="69.35611" style="fill: #555555; stroke: #555555; stroke-width: 0.8"/>
      </g>
     </g>
     <g id="text_27">
      <!-- 1.6 -->
      <g style="fill: #555555" transform="translate(359.539577 73.155328)scale(0.1 -0.1)">
       <use xlink:href="#DejaVuSans-31"/>
       <use xlink:href="#DejaVuSans-2e" x="63.623047"/>
       <use xlink:href="#DejaVuSans-36" x="95.410156"/>
      </g>
     </g>
    </g>
   </g>
   <g id="line2d_54">
    <path d="M 396.763007 150.366758 
L 399.927716 147.775186 
L 404.674779 145.78293 
L 406.257133 140.086488 
L 407.839487 137.956677 
L 409.421841 130.243961 
L 411.004195 134.612464 
L 415.751258 133.817008 
L 417.333612 133.733576 
L 418.915967 133.500257 
L 420.498321 127.415658 
L 422.080675 132.804065 
L 426.827738 132.360602 
L 428.410092 136.015266 
L 429.992446 145.381524 
L 431.5748 135.401318 
L 433.157155 135.407893 
L 437.904217 133.46184 
L 439.486572 126.449253 
L 441.068926 130.410885 
L 442.65128 127.001199 
L 444.233634 129.446601 
L 448.980697 131.78187 
L 450.563051 116.556787 
L 452.145405 120.331009 
L 453.72776 110.32532 
L 455.310114 97.576839 
L 460.057177 96.642231 
L 461.639531 91.093791 
L 463.221885 95.889452 
L 464.804239 86.289734 
L 466.386594 85.151628 
L 471.133656 82.015268 
L 472.71601 83.525395 
L 474.298365 83.474488 
L 475.880719 75.442572 
L 477.463073 81.046347 
L 482.210136 74.705836 
L 483.79249 65.746944 
L 485.374844 63.729653 
L 486.957199 56.612674 
L 488.539553 63.762794 
L 494.86897 71.15312 
L 496.451324 71.381302 
L 498.033678 74.920415 
L 499.616032 72.371463 
L 504.363095 93.60348 
L 505.945449 121.245323 
L 507.527804 134.813731 
L 509.110158 127.698744 
L 510.692512 129.279913 
L 515.439575 128.155451 
L 517.021929 114.097662 
L 518.604283 107.019977 
L 520.186637 110.499924 
L 521.768992 116.657598 
L 526.516054 116.833441 
L 528.098409 112.517306 
L 529.680763 115.50206 
L 531.263117 110.729823 
L 532.845471 116.402891 
L 537.592534 115.081433 
L 539.174888 104.62722 
L 540.757242 100.11837 
L 542.339597 95.892137 
L 543.921951 94.478003 
L 548.669014 98.584285 
L 550.251368 99.972443 
L 551.833722 95.181683 
L 553.416076 96.949954 
L 554.998431 104.909374 
L 559.745493 105.902799 
L 561.327847 110.044435 
L 562.910202 112.306932 
L 564.492556 106.160124 
L 566.07491 106.50384 
L 570.821973 111.038548 
L 572.404327 118.09524 
L 573.986681 118.739049 
L 575.569036 118.043436 
L 577.15139 117.205376 
L 581.898452 123.848784 
L 583.480807 116.511085 
L 585.063161 110.449306 
L 586.645515 111.707126 
L 588.227869 124.314864 
L 592.974932 143.703434 
L 594.557286 154.646894 
L 596.139641 150.943435 
L 597.721995 157.152909 
L 599.304349 159.266161 
L 604.051412 150.012749 
L 605.633766 147.851002 
L 607.21612 141.306154 
L 608.798474 132.240895 
L 610.380829 138.62352 
L 615.127891 143.489278 
L 616.710246 136.51457 
L 618.2926 132.45966 
L 619.874954 135.300324 
L 621.457308 143.328587 
L 626.204371 148.591859 
L 627.786725 133.419645 
L 629.369079 138.783513 
L 632.533788 138.791946 
L 637.280851 142.161918 
L 638.863205 135.86727 
L 640.445559 132.776016 
L 642.027913 134.505046 
L 643.610267 141.542506 
L 648.35733 143.391342 
L 649.939684 139.393661 
L 651.522039 142.253108 
L 653.104393 143.290298 
L 654.686747 136.154461 
L 659.43381 140.797332 
L 661.016164 135.736273 
L 662.598518 132.973569 
L 664.180872 139.147046 
L 665.763227 133.675966 
L 670.510289 139.215267 
L 672.092644 137.052121 
L 675.257352 135.740372 
L 676.839706 137.118251 
L 681.586769 136.935609 
L 683.169123 141.5291 
" clip-path="url(#pb0b37449fd)" style="fill: none; stroke: #e24a33; stroke-width: 1.5; stroke-linecap: square"/>
   </g>
   <g id="patch_8">
    <path d="M 382.442702 164.398836 
L 382.442702 51.48 
" style="fill: none; stroke: #ffffff; stroke-linejoin: miter; stroke-linecap: square"/>
   </g>
   <g id="patch_9">
    <path d="M 697.489429 164.398836 
L 697.489429 51.48 
" style="fill: none; stroke: #ffffff; stroke-linejoin: miter; stroke-linecap: square"/>
   </g>
   <g id="patch_10">
    <path d="M 382.442702 164.398836 
L 697.489429 164.398836 
" style="fill: none; stroke: #ffffff; stroke-linejoin: miter; stroke-linecap: square"/>
   </g>
   <g id="patch_11">
    <path d="M 382.442702 51.48 
L 697.489429 51.48 
" style="fill: none; stroke: #ffffff; stroke-linejoin: miter; stroke-linecap: square"/>
   </g>
   <g id="text_28">
    <!-- Out of sample: SR = 0.00019 -->
    <g transform="translate(466.758253 45.48)scale(0.1 -0.1)">
     <defs>
      <path id="DejaVuSans-4f" d="M 2522 4238 
Q 1834 4238 1429 3725 
Q 1025 3213 1025 2328 
Q 1025 1447 1429 934 
Q 1834 422 2522 422 
Q 3209 422 3611 934 
Q 4013 1447 4013 2328 
Q 4013 3213 3611 3725 
Q 3209 4238 2522 4238 
z
M 2522 4750 
Q 3503 4750 4090 4092 
Q 4678 3434 4678 2328 
Q 4678 1225 4090 567 
Q 3503 -91 2522 -91 
Q 1538 -91 948 565 
Q 359 1222 359 2328 
Q 359 3434 948 4092 
Q 1538 4750 2522 4750 
z
" transform="scale(0.015625)"/>
      <path id="DejaVuSans-75" d="M 544 1381 
L 544 3500 
L 1119 3500 
L 1119 1403 
Q 1119 906 1312 657 
Q 1506 409 1894 409 
Q 2359 409 2629 706 
Q 2900 1003 2900 1516 
L 2900 3500 
L 3475 3500 
L 3475 0 
L 2900 0 
L 2900 538 
Q 2691 219 2414 64 
Q 2138 -91 1772 -91 
Q 1169 -91 856 284 
Q 544 659 544 1381 
z
M 1991 3584 
L 1991 3584 
z
" transform="scale(0.015625)"/>
      <path id="DejaVuSans-74" d="M 1172 4494 
L 1172 3500 
L 2356 3500 
L 2356 3053 
L 1172 3053 
L 1172 1153 
Q 1172 725 1289 603 
Q 1406 481 1766 481 
L 2356 481 
L 2356 0 
L 1766 0 
Q 1100 0 847 248 
Q 594 497 594 1153 
L 594 3053 
L 172 3053 
L 172 3500 
L 594 3500 
L 594 4494 
L 1172 4494 
z
" transform="scale(0.015625)"/>
      <path id="DejaVuSans-6f" d="M 1959 3097 
Q 1497 3097 1228 2736 
Q 959 2375 959 1747 
Q 959 1119 1226 758 
Q 1494 397 1959 397 
Q 2419 397 2687 759 
Q 2956 1122 2956 1747 
Q 2956 2369 2687 2733 
Q 2419 3097 1959 3097 
z
M 1959 3584 
Q 2709 3584 3137 3096 
Q 3566 2609 3566 1747 
Q 3566 888 3137 398 
Q 2709 -91 1959 -91 
Q 1206 -91 779 398 
Q 353 888 353 1747 
Q 353 2609 779 3096 
Q 1206 3584 1959 3584 
z
" transform="scale(0.015625)"/>
      <path id="DejaVuSans-66" d="M 2375 4863 
L 2375 4384 
L 1825 4384 
Q 1516 4384 1395 4259 
Q 1275 4134 1275 3809 
L 1275 3500 
L 2222 3500 
L 2222 3053 
L 1275 3053 
L 1275 0 
L 697 0 
L 697 3053 
L 147 3053 
L 147 3500 
L 697 3500 
L 697 3744 
Q 697 4328 969 4595 
Q 1241 4863 1831 4863 
L 2375 4863 
z
" transform="scale(0.015625)"/>
     </defs>
     <use xlink:href="#DejaVuSans-4f"/>
     <use xlink:href="#DejaVuSans-75" x="78.710938"/>
     <use xlink:href="#DejaVuSans-74" x="142.089844"/>
     <use xlink:href="#DejaVuSans-20" x="181.298828"/>
     <use xlink:href="#DejaVuSans-6f" x="213.085938"/>
     <use xlink:href="#DejaVuSans-66" x="274.267578"/>
     <use xlink:href="#DejaVuSans-20" x="309.472656"/>
     <use xlink:href="#DejaVuSans-73" x="341.259766"/>
     <use xlink:href="#DejaVuSans-61" x="393.359375"/>
     <use xlink:href="#DejaVuSans-6d" x="454.638672"/>
     <use xlink:href="#DejaVuSans-70" x="552.050781"/>
     <use xlink:href="#DejaVuSans-6c" x="615.527344"/>
     <use xlink:href="#DejaVuSans-65" x="643.310547"/>
     <use xlink:href="#DejaVuSans-3a" x="704.833984"/>
     <use xlink:href="#DejaVuSans-20" x="738.525391"/>
     <use xlink:href="#DejaVuSans-53" x="770.3125"/>
     <use xlink:href="#DejaVuSans-52" x="833.789062"/>
     <use xlink:href="#DejaVuSans-20" x="903.271484"/>
     <use xlink:href="#DejaVuSans-3d" x="935.058594"/>
     <use xlink:href="#DejaVuSans-20" x="1018.847656"/>
     <use xlink:href="#DejaVuSans-30" x="1050.634766"/>
     <use xlink:href="#DejaVuSans-2e" x="1114.257812"/>
     <use xlink:href="#DejaVuSans-30" x="1146.044922"/>
     <use xlink:href="#DejaVuSans-30" x="1209.667969"/>
     <use xlink:href="#DejaVuSans-30" x="1273.291016"/>
     <use xlink:href="#DejaVuSans-31" x="1336.914062"/>
     <use xlink:href="#DejaVuSans-39" x="1400.537109"/>
    </g>
   </g>
  </g>
  <g id="text_29">
   <!-- Naive correlation matrix -->
   <g transform="translate(283.735625 16.318125)scale(0.12 -0.12)">
    <defs>
     <path id="DejaVuSans-4e" d="M 628 4666 
L 1478 4666 
L 3547 763 
L 3547 4666 
L 4159 4666 
L 4159 0 
L 3309 0 
L 1241 3903 
L 1241 0 
L 628 0 
L 628 4666 
z
" transform="scale(0.015625)"/>
     <path id="DejaVuSans-69" d="M 603 3500 
L 1178 3500 
L 1178 0 
L 603 0 
L 603 3500 
z
M 603 4863 
L 1178 4863 
L 1178 4134 
L 603 4134 
L 603 4863 
z
" transform="scale(0.015625)"/>
     <path id="DejaVuSans-76" d="M 191 3500 
L 800 3500 
L 1894 563 
L 2988 3500 
L 3597 3500 
L 2284 0 
L 1503 0 
L 191 3500 
z
" transform="scale(0.015625)"/>
     <path id="DejaVuSans-63" d="M 3122 3366 
L 3122 2828 
Q 2878 2963 2633 3030 
Q 2388 3097 2138 3097 
Q 1578 3097 1268 2742 
Q 959 2388 959 1747 
Q 959 1106 1268 751 
Q 1578 397 2138 397 
Q 2388 397 2633 464 
Q 2878 531 3122 666 
L 3122 134 
Q 2881 22 2623 -34 
Q 2366 -91 2075 -91 
Q 1284 -91 818 406 
Q 353 903 353 1747 
Q 353 2603 823 3093 
Q 1294 3584 2113 3584 
Q 2378 3584 2631 3529 
Q 2884 3475 3122 3366 
z
" transform="scale(0.015625)"/>
     <path id="DejaVuSans-72" d="M 2631 2963 
Q 2534 3019 2420 3045 
Q 2306 3072 2169 3072 
Q 1681 3072 1420 2755 
Q 1159 2438 1159 1844 
L 1159 0 
L 581 0 
L 581 3500 
L 1159 3500 
L 1159 2956 
Q 1341 3275 1631 3429 
Q 1922 3584 2338 3584 
Q 2397 3584 2469 3576 
Q 2541 3569 2628 3553 
L 2631 2963 
z
" transform="scale(0.015625)"/>
     <path id="DejaVuSans-78" d="M 3513 3500 
L 2247 1797 
L 3578 0 
L 2900 0 
L 1881 1375 
L 863 0 
L 184 0 
L 1544 1831 
L 300 3500 
L 978 3500 
L 1906 2253 
L 2834 3500 
L 3513 3500 
z
" transform="scale(0.015625)"/>
    </defs>
    <use xlink:href="#DejaVuSans-4e"/>
    <use xlink:href="#DejaVuSans-61" x="74.804688"/>
    <use xlink:href="#DejaVuSans-69" x="136.083984"/>
    <use xlink:href="#DejaVuSans-76" x="163.867188"/>
    <use xlink:href="#DejaVuSans-65" x="223.046875"/>
    <use xlink:href="#DejaVuSans-20" x="284.570312"/>
    <use xlink:href="#DejaVuSans-63" x="316.357422"/>
    <use xlink:href="#DejaVuSans-6f" x="371.337891"/>
    <use xlink:href="#DejaVuSans-72" x="432.519531"/>
    <use xlink:href="#DejaVuSans-72" x="471.882812"/>
    <use xlink:href="#DejaVuSans-65" x="510.746094"/>
    <use xlink:href="#DejaVuSans-6c" x="572.269531"/>
    <use xlink:href="#DejaVuSans-61" x="600.052734"/>
    <use xlink:href="#DejaVuSans-74" x="661.332031"/>
    <use xlink:href="#DejaVuSans-69" x="700.541016"/>
    <use xlink:href="#DejaVuSans-6f" x="728.324219"/>
    <use xlink:href="#DejaVuSans-6e" x="789.505859"/>
    <use xlink:href="#DejaVuSans-20" x="852.884766"/>
    <use xlink:href="#DejaVuSans-6d" x="884.671875"/>
    <use xlink:href="#DejaVuSans-61" x="982.083984"/>
    <use xlink:href="#DejaVuSans-74" x="1043.363281"/>
    <use xlink:href="#DejaVuSans-72" x="1082.572266"/>
    <use xlink:href="#DejaVuSans-69" x="1123.685547"/>
    <use xlink:href="#DejaVuSans-78" x="1151.46875"/>
   </g>
  </g>
 </g>
 <defs>
  <clipPath id="pe1d41dfad2">
   <rect x="26.925" y="51.48" width="315.046727" height="112.918836"/>
  </clipPath>
  <clipPath id="pb0b37449fd">
   <rect x="382.442702" y="51.48" width="315.046727" height="112.918836"/>
  </clipPath>
 </defs>
</svg>
