<?xml version="1.0" encoding="utf-8" standalone="no"?>
<!DOCTYPE svg PUBLIC "-//W3C//DTD SVG 1.1//EN"
  "http://www.w3.org/Graphics/SVG/1.1/DTD/svg11.dtd">
<svg xmlns:xlink="http://www.w3.org/1999/xlink" width="700.715245pt" height="214.987214pt" viewBox="0 0 700.715245 214.987214" xmlns="http://www.w3.org/2000/svg" version="1.1">
 <metadata>
  <rdf:RDF xmlns:dc="http://purl.org/dc/elements/1.1/" xmlns:cc="http://creativecommons.org/ns#" xmlns:rdf="http://www.w3.org/1999/02/22-rdf-syntax-ns#">
   <cc:Work>
    <dc:type rdf:resource="http://purl.org/dc/dcmitype/StillImage"/>
    <dc:date>2022-05-11T19:34:17.440440</dc:date>
    <dc:format>image/svg+xml</dc:format>
    <dc:creator>
     <cc:Agent>
      <dc:title>Matplotlib v3.5.1, https://matplotlib.org/</dc:title>
     </cc:Agent>
    </dc:creator>
   </cc:Work>
  </rdf:RDF>
 </metadata>
 <defs>
  <style type="text/css">*{stroke-linejoin: round; stroke-linecap: butt}</style>
 </defs>
 <g id="figure_1">
  <g id="patch_1">
   <path d="M 0 214.987214 
L 700.715245 214.987214 
L 700.715245 0 
L 0 0 
z
" style="fill: #ffffff"/>
  </g>
  <g id="axes_1">
   <g id="patch_2">
    <path d="M 26.925 164.398836 
L 337.159227 164.398836 
L 337.159227 51.48 
L 26.925 51.48 
z
" style="fill: #e5e5e5"/>
   </g>
   <g id="matplotlib.axis_1">
    <g id="xtick_1">
     <g id="line2d_1">
      <path d="M 40.338255 164.398836 
L 40.338255 51.48 
" clip-path="url(#pb31765d035)" style="fill: none; stroke: #ffffff; stroke-width: 0.8; stroke-linecap: square"/>
     </g>
     <g id="line2d_2">
      <defs>
       <path id="mf9f3a45be2" d="M 0 0 
L 0 3.5 
" style="stroke: #555555; stroke-width: 0.8"/>
      </defs>
      <g>
       <use xlink:href="#mf9f3a45be2" x="40.338255" y="164.398836" style="fill: #555555; stroke: #555555; stroke-width: 0.8"/>
      </g>
     </g>
     <g id="text_1">
      <!-- 2015-01 -->
      <g style="fill: #555555" transform="translate(23.614628 176.771742)rotate(-315)scale(0.1 -0.1)">
       <defs>
        <path id="DejaVuSans-32" d="M 1228 531 
L 3431 531 
L 3431 0 
L 469 0 
L 469 531 
Q 828 903 1448 1529 
Q 2069 2156 2228 2338 
Q 2531 2678 2651 2914 
Q 2772 3150 2772 3378 
Q 2772 3750 2511 3984 
Q 2250 4219 1831 4219 
Q 1534 4219 1204 4116 
Q 875 4013 500 3803 
L 500 4441 
Q 881 4594 1212 4672 
Q 1544 4750 1819 4750 
Q 2544 4750 2975 4387 
Q 3406 4025 3406 3419 
Q 3406 3131 3298 2873 
Q 3191 2616 2906 2266 
Q 2828 2175 2409 1742 
Q 1991 1309 1228 531 
z
" transform="scale(0.015625)"/>
        <path id="DejaVuSans-30" d="M 2034 4250 
Q 1547 4250 1301 3770 
Q 1056 3291 1056 2328 
Q 1056 1369 1301 889 
Q 1547 409 2034 409 
Q 2525 409 2770 889 
Q 3016 1369 3016 2328 
Q 3016 3291 2770 3770 
Q 2525 4250 2034 4250 
z
M 2034 4750 
Q 2819 4750 3233 4129 
Q 3647 3509 3647 2328 
Q 3647 1150 3233 529 
Q 2819 -91 2034 -91 
Q 1250 -91 836 529 
Q 422 1150 422 2328 
Q 422 3509 836 4129 
Q 1250 4750 2034 4750 
z
" transform="scale(0.015625)"/>
        <path id="DejaVuSans-31" d="M 794 531 
L 1825 531 
L 1825 4091 
L 703 3866 
L 703 4441 
L 1819 4666 
L 2450 4666 
L 2450 531 
L 3481 531 
L 3481 0 
L 794 0 
L 794 531 
z
" transform="scale(0.015625)"/>
        <path id="DejaVuSans-35" d="M 691 4666 
L 3169 4666 
L 3169 4134 
L 1269 4134 
L 1269 2991 
Q 1406 3038 1543 3061 
Q 1681 3084 1819 3084 
Q 2600 3084 3056 2656 
Q 3513 2228 3513 1497 
Q 3513 744 3044 326 
Q 2575 -91 1722 -91 
Q 1428 -91 1123 -41 
Q 819 9 494 109 
L 494 744 
Q 775 591 1075 516 
Q 1375 441 1709 441 
Q 2250 441 2565 725 
Q 2881 1009 2881 1497 
Q 2881 1984 2565 2268 
Q 2250 2553 1709 2553 
Q 1456 2553 1204 2497 
Q 953 2441 691 2322 
L 691 4666 
z
" transform="scale(0.015625)"/>
        <path id="DejaVuSans-2d" d="M 313 2009 
L 1997 2009 
L 1997 1497 
L 313 1497 
L 313 2009 
z
" transform="scale(0.015625)"/>
       </defs>
       <use xlink:href="#DejaVuSans-32"/>
       <use xlink:href="#DejaVuSans-30" x="63.623047"/>
       <use xlink:href="#DejaVuSans-31" x="127.246094"/>
       <use xlink:href="#DejaVuSans-35" x="190.869141"/>
       <use xlink:href="#DejaVuSans-2d" x="254.492188"/>
       <use xlink:href="#DejaVuSans-30" x="290.576172"/>
       <use xlink:href="#DejaVuSans-31" x="354.199219"/>
      </g>
     </g>
    </g>
    <g id="xtick_2">
     <g id="line2d_3">
      <path d="M 71.483851 164.398836 
L 71.483851 51.48 
" clip-path="url(#pb31765d035)" style="fill: none; stroke: #ffffff; stroke-width: 0.8; stroke-linecap: square"/>
     </g>
     <g id="line2d_4">
      <g>
       <use xlink:href="#mf9f3a45be2" x="71.483851" y="164.398836" style="fill: #555555; stroke: #555555; stroke-width: 0.8"/>
      </g>
     </g>
     <g id="text_2">
      <!-- 2015-07 -->
      <g style="fill: #555555" transform="translate(54.760224 176.771742)rotate(-315)scale(0.1 -0.1)">
       <defs>
        <path id="DejaVuSans-37" d="M 525 4666 
L 3525 4666 
L 3525 4397 
L 1831 0 
L 1172 0 
L 2766 4134 
L 525 4134 
L 525 4666 
z
" transform="scale(0.015625)"/>
       </defs>
       <use xlink:href="#DejaVuSans-32"/>
       <use xlink:href="#DejaVuSans-30" x="63.623047"/>
       <use xlink:href="#DejaVuSans-31" x="127.246094"/>
       <use xlink:href="#DejaVuSans-35" x="190.869141"/>
       <use xlink:href="#DejaVuSans-2d" x="254.492188"/>
       <use xlink:href="#DejaVuSans-30" x="290.576172"/>
       <use xlink:href="#DejaVuSans-37" x="354.199219"/>
      </g>
     </g>
    </g>
    <g id="xtick_3">
     <g id="line2d_5">
      <path d="M 103.145673 164.398836 
L 103.145673 51.48 
" clip-path="url(#pb31765d035)" style="fill: none; stroke: #ffffff; stroke-width: 0.8; stroke-linecap: square"/>
     </g>
     <g id="line2d_6">
      <g>
       <use xlink:href="#mf9f3a45be2" x="103.145673" y="164.398836" style="fill: #555555; stroke: #555555; stroke-width: 0.8"/>
      </g>
     </g>
     <g id="text_3">
      <!-- 2016-01 -->
      <g style="fill: #555555" transform="translate(86.422045 176.771742)rotate(-315)scale(0.1 -0.1)">
       <defs>
        <path id="DejaVuSans-36" d="M 2113 2584 
Q 1688 2584 1439 2293 
Q 1191 2003 1191 1497 
Q 1191 994 1439 701 
Q 1688 409 2113 409 
Q 2538 409 2786 701 
Q 3034 994 3034 1497 
Q 3034 2003 2786 2293 
Q 2538 2584 2113 2584 
z
M 3366 4563 
L 3366 3988 
Q 3128 4100 2886 4159 
Q 2644 4219 2406 4219 
Q 1781 4219 1451 3797 
Q 1122 3375 1075 2522 
Q 1259 2794 1537 2939 
Q 1816 3084 2150 3084 
Q 2853 3084 3261 2657 
Q 3669 2231 3669 1497 
Q 3669 778 3244 343 
Q 2819 -91 2113 -91 
Q 1303 -91 875 529 
Q 447 1150 447 2328 
Q 447 3434 972 4092 
Q 1497 4750 2381 4750 
Q 2619 4750 2861 4703 
Q 3103 4656 3366 4563 
z
" transform="scale(0.015625)"/>
       </defs>
       <use xlink:href="#DejaVuSans-32"/>
       <use xlink:href="#DejaVuSans-30" x="63.623047"/>
       <use xlink:href="#DejaVuSans-31" x="127.246094"/>
       <use xlink:href="#DejaVuSans-36" x="190.869141"/>
       <use xlink:href="#DejaVuSans-2d" x="254.492188"/>
       <use xlink:href="#DejaVuSans-30" x="290.576172"/>
       <use xlink:href="#DejaVuSans-31" x="354.199219"/>
      </g>
     </g>
    </g>
    <g id="xtick_4">
     <g id="line2d_7">
      <path d="M 134.463344 164.398836 
L 134.463344 51.48 
" clip-path="url(#pb31765d035)" style="fill: none; stroke: #ffffff; stroke-width: 0.8; stroke-linecap: square"/>
     </g>
     <g id="line2d_8">
      <g>
       <use xlink:href="#mf9f3a45be2" x="134.463344" y="164.398836" style="fill: #555555; stroke: #555555; stroke-width: 0.8"/>
      </g>
     </g>
     <g id="text_4">
      <!-- 2016-07 -->
      <g style="fill: #555555" transform="translate(117.739716 176.771742)rotate(-315)scale(0.1 -0.1)">
       <use xlink:href="#DejaVuSans-32"/>
       <use xlink:href="#DejaVuSans-30" x="63.623047"/>
       <use xlink:href="#DejaVuSans-31" x="127.246094"/>
       <use xlink:href="#DejaVuSans-36" x="190.869141"/>
       <use xlink:href="#DejaVuSans-2d" x="254.492188"/>
       <use xlink:href="#DejaVuSans-30" x="290.576172"/>
       <use xlink:href="#DejaVuSans-37" x="354.199219"/>
      </g>
     </g>
    </g>
    <g id="xtick_5">
     <g id="line2d_9">
      <path d="M 166.125165 164.398836 
L 166.125165 51.48 
" clip-path="url(#pb31765d035)" style="fill: none; stroke: #ffffff; stroke-width: 0.8; stroke-linecap: square"/>
     </g>
     <g id="line2d_10">
      <g>
       <use xlink:href="#mf9f3a45be2" x="166.125165" y="164.398836" style="fill: #555555; stroke: #555555; stroke-width: 0.8"/>
      </g>
     </g>
     <g id="text_5">
      <!-- 2017-01 -->
      <g style="fill: #555555" transform="translate(149.401538 176.771742)rotate(-315)scale(0.1 -0.1)">
       <use xlink:href="#DejaVuSans-32"/>
       <use xlink:href="#DejaVuSans-30" x="63.623047"/>
       <use xlink:href="#DejaVuSans-31" x="127.246094"/>
       <use xlink:href="#DejaVuSans-37" x="190.869141"/>
       <use xlink:href="#DejaVuSans-2d" x="254.492188"/>
       <use xlink:href="#DejaVuSans-30" x="290.576172"/>
       <use xlink:href="#DejaVuSans-31" x="354.199219"/>
      </g>
     </g>
    </g>
    <g id="xtick_6">
     <g id="line2d_11">
      <path d="M 197.270762 164.398836 
L 197.270762 51.48 
" clip-path="url(#pb31765d035)" style="fill: none; stroke: #ffffff; stroke-width: 0.8; stroke-linecap: square"/>
     </g>
     <g id="line2d_12">
      <g>
       <use xlink:href="#mf9f3a45be2" x="197.270762" y="164.398836" style="fill: #555555; stroke: #555555; stroke-width: 0.8"/>
      </g>
     </g>
     <g id="text_6">
      <!-- 2017-07 -->
      <g style="fill: #555555" transform="translate(180.547134 176.771742)rotate(-315)scale(0.1 -0.1)">
       <use xlink:href="#DejaVuSans-32"/>
       <use xlink:href="#DejaVuSans-30" x="63.623047"/>
       <use xlink:href="#DejaVuSans-31" x="127.246094"/>
       <use xlink:href="#DejaVuSans-37" x="190.869141"/>
       <use xlink:href="#DejaVuSans-2d" x="254.492188"/>
       <use xlink:href="#DejaVuSans-30" x="290.576172"/>
       <use xlink:href="#DejaVuSans-37" x="354.199219"/>
      </g>
     </g>
    </g>
    <g id="xtick_7">
     <g id="line2d_13">
      <path d="M 228.932583 164.398836 
L 228.932583 51.48 
" clip-path="url(#pb31765d035)" style="fill: none; stroke: #ffffff; stroke-width: 0.8; stroke-linecap: square"/>
     </g>
     <g id="line2d_14">
      <g>
       <use xlink:href="#mf9f3a45be2" x="228.932583" y="164.398836" style="fill: #555555; stroke: #555555; stroke-width: 0.8"/>
      </g>
     </g>
     <g id="text_7">
      <!-- 2018-01 -->
      <g style="fill: #555555" transform="translate(212.208955 176.771742)rotate(-315)scale(0.1 -0.1)">
       <defs>
        <path id="DejaVuSans-38" d="M 2034 2216 
Q 1584 2216 1326 1975 
Q 1069 1734 1069 1313 
Q 1069 891 1326 650 
Q 1584 409 2034 409 
Q 2484 409 2743 651 
Q 3003 894 3003 1313 
Q 3003 1734 2745 1975 
Q 2488 2216 2034 2216 
z
M 1403 2484 
Q 997 2584 770 2862 
Q 544 3141 544 3541 
Q 544 4100 942 4425 
Q 1341 4750 2034 4750 
Q 2731 4750 3128 4425 
Q 3525 4100 3525 3541 
Q 3525 3141 3298 2862 
Q 3072 2584 2669 2484 
Q 3125 2378 3379 2068 
Q 3634 1759 3634 1313 
Q 3634 634 3220 271 
Q 2806 -91 2034 -91 
Q 1263 -91 848 271 
Q 434 634 434 1313 
Q 434 1759 690 2068 
Q 947 2378 1403 2484 
z
M 1172 3481 
Q 1172 3119 1398 2916 
Q 1625 2713 2034 2713 
Q 2441 2713 2670 2916 
Q 2900 3119 2900 3481 
Q 2900 3844 2670 4047 
Q 2441 4250 2034 4250 
Q 1625 4250 1398 4047 
Q 1172 3844 1172 3481 
z
" transform="scale(0.015625)"/>
       </defs>
       <use xlink:href="#DejaVuSans-32"/>
       <use xlink:href="#DejaVuSans-30" x="63.623047"/>
       <use xlink:href="#DejaVuSans-31" x="127.246094"/>
       <use xlink:href="#DejaVuSans-38" x="190.869141"/>
       <use xlink:href="#DejaVuSans-2d" x="254.492188"/>
       <use xlink:href="#DejaVuSans-30" x="290.576172"/>
       <use xlink:href="#DejaVuSans-31" x="354.199219"/>
      </g>
     </g>
    </g>
    <g id="xtick_8">
     <g id="line2d_15">
      <path d="M 260.078179 164.398836 
L 260.078179 51.48 
" clip-path="url(#pb31765d035)" style="fill: none; stroke: #ffffff; stroke-width: 0.8; stroke-linecap: square"/>
     </g>
     <g id="line2d_16">
      <g>
       <use xlink:href="#mf9f3a45be2" x="260.078179" y="164.398836" style="fill: #555555; stroke: #555555; stroke-width: 0.8"/>
      </g>
     </g>
     <g id="text_8">
      <!-- 2018-07 -->
      <g style="fill: #555555" transform="translate(243.354551 176.771742)rotate(-315)scale(0.1 -0.1)">
       <use xlink:href="#DejaVuSans-32"/>
       <use xlink:href="#DejaVuSans-30" x="63.623047"/>
       <use xlink:href="#DejaVuSans-31" x="127.246094"/>
       <use xlink:href="#DejaVuSans-38" x="190.869141"/>
       <use xlink:href="#DejaVuSans-2d" x="254.492188"/>
       <use xlink:href="#DejaVuSans-30" x="290.576172"/>
       <use xlink:href="#DejaVuSans-37" x="354.199219"/>
      </g>
     </g>
    </g>
    <g id="xtick_9">
     <g id="line2d_17">
      <path d="M 291.74 164.398836 
L 291.74 51.48 
" clip-path="url(#pb31765d035)" style="fill: none; stroke: #ffffff; stroke-width: 0.8; stroke-linecap: square"/>
     </g>
     <g id="line2d_18">
      <g>
       <use xlink:href="#mf9f3a45be2" x="291.74" y="164.398836" style="fill: #555555; stroke: #555555; stroke-width: 0.8"/>
      </g>
     </g>
     <g id="text_9">
      <!-- 2019-01 -->
      <g style="fill: #555555" transform="translate(275.016373 176.771742)rotate(-315)scale(0.1 -0.1)">
       <defs>
        <path id="DejaVuSans-39" d="M 703 97 
L 703 672 
Q 941 559 1184 500 
Q 1428 441 1663 441 
Q 2288 441 2617 861 
Q 2947 1281 2994 2138 
Q 2813 1869 2534 1725 
Q 2256 1581 1919 1581 
Q 1219 1581 811 2004 
Q 403 2428 403 3163 
Q 403 3881 828 4315 
Q 1253 4750 1959 4750 
Q 2769 4750 3195 4129 
Q 3622 3509 3622 2328 
Q 3622 1225 3098 567 
Q 2575 -91 1691 -91 
Q 1453 -91 1209 -44 
Q 966 3 703 97 
z
M 1959 2075 
Q 2384 2075 2632 2365 
Q 2881 2656 2881 3163 
Q 2881 3666 2632 3958 
Q 2384 4250 1959 4250 
Q 1534 4250 1286 3958 
Q 1038 3666 1038 3163 
Q 1038 2656 1286 2365 
Q 1534 2075 1959 2075 
z
" transform="scale(0.015625)"/>
       </defs>
       <use xlink:href="#DejaVuSans-32"/>
       <use xlink:href="#DejaVuSans-30" x="63.623047"/>
       <use xlink:href="#DejaVuSans-31" x="127.246094"/>
       <use xlink:href="#DejaVuSans-39" x="190.869141"/>
       <use xlink:href="#DejaVuSans-2d" x="254.492188"/>
       <use xlink:href="#DejaVuSans-30" x="290.576172"/>
       <use xlink:href="#DejaVuSans-31" x="354.199219"/>
      </g>
     </g>
    </g>
    <g id="xtick_10">
     <g id="line2d_19">
      <path d="M 322.885597 164.398836 
L 322.885597 51.48 
" clip-path="url(#pb31765d035)" style="fill: none; stroke: #ffffff; stroke-width: 0.8; stroke-linecap: square"/>
     </g>
     <g id="line2d_20">
      <g>
       <use xlink:href="#mf9f3a45be2" x="322.885597" y="164.398836" style="fill: #555555; stroke: #555555; stroke-width: 0.8"/>
      </g>
     </g>
     <g id="text_10">
      <!-- 2019-07 -->
      <g style="fill: #555555" transform="translate(306.161969 176.771742)rotate(-315)scale(0.1 -0.1)">
       <use xlink:href="#DejaVuSans-32"/>
       <use xlink:href="#DejaVuSans-30" x="63.623047"/>
       <use xlink:href="#DejaVuSans-31" x="127.246094"/>
       <use xlink:href="#DejaVuSans-39" x="190.869141"/>
       <use xlink:href="#DejaVuSans-2d" x="254.492188"/>
       <use xlink:href="#DejaVuSans-30" x="290.576172"/>
       <use xlink:href="#DejaVuSans-37" x="354.199219"/>
      </g>
     </g>
    </g>
   </g>
   <g id="matplotlib.axis_2">
    <g id="ytick_1">
     <g id="line2d_21">
      <path d="M 26.925 134.378728 
L 337.159227 134.378728 
" clip-path="url(#pb31765d035)" style="fill: none; stroke: #ffffff; stroke-width: 0.8; stroke-linecap: square"/>
     </g>
     <g id="line2d_22">
      <defs>
       <path id="m4566918065" d="M 0 0 
L -3.5 0 
" style="stroke: #555555; stroke-width: 0.8"/>
      </defs>
      <g>
       <use xlink:href="#m4566918065" x="26.925" y="134.378728" style="fill: #555555; stroke: #555555; stroke-width: 0.8"/>
      </g>
     </g>
     <g id="text_11">
      <!-- 5 -->
      <g style="fill: #555555" transform="translate(13.5625 138.177947)scale(0.1 -0.1)">
       <use xlink:href="#DejaVuSans-35"/>
      </g>
     </g>
    </g>
    <g id="ytick_2">
     <g id="line2d_23">
      <path d="M 26.925 103.430153 
L 337.159227 103.430153 
" clip-path="url(#pb31765d035)" style="fill: none; stroke: #ffffff; stroke-width: 0.8; stroke-linecap: square"/>
     </g>
     <g id="line2d_24">
      <g>
       <use xlink:href="#m4566918065" x="26.925" y="103.430153" style="fill: #555555; stroke: #555555; stroke-width: 0.8"/>
      </g>
     </g>
     <g id="text_12">
      <!-- 10 -->
      <g style="fill: #555555" transform="translate(7.2 107.229371)scale(0.1 -0.1)">
       <use xlink:href="#DejaVuSans-31"/>
       <use xlink:href="#DejaVuSans-30" x="63.623047"/>
      </g>
     </g>
    </g>
    <g id="ytick_3">
     <g id="line2d_25">
      <path d="M 26.925 72.481577 
L 337.159227 72.481577 
" clip-path="url(#pb31765d035)" style="fill: none; stroke: #ffffff; stroke-width: 0.8; stroke-linecap: square"/>
     </g>
     <g id="line2d_26">
      <g>
       <use xlink:href="#m4566918065" x="26.925" y="72.481577" style="fill: #555555; stroke: #555555; stroke-width: 0.8"/>
      </g>
     </g>
     <g id="text_13">
      <!-- 15 -->
      <g style="fill: #555555" transform="translate(7.2 76.280796)scale(0.1 -0.1)">
       <use xlink:href="#DejaVuSans-31"/>
       <use xlink:href="#DejaVuSans-35" x="63.623047"/>
      </g>
     </g>
    </g>
   </g>
   <g id="line2d_27">
    <path d="M 41.026556 159.266161 
L 41.714856 159.013886 
L 42.231082 159.037147 
L 42.575232 158.707714 
L 42.747307 158.830305 
L 42.919382 158.80657 
L 43.607683 159.044346 
L 43.951833 158.664767 
L 44.123908 158.423511 
L 44.640133 158.315806 
L 44.812208 158.137009 
L 44.984283 158.186769 
L 45.328434 157.778101 
L 45.844659 157.707601 
L 46.53296 156.890761 
L 47.393335 156.389662 
L 47.56541 156.031143 
L 48.769936 156.208702 
L 48.942011 156.142583 
L 49.458237 156.184193 
L 49.630312 156.381786 
L 49.802387 156.083131 
L 50.146537 156.071082 
L 51.006913 155.427913 
L 51.351063 155.504224 
L 52.555589 155.586963 
L 54.27634 155.079777 
L 54.792565 155.113289 
L 54.96464 155.159945 
L 55.480866 154.98868 
L 55.652941 155.053101 
L 55.997091 154.861407 
L 56.685391 154.708881 
L 56.857467 154.842768 
L 57.201617 154.817615 
L 57.889917 154.734205 
L 58.234067 154.456281 
L 58.406143 154.18802 
L 59.266518 154.028035 
L 59.610668 154.124068 
L 59.782743 153.863245 
L 60.298969 153.992076 
L 60.471044 153.646626 
L 61.847645 153.845962 
L 62.01972 154.135816 
L 62.191795 154.132933 
L 62.880096 153.959025 
L 63.052171 153.691971 
L 63.224246 153.83215 
L 63.396321 153.585638 
L 65.633297 153.392829 
L 65.805373 153.086831 
L 66.837823 153.092927 
L 67.009898 153.031718 
L 67.870274 152.889161 
L 68.042349 152.803294 
L 68.214424 152.890286 
L 69.246875 152.608781 
L 69.41895 152.807182 
L 70.451401 152.468246 
L 70.623476 152.580556 
L 71.139701 152.716526 
L 71.655927 152.36409 
L 72.344227 152.198263 
L 72.688377 152.484749 
L 72.860452 152.487059 
L 73.032527 152.256477 
L 73.892903 152.185505 
L 74.064978 151.938814 
L 74.237053 152.279929 
L 74.925354 152.436917 
L 75.097429 152.250669 
L 75.269504 152.424607 
L 75.441579 151.917232 
L 76.12988 152.149047 
L 76.301955 151.854858 
L 76.47403 151.794522 
L 76.646105 151.608084 
L 77.16233 151.601302 
L 77.334405 151.157519 
L 77.50648 151.311477 
L 77.850631 151.036989 
L 78.366856 150.733488 
L 79.055157 150.93531 
L 79.915532 150.781709 
L 80.775908 152.12712 
L 80.947983 152.034037 
L 81.464208 150.670871 
L 81.980434 150.679453 
L 82.152509 151.153491 
L 82.496659 150.90711 
L 82.668734 151.023926 
L 83.87326 150.540679 
L 84.389485 150.575159 
L 84.733635 150.310571 
L 84.90571 150.257123 
L 85.077786 150.328898 
L 85.594011 150.219171 
L 85.938161 150.404788 
L 86.282311 150.271027 
L 86.798537 150.734994 
L 86.970612 151.095412 
L 87.142687 150.685064 
L 87.314762 150.727984 
L 87.486837 150.571467 
L 88.003063 150.426156 
L 88.175138 150.596439 
L 88.519288 150.129944 
L 88.691363 150.21761 
L 89.207588 150.106887 
L 89.895889 150.66753 
L 90.584189 150.568675 
L 90.756264 150.779861 
L 90.92834 150.739804 
L 91.100415 150.507185 
L 91.61664 150.20162 
L 91.788715 150.35233 
L 91.96079 149.817224 
L 92.132865 149.917413 
L 92.304941 149.689687 
L 93.337391 149.728571 
L 93.509466 149.584807 
L 94.025692 149.545871 
L 94.197767 149.355995 
L 94.541917 149.32473 
L 94.713992 149.515208 
L 95.402293 148.988774 
L 95.574368 148.628556 
L 95.746443 148.689604 
L 95.918518 148.4918 
L 96.778894 148.188404 
L 97.639269 148.265557 
L 97.811344 148.077269 
L 97.983419 148.25255 
L 98.32757 147.647965 
L 98.843795 147.83639 
L 99.01587 147.776628 
L 99.187945 148.11605 
L 99.36002 147.958107 
L 99.532095 148.080207 
L 100.220396 147.647993 
L 100.392471 147.689069 
L 100.564546 147.935941 
L 100.736621 147.98828 
L 101.424922 147.79138 
L 101.769072 147.528175 
L 102.457372 147.515648 
L 102.629447 147.321132 
L 102.973598 147.708302 
L 103.661898 147.944911 
L 104.006048 147.768966 
L 104.350199 148.342567 
L 105.038499 148.151174 
L 105.210574 148.618125 
L 105.554724 148.855714 
L 106.587175 148.768212 
L 106.75925 148.547904 
L 107.275476 148.437066 
L 107.447551 148.047128 
L 107.619626 148.121643 
L 107.791701 147.495041 
L 107.963776 147.42371 
L 108.480001 147.442453 
L 108.652077 147.611015 
L 108.824152 147.578235 
L 108.996227 147.376495 
L 109.168302 147.660911 
L 110.028677 147.648318 
L 110.200753 147.68715 
L 110.372828 147.3035 
L 111.061128 147.015461 
L 111.405278 146.280754 
L 112.093579 146.059947 
L 112.781879 145.500648 
L 113.298105 145.673193 
L 113.642255 145.267203 
L 113.986405 144.895314 
L 114.502631 145.230646 
L 114.674706 145.187151 
L 114.846781 145.262967 
L 115.190931 144.91017 
L 115.707156 145.100741 
L 117.083757 144.652846 
L 117.427908 144.936426 
L 118.116208 144.812037 
L 118.288283 144.407216 
L 118.632433 144.460583 
L 118.804508 144.355328 
L 119.492809 144.662697 
L 119.664884 144.293692 
L 119.836959 144.261221 
L 120.009034 144.110538 
L 120.52526 143.918453 
L 120.86941 143.555714 
L 121.041485 143.656804 
L 121.21356 143.506329 
L 122.073936 143.263859 
L 122.246011 143.628581 
L 122.418086 143.56708 
L 123.106386 143.493952 
L 123.278461 143.160645 
L 123.450537 143.423018 
L 123.622612 143.396951 
L 124.138837 142.997878 
L 124.310912 143.135816 
L 124.827138 142.798503 
L 125.343363 142.804601 
L 125.515438 142.363175 
L 125.687513 142.649277 
L 125.859588 142.664403 
L 126.031663 142.428492 
L 126.547889 142.254982 
L 126.719964 142.329755 
L 127.236189 142.038438 
L 127.752414 142.221053 
L 128.26864 141.715684 
L 128.440715 141.561943 
L 130.505616 141.196007 
L 130.677691 141.030677 
L 130.849767 141.350643 
L 131.882217 141.351912 
L 132.054292 141.560298 
L 132.570518 141.384133 
L 132.742593 141.549318 
L 133.086743 141.194901 
L 133.258818 141.713355 
L 133.775044 142.041135 
L 134.119194 141.123264 
L 134.291269 140.866895 
L 134.463344 140.872785 
L 135.151645 140.726713 
L 135.495795 140.421063 
L 135.66787 140.223641 
L 136.35617 140.205144 
L 136.700321 139.749596 
L 136.872396 139.950975 
L 137.560696 140.001174 
L 137.732771 139.90078 
L 137.904846 139.99733 
L 138.076921 139.82701 
L 138.593147 139.893685 
L 138.937297 139.167237 
L 139.281447 138.943518 
L 140.141823 138.731018 
L 140.485973 137.962424 
L 141.002198 137.953305 
L 141.346349 137.509213 
L 141.690499 137.208221 
L 142.206724 137.20372 
L 142.378799 137.397684 
L 142.895025 137.27962 
L 143.41125 137.368346 
L 143.583325 137.169428 
L 143.7554 137.556744 
L 144.099551 137.524575 
L 144.615776 137.292925 
L 144.787851 137.479323 
L 144.959926 137.405355 
L 145.304076 136.834621 
L 145.992377 136.783529 
L 146.336527 136.670129 
L 146.508602 137.459284 
L 147.024828 137.062475 
L 147.196903 137.551054 
L 147.368978 137.508078 
L 147.541053 137.174659 
L 147.713128 137.215616 
L 148.401428 136.959748 
L 148.573504 136.500338 
L 148.745579 136.390023 
L 148.917654 136.530754 
L 149.433879 136.611735 
L 149.778029 136.116644 
L 149.950105 136.320169 
L 150.12218 135.987429 
L 150.638405 136.150641 
L 150.81048 136.580637 
L 151.15463 136.324301 
L 151.326705 136.535391 
L 151.842931 136.38284 
L 152.015006 136.893477 
L 152.187081 136.648918 
L 152.531231 136.72052 
L 153.047457 136.591153 
L 153.391607 135.717107 
L 153.563682 135.768894 
L 154.424058 135.256955 
L 154.596133 135.533135 
L 154.940283 136.369402 
L 155.456508 135.889533 
L 155.628583 136.291503 
L 155.972734 136.35801 
L 156.144809 136.180699 
L 157.005184 134.889004 
L 157.177259 135.126338 
L 157.349335 134.152741 
L 158.037635 133.911802 
L 158.381785 133.144427 
L 158.55386 133.011552 
L 159.070086 132.871965 
L 159.414236 132.36678 
L 159.758386 132.170896 
L 160.274612 132.45297 
L 160.446687 132.363662 
L 160.962912 132.661661 
L 161.479137 132.406809 
L 161.995363 131.696518 
L 162.167438 131.828347 
L 162.683663 132.024337 
L 162.855738 131.57312 
L 163.027813 131.671029 
L 163.199888 131.271284 
L 163.371964 131.303883 
L 163.888189 131.065054 
L 164.060264 130.802091 
L 164.404414 131.15282 
L 164.576489 130.907972 
L 165.26479 130.431959 
L 165.436865 130.989759 
L 165.60894 130.765723 
L 165.781015 131.134559 
L 166.469316 131.324737 
L 166.641391 130.841057 
L 166.813466 130.940589 
L 166.985541 130.692847 
L 167.501766 130.522025 
L 168.017992 130.892093 
L 168.190067 130.595453 
L 168.878367 130.993464 
L 169.050442 130.756731 
L 169.222518 130.258743 
L 169.910818 130.055398 
L 170.082893 129.697942 
L 170.254968 128.76654 
L 170.599118 128.378301 
L 171.115344 128.536948 
L 171.459494 127.970094 
L 171.803644 127.038657 
L 172.31987 126.521231 
L 172.66402 126.486426 
L 173.00817 127.080858 
L 173.524395 127.216434 
L 174.212696 126.466408 
L 174.900996 126.171094 
L 175.073072 126.245597 
L 175.245147 126.918671 
L 175.417222 126.763245 
L 175.933447 126.557606 
L 176.105522 126.890754 
L 176.277597 126.453476 
L 176.449672 126.829129 
L 176.621748 126.593069 
L 177.310048 126.650402 
L 177.482123 127.010681 
L 177.826273 126.810826 
L 178.342499 126.492185 
L 178.514574 126.654805 
L 178.686649 126.204763 
L 178.858724 126.370838 
L 179.030799 126.06798 
L 179.547025 125.886717 
L 179.7191 126.682549 
L 179.891175 126.283703 
L 180.06325 126.29675 
L 180.235325 126.125828 
L 180.75155 126.175149 
L 181.095701 125.909477 
L 181.439851 125.313528 
L 181.956076 125.436442 
L 182.128151 125.628886 
L 182.300226 126.05793 
L 182.472302 125.763104 
L 182.644377 125.847018 
L 183.160602 125.897561 
L 183.332677 125.627103 
L 183.676827 126.219528 
L 184.365128 125.542952 
L 184.709278 125.645795 
L 184.881353 125.147684 
L 185.053428 125.10073 
L 185.569654 124.593562 
L 186.085879 123.392278 
L 186.257954 123.989136 
L 186.774179 123.631149 
L 186.946255 123.816992 
L 187.290405 123.809094 
L 187.46248 123.41992 
L 187.978705 123.773597 
L 188.15078 123.629006 
L 188.322855 122.658342 
L 189.355306 121.85005 
L 189.527381 122.727015 
L 189.871532 121.609583 
L 190.387757 121.23127 
L 190.559832 121.302508 
L 190.731907 120.838772 
L 190.903982 119.966785 
L 191.076057 119.768108 
L 191.764358 119.714755 
L 191.936433 119.431881 
L 192.108508 119.367039 
L 192.280583 119.041236 
L 192.796809 119.02927 
L 192.968884 119.160262 
L 193.313034 118.241439 
L 193.485109 119.08388 
L 194.001334 119.339147 
L 194.173409 119.001852 
L 194.51756 118.801509 
L 194.689635 118.673779 
L 195.20586 118.136803 
L 195.377935 118.483944 
L 195.55001 118.475989 
L 195.894161 118.684058 
L 196.410386 118.731935 
L 196.582461 119.446487 
L 196.754536 118.813751 
L 196.926611 119.247828 
L 197.098686 119.121789 
L 197.614912 119.450593 
L 197.959062 119.061045 
L 198.131137 119.482515 
L 198.303212 118.899221 
L 198.991513 118.454962 
L 199.163588 117.937001 
L 199.335663 118.17408 
L 199.507738 117.892533 
L 200.023963 117.970893 
L 200.196039 117.393982 
L 200.712264 116.83735 
L 201.400564 116.743848 
L 201.572639 116.425696 
L 201.744715 116.459284 
L 201.91679 116.226554 
L 202.433015 116.430548 
L 202.777165 115.978268 
L 202.94924 115.983032 
L 203.121316 115.686508 
L 203.637541 115.263792 
L 203.981691 115.592458 
L 204.325841 117.003302 
L 204.842067 116.021234 
L 205.014142 116.158427 
L 205.186217 116.020694 
L 205.358292 116.696548 
L 205.530367 116.714911 
L 206.046592 116.582335 
L 206.218668 115.992622 
L 206.390743 115.912315 
L 206.562818 115.980094 
L 206.734893 116.170149 
L 207.251118 116.152456 
L 207.423193 116.43763 
L 207.595269 116.10377 
L 207.939419 114.893547 
L 208.971869 115.545747 
L 209.66017 114.77731 
L 209.832245 114.804516 
L 210.00432 114.415669 
L 210.176395 114.456526 
L 210.34847 113.725611 
L 211.208846 112.691603 
L 211.380921 112.858387 
L 211.552996 112.748871 
L 212.241297 113.679858 
L 212.413372 113.20693 
L 212.585447 113.340479 
L 212.757522 113.038111 
L 213.445822 112.712802 
L 213.962048 111.814007 
L 214.478273 111.236061 
L 214.650348 111.319503 
L 214.822423 110.970678 
L 214.994499 111.141609 
L 215.166574 110.852849 
L 215.682799 110.565143 
L 215.854874 110.631603 
L 216.026949 110.921152 
L 216.371099 110.693574 
L 216.887325 110.90403 
L 217.0594 110.428629 
L 217.231475 111.003548 
L 217.40355 111.025536 
L 217.575625 110.660902 
L 218.091851 110.673862 
L 218.436001 110.001952 
L 218.608076 109.782624 
L 218.780151 108.785333 
L 219.296376 108.351635 
L 219.812602 109.719125 
L 219.984677 109.343092 
L 220.672977 108.84616 
L 220.845053 109.086156 
L 221.017128 109.051497 
L 222.393729 106.9341 
L 223.082029 107.205976 
L 223.254104 108.000969 
L 223.426179 107.492791 
L 224.286555 107.760318 
L 224.45863 108.092598 
L 224.80278 107.469591 
L 225.319006 107.449241 
L 225.491081 107.615794 
L 225.835231 107.520005 
L 226.007306 107.092162 
L 226.523531 106.562953 
L 226.695606 106.695461 
L 227.211832 106.588894 
L 228.072207 106.461469 
L 228.244283 105.998045 
L 228.416358 106.497032 
L 229.104658 106.229119 
L 229.276733 105.162395 
L 230.309184 103.442375 
L 230.481259 103.598182 
L 230.825409 102.781663 
L 231.51371 102.813488 
L 231.685785 102.27725 
L 231.85786 102.159361 
L 232.029935 101.169946 
L 232.54616 100.919398 
L 232.718236 100.234958 
L 232.890311 100.37968 
L 233.062386 100.302552 
L 233.234461 99.543707 
L 234.094836 99.568831 
L 234.438987 100.268008 
L 234.955212 102.896089 
L 235.127287 101.765745 
L 235.299362 101.528598 
L 235.471437 104.002085 
L 235.643513 102.837863 
L 236.159738 102.047911 
L 236.331813 101.45856 
L 236.675963 98.575064 
L 236.848038 98.623098 
L 237.536339 98.414522 
L 237.708414 98.811614 
L 237.880489 98.864392 
L 238.052564 98.085447 
L 238.56879 97.708292 
L 239.085015 99.246933 
L 239.773315 98.164601 
L 239.94539 97.249309 
L 240.117466 97.337511 
L 240.289541 97.051172 
L 240.461616 95.671176 
L 240.977841 95.36924 
L 241.149916 95.657948 
L 241.321991 95.674747 
L 241.666142 95.213095 
L 242.182367 96.119567 
L 242.354442 94.979612 
L 242.526517 95.071108 
L 242.870667 97.728546 
L 243.386893 95.600066 
L 243.731043 98.480478 
L 243.903118 97.401742 
L 244.591419 99.039127 
L 244.935569 97.844658 
L 245.107644 97.683424 
L 245.279719 99.052038 
L 245.795944 98.803159 
L 245.96802 97.257716 
L 246.140095 97.435813 
L 246.31217 96.942618 
L 246.484245 97.26897 
L 247.00047 96.89131 
L 247.172545 95.438833 
L 247.34462 95.398648 
L 247.516696 95.704086 
L 247.688771 95.763777 
L 248.204996 96.096571 
L 248.377071 96.692947 
L 248.549146 96.634843 
L 248.893296 95.334155 
L 249.409522 95.706851 
L 249.581597 95.592525 
L 249.753672 95.728979 
L 249.925747 95.462098 
L 250.097822 94.43938 
L 250.786123 93.360738 
L 251.130273 92.174885 
L 251.302348 92.050333 
L 251.818573 92.257564 
L 251.990649 92.780763 
L 252.162724 92.600731 
L 252.506874 92.903974 
L 253.023099 92.253141 
L 253.195174 92.689773 
L 253.36725 92.291498 
L 253.7114 92.315616 
L 254.3997 92.524711 
L 254.571775 91.664219 
L 254.74385 92.16103 
L 254.915926 91.255212 
L 255.604226 90.204264 
L 255.776301 89.627102 
L 256.120451 89.525811 
L 256.636677 89.476463 
L 256.980827 89.263383 
L 257.152902 88.644144 
L 257.324977 88.552727 
L 258.013278 88.855184 
L 258.185353 88.496656 
L 258.529503 89.111832 
L 259.045728 91.244737 
L 259.217803 90.82157 
L 259.389879 91.755554 
L 259.561954 91.055933 
L 259.734029 91.499454 
L 260.250254 91.003145 
L 260.422329 91.56031 
L 261.626855 89.205174 
L 261.79893 89.886675 
L 261.971005 89.877466 
L 262.14308 90.177238 
L 262.659306 90.175518 
L 263.003456 89.815868 
L 263.175531 90.062905 
L 263.347606 89.990799 
L 264.035907 89.997366 
L 264.207982 89.385238 
L 264.380057 89.218779 
L 264.552132 89.427373 
L 265.068357 91.016619 
L 265.240433 90.38021 
L 265.412508 90.334065 
L 265.584583 89.337793 
L 265.756658 89.305997 
L 266.617033 88.088887 
L 266.789109 88.129306 
L 266.961184 88.443353 
L 267.477409 88.669531 
L 267.649484 88.333016 
L 267.821559 89.085204 
L 267.993634 88.80622 
L 268.16571 89.206131 
L 268.681935 88.505502 
L 269.026085 87.499272 
L 269.19816 87.530675 
L 269.370235 86.764438 
L 269.886461 86.125024 
L 270.058536 86.104032 
L 270.574761 84.998361 
L 271.263062 84.586906 
L 271.435137 85.544917 
L 271.607212 85.728457 
L 271.779287 85.464981 
L 272.295512 85.498279 
L 272.467587 85.352794 
L 272.639663 85.435634 
L 272.811738 84.867072 
L 272.983813 84.840063 
L 273.500038 85.653294 
L 273.672113 84.817408 
L 273.844188 85.094529 
L 274.016263 85.024497 
L 274.188339 85.498853 
L 274.704564 85.336573 
L 274.876639 85.036121 
L 275.048714 85.512533 
L 275.220789 85.179095 
L 275.392864 84.44707 
L 275.90909 83.975968 
L 276.081165 84.520875 
L 276.25324 84.100585 
L 276.59739 85.899138 
L 277.113616 86.405609 
L 277.285691 85.995922 
L 277.629841 90.744235 
L 277.801916 89.204317 
L 278.318141 89.798428 
L 278.490217 87.836792 
L 278.662292 87.191865 
L 279.006442 88.621801 
L 279.522667 88.415533 
L 279.694742 88.978552 
L 279.866817 91.735383 
L 280.038893 89.375211 
L 280.210968 90.785494 
L 280.727193 91.617495 
L 281.243418 86.656902 
L 281.415494 86.636565 
L 281.931719 86.376509 
L 282.103794 86.105308 
L 282.275869 84.565545 
L 282.447944 84.821662 
L 282.620019 84.867172 
L 283.136245 86.734797 
L 283.30832 86.602735 
L 283.480395 87.353156 
L 283.65247 86.286098 
L 283.824545 87.780681 
L 284.684921 91.241359 
L 285.029071 91.612495 
L 285.717371 90.123772 
L 285.889447 88.137748 
L 286.233597 87.214424 
L 286.749822 85.707996 
L 286.921897 88.486277 
L 287.266047 88.571384 
L 287.438123 90.662025 
L 287.954348 90.30828 
L 288.126423 90.497408 
L 288.298498 89.679219 
L 288.470573 89.813096 
L 288.642648 91.131057 
L 289.158874 92.885763 
L 289.330949 92.451529 
L 289.847174 95.700001 
L 290.3634 97.642428 
L 290.70755 94.500545 
L 291.0517 93.676216 
L 291.567925 92.599463 
L 291.912076 92.902409 
L 292.084151 94.3414 
L 292.256226 91.916862 
L 292.772451 90.556744 
L 292.944526 89.753629 
L 293.116601 89.610865 
L 293.460752 88.352388 
L 293.976977 88.823148 
L 294.149052 87.591804 
L 294.321127 87.666098 
L 294.665277 86.339077 
L 295.353578 87.641672 
L 295.525653 87.448226 
L 295.869803 85.486006 
L 296.558104 87.105415 
L 296.902254 84.708673 
L 297.074329 84.688266 
L 297.590554 84.108247 
L 297.934705 82.878527 
L 298.10678 83.046548 
L 298.278855 82.568633 
L 298.79508 82.4784 
L 298.967155 81.388935 
L 299.311306 80.567863 
L 299.483381 79.553017 
L 300.171681 79.420654 
L 300.343756 78.517575 
L 300.515831 78.641706 
L 300.687907 77.256051 
L 301.204132 77.248177 
L 301.376207 77.947518 
L 301.892432 76.391345 
L 302.408658 76.705546 
L 302.580733 76.439475 
L 302.924883 77.777048 
L 303.096958 77.765322 
L 303.957334 75.53511 
L 304.129409 75.665034 
L 304.301484 74.489487 
L 305.16186 73.937447 
L 305.333935 72.843255 
L 305.50601 74.343125 
L 306.022235 74.126117 
L 306.19431 73.548324 
L 306.366385 73.820532 
L 306.710536 72.734604 
L 307.915061 70.441652 
L 308.431287 70.154806 
L 308.603362 70.408601 
L 308.947512 70.083639 
L 309.119587 69.56465 
L 309.635813 69.68522 
L 309.807888 69.141047 
L 309.979963 69.329286 
L 310.152038 68.997588 
L 310.840338 68.562333 
L 311.012414 67.305332 
L 311.184489 67.05332 
L 311.356564 67.950116 
L 311.528639 67.570556 
L 312.044864 67.587136 
L 312.216939 67.025424 
L 312.389014 67.153226 
L 312.56109 66.529322 
L 312.733165 65.392808 
L 313.24939 65.761728 
L 313.421465 67.243322 
L 313.59354 66.887845 
L 313.765615 66.982205 
L 313.937691 66.557998 
L 314.453916 69.052595 
L 314.970141 66.550434 
L 315.142216 67.058166 
L 315.658442 67.874274 
L 315.830517 66.852127 
L 316.002592 67.081531 
L 316.174667 67.850438 
L 316.346742 67.829621 
L 317.035043 68.266197 
L 317.207118 68.756682 
L 317.379193 67.621571 
L 317.551268 68.435953 
L 318.067493 67.930537 
L 318.411644 64.200561 
L 318.755794 62.247357 
L 319.272019 61.366997 
L 319.788244 62.13433 
L 319.96032 62.233897 
L 320.476545 61.945487 
L 320.820695 59.466262 
L 320.99277 58.769381 
L 321.164845 59.238991 
L 321.681071 58.825485 
L 321.853146 59.67771 
L 322.025221 59.507383 
L 322.369371 57.762342 
L 323.057672 56.612674 
L 323.057672 56.612674 
" clip-path="url(#pb31765d035)" style="fill: none; stroke: #e24a33; stroke-width: 1.5; stroke-linecap: square"/>
   </g>
   <g id="patch_3">
    <path d="M 26.925 164.398836 
L 26.925 51.48 
" style="fill: none; stroke: #ffffff; stroke-linejoin: miter; stroke-linecap: square"/>
   </g>
   <g id="patch_4">
    <path d="M 337.159227 164.398836 
L 337.159227 51.48 
" style="fill: none; stroke: #ffffff; stroke-linejoin: miter; stroke-linecap: square"/>
   </g>
   <g id="patch_5">
    <path d="M 26.925 164.398836 
L 337.159227 164.398836 
" style="fill: none; stroke: #ffffff; stroke-linejoin: miter; stroke-linecap: square"/>
   </g>
   <g id="patch_6">
    <path d="M 26.925 51.48 
L 337.159227 51.48 
" style="fill: none; stroke: #ffffff; stroke-linejoin: miter; stroke-linecap: square"/>
   </g>
   <g id="text_14">
    <!-- In sample: SR = 0.24295 -->
    <g transform="translate(119.663989 45.48)scale(0.1 -0.1)">
     <defs>
      <path id="DejaVuSans-49" d="M 628 4666 
L 1259 4666 
L 1259 0 
L 628 0 
L 628 4666 
z
" transform="scale(0.015625)"/>
      <path id="DejaVuSans-6e" d="M 3513 2113 
L 3513 0 
L 2938 0 
L 2938 2094 
Q 2938 2591 2744 2837 
Q 2550 3084 2163 3084 
Q 1697 3084 1428 2787 
Q 1159 2491 1159 1978 
L 1159 0 
L 581 0 
L 581 3500 
L 1159 3500 
L 1159 2956 
Q 1366 3272 1645 3428 
Q 1925 3584 2291 3584 
Q 2894 3584 3203 3211 
Q 3513 2838 3513 2113 
z
" transform="scale(0.015625)"/>
      <path id="DejaVuSans-20" transform="scale(0.015625)"/>
      <path id="DejaVuSans-73" d="M 2834 3397 
L 2834 2853 
Q 2591 2978 2328 3040 
Q 2066 3103 1784 3103 
Q 1356 3103 1142 2972 
Q 928 2841 928 2578 
Q 928 2378 1081 2264 
Q 1234 2150 1697 2047 
L 1894 2003 
Q 2506 1872 2764 1633 
Q 3022 1394 3022 966 
Q 3022 478 2636 193 
Q 2250 -91 1575 -91 
Q 1294 -91 989 -36 
Q 684 19 347 128 
L 347 722 
Q 666 556 975 473 
Q 1284 391 1588 391 
Q 1994 391 2212 530 
Q 2431 669 2431 922 
Q 2431 1156 2273 1281 
Q 2116 1406 1581 1522 
L 1381 1569 
Q 847 1681 609 1914 
Q 372 2147 372 2553 
Q 372 3047 722 3315 
Q 1072 3584 1716 3584 
Q 2034 3584 2315 3537 
Q 2597 3491 2834 3397 
z
" transform="scale(0.015625)"/>
      <path id="DejaVuSans-61" d="M 2194 1759 
Q 1497 1759 1228 1600 
Q 959 1441 959 1056 
Q 959 750 1161 570 
Q 1363 391 1709 391 
Q 2188 391 2477 730 
Q 2766 1069 2766 1631 
L 2766 1759 
L 2194 1759 
z
M 3341 1997 
L 3341 0 
L 2766 0 
L 2766 531 
Q 2569 213 2275 61 
Q 1981 -91 1556 -91 
Q 1019 -91 701 211 
Q 384 513 384 1019 
Q 384 1609 779 1909 
Q 1175 2209 1959 2209 
L 2766 2209 
L 2766 2266 
Q 2766 2663 2505 2880 
Q 2244 3097 1772 3097 
Q 1472 3097 1187 3025 
Q 903 2953 641 2809 
L 641 3341 
Q 956 3463 1253 3523 
Q 1550 3584 1831 3584 
Q 2591 3584 2966 3190 
Q 3341 2797 3341 1997 
z
" transform="scale(0.015625)"/>
      <path id="DejaVuSans-6d" d="M 3328 2828 
Q 3544 3216 3844 3400 
Q 4144 3584 4550 3584 
Q 5097 3584 5394 3201 
Q 5691 2819 5691 2113 
L 5691 0 
L 5113 0 
L 5113 2094 
Q 5113 2597 4934 2840 
Q 4756 3084 4391 3084 
Q 3944 3084 3684 2787 
Q 3425 2491 3425 1978 
L 3425 0 
L 2847 0 
L 2847 2094 
Q 2847 2600 2669 2842 
Q 2491 3084 2119 3084 
Q 1678 3084 1418 2786 
Q 1159 2488 1159 1978 
L 1159 0 
L 581 0 
L 581 3500 
L 1159 3500 
L 1159 2956 
Q 1356 3278 1631 3431 
Q 1906 3584 2284 3584 
Q 2666 3584 2933 3390 
Q 3200 3197 3328 2828 
z
" transform="scale(0.015625)"/>
      <path id="DejaVuSans-70" d="M 1159 525 
L 1159 -1331 
L 581 -1331 
L 581 3500 
L 1159 3500 
L 1159 2969 
Q 1341 3281 1617 3432 
Q 1894 3584 2278 3584 
Q 2916 3584 3314 3078 
Q 3713 2572 3713 1747 
Q 3713 922 3314 415 
Q 2916 -91 2278 -91 
Q 1894 -91 1617 61 
Q 1341 213 1159 525 
z
M 3116 1747 
Q 3116 2381 2855 2742 
Q 2594 3103 2138 3103 
Q 1681 3103 1420 2742 
Q 1159 2381 1159 1747 
Q 1159 1113 1420 752 
Q 1681 391 2138 391 
Q 2594 391 2855 752 
Q 3116 1113 3116 1747 
z
" transform="scale(0.015625)"/>
      <path id="DejaVuSans-6c" d="M 603 4863 
L 1178 4863 
L 1178 0 
L 603 0 
L 603 4863 
z
" transform="scale(0.015625)"/>
      <path id="DejaVuSans-65" d="M 3597 1894 
L 3597 1613 
L 953 1613 
Q 991 1019 1311 708 
Q 1631 397 2203 397 
Q 2534 397 2845 478 
Q 3156 559 3463 722 
L 3463 178 
Q 3153 47 2828 -22 
Q 2503 -91 2169 -91 
Q 1331 -91 842 396 
Q 353 884 353 1716 
Q 353 2575 817 3079 
Q 1281 3584 2069 3584 
Q 2775 3584 3186 3129 
Q 3597 2675 3597 1894 
z
M 3022 2063 
Q 3016 2534 2758 2815 
Q 2500 3097 2075 3097 
Q 1594 3097 1305 2825 
Q 1016 2553 972 2059 
L 3022 2063 
z
" transform="scale(0.015625)"/>
      <path id="DejaVuSans-3a" d="M 750 794 
L 1409 794 
L 1409 0 
L 750 0 
L 750 794 
z
M 750 3309 
L 1409 3309 
L 1409 2516 
L 750 2516 
L 750 3309 
z
" transform="scale(0.015625)"/>
      <path id="DejaVuSans-53" d="M 3425 4513 
L 3425 3897 
Q 3066 4069 2747 4153 
Q 2428 4238 2131 4238 
Q 1616 4238 1336 4038 
Q 1056 3838 1056 3469 
Q 1056 3159 1242 3001 
Q 1428 2844 1947 2747 
L 2328 2669 
Q 3034 2534 3370 2195 
Q 3706 1856 3706 1288 
Q 3706 609 3251 259 
Q 2797 -91 1919 -91 
Q 1588 -91 1214 -16 
Q 841 59 441 206 
L 441 856 
Q 825 641 1194 531 
Q 1563 422 1919 422 
Q 2459 422 2753 634 
Q 3047 847 3047 1241 
Q 3047 1584 2836 1778 
Q 2625 1972 2144 2069 
L 1759 2144 
Q 1053 2284 737 2584 
Q 422 2884 422 3419 
Q 422 4038 858 4394 
Q 1294 4750 2059 4750 
Q 2388 4750 2728 4690 
Q 3069 4631 3425 4513 
z
" transform="scale(0.015625)"/>
      <path id="DejaVuSans-52" d="M 2841 2188 
Q 3044 2119 3236 1894 
Q 3428 1669 3622 1275 
L 4263 0 
L 3584 0 
L 2988 1197 
Q 2756 1666 2539 1819 
Q 2322 1972 1947 1972 
L 1259 1972 
L 1259 0 
L 628 0 
L 628 4666 
L 2053 4666 
Q 2853 4666 3247 4331 
Q 3641 3997 3641 3322 
Q 3641 2881 3436 2590 
Q 3231 2300 2841 2188 
z
M 1259 4147 
L 1259 2491 
L 2053 2491 
Q 2509 2491 2742 2702 
Q 2975 2913 2975 3322 
Q 2975 3731 2742 3939 
Q 2509 4147 2053 4147 
L 1259 4147 
z
" transform="scale(0.015625)"/>
      <path id="DejaVuSans-3d" d="M 678 2906 
L 4684 2906 
L 4684 2381 
L 678 2381 
L 678 2906 
z
M 678 1631 
L 4684 1631 
L 4684 1100 
L 678 1100 
L 678 1631 
z
" transform="scale(0.015625)"/>
      <path id="DejaVuSans-2e" d="M 684 794 
L 1344 794 
L 1344 0 
L 684 0 
L 684 794 
z
" transform="scale(0.015625)"/>
      <path id="DejaVuSans-34" d="M 2419 4116 
L 825 1625 
L 2419 1625 
L 2419 4116 
z
M 2253 4666 
L 3047 4666 
L 3047 1625 
L 3713 1625 
L 3713 1100 
L 3047 1100 
L 3047 0 
L 2419 0 
L 2419 1100 
L 313 1100 
L 313 1709 
L 2253 4666 
z
" transform="scale(0.015625)"/>
     </defs>
     <use xlink:href="#DejaVuSans-49"/>
     <use xlink:href="#DejaVuSans-6e" x="29.492188"/>
     <use xlink:href="#DejaVuSans-20" x="92.871094"/>
     <use xlink:href="#DejaVuSans-73" x="124.658203"/>
     <use xlink:href="#DejaVuSans-61" x="176.757812"/>
     <use xlink:href="#DejaVuSans-6d" x="238.037109"/>
     <use xlink:href="#DejaVuSans-70" x="335.449219"/>
     <use xlink:href="#DejaVuSans-6c" x="398.925781"/>
     <use xlink:href="#DejaVuSans-65" x="426.708984"/>
     <use xlink:href="#DejaVuSans-3a" x="488.232422"/>
     <use xlink:href="#DejaVuSans-20" x="521.923828"/>
     <use xlink:href="#DejaVuSans-53" x="553.710938"/>
     <use xlink:href="#DejaVuSans-52" x="617.1875"/>
     <use xlink:href="#DejaVuSans-20" x="686.669922"/>
     <use xlink:href="#DejaVuSans-3d" x="718.457031"/>
     <use xlink:href="#DejaVuSans-20" x="802.246094"/>
     <use xlink:href="#DejaVuSans-30" x="834.033203"/>
     <use xlink:href="#DejaVuSans-2e" x="897.65625"/>
     <use xlink:href="#DejaVuSans-32" x="929.443359"/>
     <use xlink:href="#DejaVuSans-34" x="993.066406"/>
     <use xlink:href="#DejaVuSans-32" x="1056.689453"/>
     <use xlink:href="#DejaVuSans-39" x="1120.3125"/>
     <use xlink:href="#DejaVuSans-35" x="1183.935547"/>
    </g>
   </g>
  </g>
  <g id="axes_2">
   <g id="patch_7">
    <path d="M 377.630202 164.398836 
L 687.864429 164.398836 
L 687.864429 51.48 
L 377.630202 51.48 
z
" style="fill: #e5e5e5"/>
   </g>
   <g id="matplotlib.axis_3">
    <g id="xtick_11">
     <g id="line2d_28">
      <path d="M 388.615391 164.398836 
L 388.615391 51.48 
" clip-path="url(#p40b7552bd5)" style="fill: none; stroke: #ffffff; stroke-width: 0.8; stroke-linecap: square"/>
     </g>
     <g id="line2d_29">
      <g>
       <use xlink:href="#mf9f3a45be2" x="388.615391" y="164.398836" style="fill: #555555; stroke: #555555; stroke-width: 0.8"/>
      </g>
     </g>
     <g id="text_15">
      <!-- 2019-07 -->
      <g style="fill: #555555" transform="translate(371.891764 176.771742)rotate(-315)scale(0.1 -0.1)">
       <use xlink:href="#DejaVuSans-32"/>
       <use xlink:href="#DejaVuSans-30" x="63.623047"/>
       <use xlink:href="#DejaVuSans-31" x="127.246094"/>
       <use xlink:href="#DejaVuSans-39" x="190.869141"/>
       <use xlink:href="#DejaVuSans-2d" x="254.492188"/>
       <use xlink:href="#DejaVuSans-30" x="290.576172"/>
       <use xlink:href="#DejaVuSans-37" x="354.199219"/>
      </g>
     </g>
    </g>
    <g id="xtick_12">
     <g id="line2d_30">
      <path d="M 436.919063 164.398836 
L 436.919063 51.48 
" clip-path="url(#p40b7552bd5)" style="fill: none; stroke: #ffffff; stroke-width: 0.8; stroke-linecap: square"/>
     </g>
     <g id="line2d_31">
      <g>
       <use xlink:href="#mf9f3a45be2" x="436.919063" y="164.398836" style="fill: #555555; stroke: #555555; stroke-width: 0.8"/>
      </g>
     </g>
     <g id="text_16">
      <!-- 2019-08 -->
      <g style="fill: #555555" transform="translate(420.195435 176.771742)rotate(-315)scale(0.1 -0.1)">
       <use xlink:href="#DejaVuSans-32"/>
       <use xlink:href="#DejaVuSans-30" x="63.623047"/>
       <use xlink:href="#DejaVuSans-31" x="127.246094"/>
       <use xlink:href="#DejaVuSans-39" x="190.869141"/>
       <use xlink:href="#DejaVuSans-2d" x="254.492188"/>
       <use xlink:href="#DejaVuSans-30" x="290.576172"/>
       <use xlink:href="#DejaVuSans-38" x="354.199219"/>
      </g>
     </g>
    </g>
    <g id="xtick_13">
     <g id="line2d_32">
      <path d="M 485.222735 164.398836 
L 485.222735 51.48 
" clip-path="url(#p40b7552bd5)" style="fill: none; stroke: #ffffff; stroke-width: 0.8; stroke-linecap: square"/>
     </g>
     <g id="line2d_33">
      <g>
       <use xlink:href="#mf9f3a45be2" x="485.222735" y="164.398836" style="fill: #555555; stroke: #555555; stroke-width: 0.8"/>
      </g>
     </g>
     <g id="text_17">
      <!-- 2019-09 -->
      <g style="fill: #555555" transform="translate(468.499107 176.771742)rotate(-315)scale(0.1 -0.1)">
       <use xlink:href="#DejaVuSans-32"/>
       <use xlink:href="#DejaVuSans-30" x="63.623047"/>
       <use xlink:href="#DejaVuSans-31" x="127.246094"/>
       <use xlink:href="#DejaVuSans-39" x="190.869141"/>
       <use xlink:href="#DejaVuSans-2d" x="254.492188"/>
       <use xlink:href="#DejaVuSans-30" x="290.576172"/>
       <use xlink:href="#DejaVuSans-39" x="354.199219"/>
      </g>
     </g>
    </g>
    <g id="xtick_14">
     <g id="line2d_34">
      <path d="M 531.968224 164.398836 
L 531.968224 51.48 
" clip-path="url(#p40b7552bd5)" style="fill: none; stroke: #ffffff; stroke-width: 0.8; stroke-linecap: square"/>
     </g>
     <g id="line2d_35">
      <g>
       <use xlink:href="#mf9f3a45be2" x="531.968224" y="164.398836" style="fill: #555555; stroke: #555555; stroke-width: 0.8"/>
      </g>
     </g>
     <g id="text_18">
      <!-- 2019-10 -->
      <g style="fill: #555555" transform="translate(515.244596 176.771742)rotate(-315)scale(0.1 -0.1)">
       <use xlink:href="#DejaVuSans-32"/>
       <use xlink:href="#DejaVuSans-30" x="63.623047"/>
       <use xlink:href="#DejaVuSans-31" x="127.246094"/>
       <use xlink:href="#DejaVuSans-39" x="190.869141"/>
       <use xlink:href="#DejaVuSans-2d" x="254.492188"/>
       <use xlink:href="#DejaVuSans-31" x="290.576172"/>
       <use xlink:href="#DejaVuSans-30" x="354.199219"/>
      </g>
     </g>
    </g>
    <g id="xtick_15">
     <g id="line2d_36">
      <path d="M 580.271896 164.398836 
L 580.271896 51.48 
" clip-path="url(#p40b7552bd5)" style="fill: none; stroke: #ffffff; stroke-width: 0.8; stroke-linecap: square"/>
     </g>
     <g id="line2d_37">
      <g>
       <use xlink:href="#mf9f3a45be2" x="580.271896" y="164.398836" style="fill: #555555; stroke: #555555; stroke-width: 0.8"/>
      </g>
     </g>
     <g id="text_19">
      <!-- 2019-11 -->
      <g style="fill: #555555" transform="translate(563.548268 176.771742)rotate(-315)scale(0.1 -0.1)">
       <use xlink:href="#DejaVuSans-32"/>
       <use xlink:href="#DejaVuSans-30" x="63.623047"/>
       <use xlink:href="#DejaVuSans-31" x="127.246094"/>
       <use xlink:href="#DejaVuSans-39" x="190.869141"/>
       <use xlink:href="#DejaVuSans-2d" x="254.492188"/>
       <use xlink:href="#DejaVuSans-31" x="290.576172"/>
       <use xlink:href="#DejaVuSans-31" x="354.199219"/>
      </g>
     </g>
    </g>
    <g id="xtick_16">
     <g id="line2d_38">
      <path d="M 627.017384 164.398836 
L 627.017384 51.48 
" clip-path="url(#p40b7552bd5)" style="fill: none; stroke: #ffffff; stroke-width: 0.8; stroke-linecap: square"/>
     </g>
     <g id="line2d_39">
      <g>
       <use xlink:href="#mf9f3a45be2" x="627.017384" y="164.398836" style="fill: #555555; stroke: #555555; stroke-width: 0.8"/>
      </g>
     </g>
     <g id="text_20">
      <!-- 2019-12 -->
      <g style="fill: #555555" transform="translate(610.293757 176.771742)rotate(-315)scale(0.1 -0.1)">
       <use xlink:href="#DejaVuSans-32"/>
       <use xlink:href="#DejaVuSans-30" x="63.623047"/>
       <use xlink:href="#DejaVuSans-31" x="127.246094"/>
       <use xlink:href="#DejaVuSans-39" x="190.869141"/>
       <use xlink:href="#DejaVuSans-2d" x="254.492188"/>
       <use xlink:href="#DejaVuSans-31" x="290.576172"/>
       <use xlink:href="#DejaVuSans-32" x="354.199219"/>
      </g>
     </g>
    </g>
    <g id="xtick_17">
     <g id="line2d_40">
      <path d="M 675.321056 164.398836 
L 675.321056 51.48 
" clip-path="url(#p40b7552bd5)" style="fill: none; stroke: #ffffff; stroke-width: 0.8; stroke-linecap: square"/>
     </g>
     <g id="line2d_41">
      <g>
       <use xlink:href="#mf9f3a45be2" x="675.321056" y="164.398836" style="fill: #555555; stroke: #555555; stroke-width: 0.8"/>
      </g>
     </g>
     <g id="text_21">
      <!-- 2020-01 -->
      <g style="fill: #555555" transform="translate(658.597428 176.771742)rotate(-315)scale(0.1 -0.1)">
       <use xlink:href="#DejaVuSans-32"/>
       <use xlink:href="#DejaVuSans-30" x="63.623047"/>
       <use xlink:href="#DejaVuSans-32" x="127.246094"/>
       <use xlink:href="#DejaVuSans-30" x="190.869141"/>
       <use xlink:href="#DejaVuSans-2d" x="254.492188"/>
       <use xlink:href="#DejaVuSans-30" x="290.576172"/>
       <use xlink:href="#DejaVuSans-31" x="354.199219"/>
      </g>
     </g>
    </g>
   </g>
   <g id="matplotlib.axis_4">
    <g id="ytick_4">
     <g id="line2d_42">
      <path d="M 377.630202 156.006926 
L 687.864429 156.006926 
" clip-path="url(#p40b7552bd5)" style="fill: none; stroke: #ffffff; stroke-width: 0.8; stroke-linecap: square"/>
     </g>
     <g id="line2d_43">
      <g>
       <use xlink:href="#m4566918065" x="377.630202" y="156.006926" style="fill: #555555; stroke: #555555; stroke-width: 0.8"/>
      </g>
     </g>
     <g id="text_22">
      <!-- 0.6 -->
      <g style="fill: #555555" transform="translate(354.727077 159.806145)scale(0.1 -0.1)">
       <use xlink:href="#DejaVuSans-30"/>
       <use xlink:href="#DejaVuSans-2e" x="63.623047"/>
       <use xlink:href="#DejaVuSans-36" x="95.410156"/>
      </g>
     </g>
    </g>
    <g id="ytick_5">
     <g id="line2d_44">
      <path d="M 377.630202 131.032896 
L 687.864429 131.032896 
" clip-path="url(#p40b7552bd5)" style="fill: none; stroke: #ffffff; stroke-width: 0.8; stroke-linecap: square"/>
     </g>
     <g id="line2d_45">
      <g>
       <use xlink:href="#m4566918065" x="377.630202" y="131.032896" style="fill: #555555; stroke: #555555; stroke-width: 0.8"/>
      </g>
     </g>
     <g id="text_23">
      <!-- 0.8 -->
      <g style="fill: #555555" transform="translate(354.727077 134.832115)scale(0.1 -0.1)">
       <use xlink:href="#DejaVuSans-30"/>
       <use xlink:href="#DejaVuSans-2e" x="63.623047"/>
       <use xlink:href="#DejaVuSans-38" x="95.410156"/>
      </g>
     </g>
    </g>
    <g id="ytick_6">
     <g id="line2d_46">
      <path d="M 377.630202 106.058867 
L 687.864429 106.058867 
" clip-path="url(#p40b7552bd5)" style="fill: none; stroke: #ffffff; stroke-width: 0.8; stroke-linecap: square"/>
     </g>
     <g id="line2d_47">
      <g>
       <use xlink:href="#m4566918065" x="377.630202" y="106.058867" style="fill: #555555; stroke: #555555; stroke-width: 0.8"/>
      </g>
     </g>
     <g id="text_24">
      <!-- 1.0 -->
      <g style="fill: #555555" transform="translate(354.727077 109.858086)scale(0.1 -0.1)">
       <use xlink:href="#DejaVuSans-31"/>
       <use xlink:href="#DejaVuSans-2e" x="63.623047"/>
       <use xlink:href="#DejaVuSans-30" x="95.410156"/>
      </g>
     </g>
    </g>
    <g id="ytick_7">
     <g id="line2d_48">
      <path d="M 377.630202 81.084837 
L 687.864429 81.084837 
" clip-path="url(#p40b7552bd5)" style="fill: none; stroke: #ffffff; stroke-width: 0.8; stroke-linecap: square"/>
     </g>
     <g id="line2d_49">
      <g>
       <use xlink:href="#m4566918065" x="377.630202" y="81.084837" style="fill: #555555; stroke: #555555; stroke-width: 0.8"/>
      </g>
     </g>
     <g id="text_25">
      <!-- 1.2 -->
      <g style="fill: #555555" transform="translate(354.727077 84.884056)scale(0.1 -0.1)">
       <use xlink:href="#DejaVuSans-31"/>
       <use xlink:href="#DejaVuSans-2e" x="63.623047"/>
       <use xlink:href="#DejaVuSans-32" x="95.410156"/>
      </g>
     </g>
    </g>
    <g id="ytick_8">
     <g id="line2d_50">
      <path d="M 377.630202 56.110808 
L 687.864429 56.110808 
" clip-path="url(#p40b7552bd5)" style="fill: none; stroke: #ffffff; stroke-width: 0.8; stroke-linecap: square"/>
     </g>
     <g id="line2d_51">
      <g>
       <use xlink:href="#m4566918065" x="377.630202" y="56.110808" style="fill: #555555; stroke: #555555; stroke-width: 0.8"/>
      </g>
     </g>
     <g id="text_26">
      <!-- 1.4 -->
      <g style="fill: #555555" transform="translate(354.727077 59.910026)scale(0.1 -0.1)">
       <use xlink:href="#DejaVuSans-31"/>
       <use xlink:href="#DejaVuSans-2e" x="63.623047"/>
       <use xlink:href="#DejaVuSans-34" x="95.410156"/>
      </g>
     </g>
    </g>
   </g>
   <g id="line2d_52">
    <path d="M 391.731757 106.141676 
L 394.848123 104.92513 
L 399.522672 103.867513 
L 401.080855 98.930377 
L 402.639038 96.493621 
L 404.197221 90.773609 
L 405.755404 92.760369 
L 410.429953 92.69285 
L 411.988136 97.517631 
L 413.546319 94.05133 
L 415.104502 95.033996 
L 416.662685 99.456354 
L 421.337234 100.365489 
L 422.895417 105.57347 
L 424.4536 114.995578 
L 426.011782 107.317426 
L 427.569965 111.31383 
L 432.244514 111.004315 
L 433.802697 112.801204 
L 435.36088 111.29394 
L 436.919063 111.094648 
L 438.477246 110.490757 
L 443.151795 110.856281 
L 444.709978 101.15453 
L 446.268161 103.479851 
L 447.826344 97.219366 
L 449.384527 86.555528 
L 454.059076 83.594168 
L 455.617259 80.309606 
L 457.175442 83.084986 
L 458.733625 74.016041 
L 460.291808 72.603286 
L 464.966357 69.704076 
L 466.524539 69.273504 
L 468.082722 64.917315 
L 469.640905 63.660914 
L 471.199088 67.133743 
L 475.873637 61.264628 
L 477.43182 56.612674 
L 478.990003 56.817465 
L 480.548186 57.126873 
L 482.106369 63.464182 
L 488.339101 65.085901 
L 489.897284 68.173942 
L 491.455467 73.116264 
L 493.01365 71.426321 
L 497.688199 95.48203 
L 499.246382 123.568805 
L 500.804565 130.341093 
L 502.362748 125.294419 
L 503.920931 130.541464 
L 508.595479 128.335237 
L 510.153662 114.90536 
L 511.711845 109.138166 
L 513.270028 109.64423 
L 514.828211 117.270804 
L 519.50276 117.729539 
L 521.060943 112.413577 
L 522.619126 117.274944 
L 524.177309 113.544855 
L 525.735492 117.945535 
L 530.410041 117.205516 
L 531.968224 112.082179 
L 533.526407 110.516188 
L 535.08459 106.419584 
L 536.642773 101.477081 
L 541.317322 101.150684 
L 542.875505 99.172231 
L 544.433688 96.644283 
L 545.99187 97.480908 
L 547.550053 103.793797 
L 552.224602 105.945619 
L 553.782785 106.548138 
L 555.340968 106.070696 
L 556.899151 101.281413 
L 558.457334 99.898877 
L 563.131883 106.496145 
L 564.690066 123.320283 
L 566.248249 127.981216 
L 567.806432 124.573512 
L 569.364615 120.410741 
L 574.039164 126.176309 
L 575.597347 120.483983 
L 577.15553 115.731459 
L 578.713713 112.997576 
L 580.271896 130.550182 
L 584.946444 143.673458 
L 586.504627 153.755743 
L 588.06281 151.89976 
L 589.620993 155.775636 
L 591.179176 159.266161 
L 595.853725 153.975484 
L 597.411908 149.956754 
L 598.970091 144.287631 
L 600.528274 139.966614 
L 602.086457 144.410732 
L 606.761006 141.849477 
L 608.319189 135.142051 
L 609.877372 129.543411 
L 611.435555 131.263418 
L 612.993738 135.892313 
L 617.668287 137.468206 
L 619.22647 127.992983 
L 620.784653 127.966102 
L 623.901019 127.269481 
L 628.575567 132.488168 
L 630.13375 128.961017 
L 631.691933 128.241782 
L 633.250116 128.793414 
L 634.808299 132.378292 
L 639.482848 137.255355 
L 641.041031 137.803838 
L 642.599214 137.676596 
L 644.157397 141.79511 
L 645.71558 139.576209 
L 650.390129 139.887581 
L 651.948312 138.676342 
L 653.506495 138.8822 
L 655.064678 140.000578 
L 656.622861 138.303242 
L 661.29741 142.499073 
L 662.855593 141.665169 
L 665.971958 139.460144 
L 667.530141 138.658769 
L 672.20469 137.899456 
L 673.762873 140.796703 
" clip-path="url(#p40b7552bd5)" style="fill: none; stroke: #e24a33; stroke-width: 1.5; stroke-linecap: square"/>
   </g>
   <g id="patch_8">
    <path d="M 377.630202 164.398836 
L 377.630202 51.48 
" style="fill: none; stroke: #ffffff; stroke-linejoin: miter; stroke-linecap: square"/>
   </g>
   <g id="patch_9">
    <path d="M 687.864429 164.398836 
L 687.864429 51.48 
" style="fill: none; stroke: #ffffff; stroke-linejoin: miter; stroke-linecap: square"/>
   </g>
   <g id="patch_10">
    <path d="M 377.630202 164.398836 
L 687.864429 164.398836 
" style="fill: none; stroke: #ffffff; stroke-linejoin: miter; stroke-linecap: square"/>
   </g>
   <g id="patch_11">
    <path d="M 377.630202 51.48 
L 687.864429 51.48 
" style="fill: none; stroke: #ffffff; stroke-linejoin: miter; stroke-linecap: square"/>
   </g>
   <g id="text_27">
    <!-- Out of sample: SR = 0.00112 -->
    <g transform="translate(459.539503 45.48)scale(0.1 -0.1)">
     <defs>
      <path id="DejaVuSans-4f" d="M 2522 4238 
Q 1834 4238 1429 3725 
Q 1025 3213 1025 2328 
Q 1025 1447 1429 934 
Q 1834 422 2522 422 
Q 3209 422 3611 934 
Q 4013 1447 4013 2328 
Q 4013 3213 3611 3725 
Q 3209 4238 2522 4238 
z
M 2522 4750 
Q 3503 4750 4090 4092 
Q 4678 3434 4678 2328 
Q 4678 1225 4090 567 
Q 3503 -91 2522 -91 
Q 1538 -91 948 565 
Q 359 1222 359 2328 
Q 359 3434 948 4092 
Q 1538 4750 2522 4750 
z
" transform="scale(0.015625)"/>
      <path id="DejaVuSans-75" d="M 544 1381 
L 544 3500 
L 1119 3500 
L 1119 1403 
Q 1119 906 1312 657 
Q 1506 409 1894 409 
Q 2359 409 2629 706 
Q 2900 1003 2900 1516 
L 2900 3500 
L 3475 3500 
L 3475 0 
L 2900 0 
L 2900 538 
Q 2691 219 2414 64 
Q 2138 -91 1772 -91 
Q 1169 -91 856 284 
Q 544 659 544 1381 
z
M 1991 3584 
L 1991 3584 
z
" transform="scale(0.015625)"/>
      <path id="DejaVuSans-74" d="M 1172 4494 
L 1172 3500 
L 2356 3500 
L 2356 3053 
L 1172 3053 
L 1172 1153 
Q 1172 725 1289 603 
Q 1406 481 1766 481 
L 2356 481 
L 2356 0 
L 1766 0 
Q 1100 0 847 248 
Q 594 497 594 1153 
L 594 3053 
L 172 3053 
L 172 3500 
L 594 3500 
L 594 4494 
L 1172 4494 
z
" transform="scale(0.015625)"/>
      <path id="DejaVuSans-6f" d="M 1959 3097 
Q 1497 3097 1228 2736 
Q 959 2375 959 1747 
Q 959 1119 1226 758 
Q 1494 397 1959 397 
Q 2419 397 2687 759 
Q 2956 1122 2956 1747 
Q 2956 2369 2687 2733 
Q 2419 3097 1959 3097 
z
M 1959 3584 
Q 2709 3584 3137 3096 
Q 3566 2609 3566 1747 
Q 3566 888 3137 398 
Q 2709 -91 1959 -91 
Q 1206 -91 779 398 
Q 353 888 353 1747 
Q 353 2609 779 3096 
Q 1206 3584 1959 3584 
z
" transform="scale(0.015625)"/>
      <path id="DejaVuSans-66" d="M 2375 4863 
L 2375 4384 
L 1825 4384 
Q 1516 4384 1395 4259 
Q 1275 4134 1275 3809 
L 1275 3500 
L 2222 3500 
L 2222 3053 
L 1275 3053 
L 1275 0 
L 697 0 
L 697 3053 
L 147 3053 
L 147 3500 
L 697 3500 
L 697 3744 
Q 697 4328 969 4595 
Q 1241 4863 1831 4863 
L 2375 4863 
z
" transform="scale(0.015625)"/>
     </defs>
     <use xlink:href="#DejaVuSans-4f"/>
     <use xlink:href="#DejaVuSans-75" x="78.710938"/>
     <use xlink:href="#DejaVuSans-74" x="142.089844"/>
     <use xlink:href="#DejaVuSans-20" x="181.298828"/>
     <use xlink:href="#DejaVuSans-6f" x="213.085938"/>
     <use xlink:href="#DejaVuSans-66" x="274.267578"/>
     <use xlink:href="#DejaVuSans-20" x="309.472656"/>
     <use xlink:href="#DejaVuSans-73" x="341.259766"/>
     <use xlink:href="#DejaVuSans-61" x="393.359375"/>
     <use xlink:href="#DejaVuSans-6d" x="454.638672"/>
     <use xlink:href="#DejaVuSans-70" x="552.050781"/>
     <use xlink:href="#DejaVuSans-6c" x="615.527344"/>
     <use xlink:href="#DejaVuSans-65" x="643.310547"/>
     <use xlink:href="#DejaVuSans-3a" x="704.833984"/>
     <use xlink:href="#DejaVuSans-20" x="738.525391"/>
     <use xlink:href="#DejaVuSans-53" x="770.3125"/>
     <use xlink:href="#DejaVuSans-52" x="833.789062"/>
     <use xlink:href="#DejaVuSans-20" x="903.271484"/>
     <use xlink:href="#DejaVuSans-3d" x="935.058594"/>
     <use xlink:href="#DejaVuSans-20" x="1018.847656"/>
     <use xlink:href="#DejaVuSans-30" x="1050.634766"/>
     <use xlink:href="#DejaVuSans-2e" x="1114.257812"/>
     <use xlink:href="#DejaVuSans-30" x="1146.044922"/>
     <use xlink:href="#DejaVuSans-30" x="1209.667969"/>
     <use xlink:href="#DejaVuSans-31" x="1273.291016"/>
     <use xlink:href="#DejaVuSans-31" x="1336.914062"/>
     <use xlink:href="#DejaVuSans-32" x="1400.537109"/>
    </g>
   </g>
  </g>
  <g id="text_28">
   <!-- Filtered correlation matrix -->
   <g transform="translate(268.96 16.318125)scale(0.12 -0.12)">
    <defs>
     <path id="DejaVuSans-46" d="M 628 4666 
L 3309 4666 
L 3309 4134 
L 1259 4134 
L 1259 2759 
L 3109 2759 
L 3109 2228 
L 1259 2228 
L 1259 0 
L 628 0 
L 628 4666 
z
" transform="scale(0.015625)"/>
     <path id="DejaVuSans-69" d="M 603 3500 
L 1178 3500 
L 1178 0 
L 603 0 
L 603 3500 
z
M 603 4863 
L 1178 4863 
L 1178 4134 
L 603 4134 
L 603 4863 
z
" transform="scale(0.015625)"/>
     <path id="DejaVuSans-72" d="M 2631 2963 
Q 2534 3019 2420 3045 
Q 2306 3072 2169 3072 
Q 1681 3072 1420 2755 
Q 1159 2438 1159 1844 
L 1159 0 
L 581 0 
L 581 3500 
L 1159 3500 
L 1159 2956 
Q 1341 3275 1631 3429 
Q 1922 3584 2338 3584 
Q 2397 3584 2469 3576 
Q 2541 3569 2628 3553 
L 2631 2963 
z
" transform="scale(0.015625)"/>
     <path id="DejaVuSans-64" d="M 2906 2969 
L 2906 4863 
L 3481 4863 
L 3481 0 
L 2906 0 
L 2906 525 
Q 2725 213 2448 61 
Q 2172 -91 1784 -91 
Q 1150 -91 751 415 
Q 353 922 353 1747 
Q 353 2572 751 3078 
Q 1150 3584 1784 3584 
Q 2172 3584 2448 3432 
Q 2725 3281 2906 2969 
z
M 947 1747 
Q 947 1113 1208 752 
Q 1469 391 1925 391 
Q 2381 391 2643 752 
Q 2906 1113 2906 1747 
Q 2906 2381 2643 2742 
Q 2381 3103 1925 3103 
Q 1469 3103 1208 2742 
Q 947 2381 947 1747 
z
" transform="scale(0.015625)"/>
     <path id="DejaVuSans-63" d="M 3122 3366 
L 3122 2828 
Q 2878 2963 2633 3030 
Q 2388 3097 2138 3097 
Q 1578 3097 1268 2742 
Q 959 2388 959 1747 
Q 959 1106 1268 751 
Q 1578 397 2138 397 
Q 2388 397 2633 464 
Q 2878 531 3122 666 
L 3122 134 
Q 2881 22 2623 -34 
Q 2366 -91 2075 -91 
Q 1284 -91 818 406 
Q 353 903 353 1747 
Q 353 2603 823 3093 
Q 1294 3584 2113 3584 
Q 2378 3584 2631 3529 
Q 2884 3475 3122 3366 
z
" transform="scale(0.015625)"/>
     <path id="DejaVuSans-78" d="M 3513 3500 
L 2247 1797 
L 3578 0 
L 2900 0 
L 1881 1375 
L 863 0 
L 184 0 
L 1544 1831 
L 300 3500 
L 978 3500 
L 1906 2253 
L 2834 3500 
L 3513 3500 
z
" transform="scale(0.015625)"/>
    </defs>
    <use xlink:href="#DejaVuSans-46"/>
    <use xlink:href="#DejaVuSans-69" x="50.269531"/>
    <use xlink:href="#DejaVuSans-6c" x="78.052734"/>
    <use xlink:href="#DejaVuSans-74" x="105.835938"/>
    <use xlink:href="#DejaVuSans-65" x="145.044922"/>
    <use xlink:href="#DejaVuSans-72" x="206.568359"/>
    <use xlink:href="#DejaVuSans-65" x="245.431641"/>
    <use xlink:href="#DejaVuSans-64" x="306.955078"/>
    <use xlink:href="#DejaVuSans-20" x="370.431641"/>
    <use xlink:href="#DejaVuSans-63" x="402.21875"/>
    <use xlink:href="#DejaVuSans-6f" x="457.199219"/>
    <use xlink:href="#DejaVuSans-72" x="518.380859"/>
    <use xlink:href="#DejaVuSans-72" x="557.744141"/>
    <use xlink:href="#DejaVuSans-65" x="596.607422"/>
    <use xlink:href="#DejaVuSans-6c" x="658.130859"/>
    <use xlink:href="#DejaVuSans-61" x="685.914062"/>
    <use xlink:href="#DejaVuSans-74" x="747.193359"/>
    <use xlink:href="#DejaVuSans-69" x="786.402344"/>
    <use xlink:href="#DejaVuSans-6f" x="814.185547"/>
    <use xlink:href="#DejaVuSans-6e" x="875.367188"/>
    <use xlink:href="#DejaVuSans-20" x="938.746094"/>
    <use xlink:href="#DejaVuSans-6d" x="970.533203"/>
    <use xlink:href="#DejaVuSans-61" x="1067.945312"/>
    <use xlink:href="#DejaVuSans-74" x="1129.224609"/>
    <use xlink:href="#DejaVuSans-72" x="1168.433594"/>
    <use xlink:href="#DejaVuSans-69" x="1209.546875"/>
    <use xlink:href="#DejaVuSans-78" x="1237.330078"/>
   </g>
  </g>
 </g>
 <defs>
  <clipPath id="pb31765d035">
   <rect x="26.925" y="51.48" width="310.234227" height="112.918836"/>
  </clipPath>
  <clipPath id="p40b7552bd5">
   <rect x="377.630202" y="51.48" width="310.234227" height="112.918836"/>
  </clipPath>
 </defs>
</svg>
