<?xml version="1.0" encoding="utf-8" standalone="no"?>
<!DOCTYPE svg PUBLIC "-//W3C//DTD SVG 1.1//EN"
  "http://www.w3.org/Graphics/SVG/1.1/DTD/svg11.dtd">
<svg xmlns:xlink="http://www.w3.org/1999/xlink" width="395.31375pt" height="267.931094pt" viewBox="0 0 395.31375 267.931094" xmlns="http://www.w3.org/2000/svg" version="1.1">
 <metadata>
  <rdf:RDF xmlns:dc="http://purl.org/dc/elements/1.1/" xmlns:cc="http://creativecommons.org/ns#" xmlns:rdf="http://www.w3.org/1999/02/22-rdf-syntax-ns#">
   <cc:Work>
    <dc:type rdf:resource="http://purl.org/dc/dcmitype/StillImage"/>
    <dc:date>2022-05-11T19:33:56.833528</dc:date>
    <dc:format>image/svg+xml</dc:format>
    <dc:creator>
     <cc:Agent>
      <dc:title>Matplotlib v3.5.1, https://matplotlib.org/</dc:title>
     </cc:Agent>
    </dc:creator>
   </cc:Work>
  </rdf:RDF>
 </metadata>
 <defs>
  <style type="text/css">*{stroke-linejoin: round; stroke-linecap: butt}</style>
 </defs>
 <g id="figure_1">
  <g id="patch_1">
   <path d="M 0 267.931094 
L 395.31375 267.931094 
L 395.31375 0 
L 0 0 
z
" style="fill: #ffffff"/>
  </g>
  <g id="axes_1">
   <g id="patch_2">
    <path d="M 53.31375 228.439219 
L 388.11375 228.439219 
L 388.11375 10.999219 
L 53.31375 10.999219 
z
" style="fill: #e5e5e5"/>
   </g>
   <g id="matplotlib.axis_1">
    <g id="xtick_1">
     <g id="line2d_1">
      <path d="M 68.531932 228.439219 
L 68.531932 10.999219 
" clip-path="url(#p25539b3dc1)" style="fill: none; stroke: #ffffff; stroke-width: 0.8; stroke-linecap: square"/>
     </g>
     <g id="line2d_2">
      <defs>
       <path id="m7e1cc52af9" d="M 0 0 
L 0 3.5 
" style="stroke: #555555; stroke-width: 0.8"/>
      </defs>
      <g>
       <use xlink:href="#m7e1cc52af9" x="68.531932" y="228.439219" style="fill: #555555; stroke: #555555; stroke-width: 0.8"/>
      </g>
     </g>
     <g id="text_1">
      <!-- $\mathdefault{10^{0}}$ -->
      <g style="fill: #555555" transform="translate(59.731932 243.037656)scale(0.1 -0.1)">
       <defs>
        <path id="DejaVuSans-31" d="M 794 531 
L 1825 531 
L 1825 4091 
L 703 3866 
L 703 4441 
L 1819 4666 
L 2450 4666 
L 2450 531 
L 3481 531 
L 3481 0 
L 794 0 
L 794 531 
z
" transform="scale(0.015625)"/>
        <path id="DejaVuSans-30" d="M 2034 4250 
Q 1547 4250 1301 3770 
Q 1056 3291 1056 2328 
Q 1056 1369 1301 889 
Q 1547 409 2034 409 
Q 2525 409 2770 889 
Q 3016 1369 3016 2328 
Q 3016 3291 2770 3770 
Q 2525 4250 2034 4250 
z
M 2034 4750 
Q 2819 4750 3233 4129 
Q 3647 3509 3647 2328 
Q 3647 1150 3233 529 
Q 2819 -91 2034 -91 
Q 1250 -91 836 529 
Q 422 1150 422 2328 
Q 422 3509 836 4129 
Q 1250 4750 2034 4750 
z
" transform="scale(0.015625)"/>
       </defs>
       <use xlink:href="#DejaVuSans-31" transform="translate(0 0.765625)"/>
       <use xlink:href="#DejaVuSans-30" transform="translate(63.623047 0.765625)"/>
       <use xlink:href="#DejaVuSans-30" transform="translate(128.203125 39.046875)scale(0.7)"/>
      </g>
     </g>
    </g>
    <g id="xtick_2">
     <g id="line2d_3">
      <path d="M 182.279633 228.439219 
L 182.279633 10.999219 
" clip-path="url(#p25539b3dc1)" style="fill: none; stroke: #ffffff; stroke-width: 0.8; stroke-linecap: square"/>
     </g>
     <g id="line2d_4">
      <g>
       <use xlink:href="#m7e1cc52af9" x="182.279633" y="228.439219" style="fill: #555555; stroke: #555555; stroke-width: 0.8"/>
      </g>
     </g>
     <g id="text_2">
      <!-- $\mathdefault{10^{1}}$ -->
      <g style="fill: #555555" transform="translate(173.479633 243.037656)scale(0.1 -0.1)">
       <use xlink:href="#DejaVuSans-31" transform="translate(0 0.684375)"/>
       <use xlink:href="#DejaVuSans-30" transform="translate(63.623047 0.684375)"/>
       <use xlink:href="#DejaVuSans-31" transform="translate(128.203125 38.965625)scale(0.7)"/>
      </g>
     </g>
    </g>
    <g id="xtick_3">
     <g id="line2d_5">
      <path d="M 296.027335 228.439219 
L 296.027335 10.999219 
" clip-path="url(#p25539b3dc1)" style="fill: none; stroke: #ffffff; stroke-width: 0.8; stroke-linecap: square"/>
     </g>
     <g id="line2d_6">
      <g>
       <use xlink:href="#m7e1cc52af9" x="296.027335" y="228.439219" style="fill: #555555; stroke: #555555; stroke-width: 0.8"/>
      </g>
     </g>
     <g id="text_3">
      <!-- $\mathdefault{10^{2}}$ -->
      <g style="fill: #555555" transform="translate(287.227335 243.037656)scale(0.1 -0.1)">
       <defs>
        <path id="DejaVuSans-32" d="M 1228 531 
L 3431 531 
L 3431 0 
L 469 0 
L 469 531 
Q 828 903 1448 1529 
Q 2069 2156 2228 2338 
Q 2531 2678 2651 2914 
Q 2772 3150 2772 3378 
Q 2772 3750 2511 3984 
Q 2250 4219 1831 4219 
Q 1534 4219 1204 4116 
Q 875 4013 500 3803 
L 500 4441 
Q 881 4594 1212 4672 
Q 1544 4750 1819 4750 
Q 2544 4750 2975 4387 
Q 3406 4025 3406 3419 
Q 3406 3131 3298 2873 
Q 3191 2616 2906 2266 
Q 2828 2175 2409 1742 
Q 1991 1309 1228 531 
z
" transform="scale(0.015625)"/>
       </defs>
       <use xlink:href="#DejaVuSans-31" transform="translate(0 0.765625)"/>
       <use xlink:href="#DejaVuSans-30" transform="translate(63.623047 0.765625)"/>
       <use xlink:href="#DejaVuSans-32" transform="translate(128.203125 39.046875)scale(0.7)"/>
      </g>
     </g>
    </g>
    <g id="xtick_4">
     <g id="line2d_7">
      <defs>
       <path id="m3b894e73d0" d="M 0 0 
L 0 2 
" style="stroke: #555555; stroke-width: 0.6"/>
      </defs>
      <g>
       <use xlink:href="#m3b894e73d0" x="57.508641" y="228.439219" style="fill: #555555; stroke: #555555; stroke-width: 0.6"/>
      </g>
     </g>
    </g>
    <g id="xtick_5">
     <g id="line2d_8">
      <g>
       <use xlink:href="#m3b894e73d0" x="63.327122" y="228.439219" style="fill: #555555; stroke: #555555; stroke-width: 0.6"/>
      </g>
     </g>
    </g>
    <g id="xtick_6">
     <g id="line2d_9">
      <g>
       <use xlink:href="#m3b894e73d0" x="102.773402" y="228.439219" style="fill: #555555; stroke: #555555; stroke-width: 0.6"/>
      </g>
     </g>
    </g>
    <g id="xtick_7">
     <g id="line2d_10">
      <g>
       <use xlink:href="#m3b894e73d0" x="122.803378" y="228.439219" style="fill: #555555; stroke: #555555; stroke-width: 0.6"/>
      </g>
     </g>
    </g>
    <g id="xtick_8">
     <g id="line2d_11">
      <g>
       <use xlink:href="#m3b894e73d0" x="137.014872" y="228.439219" style="fill: #555555; stroke: #555555; stroke-width: 0.6"/>
      </g>
     </g>
    </g>
    <g id="xtick_9">
     <g id="line2d_12">
      <g>
       <use xlink:href="#m3b894e73d0" x="148.038163" y="228.439219" style="fill: #555555; stroke: #555555; stroke-width: 0.6"/>
      </g>
     </g>
    </g>
    <g id="xtick_10">
     <g id="line2d_13">
      <g>
       <use xlink:href="#m3b894e73d0" x="157.044848" y="228.439219" style="fill: #555555; stroke: #555555; stroke-width: 0.6"/>
      </g>
     </g>
    </g>
    <g id="xtick_11">
     <g id="line2d_14">
      <g>
       <use xlink:href="#m3b894e73d0" x="164.659891" y="228.439219" style="fill: #555555; stroke: #555555; stroke-width: 0.6"/>
      </g>
     </g>
    </g>
    <g id="xtick_12">
     <g id="line2d_15">
      <g>
       <use xlink:href="#m3b894e73d0" x="171.256342" y="228.439219" style="fill: #555555; stroke: #555555; stroke-width: 0.6"/>
      </g>
     </g>
    </g>
    <g id="xtick_13">
     <g id="line2d_16">
      <g>
       <use xlink:href="#m3b894e73d0" x="177.074824" y="228.439219" style="fill: #555555; stroke: #555555; stroke-width: 0.6"/>
      </g>
     </g>
    </g>
    <g id="xtick_14">
     <g id="line2d_17">
      <g>
       <use xlink:href="#m3b894e73d0" x="216.521104" y="228.439219" style="fill: #555555; stroke: #555555; stroke-width: 0.6"/>
      </g>
     </g>
    </g>
    <g id="xtick_15">
     <g id="line2d_18">
      <g>
       <use xlink:href="#m3b894e73d0" x="236.55108" y="228.439219" style="fill: #555555; stroke: #555555; stroke-width: 0.6"/>
      </g>
     </g>
    </g>
    <g id="xtick_16">
     <g id="line2d_19">
      <g>
       <use xlink:href="#m3b894e73d0" x="250.762574" y="228.439219" style="fill: #555555; stroke: #555555; stroke-width: 0.6"/>
      </g>
     </g>
    </g>
    <g id="xtick_17">
     <g id="line2d_20">
      <g>
       <use xlink:href="#m3b894e73d0" x="261.785865" y="228.439219" style="fill: #555555; stroke: #555555; stroke-width: 0.6"/>
      </g>
     </g>
    </g>
    <g id="xtick_18">
     <g id="line2d_21">
      <g>
       <use xlink:href="#m3b894e73d0" x="270.79255" y="228.439219" style="fill: #555555; stroke: #555555; stroke-width: 0.6"/>
      </g>
     </g>
    </g>
    <g id="xtick_19">
     <g id="line2d_22">
      <g>
       <use xlink:href="#m3b894e73d0" x="278.407593" y="228.439219" style="fill: #555555; stroke: #555555; stroke-width: 0.6"/>
      </g>
     </g>
    </g>
    <g id="xtick_20">
     <g id="line2d_23">
      <g>
       <use xlink:href="#m3b894e73d0" x="285.004044" y="228.439219" style="fill: #555555; stroke: #555555; stroke-width: 0.6"/>
      </g>
     </g>
    </g>
    <g id="xtick_21">
     <g id="line2d_24">
      <g>
       <use xlink:href="#m3b894e73d0" x="290.822526" y="228.439219" style="fill: #555555; stroke: #555555; stroke-width: 0.6"/>
      </g>
     </g>
    </g>
    <g id="xtick_22">
     <g id="line2d_25">
      <g>
       <use xlink:href="#m3b894e73d0" x="330.268805" y="228.439219" style="fill: #555555; stroke: #555555; stroke-width: 0.6"/>
      </g>
     </g>
    </g>
    <g id="xtick_23">
     <g id="line2d_26">
      <g>
       <use xlink:href="#m3b894e73d0" x="350.298781" y="228.439219" style="fill: #555555; stroke: #555555; stroke-width: 0.6"/>
      </g>
     </g>
    </g>
    <g id="xtick_24">
     <g id="line2d_27">
      <g>
       <use xlink:href="#m3b894e73d0" x="364.510275" y="228.439219" style="fill: #555555; stroke: #555555; stroke-width: 0.6"/>
      </g>
     </g>
    </g>
    <g id="xtick_25">
     <g id="line2d_28">
      <g>
       <use xlink:href="#m3b894e73d0" x="375.533567" y="228.439219" style="fill: #555555; stroke: #555555; stroke-width: 0.6"/>
      </g>
     </g>
    </g>
    <g id="xtick_26">
     <g id="line2d_29">
      <g>
       <use xlink:href="#m3b894e73d0" x="384.540251" y="228.439219" style="fill: #555555; stroke: #555555; stroke-width: 0.6"/>
      </g>
     </g>
    </g>
    <g id="text_4">
     <!-- Eigenvector index -->
     <g style="fill: #555555" transform="translate(166.596563 258.235469)scale(0.12 -0.12)">
      <defs>
       <path id="DejaVuSans-45" d="M 628 4666 
L 3578 4666 
L 3578 4134 
L 1259 4134 
L 1259 2753 
L 3481 2753 
L 3481 2222 
L 1259 2222 
L 1259 531 
L 3634 531 
L 3634 0 
L 628 0 
L 628 4666 
z
" transform="scale(0.015625)"/>
       <path id="DejaVuSans-69" d="M 603 3500 
L 1178 3500 
L 1178 0 
L 603 0 
L 603 3500 
z
M 603 4863 
L 1178 4863 
L 1178 4134 
L 603 4134 
L 603 4863 
z
" transform="scale(0.015625)"/>
       <path id="DejaVuSans-67" d="M 2906 1791 
Q 2906 2416 2648 2759 
Q 2391 3103 1925 3103 
Q 1463 3103 1205 2759 
Q 947 2416 947 1791 
Q 947 1169 1205 825 
Q 1463 481 1925 481 
Q 2391 481 2648 825 
Q 2906 1169 2906 1791 
z
M 3481 434 
Q 3481 -459 3084 -895 
Q 2688 -1331 1869 -1331 
Q 1566 -1331 1297 -1286 
Q 1028 -1241 775 -1147 
L 775 -588 
Q 1028 -725 1275 -790 
Q 1522 -856 1778 -856 
Q 2344 -856 2625 -561 
Q 2906 -266 2906 331 
L 2906 616 
Q 2728 306 2450 153 
Q 2172 0 1784 0 
Q 1141 0 747 490 
Q 353 981 353 1791 
Q 353 2603 747 3093 
Q 1141 3584 1784 3584 
Q 2172 3584 2450 3431 
Q 2728 3278 2906 2969 
L 2906 3500 
L 3481 3500 
L 3481 434 
z
" transform="scale(0.015625)"/>
       <path id="DejaVuSans-65" d="M 3597 1894 
L 3597 1613 
L 953 1613 
Q 991 1019 1311 708 
Q 1631 397 2203 397 
Q 2534 397 2845 478 
Q 3156 559 3463 722 
L 3463 178 
Q 3153 47 2828 -22 
Q 2503 -91 2169 -91 
Q 1331 -91 842 396 
Q 353 884 353 1716 
Q 353 2575 817 3079 
Q 1281 3584 2069 3584 
Q 2775 3584 3186 3129 
Q 3597 2675 3597 1894 
z
M 3022 2063 
Q 3016 2534 2758 2815 
Q 2500 3097 2075 3097 
Q 1594 3097 1305 2825 
Q 1016 2553 972 2059 
L 3022 2063 
z
" transform="scale(0.015625)"/>
       <path id="DejaVuSans-6e" d="M 3513 2113 
L 3513 0 
L 2938 0 
L 2938 2094 
Q 2938 2591 2744 2837 
Q 2550 3084 2163 3084 
Q 1697 3084 1428 2787 
Q 1159 2491 1159 1978 
L 1159 0 
L 581 0 
L 581 3500 
L 1159 3500 
L 1159 2956 
Q 1366 3272 1645 3428 
Q 1925 3584 2291 3584 
Q 2894 3584 3203 3211 
Q 3513 2838 3513 2113 
z
" transform="scale(0.015625)"/>
       <path id="DejaVuSans-76" d="M 191 3500 
L 800 3500 
L 1894 563 
L 2988 3500 
L 3597 3500 
L 2284 0 
L 1503 0 
L 191 3500 
z
" transform="scale(0.015625)"/>
       <path id="DejaVuSans-63" d="M 3122 3366 
L 3122 2828 
Q 2878 2963 2633 3030 
Q 2388 3097 2138 3097 
Q 1578 3097 1268 2742 
Q 959 2388 959 1747 
Q 959 1106 1268 751 
Q 1578 397 2138 397 
Q 2388 397 2633 464 
Q 2878 531 3122 666 
L 3122 134 
Q 2881 22 2623 -34 
Q 2366 -91 2075 -91 
Q 1284 -91 818 406 
Q 353 903 353 1747 
Q 353 2603 823 3093 
Q 1294 3584 2113 3584 
Q 2378 3584 2631 3529 
Q 2884 3475 3122 3366 
z
" transform="scale(0.015625)"/>
       <path id="DejaVuSans-74" d="M 1172 4494 
L 1172 3500 
L 2356 3500 
L 2356 3053 
L 1172 3053 
L 1172 1153 
Q 1172 725 1289 603 
Q 1406 481 1766 481 
L 2356 481 
L 2356 0 
L 1766 0 
Q 1100 0 847 248 
Q 594 497 594 1153 
L 594 3053 
L 172 3053 
L 172 3500 
L 594 3500 
L 594 4494 
L 1172 4494 
z
" transform="scale(0.015625)"/>
       <path id="DejaVuSans-6f" d="M 1959 3097 
Q 1497 3097 1228 2736 
Q 959 2375 959 1747 
Q 959 1119 1226 758 
Q 1494 397 1959 397 
Q 2419 397 2687 759 
Q 2956 1122 2956 1747 
Q 2956 2369 2687 2733 
Q 2419 3097 1959 3097 
z
M 1959 3584 
Q 2709 3584 3137 3096 
Q 3566 2609 3566 1747 
Q 3566 888 3137 398 
Q 2709 -91 1959 -91 
Q 1206 -91 779 398 
Q 353 888 353 1747 
Q 353 2609 779 3096 
Q 1206 3584 1959 3584 
z
" transform="scale(0.015625)"/>
       <path id="DejaVuSans-72" d="M 2631 2963 
Q 2534 3019 2420 3045 
Q 2306 3072 2169 3072 
Q 1681 3072 1420 2755 
Q 1159 2438 1159 1844 
L 1159 0 
L 581 0 
L 581 3500 
L 1159 3500 
L 1159 2956 
Q 1341 3275 1631 3429 
Q 1922 3584 2338 3584 
Q 2397 3584 2469 3576 
Q 2541 3569 2628 3553 
L 2631 2963 
z
" transform="scale(0.015625)"/>
       <path id="DejaVuSans-20" transform="scale(0.015625)"/>
       <path id="DejaVuSans-64" d="M 2906 2969 
L 2906 4863 
L 3481 4863 
L 3481 0 
L 2906 0 
L 2906 525 
Q 2725 213 2448 61 
Q 2172 -91 1784 -91 
Q 1150 -91 751 415 
Q 353 922 353 1747 
Q 353 2572 751 3078 
Q 1150 3584 1784 3584 
Q 2172 3584 2448 3432 
Q 2725 3281 2906 2969 
z
M 947 1747 
Q 947 1113 1208 752 
Q 1469 391 1925 391 
Q 2381 391 2643 752 
Q 2906 1113 2906 1747 
Q 2906 2381 2643 2742 
Q 2381 3103 1925 3103 
Q 1469 3103 1208 2742 
Q 947 2381 947 1747 
z
" transform="scale(0.015625)"/>
       <path id="DejaVuSans-78" d="M 3513 3500 
L 2247 1797 
L 3578 0 
L 2900 0 
L 1881 1375 
L 863 0 
L 184 0 
L 1544 1831 
L 300 3500 
L 978 3500 
L 1906 2253 
L 2834 3500 
L 3513 3500 
z
" transform="scale(0.015625)"/>
      </defs>
      <use xlink:href="#DejaVuSans-45"/>
      <use xlink:href="#DejaVuSans-69" x="63.183594"/>
      <use xlink:href="#DejaVuSans-67" x="90.966797"/>
      <use xlink:href="#DejaVuSans-65" x="154.443359"/>
      <use xlink:href="#DejaVuSans-6e" x="215.966797"/>
      <use xlink:href="#DejaVuSans-76" x="279.345703"/>
      <use xlink:href="#DejaVuSans-65" x="338.525391"/>
      <use xlink:href="#DejaVuSans-63" x="400.048828"/>
      <use xlink:href="#DejaVuSans-74" x="455.029297"/>
      <use xlink:href="#DejaVuSans-6f" x="494.238281"/>
      <use xlink:href="#DejaVuSans-72" x="555.419922"/>
      <use xlink:href="#DejaVuSans-20" x="596.533203"/>
      <use xlink:href="#DejaVuSans-69" x="628.320312"/>
      <use xlink:href="#DejaVuSans-6e" x="656.103516"/>
      <use xlink:href="#DejaVuSans-64" x="719.482422"/>
      <use xlink:href="#DejaVuSans-65" x="782.958984"/>
      <use xlink:href="#DejaVuSans-78" x="842.732422"/>
     </g>
    </g>
   </g>
   <g id="matplotlib.axis_2">
    <g id="ytick_1">
     <g id="line2d_30">
      <path d="M 53.31375 171.203483 
L 388.11375 171.203483 
" clip-path="url(#p25539b3dc1)" style="fill: none; stroke: #ffffff; stroke-width: 0.8; stroke-linecap: square"/>
     </g>
     <g id="line2d_31">
      <defs>
       <path id="mbe6bcbdddb" d="M 0 0 
L -3.5 0 
" style="stroke: #555555; stroke-width: 0.8"/>
      </defs>
      <g>
       <use xlink:href="#mbe6bcbdddb" x="53.31375" y="171.203483" style="fill: #555555; stroke: #555555; stroke-width: 0.8"/>
      </g>
     </g>
     <g id="text_5">
      <!-- $\mathdefault{10^{-2}}$ -->
      <g style="fill: #555555" transform="translate(22.81375 175.002701)scale(0.1 -0.1)">
       <defs>
        <path id="DejaVuSans-2212" d="M 678 2272 
L 4684 2272 
L 4684 1741 
L 678 1741 
L 678 2272 
z
" transform="scale(0.015625)"/>
       </defs>
       <use xlink:href="#DejaVuSans-31" transform="translate(0 0.765625)"/>
       <use xlink:href="#DejaVuSans-30" transform="translate(63.623047 0.765625)"/>
       <use xlink:href="#DejaVuSans-2212" transform="translate(128.203125 39.046875)scale(0.7)"/>
       <use xlink:href="#DejaVuSans-32" transform="translate(186.855469 39.046875)scale(0.7)"/>
      </g>
     </g>
    </g>
    <g id="ytick_2">
     <g id="line2d_32">
      <path d="M 53.31375 91.101351 
L 388.11375 91.101351 
" clip-path="url(#p25539b3dc1)" style="fill: none; stroke: #ffffff; stroke-width: 0.8; stroke-linecap: square"/>
     </g>
     <g id="line2d_33">
      <g>
       <use xlink:href="#mbe6bcbdddb" x="53.31375" y="91.101351" style="fill: #555555; stroke: #555555; stroke-width: 0.8"/>
      </g>
     </g>
     <g id="text_6">
      <!-- $\mathdefault{10^{-1}}$ -->
      <g style="fill: #555555" transform="translate(22.81375 94.900569)scale(0.1 -0.1)">
       <use xlink:href="#DejaVuSans-31" transform="translate(0 0.684375)"/>
       <use xlink:href="#DejaVuSans-30" transform="translate(63.623047 0.684375)"/>
       <use xlink:href="#DejaVuSans-2212" transform="translate(128.203125 38.965625)scale(0.7)"/>
       <use xlink:href="#DejaVuSans-31" transform="translate(186.855469 38.965625)scale(0.7)"/>
      </g>
     </g>
    </g>
    <g id="ytick_3">
     <g id="line2d_34">
      <path d="M 53.31375 10.999219 
L 388.11375 10.999219 
" clip-path="url(#p25539b3dc1)" style="fill: none; stroke: #ffffff; stroke-width: 0.8; stroke-linecap: square"/>
     </g>
     <g id="line2d_35">
      <g>
       <use xlink:href="#mbe6bcbdddb" x="53.31375" y="10.999219" style="fill: #555555; stroke: #555555; stroke-width: 0.8"/>
      </g>
     </g>
     <g id="text_7">
      <!-- $\mathdefault{10^{0}}$ -->
      <g style="fill: #555555" transform="translate(28.71375 14.798438)scale(0.1 -0.1)">
       <use xlink:href="#DejaVuSans-31" transform="translate(0 0.765625)"/>
       <use xlink:href="#DejaVuSans-30" transform="translate(63.623047 0.765625)"/>
       <use xlink:href="#DejaVuSans-30" transform="translate(128.203125 39.046875)scale(0.7)"/>
      </g>
     </g>
    </g>
    <g id="ytick_4">
     <g id="line2d_36">
      <defs>
       <path id="m898ac5a1e1" d="M 0 0 
L -2 0 
" style="stroke: #555555; stroke-width: 0.6"/>
      </defs>
      <g>
       <use xlink:href="#m898ac5a1e1" x="53.31375" y="227.19247" style="fill: #555555; stroke: #555555; stroke-width: 0.6"/>
      </g>
     </g>
    </g>
    <g id="ytick_5">
     <g id="line2d_37">
      <g>
       <use xlink:href="#m898ac5a1e1" x="53.31375" y="213.087185" style="fill: #555555; stroke: #555555; stroke-width: 0.6"/>
      </g>
     </g>
    </g>
    <g id="ytick_6">
     <g id="line2d_38">
      <g>
       <use xlink:href="#m898ac5a1e1" x="53.31375" y="203.079326" style="fill: #555555; stroke: #555555; stroke-width: 0.6"/>
      </g>
     </g>
    </g>
    <g id="ytick_7">
     <g id="line2d_39">
      <g>
       <use xlink:href="#m898ac5a1e1" x="53.31375" y="195.316627" style="fill: #555555; stroke: #555555; stroke-width: 0.6"/>
      </g>
     </g>
    </g>
    <g id="ytick_8">
     <g id="line2d_40">
      <g>
       <use xlink:href="#m898ac5a1e1" x="53.31375" y="188.97404" style="fill: #555555; stroke: #555555; stroke-width: 0.6"/>
      </g>
     </g>
    </g>
    <g id="ytick_9">
     <g id="line2d_41">
      <g>
       <use xlink:href="#m898ac5a1e1" x="53.31375" y="183.61146" style="fill: #555555; stroke: #555555; stroke-width: 0.6"/>
      </g>
     </g>
    </g>
    <g id="ytick_10">
     <g id="line2d_42">
      <g>
       <use xlink:href="#m898ac5a1e1" x="53.31375" y="178.966181" style="fill: #555555; stroke: #555555; stroke-width: 0.6"/>
      </g>
     </g>
    </g>
    <g id="ytick_11">
     <g id="line2d_43">
      <g>
       <use xlink:href="#m898ac5a1e1" x="53.31375" y="174.868755" style="fill: #555555; stroke: #555555; stroke-width: 0.6"/>
      </g>
     </g>
    </g>
    <g id="ytick_12">
     <g id="line2d_44">
      <g>
       <use xlink:href="#m898ac5a1e1" x="53.31375" y="147.090338" style="fill: #555555; stroke: #555555; stroke-width: 0.6"/>
      </g>
     </g>
    </g>
    <g id="ytick_13">
     <g id="line2d_45">
      <g>
       <use xlink:href="#m898ac5a1e1" x="53.31375" y="132.985053" style="fill: #555555; stroke: #555555; stroke-width: 0.6"/>
      </g>
     </g>
    </g>
    <g id="ytick_14">
     <g id="line2d_46">
      <g>
       <use xlink:href="#m898ac5a1e1" x="53.31375" y="122.977194" style="fill: #555555; stroke: #555555; stroke-width: 0.6"/>
      </g>
     </g>
    </g>
    <g id="ytick_15">
     <g id="line2d_47">
      <g>
       <use xlink:href="#m898ac5a1e1" x="53.31375" y="115.214495" style="fill: #555555; stroke: #555555; stroke-width: 0.6"/>
      </g>
     </g>
    </g>
    <g id="ytick_16">
     <g id="line2d_48">
      <g>
       <use xlink:href="#m898ac5a1e1" x="53.31375" y="108.871909" style="fill: #555555; stroke: #555555; stroke-width: 0.6"/>
      </g>
     </g>
    </g>
    <g id="ytick_17">
     <g id="line2d_49">
      <g>
       <use xlink:href="#m898ac5a1e1" x="53.31375" y="103.509328" style="fill: #555555; stroke: #555555; stroke-width: 0.6"/>
      </g>
     </g>
    </g>
    <g id="ytick_18">
     <g id="line2d_50">
      <g>
       <use xlink:href="#m898ac5a1e1" x="53.31375" y="98.864049" style="fill: #555555; stroke: #555555; stroke-width: 0.6"/>
      </g>
     </g>
    </g>
    <g id="ytick_19">
     <g id="line2d_51">
      <g>
       <use xlink:href="#m898ac5a1e1" x="53.31375" y="94.766623" style="fill: #555555; stroke: #555555; stroke-width: 0.6"/>
      </g>
     </g>
    </g>
    <g id="ytick_20">
     <g id="line2d_52">
      <g>
       <use xlink:href="#m898ac5a1e1" x="53.31375" y="66.988206" style="fill: #555555; stroke: #555555; stroke-width: 0.6"/>
      </g>
     </g>
    </g>
    <g id="ytick_21">
     <g id="line2d_53">
      <g>
       <use xlink:href="#m898ac5a1e1" x="53.31375" y="52.882921" style="fill: #555555; stroke: #555555; stroke-width: 0.6"/>
      </g>
     </g>
    </g>
    <g id="ytick_22">
     <g id="line2d_54">
      <g>
       <use xlink:href="#m898ac5a1e1" x="53.31375" y="42.875062" style="fill: #555555; stroke: #555555; stroke-width: 0.6"/>
      </g>
     </g>
    </g>
    <g id="ytick_23">
     <g id="line2d_55">
      <g>
       <use xlink:href="#m898ac5a1e1" x="53.31375" y="35.112363" style="fill: #555555; stroke: #555555; stroke-width: 0.6"/>
      </g>
     </g>
    </g>
    <g id="ytick_24">
     <g id="line2d_56">
      <g>
       <use xlink:href="#m898ac5a1e1" x="53.31375" y="28.769777" style="fill: #555555; stroke: #555555; stroke-width: 0.6"/>
      </g>
     </g>
    </g>
    <g id="ytick_25">
     <g id="line2d_57">
      <g>
       <use xlink:href="#m898ac5a1e1" x="53.31375" y="23.407196" style="fill: #555555; stroke: #555555; stroke-width: 0.6"/>
      </g>
     </g>
    </g>
    <g id="ytick_26">
     <g id="line2d_58">
      <g>
       <use xlink:href="#m898ac5a1e1" x="53.31375" y="18.761917" style="fill: #555555; stroke: #555555; stroke-width: 0.6"/>
      </g>
     </g>
    </g>
    <g id="ytick_27">
     <g id="line2d_59">
      <g>
       <use xlink:href="#m898ac5a1e1" x="53.31375" y="14.664491" style="fill: #555555; stroke: #555555; stroke-width: 0.6"/>
      </g>
     </g>
    </g>
    <g id="text_8">
     <!-- Inv. participation ratio -->
     <g style="fill: #555555" transform="translate(16.318125 185.848594)rotate(-90)scale(0.12 -0.12)">
      <defs>
       <path id="DejaVuSans-49" d="M 628 4666 
L 1259 4666 
L 1259 0 
L 628 0 
L 628 4666 
z
" transform="scale(0.015625)"/>
       <path id="DejaVuSans-2e" d="M 684 794 
L 1344 794 
L 1344 0 
L 684 0 
L 684 794 
z
" transform="scale(0.015625)"/>
       <path id="DejaVuSans-70" d="M 1159 525 
L 1159 -1331 
L 581 -1331 
L 581 3500 
L 1159 3500 
L 1159 2969 
Q 1341 3281 1617 3432 
Q 1894 3584 2278 3584 
Q 2916 3584 3314 3078 
Q 3713 2572 3713 1747 
Q 3713 922 3314 415 
Q 2916 -91 2278 -91 
Q 1894 -91 1617 61 
Q 1341 213 1159 525 
z
M 3116 1747 
Q 3116 2381 2855 2742 
Q 2594 3103 2138 3103 
Q 1681 3103 1420 2742 
Q 1159 2381 1159 1747 
Q 1159 1113 1420 752 
Q 1681 391 2138 391 
Q 2594 391 2855 752 
Q 3116 1113 3116 1747 
z
" transform="scale(0.015625)"/>
       <path id="DejaVuSans-61" d="M 2194 1759 
Q 1497 1759 1228 1600 
Q 959 1441 959 1056 
Q 959 750 1161 570 
Q 1363 391 1709 391 
Q 2188 391 2477 730 
Q 2766 1069 2766 1631 
L 2766 1759 
L 2194 1759 
z
M 3341 1997 
L 3341 0 
L 2766 0 
L 2766 531 
Q 2569 213 2275 61 
Q 1981 -91 1556 -91 
Q 1019 -91 701 211 
Q 384 513 384 1019 
Q 384 1609 779 1909 
Q 1175 2209 1959 2209 
L 2766 2209 
L 2766 2266 
Q 2766 2663 2505 2880 
Q 2244 3097 1772 3097 
Q 1472 3097 1187 3025 
Q 903 2953 641 2809 
L 641 3341 
Q 956 3463 1253 3523 
Q 1550 3584 1831 3584 
Q 2591 3584 2966 3190 
Q 3341 2797 3341 1997 
z
" transform="scale(0.015625)"/>
      </defs>
      <use xlink:href="#DejaVuSans-49"/>
      <use xlink:href="#DejaVuSans-6e" x="29.492188"/>
      <use xlink:href="#DejaVuSans-76" x="92.871094"/>
      <use xlink:href="#DejaVuSans-2e" x="144.300781"/>
      <use xlink:href="#DejaVuSans-20" x="176.087891"/>
      <use xlink:href="#DejaVuSans-70" x="207.875"/>
      <use xlink:href="#DejaVuSans-61" x="271.351562"/>
      <use xlink:href="#DejaVuSans-72" x="332.630859"/>
      <use xlink:href="#DejaVuSans-74" x="373.744141"/>
      <use xlink:href="#DejaVuSans-69" x="412.953125"/>
      <use xlink:href="#DejaVuSans-63" x="440.736328"/>
      <use xlink:href="#DejaVuSans-69" x="495.716797"/>
      <use xlink:href="#DejaVuSans-70" x="523.5"/>
      <use xlink:href="#DejaVuSans-61" x="586.976562"/>
      <use xlink:href="#DejaVuSans-74" x="648.255859"/>
      <use xlink:href="#DejaVuSans-69" x="687.464844"/>
      <use xlink:href="#DejaVuSans-6f" x="715.248047"/>
      <use xlink:href="#DejaVuSans-6e" x="776.429688"/>
      <use xlink:href="#DejaVuSans-20" x="839.808594"/>
      <use xlink:href="#DejaVuSans-72" x="871.595703"/>
      <use xlink:href="#DejaVuSans-61" x="912.708984"/>
      <use xlink:href="#DejaVuSans-74" x="973.988281"/>
      <use xlink:href="#DejaVuSans-69" x="1013.197266"/>
      <use xlink:href="#DejaVuSans-6f" x="1040.980469"/>
     </g>
    </g>
   </g>
   <g id="line2d_60">
    <path d="M 68.531932 184.613316 
L 102.773402 189.341147 
L 122.803378 188.495006 
L 137.014872 191.127677 
L 148.038163 189.365553 
L 157.044848 188.871646 
L 164.659891 185.204546 
L 171.256342 190.003438 
L 177.074824 188.110901 
L 182.279633 187.419494 
L 186.987956 188.260754 
L 191.286318 184.106651 
L 195.240428 189.893547 
L 198.901362 190.296465 
L 202.309609 188.048504 
L 205.497812 188.938368 
L 208.492669 186.923012 
L 211.316294 183.892456 
L 213.987215 186.201058 
L 216.521104 186.14827 
L 218.931338 188.37804 
L 221.229426 191.634101 
L 223.425343 185.60909 
L 225.527788 187.821889 
L 227.544395 186.767893 
L 229.481898 187.029507 
L 231.34627 188.079948 
L 233.142832 188.037787 
L 234.876343 185.984347 
L 238.170897 187.244983 
L 239.739282 187.618143 
L 241.259402 189.941012 
L 242.734139 180.194567 
L 244.166123 184.866906 
L 245.557764 185.085588 
L 246.911274 187.291678 
L 248.228685 191.117561 
L 249.511874 188.861943 
L 250.762574 189.282344 
L 251.982389 191.242299 
L 253.172808 190.172833 
L 254.335214 185.716486 
L 255.470896 188.206693 
L 256.581056 187.021378 
L 257.666813 187.104664 
L 258.72922 187.740911 
L 259.769258 190.720678 
L 260.787851 188.914977 
L 261.785865 185.843492 
L 262.764115 190.750612 
L 263.723368 188.591574 
L 264.664349 189.070913 
L 265.58774 189.986493 
L 266.494188 182.480706 
L 267.384302 189.846225 
L 268.258661 188.06928 
L 269.117813 186.581545 
L 269.962278 183.657701 
L 270.79255 186.183702 
L 271.609097 184.009669 
L 272.412367 185.571381 
L 273.202784 191.23126 
L 273.980753 187.886501 
L 274.746659 181.894071 
L 275.500872 187.733463 
L 276.243744 186.356367 
L 276.975609 187.730784 
L 277.696789 190.449079 
L 278.407593 189.300424 
L 279.108314 183.223059 
L 279.799234 186.22168 
L 280.480625 185.408328 
L 281.152744 186.241708 
L 281.815841 185.697463 
L 282.470155 192.47942 
L 283.115916 185.696238 
L 283.753344 186.572817 
L 284.382652 192.160808 
L 285.004044 190.243447 
L 285.617716 182.864067 
L 286.223859 185.09941 
L 286.822654 188.582203 
L 287.414278 189.079473 
L 287.9989 183.810882 
L 288.576684 189.860774 
L 289.147789 187.96493 
L 289.712367 186.878069 
L 290.270565 185.190673 
L 290.822526 190.421475 
L 291.368388 181.195105 
L 292.442343 188.591873 
L 292.97069 188.959065 
L 293.493446 189.134684 
L 294.010729 187.097324 
L 294.52265 189.034334 
L 295.029321 189.19667 
L 296.027335 185.241666 
L 296.518881 187.315664 
L 297.005585 187.111313 
L 297.48754 190.541755 
L 297.964838 191.062083 
L 298.437569 184.368409 
L 298.905819 189.491295 
L 299.369672 184.136852 
L 300.284513 187.91499 
L 300.735658 187.777382 
L 301.18272 186.99259 
L 302.064886 189.214415 
L 302.500131 192.450493 
L 302.931575 189.267496 
L 303.359283 188.073265 
L 303.78332 182.066342 
L 304.620628 187.910173 
L 305.03402 189.908649 
L 305.850567 187.100318 
L 306.253835 187.803859 
L 306.653837 187.139681 
L 307.050626 190.394671 
L 307.444254 185.277384 
L 307.83477 183.813045 
L 308.222223 186.948373 
L 308.60666 186.851617 
L 308.988129 185.932868 
L 309.366675 185.79589 
L 309.742343 190.344644 
L 310.115175 188.481868 
L 310.485214 190.175727 
L 310.852502 185.813255 
L 311.217079 183.484863 
L 311.578985 187.245973 
L 311.93826 185.351688 
L 312.29494 185.625357 
L 312.649063 185.106894 
L 313.000666 187.177744 
L 313.349784 185.024468 
L 313.696452 184.380232 
L 314.040705 186.657442 
L 314.382574 181.423919 
L 314.722095 189.062363 
L 315.059297 184.110785 
L 315.394214 186.619841 
L 315.726875 184.654509 
L 316.057311 187.726053 
L 316.385551 188.502052 
L 316.711625 188.074601 
L 317.035561 191.496162 
L 317.357386 189.85322 
L 317.677128 186.910687 
L 317.994814 187.868031 
L 318.31047 187.302621 
L 318.624122 179.539631 
L 318.935795 189.633816 
L 319.245514 191.642221 
L 319.553303 186.05288 
L 319.859186 188.148244 
L 320.163187 187.942482 
L 321.064124 185.51511 
L 321.655748 188.807709 
L 321.948924 188.931541 
L 322.24037 183.586859 
L 322.818155 188.598208 
L 323.104532 189.260572 
L 323.389259 186.872612 
L 323.672354 188.580183 
L 323.953837 188.633393 
L 324.233724 187.007593 
L 324.512035 181.484068 
L 325.063996 186.767259 
L 325.337681 182.496808 
L 325.609858 188.932252 
L 325.880543 189.84751 
L 326.149754 188.623093 
L 326.417505 192.777419 
L 326.683813 184.135789 
L 326.948693 188.188602 
L 327.21216 187.994799 
L 327.47423 190.356478 
L 327.734916 186.038511 
L 327.994235 189.462598 
L 328.252199 185.699176 
L 328.508823 189.987591 
L 328.76412 183.97533 
L 329.018105 183.435213 
L 329.270791 186.245931 
L 329.522191 184.098298 
L 329.772319 188.469634 
L 330.021186 184.301867 
L 330.268805 187.777318 
L 330.51519 189.43905 
L 330.760351 188.264118 
L 331.004303 191.768649 
L 331.247055 191.555001 
L 331.48862 187.194553 
L 331.72901 188.272523 
L 331.968236 187.82633 
L 332.206308 189.785866 
L 332.443239 189.736775 
L 332.679039 186.679019 
L 333.147289 188.779801 
L 333.37976 188.498795 
L 333.611142 184.8358 
L 333.841446 183.768039 
L 334.070681 188.847971 
L 334.298856 188.18875 
L 334.525983 188.408819 
L 334.752071 187.70708 
L 334.977128 187.831481 
L 335.201165 185.252965 
L 335.42419 189.005921 
L 335.646213 187.336334 
L 335.867242 190.532617 
L 336.524458 186.202099 
L 336.741601 183.941493 
L 336.957794 191.36072 
L 337.387362 185.201317 
L 337.600753 188.931837 
L 338.02479 187.010387 
L 338.235451 187.4188 
L 338.445218 185.204343 
L 338.862098 190.659406 
L 339.069227 185.138205 
L 339.27549 183.375685 
L 339.480896 179.506361 
L 339.889162 191.718709 
L 340.294083 188.567156 
L 340.495305 185.292359 
L 340.695711 187.891825 
L 340.895307 185.150797 
L 341.0941 188.72633 
L 341.292096 188.02445 
L 341.489302 182.579277 
L 341.881368 190.458808 
L 342.07624 188.189249 
L 342.270346 188.831612 
L 342.463693 188.740231 
L 342.656286 188.037465 
L 343.039233 184.707171 
L 343.2296 184.678779 
L 343.419235 192.408215 
L 343.608145 186.462374 
L 343.983813 188.320564 
L 344.17058 187.813235 
L 344.356645 182.438524 
L 344.542011 184.870978 
L 344.726684 190.982488 
L 344.910669 185.578398 
L 345.093972 189.41223 
L 345.276597 186.473479 
L 345.458549 188.213392 
L 345.639834 188.259168 
L 345.820455 185.518936 
L 346.000419 187.338391 
L 346.17973 185.260269 
L 346.358392 187.850905 
L 346.53641 183.876184 
L 346.713789 188.851754 
L 346.890533 188.245466 
L 347.066648 189.019963 
L 347.242136 185.484935 
L 347.591254 190.192758 
L 347.764892 188.870961 
L 347.937922 191.392729 
L 348.110348 189.603872 
L 348.282175 191.349403 
L 348.453405 190.82731 
L 348.624045 185.24927 
L 348.794096 189.96459 
L 348.963565 186.910814 
L 349.132454 186.867596 
L 349.300767 183.31276 
L 349.46851 187.892405 
L 349.635684 187.026505 
L 349.802295 191.994511 
L 349.968345 187.983796 
L 350.133839 180.744454 
L 350.298781 189.583011 
L 350.463174 186.904667 
L 350.627022 187.420295 
L 350.790327 190.284632 
L 350.953095 186.489232 
L 351.115329 187.859292 
L 351.277031 185.862836 
L 351.438206 186.484576 
L 351.598856 184.786417 
L 351.758986 189.34612 
L 351.918598 187.127638 
L 352.077697 188.638087 
L 352.236284 188.299453 
L 352.394364 188.633028 
L 352.55194 181.295201 
L 352.709015 188.767239 
L 352.865592 184.112163 
L 353.021674 189.72498 
L 353.177265 186.716733 
L 353.332367 188.687665 
L 353.486984 189.021557 
L 353.641118 191.787785 
L 353.794773 184.328799 
L 353.947952 188.04821 
L 354.100656 188.7124 
L 354.252891 187.799485 
L 354.404657 189.476809 
L 354.555959 188.61434 
L 354.706799 185.408517 
L 354.85718 187.07983 
L 355.007104 190.145605 
L 355.305594 183.059308 
L 355.454166 188.662401 
L 355.602292 188.078759 
L 355.897218 186.439368 
L 356.044024 186.636319 
L 356.190394 186.375235 
L 356.336332 190.496576 
L 356.48184 182.806281 
L 356.626921 191.054987 
L 356.771577 185.637472 
L 357.059625 187.99447 
L 357.203021 188.68797 
L 357.488571 186.763461 
L 357.630729 186.997569 
L 357.77248 188.629023 
L 357.913825 181.955907 
L 358.054766 192.729922 
L 358.475194 185.99043 
L 358.614546 190.149607 
L 358.892074 187.318752 
L 359.030256 187.985425 
L 359.168053 183.879236 
L 359.305466 185.399281 
L 359.442498 191.571849 
L 359.579151 186.222307 
L 359.715427 188.067184 
L 359.851328 187.86584 
L 360.122013 185.156209 
L 360.256802 187.873194 
L 360.391224 187.914311 
L 360.658975 189.591965 
L 360.792309 185.567264 
L 360.925283 185.464716 
L 361.057901 191.81531 
L 361.190163 189.821011 
L 361.322072 183.771852 
L 361.584839 187.835605 
L 361.7157 187.082662 
L 361.846215 187.457207 
L 361.976387 185.986185 
L 362.106216 191.678809 
L 362.235705 180.463492 
L 362.364855 187.417357 
L 362.493669 187.427631 
L 362.622147 186.446696 
L 362.750293 188.345437 
L 363.00559 184.130103 
L 363.259576 189.502869 
L 363.38608 185.982626 
L 363.512262 190.601177 
L 363.763662 183.844112 
L 363.888883 185.401473 
L 364.013789 189.96936 
L 364.138379 188.9263 
L 364.262656 184.383232 
L 364.386621 190.75426 
L 364.510275 188.464387 
L 364.633621 189.147466 
L 364.75666 188.738441 
L 364.879393 182.788783 
L 365.001822 191.92514 
L 365.123948 186.454055 
L 365.245773 188.399813 
L 365.367298 186.485777 
L 365.488525 187.773723 
L 365.609455 185.73134 
L 365.73009 186.55077 
L 365.850431 191.826861 
L 365.97048 190.674707 
L 366.209706 185.697295 
L 366.328886 186.448846 
L 366.447778 185.524136 
L 366.566386 183.576308 
L 366.80275 188.216121 
L 366.920509 186.044715 
L 367.037989 187.008841 
L 367.155189 185.199463 
L 367.272112 187.876914 
L 367.388759 186.496314 
L 367.505132 187.210802 
L 367.62123 190.11931 
L 367.737057 188.521394 
L 367.967898 183.427556 
L 368.082916 187.073803 
L 368.197666 185.629676 
L 368.540327 190.214621 
L 368.654021 184.488461 
L 368.880626 192.041531 
L 368.993541 183.915586 
L 369.106198 185.689302 
L 369.218598 189.217305 
L 369.442635 186.748818 
L 369.66566 182.762745 
L 369.887683 189.102094 
L 369.998321 189.763328 
L 370.108712 185.609085 
L 370.328757 190.488975 
L 370.438413 189.195576 
L 370.547826 190.062186 
L 370.656998 188.435616 
L 370.765928 190.539603 
L 370.874619 187.328338 
L 371.091286 191.367883 
L 371.307007 183.858451 
L 371.414515 187.784312 
L 371.52179 185.569636 
L 371.628832 190.127112 
L 371.735643 188.12914 
L 371.842223 190.876798 
L 371.948574 186.914968 
L 372.054697 189.352363 
L 372.26626 183.270962 
L 372.371703 189.555405 
L 372.476922 184.439081 
L 372.791239 189.84862 
L 372.895568 183.465602 
L 372.895568 183.465602 
" clip-path="url(#p25539b3dc1)" style="fill: none; stroke: #e24a33; stroke-width: 1.5; stroke-linecap: square"/>
   </g>
   <g id="line2d_61">
    <path d="M -1 187.116339 
L 372.791239 187.116339 
L 372.791239 187.116339 
" clip-path="url(#p25539b3dc1)" style="fill: none; stroke-dasharray: 5.55,2.4; stroke-dashoffset: 0; stroke: #000000; stroke-width: 1.5"/>
   </g>
   <g id="line2d_62">
    <path d="M 68.531932 36.666133 
L 102.773402 44.1526 
L 122.803378 95.386756 
L 137.014872 95.511341 
L 148.038163 137.920204 
L 157.044848 135.170547 
L 164.659891 125.499983 
L 171.256342 147.17797 
L 177.074824 127.188012 
L 182.279633 154.99579 
L 186.987956 155.745281 
L 191.286318 159.868072 
L 195.240428 152.694745 
L 198.901362 143.99045 
L 202.309609 140.092287 
L 205.497812 157.104379 
L 208.492669 134.53256 
L 211.316294 160.502464 
L 213.987215 157.876815 
L 216.521104 160.670407 
L 218.931338 160.967001 
L 221.229426 151.679783 
L 223.425343 138.779283 
L 225.527788 167.084425 
L 227.544395 176.600993 
L 229.481898 166.830872 
L 231.34627 167.850863 
L 233.142832 156.795534 
L 234.876343 172.508549 
L 236.55108 158.853232 
L 238.170897 159.528921 
L 239.739282 167.100446 
L 241.259402 168.939123 
L 242.734139 174.905625 
L 244.166123 172.95781 
L 245.557764 174.826093 
L 246.911274 164.872523 
L 248.228685 173.825787 
L 249.511874 175.268583 
L 250.762574 166.421646 
L 251.982389 163.738142 
L 253.172808 176.334574 
L 254.335214 177.54346 
L 255.470896 175.058875 
L 256.581056 169.702394 
L 257.666813 173.287259 
L 258.72922 173.297775 
L 259.769258 178.053347 
L 260.787851 166.620084 
L 261.785865 175.405214 
L 262.764115 177.252168 
L 263.723368 174.99563 
L 264.664349 177.78109 
L 265.58774 176.989274 
L 266.494188 169.919973 
L 267.384302 165.509814 
L 268.258661 159.760851 
L 269.117813 172.165074 
L 269.962278 179.543595 
L 270.79255 165.876751 
L 271.609097 188.073234 
L 272.412367 179.088237 
L 273.202784 167.162376 
L 273.980753 176.472025 
L 274.746659 167.904626 
L 275.500872 177.041098 
L 276.243744 175.873194 
L 276.975609 182.716364 
L 277.696789 180.162617 
L 278.407593 184.672262 
L 279.108314 179.7937 
L 279.799234 179.560152 
L 280.480625 179.682378 
L 281.152744 179.605014 
L 281.815841 177.532658 
L 282.470155 182.953857 
L 283.115916 169.473287 
L 283.753344 175.045052 
L 284.382652 182.530982 
L 285.004044 175.192467 
L 286.223859 177.7557 
L 286.822654 181.514693 
L 287.414278 180.255641 
L 287.9989 177.794998 
L 288.576684 180.062392 
L 289.147789 187.680309 
L 289.712367 178.861728 
L 290.270565 181.821143 
L 290.822526 183.159097 
L 291.368388 175.367392 
L 291.908284 182.698219 
L 292.442343 184.844837 
L 292.97069 176.926712 
L 293.493446 180.463456 
L 294.010729 179.336906 
L 294.52265 180.214052 
L 295.029321 176.572158 
L 296.027335 182.705371 
L 296.518881 183.451887 
L 297.005585 179.512851 
L 297.964838 187.057051 
L 298.437569 188.037639 
L 298.905819 180.324769 
L 299.369672 178.47876 
L 299.82921 176.049013 
L 300.284513 175.754389 
L 300.735658 187.045452 
L 301.18272 181.761656 
L 301.625772 183.737646 
L 302.064886 182.966775 
L 302.500131 184.435355 
L 302.931575 176.674397 
L 303.359283 181.559057 
L 303.78332 173.498054 
L 304.203748 175.285772 
L 304.620628 187.470147 
L 305.03402 177.974796 
L 305.443981 188.259454 
L 305.850567 181.568139 
L 306.253835 186.752685 
L 306.653837 184.322978 
L 307.050626 184.701755 
L 307.444254 187.341449 
L 307.83477 179.761727 
L 308.222223 174.717433 
L 308.60666 185.295522 
L 308.988129 180.07908 
L 309.366675 187.803462 
L 309.742343 186.109368 
L 310.115175 176.755205 
L 310.485214 180.988846 
L 310.852502 182.891189 
L 311.217079 182.8109 
L 311.578985 181.721384 
L 311.93826 182.932576 
L 312.29494 182.128431 
L 312.649063 182.771243 
L 313.000666 185.69011 
L 313.349784 184.269337 
L 313.696452 180.988118 
L 314.040705 179.89023 
L 314.382574 179.898818 
L 314.722095 185.60218 
L 315.059297 186.879386 
L 315.394214 181.770927 
L 316.057311 187.736671 
L 316.385551 185.276729 
L 316.711625 178.971799 
L 317.035561 182.759449 
L 317.357386 189.420011 
L 317.677128 186.82501 
L 317.994814 181.96199 
L 318.31047 187.947535 
L 318.624122 181.939391 
L 318.935795 186.750622 
L 319.245514 184.7755 
L 319.553303 183.530413 
L 320.163187 186.036717 
L 320.465329 183.310875 
L 320.765634 184.461528 
L 321.064124 182.085105 
L 321.360822 184.709235 
L 321.655748 184.244896 
L 321.948924 185.392276 
L 322.24037 183.967341 
L 322.530107 183.406021 
L 322.818155 188.771265 
L 323.104532 185.055145 
L 323.389259 184.911218 
L 323.672354 183.728243 
L 323.953837 179.163921 
L 324.233724 185.148825 
L 324.512035 187.254045 
L 324.788786 175.027163 
L 325.063996 184.544675 
L 325.337681 182.40516 
L 325.609858 181.16324 
L 325.880543 186.702131 
L 326.149754 182.778198 
L 326.417505 188.875703 
L 327.21216 178.747878 
L 327.47423 188.773062 
L 327.734916 179.374095 
L 327.994235 189.242097 
L 328.508823 185.825252 
L 328.76412 182.697069 
L 329.018105 189.030828 
L 329.270791 179.628676 
L 329.522191 184.928401 
L 329.772319 184.52456 
L 330.021186 189.129752 
L 330.51519 178.80151 
L 331.004303 188.229818 
L 331.247055 185.681009 
L 331.48862 185.995093 
L 331.72901 184.110416 
L 331.968236 186.131112 
L 332.206308 179.80865 
L 332.443239 181.267196 
L 333.147289 188.412648 
L 333.37976 178.303666 
L 333.611142 184.219281 
L 333.841446 186.480319 
L 334.070681 184.968753 
L 334.298856 189.808685 
L 334.525983 182.371238 
L 334.752071 185.755802 
L 334.977128 180.309389 
L 335.201165 183.753597 
L 335.42419 184.282064 
L 335.646213 182.998217 
L 335.867242 183.417761 
L 336.087287 188.436667 
L 336.524458 184.834239 
L 336.741601 185.207278 
L 337.173045 187.255175 
L 337.387362 182.748689 
L 337.600753 186.65286 
L 337.813227 185.758321 
L 338.02479 183.845118 
L 338.445218 183.410974 
L 338.654098 187.34064 
L 338.862098 176.332437 
L 339.069227 184.763532 
L 339.27549 185.922913 
L 339.480896 189.695551 
L 339.685451 175.188991 
L 339.889162 175.848319 
L 340.092037 179.948535 
L 340.294083 180.859803 
L 340.495305 180.19971 
L 340.895307 186.486394 
L 341.0941 183.949132 
L 341.292096 188.018487 
L 341.685724 183.1631 
L 341.881368 184.99824 
L 342.07624 184.155633 
L 342.270346 186.878675 
L 342.656286 185.433897 
L 342.848131 182.462225 
L 343.039233 184.313946 
L 343.2296 183.654849 
L 343.419235 178.919215 
L 343.796336 184.711037 
L 343.983813 173.616287 
L 344.17058 181.278621 
L 344.356645 181.341306 
L 344.542011 185.054049 
L 344.726684 181.469774 
L 344.910669 182.768543 
L 345.093972 180.322694 
L 345.276597 184.213435 
L 345.458549 184.080427 
L 345.820455 179.985258 
L 346.000419 185.65348 
L 346.17973 182.668063 
L 346.358392 186.826247 
L 346.713789 182.922205 
L 346.890533 185.555831 
L 347.066648 176.983291 
L 347.242136 186.647365 
L 347.417004 174.839278 
L 347.591254 183.386704 
L 347.764892 182.863402 
L 347.937922 177.767431 
L 348.110348 181.771903 
L 348.282175 180.283755 
L 348.453405 180.408229 
L 348.624045 186.177471 
L 348.794096 187.230021 
L 348.963565 182.272402 
L 349.300767 184.222963 
L 349.46851 180.980506 
L 349.635684 180.878793 
L 349.802295 182.627646 
L 349.968345 171.172055 
L 350.298781 185.381705 
L 350.463174 179.975965 
L 350.627022 185.186245 
L 350.790327 185.384465 
L 350.953095 179.231133 
L 351.115329 179.460511 
L 351.277031 184.862174 
L 351.438206 182.295231 
L 351.598856 185.824407 
L 351.758986 185.041167 
L 351.918598 183.21647 
L 352.077697 185.163692 
L 352.236284 179.61853 
L 352.394364 180.321154 
L 352.55194 185.827767 
L 352.709015 184.193021 
L 353.021674 177.401481 
L 353.177265 184.897047 
L 353.332367 178.867517 
L 353.486984 184.301899 
L 353.641118 182.959772 
L 353.794773 169.187505 
L 354.100656 185.992994 
L 354.252891 183.710858 
L 354.404657 185.30146 
L 354.706799 180.343554 
L 354.85718 182.870382 
L 355.007104 181.008937 
L 355.156575 181.878981 
L 355.305594 180.263947 
L 355.454166 180.257288 
L 355.602292 174.727346 
L 355.749975 181.271077 
L 355.897218 177.854074 
L 356.044024 180.612095 
L 356.190394 187.648538 
L 356.336332 180.223446 
L 356.626921 179.642895 
L 356.771577 183.8479 
L 356.915811 179.969779 
L 357.203021 181.914483 
L 357.346002 182.187299 
L 357.488571 168.671543 
L 357.630729 182.666391 
L 357.77248 174.385014 
L 357.913825 185.79703 
L 358.195307 181.231379 
L 358.335449 179.358229 
L 358.475194 180.243324 
L 358.614546 185.749322 
L 358.753505 180.998392 
L 358.892074 182.046628 
L 359.030256 180.777321 
L 359.168053 185.646964 
L 359.442498 175.227447 
L 359.851328 182.423347 
L 359.986856 181.483858 
L 360.122013 174.523511 
L 360.256802 178.308857 
L 360.391224 174.791733 
L 360.525281 182.798007 
L 360.658975 178.960811 
L 360.792309 179.163247 
L 360.925283 170.482428 
L 361.190163 179.434557 
L 361.322072 177.437318 
L 361.45363 177.959676 
L 361.584839 174.391071 
L 361.7157 175.795456 
L 361.846215 175.733341 
L 361.976387 182.447418 
L 362.106216 173.594399 
L 362.235705 181.038259 
L 362.364855 179.421269 
L 362.493669 169.63915 
L 362.622147 182.85615 
L 362.750293 179.168483 
L 362.878107 184.216662 
L 363.132746 178.534458 
L 363.259576 175.47084 
L 363.38608 166.890516 
L 363.512262 180.642701 
L 363.638121 173.799056 
L 363.888883 180.36912 
L 364.013789 173.368498 
L 364.262656 176.232582 
L 364.386621 175.357223 
L 364.510275 168.170792 
L 364.633621 177.962924 
L 364.75666 174.274041 
L 364.879393 177.663965 
L 365.001822 172.376708 
L 365.245773 177.903562 
L 365.367298 181.595013 
L 365.488525 173.634313 
L 365.609455 179.586932 
L 365.73009 175.886406 
L 365.850431 179.453252 
L 366.090238 175.260049 
L 366.209706 181.090412 
L 366.328886 173.814328 
L 366.447778 174.709081 
L 366.566386 176.477337 
L 366.684709 179.949258 
L 366.920509 176.725692 
L 367.155189 172.623366 
L 367.272112 173.172821 
L 367.388759 183.173817 
L 367.505132 179.069828 
L 367.62123 179.805734 
L 367.737057 171.558225 
L 367.852612 183.567648 
L 368.197666 172.649353 
L 368.312151 171.54653 
L 368.42637 185.479244 
L 368.654021 172.54571 
L 368.767453 172.580053 
L 368.880626 182.728596 
L 368.993541 177.719033 
L 369.106198 185.683084 
L 369.330743 175.115359 
L 369.442635 180.627839 
L 369.66566 164.956423 
L 369.776796 180.802568 
L 369.887683 175.676824 
L 369.998321 186.540041 
L 370.108712 176.602272 
L 370.218857 178.900395 
L 370.328757 184.923551 
L 370.438413 175.011426 
L 370.547826 179.255022 
L 370.656998 166.815389 
L 371.091286 181.811705 
L 371.199264 166.778164 
L 371.414515 183.369028 
L 371.628832 152.591339 
L 371.735643 185.160266 
L 371.948574 177.034554 
L 372.160592 194.609292 
L 372.26626 188.185322 
L 372.371703 195.838944 
L 372.581916 174.26722 
L 372.686688 195.148384 
L 372.791239 168.308991 
L 372.895568 219.307167 
L 372.895568 219.307167 
" clip-path="url(#p25539b3dc1)" style="fill: none; stroke: #348abd; stroke-width: 1.5; stroke-linecap: square"/>
   </g>
   <g id="patch_3">
    <path d="M 53.31375 228.439219 
L 53.31375 10.999219 
" style="fill: none; stroke: #ffffff; stroke-linejoin: miter; stroke-linecap: square"/>
   </g>
   <g id="patch_4">
    <path d="M 388.11375 228.439219 
L 388.11375 10.999219 
" style="fill: none; stroke: #ffffff; stroke-linejoin: miter; stroke-linecap: square"/>
   </g>
   <g id="patch_5">
    <path d="M 53.31375 228.439219 
L 388.11375 228.439219 
" style="fill: none; stroke: #ffffff; stroke-linejoin: miter; stroke-linecap: square"/>
   </g>
   <g id="patch_6">
    <path d="M 53.31375 10.999219 
L 388.11375 10.999219 
" style="fill: none; stroke: #ffffff; stroke-linejoin: miter; stroke-linecap: square"/>
   </g>
   <g id="legend_1">
    <g id="patch_7">
     <path d="M 296.709063 63.033594 
L 381.11375 63.033594 
Q 383.11375 63.033594 383.11375 61.033594 
L 383.11375 17.999219 
Q 383.11375 15.999219 381.11375 15.999219 
L 296.709063 15.999219 
Q 294.709063 15.999219 294.709063 17.999219 
L 294.709063 61.033594 
Q 294.709063 63.033594 296.709063 63.033594 
z
" style="fill: #e5e5e5; opacity: 0.8; stroke: #cccccc; stroke-width: 0.5; stroke-linejoin: miter"/>
    </g>
    <g id="line2d_63">
     <path d="M 298.709063 24.097656 
L 308.709063 24.097656 
L 318.709063 24.097656 
" style="fill: none; stroke: #e24a33; stroke-width: 1.5; stroke-linecap: square"/>
    </g>
    <g id="text_9">
     <!-- Shuffled -->
     <g transform="translate(326.709063 27.597656)scale(0.1 -0.1)">
      <defs>
       <path id="DejaVuSans-53" d="M 3425 4513 
L 3425 3897 
Q 3066 4069 2747 4153 
Q 2428 4238 2131 4238 
Q 1616 4238 1336 4038 
Q 1056 3838 1056 3469 
Q 1056 3159 1242 3001 
Q 1428 2844 1947 2747 
L 2328 2669 
Q 3034 2534 3370 2195 
Q 3706 1856 3706 1288 
Q 3706 609 3251 259 
Q 2797 -91 1919 -91 
Q 1588 -91 1214 -16 
Q 841 59 441 206 
L 441 856 
Q 825 641 1194 531 
Q 1563 422 1919 422 
Q 2459 422 2753 634 
Q 3047 847 3047 1241 
Q 3047 1584 2836 1778 
Q 2625 1972 2144 2069 
L 1759 2144 
Q 1053 2284 737 2584 
Q 422 2884 422 3419 
Q 422 4038 858 4394 
Q 1294 4750 2059 4750 
Q 2388 4750 2728 4690 
Q 3069 4631 3425 4513 
z
" transform="scale(0.015625)"/>
       <path id="DejaVuSans-68" d="M 3513 2113 
L 3513 0 
L 2938 0 
L 2938 2094 
Q 2938 2591 2744 2837 
Q 2550 3084 2163 3084 
Q 1697 3084 1428 2787 
Q 1159 2491 1159 1978 
L 1159 0 
L 581 0 
L 581 4863 
L 1159 4863 
L 1159 2956 
Q 1366 3272 1645 3428 
Q 1925 3584 2291 3584 
Q 2894 3584 3203 3211 
Q 3513 2838 3513 2113 
z
" transform="scale(0.015625)"/>
       <path id="DejaVuSans-75" d="M 544 1381 
L 544 3500 
L 1119 3500 
L 1119 1403 
Q 1119 906 1312 657 
Q 1506 409 1894 409 
Q 2359 409 2629 706 
Q 2900 1003 2900 1516 
L 2900 3500 
L 3475 3500 
L 3475 0 
L 2900 0 
L 2900 538 
Q 2691 219 2414 64 
Q 2138 -91 1772 -91 
Q 1169 -91 856 284 
Q 544 659 544 1381 
z
M 1991 3584 
L 1991 3584 
z
" transform="scale(0.015625)"/>
       <path id="DejaVuSans-66" d="M 2375 4863 
L 2375 4384 
L 1825 4384 
Q 1516 4384 1395 4259 
Q 1275 4134 1275 3809 
L 1275 3500 
L 2222 3500 
L 2222 3053 
L 1275 3053 
L 1275 0 
L 697 0 
L 697 3053 
L 147 3053 
L 147 3500 
L 697 3500 
L 697 3744 
Q 697 4328 969 4595 
Q 1241 4863 1831 4863 
L 2375 4863 
z
" transform="scale(0.015625)"/>
       <path id="DejaVuSans-6c" d="M 603 4863 
L 1178 4863 
L 1178 0 
L 603 0 
L 603 4863 
z
" transform="scale(0.015625)"/>
      </defs>
      <use xlink:href="#DejaVuSans-53"/>
      <use xlink:href="#DejaVuSans-68" x="63.476562"/>
      <use xlink:href="#DejaVuSans-75" x="126.855469"/>
      <use xlink:href="#DejaVuSans-66" x="190.234375"/>
      <use xlink:href="#DejaVuSans-66" x="225.439453"/>
      <use xlink:href="#DejaVuSans-6c" x="260.644531"/>
      <use xlink:href="#DejaVuSans-65" x="288.427734"/>
      <use xlink:href="#DejaVuSans-64" x="349.951172"/>
     </g>
    </g>
    <g id="line2d_64">
     <path d="M 298.709063 38.775781 
L 308.709063 38.775781 
L 318.709063 38.775781 
" style="fill: none; stroke-dasharray: 5.55,2.4; stroke-dashoffset: 0; stroke: #000000; stroke-width: 1.5"/>
    </g>
    <g id="text_10">
     <!-- 3/N -->
     <g transform="translate(326.709063 42.275781)scale(0.1 -0.1)">
      <defs>
       <path id="DejaVuSans-33" d="M 2597 2516 
Q 3050 2419 3304 2112 
Q 3559 1806 3559 1356 
Q 3559 666 3084 287 
Q 2609 -91 1734 -91 
Q 1441 -91 1130 -33 
Q 819 25 488 141 
L 488 750 
Q 750 597 1062 519 
Q 1375 441 1716 441 
Q 2309 441 2620 675 
Q 2931 909 2931 1356 
Q 2931 1769 2642 2001 
Q 2353 2234 1838 2234 
L 1294 2234 
L 1294 2753 
L 1863 2753 
Q 2328 2753 2575 2939 
Q 2822 3125 2822 3475 
Q 2822 3834 2567 4026 
Q 2313 4219 1838 4219 
Q 1578 4219 1281 4162 
Q 984 4106 628 3988 
L 628 4550 
Q 988 4650 1302 4700 
Q 1616 4750 1894 4750 
Q 2613 4750 3031 4423 
Q 3450 4097 3450 3541 
Q 3450 3153 3228 2886 
Q 3006 2619 2597 2516 
z
" transform="scale(0.015625)"/>
       <path id="DejaVuSans-2f" d="M 1625 4666 
L 2156 4666 
L 531 -594 
L 0 -594 
L 1625 4666 
z
" transform="scale(0.015625)"/>
       <path id="DejaVuSans-4e" d="M 628 4666 
L 1478 4666 
L 3547 763 
L 3547 4666 
L 4159 4666 
L 4159 0 
L 3309 0 
L 1241 3903 
L 1241 0 
L 628 0 
L 628 4666 
z
" transform="scale(0.015625)"/>
      </defs>
      <use xlink:href="#DejaVuSans-33"/>
      <use xlink:href="#DejaVuSans-2f" x="63.623047"/>
      <use xlink:href="#DejaVuSans-4e" x="97.314453"/>
     </g>
    </g>
    <g id="line2d_65">
     <path d="M 298.709063 53.453906 
L 308.709063 53.453906 
L 318.709063 53.453906 
" style="fill: none; stroke: #348abd; stroke-width: 1.5; stroke-linecap: square"/>
    </g>
    <g id="text_11">
     <!-- Correlated -->
     <g transform="translate(326.709063 56.953906)scale(0.1 -0.1)">
      <defs>
       <path id="DejaVuSans-43" d="M 4122 4306 
L 4122 3641 
Q 3803 3938 3442 4084 
Q 3081 4231 2675 4231 
Q 1875 4231 1450 3742 
Q 1025 3253 1025 2328 
Q 1025 1406 1450 917 
Q 1875 428 2675 428 
Q 3081 428 3442 575 
Q 3803 722 4122 1019 
L 4122 359 
Q 3791 134 3420 21 
Q 3050 -91 2638 -91 
Q 1578 -91 968 557 
Q 359 1206 359 2328 
Q 359 3453 968 4101 
Q 1578 4750 2638 4750 
Q 3056 4750 3426 4639 
Q 3797 4528 4122 4306 
z
" transform="scale(0.015625)"/>
      </defs>
      <use xlink:href="#DejaVuSans-43"/>
      <use xlink:href="#DejaVuSans-6f" x="69.824219"/>
      <use xlink:href="#DejaVuSans-72" x="131.005859"/>
      <use xlink:href="#DejaVuSans-72" x="170.369141"/>
      <use xlink:href="#DejaVuSans-65" x="209.232422"/>
      <use xlink:href="#DejaVuSans-6c" x="270.755859"/>
      <use xlink:href="#DejaVuSans-61" x="298.539062"/>
      <use xlink:href="#DejaVuSans-74" x="359.818359"/>
      <use xlink:href="#DejaVuSans-65" x="399.027344"/>
      <use xlink:href="#DejaVuSans-64" x="460.550781"/>
     </g>
    </g>
   </g>
  </g>
 </g>
 <defs>
  <clipPath id="p25539b3dc1">
   <rect x="53.31375" y="10.999219" width="334.8" height="217.44"/>
  </clipPath>
 </defs>
</svg>
