<?xml version="1.0" encoding="utf-8" standalone="no"?>
<!DOCTYPE svg PUBLIC "-//W3C//DTD SVG 1.1//EN"
  "http://www.w3.org/Graphics/SVG/1.1/DTD/svg11.dtd">
<svg xmlns:xlink="http://www.w3.org/1999/xlink" width="601.665625pt" height="357.238125pt" viewBox="0 0 601.665625 357.238125" xmlns="http://www.w3.org/2000/svg" version="1.1">
 <metadata>
  <rdf:RDF xmlns:dc="http://purl.org/dc/elements/1.1/" xmlns:cc="http://creativecommons.org/ns#" xmlns:rdf="http://www.w3.org/1999/02/22-rdf-syntax-ns#">
   <cc:Work>
    <dc:type rdf:resource="http://purl.org/dc/dcmitype/StillImage"/>
    <dc:date>2022-05-11T19:33:56.508013</dc:date>
    <dc:format>image/svg+xml</dc:format>
    <dc:creator>
     <cc:Agent>
      <dc:title>Matplotlib v3.5.1, https://matplotlib.org/</dc:title>
     </cc:Agent>
    </dc:creator>
   </cc:Work>
  </rdf:RDF>
 </metadata>
 <defs>
  <style type="text/css">*{stroke-linejoin: round; stroke-linecap: butt}</style>
 </defs>
 <g id="figure_1">
  <g id="patch_1">
   <path d="M 0 357.238125 
L 601.665625 357.238125 
L 601.665625 0 
L 0 0 
z
" style="fill: #ffffff"/>
  </g>
  <g id="axes_1">
   <g id="patch_2">
    <path d="M 36.465625 155.454545 
L 290.101989 155.454545 
L 290.101989 7.2 
L 36.465625 7.2 
z
" style="fill: #e5e5e5"/>
   </g>
   <g id="matplotlib.axis_1">
    <g id="xtick_1">
     <g id="line2d_1">
      <path d="M 71.052402 155.454545 
L 71.052402 7.2 
" clip-path="url(#pb42ed47853)" style="fill: none; stroke: #ffffff; stroke-width: 0.8; stroke-linecap: square"/>
     </g>
     <g id="line2d_2">
      <defs>
       <path id="m612aae4fa2" d="M 0 0 
L 0 3.5 
" style="stroke: #555555; stroke-width: 0.8"/>
      </defs>
      <g>
       <use xlink:href="#m612aae4fa2" x="71.052402" y="155.454545" style="fill: #555555; stroke: #555555; stroke-width: 0.8"/>
      </g>
     </g>
    </g>
    <g id="xtick_2">
     <g id="line2d_3">
      <path d="M 117.168104 155.454545 
L 117.168104 7.2 
" clip-path="url(#pb42ed47853)" style="fill: none; stroke: #ffffff; stroke-width: 0.8; stroke-linecap: square"/>
     </g>
     <g id="line2d_4">
      <g>
       <use xlink:href="#m612aae4fa2" x="117.168104" y="155.454545" style="fill: #555555; stroke: #555555; stroke-width: 0.8"/>
      </g>
     </g>
    </g>
    <g id="xtick_3">
     <g id="line2d_5">
      <path d="M 163.283807 155.454545 
L 163.283807 7.2 
" clip-path="url(#pb42ed47853)" style="fill: none; stroke: #ffffff; stroke-width: 0.8; stroke-linecap: square"/>
     </g>
     <g id="line2d_6">
      <g>
       <use xlink:href="#m612aae4fa2" x="163.283807" y="155.454545" style="fill: #555555; stroke: #555555; stroke-width: 0.8"/>
      </g>
     </g>
    </g>
    <g id="xtick_4">
     <g id="line2d_7">
      <path d="M 209.399509 155.454545 
L 209.399509 7.2 
" clip-path="url(#pb42ed47853)" style="fill: none; stroke: #ffffff; stroke-width: 0.8; stroke-linecap: square"/>
     </g>
     <g id="line2d_8">
      <g>
       <use xlink:href="#m612aae4fa2" x="209.399509" y="155.454545" style="fill: #555555; stroke: #555555; stroke-width: 0.8"/>
      </g>
     </g>
    </g>
    <g id="xtick_5">
     <g id="line2d_9">
      <path d="M 255.515212 155.454545 
L 255.515212 7.2 
" clip-path="url(#pb42ed47853)" style="fill: none; stroke: #ffffff; stroke-width: 0.8; stroke-linecap: square"/>
     </g>
     <g id="line2d_10">
      <g>
       <use xlink:href="#m612aae4fa2" x="255.515212" y="155.454545" style="fill: #555555; stroke: #555555; stroke-width: 0.8"/>
      </g>
     </g>
    </g>
   </g>
   <g id="matplotlib.axis_2">
    <g id="ytick_1">
     <g id="line2d_11">
      <path d="M 36.465625 155.454545 
L 290.101989 155.454545 
" clip-path="url(#pb42ed47853)" style="fill: none; stroke: #ffffff; stroke-width: 0.8; stroke-linecap: square"/>
     </g>
     <g id="line2d_12">
      <defs>
       <path id="mb9ce405a99" d="M 0 0 
L -3.5 0 
" style="stroke: #555555; stroke-width: 0.8"/>
      </defs>
      <g>
       <use xlink:href="#mb9ce405a99" x="36.465625" y="155.454545" style="fill: #555555; stroke: #555555; stroke-width: 0.8"/>
      </g>
     </g>
     <g id="text_1">
      <!-- 0.00 -->
      <g style="fill: #555555" transform="translate(7.2 159.253764)scale(0.1 -0.1)">
       <defs>
        <path id="DejaVuSans-30" d="M 2034 4250 
Q 1547 4250 1301 3770 
Q 1056 3291 1056 2328 
Q 1056 1369 1301 889 
Q 1547 409 2034 409 
Q 2525 409 2770 889 
Q 3016 1369 3016 2328 
Q 3016 3291 2770 3770 
Q 2525 4250 2034 4250 
z
M 2034 4750 
Q 2819 4750 3233 4129 
Q 3647 3509 3647 2328 
Q 3647 1150 3233 529 
Q 2819 -91 2034 -91 
Q 1250 -91 836 529 
Q 422 1150 422 2328 
Q 422 3509 836 4129 
Q 1250 4750 2034 4750 
z
" transform="scale(0.015625)"/>
        <path id="DejaVuSans-2e" d="M 684 794 
L 1344 794 
L 1344 0 
L 684 0 
L 684 794 
z
" transform="scale(0.015625)"/>
       </defs>
       <use xlink:href="#DejaVuSans-30"/>
       <use xlink:href="#DejaVuSans-2e" x="63.623047"/>
       <use xlink:href="#DejaVuSans-30" x="95.410156"/>
       <use xlink:href="#DejaVuSans-30" x="159.033203"/>
      </g>
     </g>
    </g>
    <g id="ytick_2">
     <g id="line2d_13">
      <path d="M 36.465625 129.047373 
L 290.101989 129.047373 
" clip-path="url(#pb42ed47853)" style="fill: none; stroke: #ffffff; stroke-width: 0.8; stroke-linecap: square"/>
     </g>
     <g id="line2d_14">
      <g>
       <use xlink:href="#mb9ce405a99" x="36.465625" y="129.047373" style="fill: #555555; stroke: #555555; stroke-width: 0.8"/>
      </g>
     </g>
     <g id="text_2">
      <!-- 0.25 -->
      <g style="fill: #555555" transform="translate(7.2 132.846592)scale(0.1 -0.1)">
       <defs>
        <path id="DejaVuSans-32" d="M 1228 531 
L 3431 531 
L 3431 0 
L 469 0 
L 469 531 
Q 828 903 1448 1529 
Q 2069 2156 2228 2338 
Q 2531 2678 2651 2914 
Q 2772 3150 2772 3378 
Q 2772 3750 2511 3984 
Q 2250 4219 1831 4219 
Q 1534 4219 1204 4116 
Q 875 4013 500 3803 
L 500 4441 
Q 881 4594 1212 4672 
Q 1544 4750 1819 4750 
Q 2544 4750 2975 4387 
Q 3406 4025 3406 3419 
Q 3406 3131 3298 2873 
Q 3191 2616 2906 2266 
Q 2828 2175 2409 1742 
Q 1991 1309 1228 531 
z
" transform="scale(0.015625)"/>
        <path id="DejaVuSans-35" d="M 691 4666 
L 3169 4666 
L 3169 4134 
L 1269 4134 
L 1269 2991 
Q 1406 3038 1543 3061 
Q 1681 3084 1819 3084 
Q 2600 3084 3056 2656 
Q 3513 2228 3513 1497 
Q 3513 744 3044 326 
Q 2575 -91 1722 -91 
Q 1428 -91 1123 -41 
Q 819 9 494 109 
L 494 744 
Q 775 591 1075 516 
Q 1375 441 1709 441 
Q 2250 441 2565 725 
Q 2881 1009 2881 1497 
Q 2881 1984 2565 2268 
Q 2250 2553 1709 2553 
Q 1456 2553 1204 2497 
Q 953 2441 691 2322 
L 691 4666 
z
" transform="scale(0.015625)"/>
       </defs>
       <use xlink:href="#DejaVuSans-30"/>
       <use xlink:href="#DejaVuSans-2e" x="63.623047"/>
       <use xlink:href="#DejaVuSans-32" x="95.410156"/>
       <use xlink:href="#DejaVuSans-35" x="159.033203"/>
      </g>
     </g>
    </g>
    <g id="ytick_3">
     <g id="line2d_15">
      <path d="M 36.465625 102.640201 
L 290.101989 102.640201 
" clip-path="url(#pb42ed47853)" style="fill: none; stroke: #ffffff; stroke-width: 0.8; stroke-linecap: square"/>
     </g>
     <g id="line2d_16">
      <g>
       <use xlink:href="#mb9ce405a99" x="36.465625" y="102.640201" style="fill: #555555; stroke: #555555; stroke-width: 0.8"/>
      </g>
     </g>
     <g id="text_3">
      <!-- 0.50 -->
      <g style="fill: #555555" transform="translate(7.2 106.439419)scale(0.1 -0.1)">
       <use xlink:href="#DejaVuSans-30"/>
       <use xlink:href="#DejaVuSans-2e" x="63.623047"/>
       <use xlink:href="#DejaVuSans-35" x="95.410156"/>
       <use xlink:href="#DejaVuSans-30" x="159.033203"/>
      </g>
     </g>
    </g>
    <g id="ytick_4">
     <g id="line2d_17">
      <path d="M 36.465625 76.233028 
L 290.101989 76.233028 
" clip-path="url(#pb42ed47853)" style="fill: none; stroke: #ffffff; stroke-width: 0.8; stroke-linecap: square"/>
     </g>
     <g id="line2d_18">
      <g>
       <use xlink:href="#mb9ce405a99" x="36.465625" y="76.233028" style="fill: #555555; stroke: #555555; stroke-width: 0.8"/>
      </g>
     </g>
     <g id="text_4">
      <!-- 0.75 -->
      <g style="fill: #555555" transform="translate(7.2 80.032247)scale(0.1 -0.1)">
       <defs>
        <path id="DejaVuSans-37" d="M 525 4666 
L 3525 4666 
L 3525 4397 
L 1831 0 
L 1172 0 
L 2766 4134 
L 525 4134 
L 525 4666 
z
" transform="scale(0.015625)"/>
       </defs>
       <use xlink:href="#DejaVuSans-30"/>
       <use xlink:href="#DejaVuSans-2e" x="63.623047"/>
       <use xlink:href="#DejaVuSans-37" x="95.410156"/>
       <use xlink:href="#DejaVuSans-35" x="159.033203"/>
      </g>
     </g>
    </g>
    <g id="ytick_5">
     <g id="line2d_19">
      <path d="M 36.465625 49.825856 
L 290.101989 49.825856 
" clip-path="url(#pb42ed47853)" style="fill: none; stroke: #ffffff; stroke-width: 0.8; stroke-linecap: square"/>
     </g>
     <g id="line2d_20">
      <g>
       <use xlink:href="#mb9ce405a99" x="36.465625" y="49.825856" style="fill: #555555; stroke: #555555; stroke-width: 0.8"/>
      </g>
     </g>
     <g id="text_5">
      <!-- 1.00 -->
      <g style="fill: #555555" transform="translate(7.2 53.625075)scale(0.1 -0.1)">
       <defs>
        <path id="DejaVuSans-31" d="M 794 531 
L 1825 531 
L 1825 4091 
L 703 3866 
L 703 4441 
L 1819 4666 
L 2450 4666 
L 2450 531 
L 3481 531 
L 3481 0 
L 794 0 
L 794 531 
z
" transform="scale(0.015625)"/>
       </defs>
       <use xlink:href="#DejaVuSans-31"/>
       <use xlink:href="#DejaVuSans-2e" x="63.623047"/>
       <use xlink:href="#DejaVuSans-30" x="95.410156"/>
       <use xlink:href="#DejaVuSans-30" x="159.033203"/>
      </g>
     </g>
    </g>
    <g id="ytick_6">
     <g id="line2d_21">
      <path d="M 36.465625 23.418684 
L 290.101989 23.418684 
" clip-path="url(#pb42ed47853)" style="fill: none; stroke: #ffffff; stroke-width: 0.8; stroke-linecap: square"/>
     </g>
     <g id="line2d_22">
      <g>
       <use xlink:href="#mb9ce405a99" x="36.465625" y="23.418684" style="fill: #555555; stroke: #555555; stroke-width: 0.8"/>
      </g>
     </g>
     <g id="text_6">
      <!-- 1.25 -->
      <g style="fill: #555555" transform="translate(7.2 27.217902)scale(0.1 -0.1)">
       <use xlink:href="#DejaVuSans-31"/>
       <use xlink:href="#DejaVuSans-2e" x="63.623047"/>
       <use xlink:href="#DejaVuSans-32" x="95.410156"/>
       <use xlink:href="#DejaVuSans-35" x="159.033203"/>
      </g>
     </g>
    </g>
   </g>
   <g id="patch_3">
    <path d="M 47.994551 155.454545 
L 58.475392 155.454545 
L 58.475392 155.454545 
L 47.994551 155.454545 
z
" clip-path="url(#pb42ed47853)" style="fill: #348abd"/>
   </g>
   <g id="patch_4">
    <path d="M 58.475392 155.454545 
L 68.956234 155.454545 
L 68.956234 155.454545 
L 58.475392 155.454545 
z
" clip-path="url(#pb42ed47853)" style="fill: #348abd"/>
   </g>
   <g id="patch_5">
    <path d="M 68.956234 155.454545 
L 79.437075 155.454545 
L 79.437075 155.454545 
L 68.956234 155.454545 
z
" clip-path="url(#pb42ed47853)" style="fill: #348abd"/>
   </g>
   <g id="patch_6">
    <path d="M 79.437075 155.454545 
L 89.917917 155.454545 
L 89.917917 154.474026 
L 79.437075 154.474026 
z
" clip-path="url(#pb42ed47853)" style="fill: #348abd"/>
   </g>
   <g id="patch_7">
    <path d="M 89.917917 155.454545 
L 100.398758 155.454545 
L 100.398758 154.964286 
L 89.917917 154.964286 
z
" clip-path="url(#pb42ed47853)" style="fill: #348abd"/>
   </g>
   <g id="patch_8">
    <path d="M 100.398758 155.454545 
L 110.879599 155.454545 
L 110.879599 153.493506 
L 100.398758 153.493506 
z
" clip-path="url(#pb42ed47853)" style="fill: #348abd"/>
   </g>
   <g id="patch_9">
    <path d="M 110.879599 155.454545 
L 121.360441 155.454545 
L 121.360441 148.590909 
L 110.879599 148.590909 
z
" clip-path="url(#pb42ed47853)" style="fill: #348abd"/>
   </g>
   <g id="patch_10">
    <path d="M 121.360441 155.454545 
L 131.841282 155.454545 
L 131.841282 148.100649 
L 121.360441 148.100649 
z
" clip-path="url(#pb42ed47853)" style="fill: #348abd"/>
   </g>
   <g id="patch_11">
    <path d="M 131.841282 155.454545 
L 142.322124 155.454545 
L 142.322124 134.863636 
L 131.841282 134.863636 
z
" clip-path="url(#pb42ed47853)" style="fill: #348abd"/>
   </g>
   <g id="patch_12">
    <path d="M 142.322124 155.454545 
L 152.802965 155.454545 
L 152.802965 119.665584 
L 142.322124 119.665584 
z
" clip-path="url(#pb42ed47853)" style="fill: #348abd"/>
   </g>
   <g id="patch_13">
    <path d="M 152.802965 155.454545 
L 163.283807 155.454545 
L 163.283807 116.233766 
L 152.802965 116.233766 
z
" clip-path="url(#pb42ed47853)" style="fill: #348abd"/>
   </g>
   <g id="patch_14">
    <path d="M 163.283807 155.454545 
L 173.764648 155.454545 
L 173.764648 109.37013 
L 163.283807 109.37013 
z
" clip-path="url(#pb42ed47853)" style="fill: #348abd"/>
   </g>
   <g id="patch_15">
    <path d="M 173.764648 155.454545 
L 184.24549 155.454545 
L 184.24549 126.038961 
L 173.764648 126.038961 
z
" clip-path="url(#pb42ed47853)" style="fill: #348abd"/>
   </g>
   <g id="patch_16">
    <path d="M 184.24549 155.454545 
L 194.726331 155.454545 
L 194.726331 131.922078 
L 184.24549 131.922078 
z
" clip-path="url(#pb42ed47853)" style="fill: #348abd"/>
   </g>
   <g id="patch_17">
    <path d="M 194.726331 155.454545 
L 205.207173 155.454545 
L 205.207173 141.727273 
L 194.726331 141.727273 
z
" clip-path="url(#pb42ed47853)" style="fill: #348abd"/>
   </g>
   <g id="patch_18">
    <path d="M 205.207173 155.454545 
L 215.688014 155.454545 
L 215.688014 151.042208 
L 205.207173 151.042208 
z
" clip-path="url(#pb42ed47853)" style="fill: #348abd"/>
   </g>
   <g id="patch_19">
    <path d="M 215.688014 155.454545 
L 226.168856 155.454545 
L 226.168856 153.983766 
L 215.688014 153.983766 
z
" clip-path="url(#pb42ed47853)" style="fill: #348abd"/>
   </g>
   <g id="patch_20">
    <path d="M 226.168856 155.454545 
L 236.649697 155.454545 
L 236.649697 155.454545 
L 226.168856 155.454545 
z
" clip-path="url(#pb42ed47853)" style="fill: #348abd"/>
   </g>
   <g id="patch_21">
    <path d="M 236.649697 155.454545 
L 247.130539 155.454545 
L 247.130539 154.964286 
L 236.649697 154.964286 
z
" clip-path="url(#pb42ed47853)" style="fill: #348abd"/>
   </g>
   <g id="patch_22">
    <path d="M 247.130539 155.454545 
L 257.61138 155.454545 
L 257.61138 155.454545 
L 247.130539 155.454545 
z
" clip-path="url(#pb42ed47853)" style="fill: #348abd"/>
   </g>
   <g id="patch_23">
    <path d="M 257.61138 155.454545 
L 268.092222 155.454545 
L 268.092222 155.454545 
L 257.61138 155.454545 
z
" clip-path="url(#pb42ed47853)" style="fill: #348abd"/>
   </g>
   <g id="patch_24">
    <path d="M 268.092222 155.454545 
L 278.573063 155.454545 
L 278.573063 155.454545 
L 268.092222 155.454545 
z
" clip-path="url(#pb42ed47853)" style="fill: #348abd"/>
   </g>
   <g id="line2d_23">
    <path d="M 47.994551 155.454388 
L 58.475392 155.453171 
L 68.956234 155.444759 
L 79.437075 155.397879 
L 89.917917 155.187675 
L 100.398758 154.432319 
L 110.879599 152.269881 
L 121.360441 147.384986 
L 131.841282 138.824028 
L 142.322124 127.578483 
L 152.802965 117.450763 
L 163.283807 113.314795 
L 173.764648 117.450763 
L 184.24549 127.578483 
L 194.726331 138.824028 
L 205.207173 147.384986 
L 215.688014 152.269881 
L 226.168856 154.432319 
L 236.649697 155.187675 
L 247.130539 155.397879 
L 257.61138 155.444759 
L 268.092222 155.453171 
L 278.573063 155.454388 
" clip-path="url(#pb42ed47853)" style="fill: none; stroke: #e24a33; stroke-width: 1.5; stroke-linecap: square"/>
   </g>
   <g id="patch_25">
    <path d="M 36.465625 155.454545 
L 36.465625 7.2 
" style="fill: none; stroke: #ffffff; stroke-linejoin: miter; stroke-linecap: square"/>
   </g>
   <g id="patch_26">
    <path d="M 290.101989 155.454545 
L 290.101989 7.2 
" style="fill: none; stroke: #ffffff; stroke-linejoin: miter; stroke-linecap: square"/>
   </g>
   <g id="patch_27">
    <path d="M 36.465625 155.454545 
L 290.101989 155.454545 
" style="fill: none; stroke: #ffffff; stroke-linejoin: miter; stroke-linecap: square"/>
   </g>
   <g id="patch_28">
    <path d="M 36.465625 7.2 
L 290.101989 7.2 
" style="fill: none; stroke: #ffffff; stroke-linejoin: miter; stroke-linecap: square"/>
   </g>
   <g id="legend_1">
    <g id="patch_29">
     <path d="M 158.155114 44.55625 
L 283.101989 44.55625 
Q 285.101989 44.55625 285.101989 42.55625 
L 285.101989 14.2 
Q 285.101989 12.2 283.101989 12.2 
L 158.155114 12.2 
Q 156.155114 12.2 156.155114 14.2 
L 156.155114 42.55625 
Q 156.155114 44.55625 158.155114 44.55625 
z
" style="fill: #e5e5e5; opacity: 0.8; stroke: #cccccc; stroke-width: 0.5; stroke-linejoin: miter"/>
    </g>
    <g id="line2d_24">
     <path d="M 160.155114 20.298438 
L 170.155114 20.298438 
L 180.155114 20.298438 
" style="fill: none; stroke: #e24a33; stroke-width: 1.5; stroke-linecap: square"/>
    </g>
    <g id="text_7">
     <!-- Porter-Thomas -->
     <g transform="translate(188.155114 23.798438)scale(0.1 -0.1)">
      <defs>
       <path id="DejaVuSans-50" d="M 1259 4147 
L 1259 2394 
L 2053 2394 
Q 2494 2394 2734 2622 
Q 2975 2850 2975 3272 
Q 2975 3691 2734 3919 
Q 2494 4147 2053 4147 
L 1259 4147 
z
M 628 4666 
L 2053 4666 
Q 2838 4666 3239 4311 
Q 3641 3956 3641 3272 
Q 3641 2581 3239 2228 
Q 2838 1875 2053 1875 
L 1259 1875 
L 1259 0 
L 628 0 
L 628 4666 
z
" transform="scale(0.015625)"/>
       <path id="DejaVuSans-6f" d="M 1959 3097 
Q 1497 3097 1228 2736 
Q 959 2375 959 1747 
Q 959 1119 1226 758 
Q 1494 397 1959 397 
Q 2419 397 2687 759 
Q 2956 1122 2956 1747 
Q 2956 2369 2687 2733 
Q 2419 3097 1959 3097 
z
M 1959 3584 
Q 2709 3584 3137 3096 
Q 3566 2609 3566 1747 
Q 3566 888 3137 398 
Q 2709 -91 1959 -91 
Q 1206 -91 779 398 
Q 353 888 353 1747 
Q 353 2609 779 3096 
Q 1206 3584 1959 3584 
z
" transform="scale(0.015625)"/>
       <path id="DejaVuSans-72" d="M 2631 2963 
Q 2534 3019 2420 3045 
Q 2306 3072 2169 3072 
Q 1681 3072 1420 2755 
Q 1159 2438 1159 1844 
L 1159 0 
L 581 0 
L 581 3500 
L 1159 3500 
L 1159 2956 
Q 1341 3275 1631 3429 
Q 1922 3584 2338 3584 
Q 2397 3584 2469 3576 
Q 2541 3569 2628 3553 
L 2631 2963 
z
" transform="scale(0.015625)"/>
       <path id="DejaVuSans-74" d="M 1172 4494 
L 1172 3500 
L 2356 3500 
L 2356 3053 
L 1172 3053 
L 1172 1153 
Q 1172 725 1289 603 
Q 1406 481 1766 481 
L 2356 481 
L 2356 0 
L 1766 0 
Q 1100 0 847 248 
Q 594 497 594 1153 
L 594 3053 
L 172 3053 
L 172 3500 
L 594 3500 
L 594 4494 
L 1172 4494 
z
" transform="scale(0.015625)"/>
       <path id="DejaVuSans-65" d="M 3597 1894 
L 3597 1613 
L 953 1613 
Q 991 1019 1311 708 
Q 1631 397 2203 397 
Q 2534 397 2845 478 
Q 3156 559 3463 722 
L 3463 178 
Q 3153 47 2828 -22 
Q 2503 -91 2169 -91 
Q 1331 -91 842 396 
Q 353 884 353 1716 
Q 353 2575 817 3079 
Q 1281 3584 2069 3584 
Q 2775 3584 3186 3129 
Q 3597 2675 3597 1894 
z
M 3022 2063 
Q 3016 2534 2758 2815 
Q 2500 3097 2075 3097 
Q 1594 3097 1305 2825 
Q 1016 2553 972 2059 
L 3022 2063 
z
" transform="scale(0.015625)"/>
       <path id="DejaVuSans-2d" d="M 313 2009 
L 1997 2009 
L 1997 1497 
L 313 1497 
L 313 2009 
z
" transform="scale(0.015625)"/>
       <path id="DejaVuSans-54" d="M -19 4666 
L 3928 4666 
L 3928 4134 
L 2272 4134 
L 2272 0 
L 1638 0 
L 1638 4134 
L -19 4134 
L -19 4666 
z
" transform="scale(0.015625)"/>
       <path id="DejaVuSans-68" d="M 3513 2113 
L 3513 0 
L 2938 0 
L 2938 2094 
Q 2938 2591 2744 2837 
Q 2550 3084 2163 3084 
Q 1697 3084 1428 2787 
Q 1159 2491 1159 1978 
L 1159 0 
L 581 0 
L 581 4863 
L 1159 4863 
L 1159 2956 
Q 1366 3272 1645 3428 
Q 1925 3584 2291 3584 
Q 2894 3584 3203 3211 
Q 3513 2838 3513 2113 
z
" transform="scale(0.015625)"/>
       <path id="DejaVuSans-6d" d="M 3328 2828 
Q 3544 3216 3844 3400 
Q 4144 3584 4550 3584 
Q 5097 3584 5394 3201 
Q 5691 2819 5691 2113 
L 5691 0 
L 5113 0 
L 5113 2094 
Q 5113 2597 4934 2840 
Q 4756 3084 4391 3084 
Q 3944 3084 3684 2787 
Q 3425 2491 3425 1978 
L 3425 0 
L 2847 0 
L 2847 2094 
Q 2847 2600 2669 2842 
Q 2491 3084 2119 3084 
Q 1678 3084 1418 2786 
Q 1159 2488 1159 1978 
L 1159 0 
L 581 0 
L 581 3500 
L 1159 3500 
L 1159 2956 
Q 1356 3278 1631 3431 
Q 1906 3584 2284 3584 
Q 2666 3584 2933 3390 
Q 3200 3197 3328 2828 
z
" transform="scale(0.015625)"/>
       <path id="DejaVuSans-61" d="M 2194 1759 
Q 1497 1759 1228 1600 
Q 959 1441 959 1056 
Q 959 750 1161 570 
Q 1363 391 1709 391 
Q 2188 391 2477 730 
Q 2766 1069 2766 1631 
L 2766 1759 
L 2194 1759 
z
M 3341 1997 
L 3341 0 
L 2766 0 
L 2766 531 
Q 2569 213 2275 61 
Q 1981 -91 1556 -91 
Q 1019 -91 701 211 
Q 384 513 384 1019 
Q 384 1609 779 1909 
Q 1175 2209 1959 2209 
L 2766 2209 
L 2766 2266 
Q 2766 2663 2505 2880 
Q 2244 3097 1772 3097 
Q 1472 3097 1187 3025 
Q 903 2953 641 2809 
L 641 3341 
Q 956 3463 1253 3523 
Q 1550 3584 1831 3584 
Q 2591 3584 2966 3190 
Q 3341 2797 3341 1997 
z
" transform="scale(0.015625)"/>
       <path id="DejaVuSans-73" d="M 2834 3397 
L 2834 2853 
Q 2591 2978 2328 3040 
Q 2066 3103 1784 3103 
Q 1356 3103 1142 2972 
Q 928 2841 928 2578 
Q 928 2378 1081 2264 
Q 1234 2150 1697 2047 
L 1894 2003 
Q 2506 1872 2764 1633 
Q 3022 1394 3022 966 
Q 3022 478 2636 193 
Q 2250 -91 1575 -91 
Q 1294 -91 989 -36 
Q 684 19 347 128 
L 347 722 
Q 666 556 975 473 
Q 1284 391 1588 391 
Q 1994 391 2212 530 
Q 2431 669 2431 922 
Q 2431 1156 2273 1281 
Q 2116 1406 1581 1522 
L 1381 1569 
Q 847 1681 609 1914 
Q 372 2147 372 2553 
Q 372 3047 722 3315 
Q 1072 3584 1716 3584 
Q 2034 3584 2315 3537 
Q 2597 3491 2834 3397 
z
" transform="scale(0.015625)"/>
      </defs>
      <use xlink:href="#DejaVuSans-50"/>
      <use xlink:href="#DejaVuSans-6f" x="56.677734"/>
      <use xlink:href="#DejaVuSans-72" x="117.859375"/>
      <use xlink:href="#DejaVuSans-74" x="158.972656"/>
      <use xlink:href="#DejaVuSans-65" x="198.181641"/>
      <use xlink:href="#DejaVuSans-72" x="259.705078"/>
      <use xlink:href="#DejaVuSans-2d" x="294.443359"/>
      <use xlink:href="#DejaVuSans-54" x="321.402344"/>
      <use xlink:href="#DejaVuSans-68" x="382.486328"/>
      <use xlink:href="#DejaVuSans-6f" x="445.865234"/>
      <use xlink:href="#DejaVuSans-6d" x="507.046875"/>
      <use xlink:href="#DejaVuSans-61" x="604.458984"/>
      <use xlink:href="#DejaVuSans-73" x="665.738281"/>
     </g>
    </g>
    <g id="patch_30">
     <path d="M 160.155114 38.476563 
L 180.155114 38.476563 
L 180.155114 31.476563 
L 160.155114 31.476563 
z
" style="fill: #348abd"/>
    </g>
    <g id="text_8">
     <!-- Correlated: Typical -->
     <g transform="translate(188.155114 38.476563)scale(0.1 -0.1)">
      <defs>
       <path id="DejaVuSans-43" d="M 4122 4306 
L 4122 3641 
Q 3803 3938 3442 4084 
Q 3081 4231 2675 4231 
Q 1875 4231 1450 3742 
Q 1025 3253 1025 2328 
Q 1025 1406 1450 917 
Q 1875 428 2675 428 
Q 3081 428 3442 575 
Q 3803 722 4122 1019 
L 4122 359 
Q 3791 134 3420 21 
Q 3050 -91 2638 -91 
Q 1578 -91 968 557 
Q 359 1206 359 2328 
Q 359 3453 968 4101 
Q 1578 4750 2638 4750 
Q 3056 4750 3426 4639 
Q 3797 4528 4122 4306 
z
" transform="scale(0.015625)"/>
       <path id="DejaVuSans-6c" d="M 603 4863 
L 1178 4863 
L 1178 0 
L 603 0 
L 603 4863 
z
" transform="scale(0.015625)"/>
       <path id="DejaVuSans-64" d="M 2906 2969 
L 2906 4863 
L 3481 4863 
L 3481 0 
L 2906 0 
L 2906 525 
Q 2725 213 2448 61 
Q 2172 -91 1784 -91 
Q 1150 -91 751 415 
Q 353 922 353 1747 
Q 353 2572 751 3078 
Q 1150 3584 1784 3584 
Q 2172 3584 2448 3432 
Q 2725 3281 2906 2969 
z
M 947 1747 
Q 947 1113 1208 752 
Q 1469 391 1925 391 
Q 2381 391 2643 752 
Q 2906 1113 2906 1747 
Q 2906 2381 2643 2742 
Q 2381 3103 1925 3103 
Q 1469 3103 1208 2742 
Q 947 2381 947 1747 
z
" transform="scale(0.015625)"/>
       <path id="DejaVuSans-3a" d="M 750 794 
L 1409 794 
L 1409 0 
L 750 0 
L 750 794 
z
M 750 3309 
L 1409 3309 
L 1409 2516 
L 750 2516 
L 750 3309 
z
" transform="scale(0.015625)"/>
       <path id="DejaVuSans-20" transform="scale(0.015625)"/>
       <path id="DejaVuSans-79" d="M 2059 -325 
Q 1816 -950 1584 -1140 
Q 1353 -1331 966 -1331 
L 506 -1331 
L 506 -850 
L 844 -850 
Q 1081 -850 1212 -737 
Q 1344 -625 1503 -206 
L 1606 56 
L 191 3500 
L 800 3500 
L 1894 763 
L 2988 3500 
L 3597 3500 
L 2059 -325 
z
" transform="scale(0.015625)"/>
       <path id="DejaVuSans-70" d="M 1159 525 
L 1159 -1331 
L 581 -1331 
L 581 3500 
L 1159 3500 
L 1159 2969 
Q 1341 3281 1617 3432 
Q 1894 3584 2278 3584 
Q 2916 3584 3314 3078 
Q 3713 2572 3713 1747 
Q 3713 922 3314 415 
Q 2916 -91 2278 -91 
Q 1894 -91 1617 61 
Q 1341 213 1159 525 
z
M 3116 1747 
Q 3116 2381 2855 2742 
Q 2594 3103 2138 3103 
Q 1681 3103 1420 2742 
Q 1159 2381 1159 1747 
Q 1159 1113 1420 752 
Q 1681 391 2138 391 
Q 2594 391 2855 752 
Q 3116 1113 3116 1747 
z
" transform="scale(0.015625)"/>
       <path id="DejaVuSans-69" d="M 603 3500 
L 1178 3500 
L 1178 0 
L 603 0 
L 603 3500 
z
M 603 4863 
L 1178 4863 
L 1178 4134 
L 603 4134 
L 603 4863 
z
" transform="scale(0.015625)"/>
       <path id="DejaVuSans-63" d="M 3122 3366 
L 3122 2828 
Q 2878 2963 2633 3030 
Q 2388 3097 2138 3097 
Q 1578 3097 1268 2742 
Q 959 2388 959 1747 
Q 959 1106 1268 751 
Q 1578 397 2138 397 
Q 2388 397 2633 464 
Q 2878 531 3122 666 
L 3122 134 
Q 2881 22 2623 -34 
Q 2366 -91 2075 -91 
Q 1284 -91 818 406 
Q 353 903 353 1747 
Q 353 2603 823 3093 
Q 1294 3584 2113 3584 
Q 2378 3584 2631 3529 
Q 2884 3475 3122 3366 
z
" transform="scale(0.015625)"/>
      </defs>
      <use xlink:href="#DejaVuSans-43"/>
      <use xlink:href="#DejaVuSans-6f" x="69.824219"/>
      <use xlink:href="#DejaVuSans-72" x="131.005859"/>
      <use xlink:href="#DejaVuSans-72" x="170.369141"/>
      <use xlink:href="#DejaVuSans-65" x="209.232422"/>
      <use xlink:href="#DejaVuSans-6c" x="270.755859"/>
      <use xlink:href="#DejaVuSans-61" x="298.539062"/>
      <use xlink:href="#DejaVuSans-74" x="359.818359"/>
      <use xlink:href="#DejaVuSans-65" x="399.027344"/>
      <use xlink:href="#DejaVuSans-64" x="460.550781"/>
      <use xlink:href="#DejaVuSans-3a" x="524.027344"/>
      <use xlink:href="#DejaVuSans-20" x="557.71875"/>
      <use xlink:href="#DejaVuSans-54" x="589.505859"/>
      <use xlink:href="#DejaVuSans-79" x="634.964844"/>
      <use xlink:href="#DejaVuSans-70" x="694.144531"/>
      <use xlink:href="#DejaVuSans-69" x="757.621094"/>
      <use xlink:href="#DejaVuSans-63" x="785.404297"/>
      <use xlink:href="#DejaVuSans-61" x="840.384766"/>
      <use xlink:href="#DejaVuSans-6c" x="901.664062"/>
     </g>
    </g>
   </g>
  </g>
  <g id="axes_2">
   <g id="patch_31">
    <path d="M 340.829261 155.454545 
L 594.465625 155.454545 
L 594.465625 7.2 
L 340.829261 7.2 
z
" style="fill: #e5e5e5"/>
   </g>
   <g id="matplotlib.axis_3">
    <g id="xtick_6">
     <g id="line2d_25">
      <path d="M 375.416038 155.454545 
L 375.416038 7.2 
" clip-path="url(#pb59472a618)" style="fill: none; stroke: #ffffff; stroke-width: 0.8; stroke-linecap: square"/>
     </g>
     <g id="line2d_26">
      <g>
       <use xlink:href="#m612aae4fa2" x="375.416038" y="155.454545" style="fill: #555555; stroke: #555555; stroke-width: 0.8"/>
      </g>
     </g>
    </g>
    <g id="xtick_7">
     <g id="line2d_27">
      <path d="M 421.531741 155.454545 
L 421.531741 7.2 
" clip-path="url(#pb59472a618)" style="fill: none; stroke: #ffffff; stroke-width: 0.8; stroke-linecap: square"/>
     </g>
     <g id="line2d_28">
      <g>
       <use xlink:href="#m612aae4fa2" x="421.531741" y="155.454545" style="fill: #555555; stroke: #555555; stroke-width: 0.8"/>
      </g>
     </g>
    </g>
    <g id="xtick_8">
     <g id="line2d_29">
      <path d="M 467.647443 155.454545 
L 467.647443 7.2 
" clip-path="url(#pb59472a618)" style="fill: none; stroke: #ffffff; stroke-width: 0.8; stroke-linecap: square"/>
     </g>
     <g id="line2d_30">
      <g>
       <use xlink:href="#m612aae4fa2" x="467.647443" y="155.454545" style="fill: #555555; stroke: #555555; stroke-width: 0.8"/>
      </g>
     </g>
    </g>
    <g id="xtick_9">
     <g id="line2d_31">
      <path d="M 513.763146 155.454545 
L 513.763146 7.2 
" clip-path="url(#pb59472a618)" style="fill: none; stroke: #ffffff; stroke-width: 0.8; stroke-linecap: square"/>
     </g>
     <g id="line2d_32">
      <g>
       <use xlink:href="#m612aae4fa2" x="513.763146" y="155.454545" style="fill: #555555; stroke: #555555; stroke-width: 0.8"/>
      </g>
     </g>
    </g>
    <g id="xtick_10">
     <g id="line2d_33">
      <path d="M 559.878848 155.454545 
L 559.878848 7.2 
" clip-path="url(#pb59472a618)" style="fill: none; stroke: #ffffff; stroke-width: 0.8; stroke-linecap: square"/>
     </g>
     <g id="line2d_34">
      <g>
       <use xlink:href="#m612aae4fa2" x="559.878848" y="155.454545" style="fill: #555555; stroke: #555555; stroke-width: 0.8"/>
      </g>
     </g>
    </g>
   </g>
   <g id="matplotlib.axis_4">
    <g id="ytick_7">
     <g id="line2d_35">
      <path d="M 340.829261 155.454545 
L 594.465625 155.454545 
" clip-path="url(#pb59472a618)" style="fill: none; stroke: #ffffff; stroke-width: 0.8; stroke-linecap: square"/>
     </g>
     <g id="line2d_36">
      <g>
       <use xlink:href="#mb9ce405a99" x="340.829261" y="155.454545" style="fill: #555555; stroke: #555555; stroke-width: 0.8"/>
      </g>
     </g>
    </g>
    <g id="ytick_8">
     <g id="line2d_37">
      <path d="M 340.829261 129.047373 
L 594.465625 129.047373 
" clip-path="url(#pb59472a618)" style="fill: none; stroke: #ffffff; stroke-width: 0.8; stroke-linecap: square"/>
     </g>
     <g id="line2d_38">
      <g>
       <use xlink:href="#mb9ce405a99" x="340.829261" y="129.047373" style="fill: #555555; stroke: #555555; stroke-width: 0.8"/>
      </g>
     </g>
    </g>
    <g id="ytick_9">
     <g id="line2d_39">
      <path d="M 340.829261 102.640201 
L 594.465625 102.640201 
" clip-path="url(#pb59472a618)" style="fill: none; stroke: #ffffff; stroke-width: 0.8; stroke-linecap: square"/>
     </g>
     <g id="line2d_40">
      <g>
       <use xlink:href="#mb9ce405a99" x="340.829261" y="102.640201" style="fill: #555555; stroke: #555555; stroke-width: 0.8"/>
      </g>
     </g>
    </g>
    <g id="ytick_10">
     <g id="line2d_41">
      <path d="M 340.829261 76.233028 
L 594.465625 76.233028 
" clip-path="url(#pb59472a618)" style="fill: none; stroke: #ffffff; stroke-width: 0.8; stroke-linecap: square"/>
     </g>
     <g id="line2d_42">
      <g>
       <use xlink:href="#mb9ce405a99" x="340.829261" y="76.233028" style="fill: #555555; stroke: #555555; stroke-width: 0.8"/>
      </g>
     </g>
    </g>
    <g id="ytick_11">
     <g id="line2d_43">
      <path d="M 340.829261 49.825856 
L 594.465625 49.825856 
" clip-path="url(#pb59472a618)" style="fill: none; stroke: #ffffff; stroke-width: 0.8; stroke-linecap: square"/>
     </g>
     <g id="line2d_44">
      <g>
       <use xlink:href="#mb9ce405a99" x="340.829261" y="49.825856" style="fill: #555555; stroke: #555555; stroke-width: 0.8"/>
      </g>
     </g>
    </g>
    <g id="ytick_12">
     <g id="line2d_45">
      <path d="M 340.829261 23.418684 
L 594.465625 23.418684 
" clip-path="url(#pb59472a618)" style="fill: none; stroke: #ffffff; stroke-width: 0.8; stroke-linecap: square"/>
     </g>
     <g id="line2d_46">
      <g>
       <use xlink:href="#mb9ce405a99" x="340.829261" y="23.418684" style="fill: #555555; stroke: #555555; stroke-width: 0.8"/>
      </g>
     </g>
    </g>
   </g>
   <g id="patch_32">
    <path d="M 352.358187 155.454545 
L 362.839028 155.454545 
L 362.839028 155.454545 
L 352.358187 155.454545 
z
" clip-path="url(#pb59472a618)" style="fill: #348abd"/>
   </g>
   <g id="patch_33">
    <path d="M 362.839028 155.454545 
L 373.31987 155.454545 
L 373.31987 155.454545 
L 362.839028 155.454545 
z
" clip-path="url(#pb59472a618)" style="fill: #348abd"/>
   </g>
   <g id="patch_34">
    <path d="M 373.31987 155.454545 
L 383.800711 155.454545 
L 383.800711 155.454545 
L 373.31987 155.454545 
z
" clip-path="url(#pb59472a618)" style="fill: #348abd"/>
   </g>
   <g id="patch_35">
    <path d="M 383.800711 155.454545 
L 394.281553 155.454545 
L 394.281553 155.454545 
L 383.800711 155.454545 
z
" clip-path="url(#pb59472a618)" style="fill: #348abd"/>
   </g>
   <g id="patch_36">
    <path d="M 394.281553 155.454545 
L 404.762394 155.454545 
L 404.762394 155.454545 
L 394.281553 155.454545 
z
" clip-path="url(#pb59472a618)" style="fill: #348abd"/>
   </g>
   <g id="patch_37">
    <path d="M 404.762394 155.454545 
L 415.243236 155.454545 
L 415.243236 155.454545 
L 404.762394 155.454545 
z
" clip-path="url(#pb59472a618)" style="fill: #348abd"/>
   </g>
   <g id="patch_38">
    <path d="M 415.243236 155.454545 
L 425.724077 155.454545 
L 425.724077 155.454545 
L 415.243236 155.454545 
z
" clip-path="url(#pb59472a618)" style="fill: #348abd"/>
   </g>
   <g id="patch_39">
    <path d="M 425.724077 155.454545 
L 436.204919 155.454545 
L 436.204919 155.454545 
L 425.724077 155.454545 
z
" clip-path="url(#pb59472a618)" style="fill: #348abd"/>
   </g>
   <g id="patch_40">
    <path d="M 436.204919 155.454545 
L 446.68576 155.454545 
L 446.68576 155.454545 
L 436.204919 155.454545 
z
" clip-path="url(#pb59472a618)" style="fill: #348abd"/>
   </g>
   <g id="patch_41">
    <path d="M 446.68576 155.454545 
L 457.166602 155.454545 
L 457.166602 155.454545 
L 446.68576 155.454545 
z
" clip-path="url(#pb59472a618)" style="fill: #348abd"/>
   </g>
   <g id="patch_42">
    <path d="M 457.166602 155.454545 
L 467.647443 155.454545 
L 467.647443 155.454545 
L 457.166602 155.454545 
z
" clip-path="url(#pb59472a618)" style="fill: #348abd"/>
   </g>
   <g id="patch_43">
    <path d="M 467.647443 155.454545 
L 478.128285 155.454545 
L 478.128285 153.003247 
L 467.647443 153.003247 
z
" clip-path="url(#pb59472a618)" style="fill: #348abd"/>
   </g>
   <g id="patch_44">
    <path d="M 478.128285 155.454545 
L 488.609126 155.454545 
L 488.609126 72.11039 
L 478.128285 72.11039 
z
" clip-path="url(#pb59472a618)" style="fill: #348abd"/>
   </g>
   <g id="patch_45">
    <path d="M 488.609126 155.454545 
L 499.089968 155.454545 
L 499.089968 14.25974 
L 488.609126 14.25974 
z
" clip-path="url(#pb59472a618)" style="fill: #348abd"/>
   </g>
   <g id="patch_46">
    <path d="M 499.089968 155.454545 
L 509.570809 155.454545 
L 509.570809 150.061688 
L 499.089968 150.061688 
z
" clip-path="url(#pb59472a618)" style="fill: #348abd"/>
   </g>
   <g id="patch_47">
    <path d="M 509.570809 155.454545 
L 520.051651 155.454545 
L 520.051651 155.454545 
L 509.570809 155.454545 
z
" clip-path="url(#pb59472a618)" style="fill: #348abd"/>
   </g>
   <g id="patch_48">
    <path d="M 520.051651 155.454545 
L 530.532492 155.454545 
L 530.532492 155.454545 
L 520.051651 155.454545 
z
" clip-path="url(#pb59472a618)" style="fill: #348abd"/>
   </g>
   <g id="patch_49">
    <path d="M 530.532492 155.454545 
L 541.013333 155.454545 
L 541.013333 155.454545 
L 530.532492 155.454545 
z
" clip-path="url(#pb59472a618)" style="fill: #348abd"/>
   </g>
   <g id="patch_50">
    <path d="M 541.013333 155.454545 
L 551.494175 155.454545 
L 551.494175 155.454545 
L 541.013333 155.454545 
z
" clip-path="url(#pb59472a618)" style="fill: #348abd"/>
   </g>
   <g id="patch_51">
    <path d="M 551.494175 155.454545 
L 561.975016 155.454545 
L 561.975016 155.454545 
L 551.494175 155.454545 
z
" clip-path="url(#pb59472a618)" style="fill: #348abd"/>
   </g>
   <g id="patch_52">
    <path d="M 561.975016 155.454545 
L 572.455858 155.454545 
L 572.455858 155.454545 
L 561.975016 155.454545 
z
" clip-path="url(#pb59472a618)" style="fill: #348abd"/>
   </g>
   <g id="patch_53">
    <path d="M 572.455858 155.454545 
L 582.936699 155.454545 
L 582.936699 155.454545 
L 572.455858 155.454545 
z
" clip-path="url(#pb59472a618)" style="fill: #348abd"/>
   </g>
   <g id="line2d_47">
    <path d="M 352.358187 155.454388 
L 362.839028 155.453171 
L 373.31987 155.444759 
L 383.800711 155.397879 
L 394.281553 155.187675 
L 404.762394 154.432319 
L 415.243236 152.269881 
L 425.724077 147.384986 
L 436.204919 138.824028 
L 446.68576 127.578483 
L 457.166602 117.450763 
L 467.647443 113.314795 
L 478.128285 117.450763 
L 488.609126 127.578483 
L 499.089968 138.824028 
L 509.570809 147.384986 
L 520.051651 152.269881 
L 530.532492 154.432319 
L 541.013333 155.187675 
L 551.494175 155.397879 
L 561.975016 155.444759 
L 572.455858 155.453171 
L 582.936699 155.454388 
" clip-path="url(#pb59472a618)" style="fill: none; stroke: #e24a33; stroke-width: 1.5; stroke-linecap: square"/>
   </g>
   <g id="patch_54">
    <path d="M 340.829261 155.454545 
L 340.829261 7.2 
" style="fill: none; stroke: #ffffff; stroke-linejoin: miter; stroke-linecap: square"/>
   </g>
   <g id="patch_55">
    <path d="M 594.465625 155.454545 
L 594.465625 7.2 
" style="fill: none; stroke: #ffffff; stroke-linejoin: miter; stroke-linecap: square"/>
   </g>
   <g id="patch_56">
    <path d="M 340.829261 155.454545 
L 594.465625 155.454545 
" style="fill: none; stroke: #ffffff; stroke-linejoin: miter; stroke-linecap: square"/>
   </g>
   <g id="patch_57">
    <path d="M 340.829261 7.2 
L 594.465625 7.2 
" style="fill: none; stroke: #ffffff; stroke-linejoin: miter; stroke-linecap: square"/>
   </g>
   <g id="legend_2">
    <g id="patch_58">
     <path d="M 347.829261 44.55625 
L 477.048011 44.55625 
Q 479.048011 44.55625 479.048011 42.55625 
L 479.048011 14.2 
Q 479.048011 12.2 477.048011 12.2 
L 347.829261 12.2 
Q 345.829261 12.2 345.829261 14.2 
L 345.829261 42.55625 
Q 345.829261 44.55625 347.829261 44.55625 
z
" style="fill: #e5e5e5; opacity: 0.8; stroke: #cccccc; stroke-width: 0.5; stroke-linejoin: miter"/>
    </g>
    <g id="line2d_48">
     <path d="M 349.829261 20.298438 
L 359.829261 20.298438 
L 369.829261 20.298438 
" style="fill: none; stroke: #e24a33; stroke-width: 1.5; stroke-linecap: square"/>
    </g>
    <g id="text_9">
     <!-- Porter-Thomas -->
     <g transform="translate(377.829261 23.798438)scale(0.1 -0.1)">
      <use xlink:href="#DejaVuSans-50"/>
      <use xlink:href="#DejaVuSans-6f" x="56.677734"/>
      <use xlink:href="#DejaVuSans-72" x="117.859375"/>
      <use xlink:href="#DejaVuSans-74" x="158.972656"/>
      <use xlink:href="#DejaVuSans-65" x="198.181641"/>
      <use xlink:href="#DejaVuSans-72" x="259.705078"/>
      <use xlink:href="#DejaVuSans-2d" x="294.443359"/>
      <use xlink:href="#DejaVuSans-54" x="321.402344"/>
      <use xlink:href="#DejaVuSans-68" x="382.486328"/>
      <use xlink:href="#DejaVuSans-6f" x="445.865234"/>
      <use xlink:href="#DejaVuSans-6d" x="507.046875"/>
      <use xlink:href="#DejaVuSans-61" x="604.458984"/>
      <use xlink:href="#DejaVuSans-73" x="665.738281"/>
     </g>
    </g>
    <g id="patch_59">
     <path d="M 349.829261 38.476563 
L 369.829261 38.476563 
L 369.829261 31.476563 
L 349.829261 31.476563 
z
" style="fill: #348abd"/>
    </g>
    <g id="text_10">
     <!-- Correlated: Highest -->
     <g transform="translate(377.829261 38.476563)scale(0.1 -0.1)">
      <defs>
       <path id="DejaVuSans-48" d="M 628 4666 
L 1259 4666 
L 1259 2753 
L 3553 2753 
L 3553 4666 
L 4184 4666 
L 4184 0 
L 3553 0 
L 3553 2222 
L 1259 2222 
L 1259 0 
L 628 0 
L 628 4666 
z
" transform="scale(0.015625)"/>
       <path id="DejaVuSans-67" d="M 2906 1791 
Q 2906 2416 2648 2759 
Q 2391 3103 1925 3103 
Q 1463 3103 1205 2759 
Q 947 2416 947 1791 
Q 947 1169 1205 825 
Q 1463 481 1925 481 
Q 2391 481 2648 825 
Q 2906 1169 2906 1791 
z
M 3481 434 
Q 3481 -459 3084 -895 
Q 2688 -1331 1869 -1331 
Q 1566 -1331 1297 -1286 
Q 1028 -1241 775 -1147 
L 775 -588 
Q 1028 -725 1275 -790 
Q 1522 -856 1778 -856 
Q 2344 -856 2625 -561 
Q 2906 -266 2906 331 
L 2906 616 
Q 2728 306 2450 153 
Q 2172 0 1784 0 
Q 1141 0 747 490 
Q 353 981 353 1791 
Q 353 2603 747 3093 
Q 1141 3584 1784 3584 
Q 2172 3584 2450 3431 
Q 2728 3278 2906 2969 
L 2906 3500 
L 3481 3500 
L 3481 434 
z
" transform="scale(0.015625)"/>
      </defs>
      <use xlink:href="#DejaVuSans-43"/>
      <use xlink:href="#DejaVuSans-6f" x="69.824219"/>
      <use xlink:href="#DejaVuSans-72" x="131.005859"/>
      <use xlink:href="#DejaVuSans-72" x="170.369141"/>
      <use xlink:href="#DejaVuSans-65" x="209.232422"/>
      <use xlink:href="#DejaVuSans-6c" x="270.755859"/>
      <use xlink:href="#DejaVuSans-61" x="298.539062"/>
      <use xlink:href="#DejaVuSans-74" x="359.818359"/>
      <use xlink:href="#DejaVuSans-65" x="399.027344"/>
      <use xlink:href="#DejaVuSans-64" x="460.550781"/>
      <use xlink:href="#DejaVuSans-3a" x="524.027344"/>
      <use xlink:href="#DejaVuSans-20" x="557.71875"/>
      <use xlink:href="#DejaVuSans-48" x="589.505859"/>
      <use xlink:href="#DejaVuSans-69" x="664.701172"/>
      <use xlink:href="#DejaVuSans-67" x="692.484375"/>
      <use xlink:href="#DejaVuSans-68" x="755.960938"/>
      <use xlink:href="#DejaVuSans-65" x="819.339844"/>
      <use xlink:href="#DejaVuSans-73" x="880.863281"/>
      <use xlink:href="#DejaVuSans-74" x="932.962891"/>
     </g>
    </g>
   </g>
  </g>
  <g id="axes_3">
   <g id="patch_60">
    <path d="M 36.465625 333.36 
L 290.101989 333.36 
L 290.101989 185.105455 
L 36.465625 185.105455 
z
" style="fill: #e5e5e5"/>
   </g>
   <g id="matplotlib.axis_5">
    <g id="xtick_11">
     <g id="line2d_49">
      <path d="M 71.052402 333.36 
L 71.052402 185.105455 
" clip-path="url(#p4eaa9a6237)" style="fill: none; stroke: #ffffff; stroke-width: 0.8; stroke-linecap: square"/>
     </g>
     <g id="line2d_50">
      <g>
       <use xlink:href="#m612aae4fa2" x="71.052402" y="333.36" style="fill: #555555; stroke: #555555; stroke-width: 0.8"/>
      </g>
     </g>
     <g id="text_11">
      <!-- −4 -->
      <g style="fill: #555555" transform="translate(63.681308 347.958438)scale(0.1 -0.1)">
       <defs>
        <path id="DejaVuSans-2212" d="M 678 2272 
L 4684 2272 
L 4684 1741 
L 678 1741 
L 678 2272 
z
" transform="scale(0.015625)"/>
        <path id="DejaVuSans-34" d="M 2419 4116 
L 825 1625 
L 2419 1625 
L 2419 4116 
z
M 2253 4666 
L 3047 4666 
L 3047 1625 
L 3713 1625 
L 3713 1100 
L 3047 1100 
L 3047 0 
L 2419 0 
L 2419 1100 
L 313 1100 
L 313 1709 
L 2253 4666 
z
" transform="scale(0.015625)"/>
       </defs>
       <use xlink:href="#DejaVuSans-2212"/>
       <use xlink:href="#DejaVuSans-34" x="83.789062"/>
      </g>
     </g>
    </g>
    <g id="xtick_12">
     <g id="line2d_51">
      <path d="M 117.168104 333.36 
L 117.168104 185.105455 
" clip-path="url(#p4eaa9a6237)" style="fill: none; stroke: #ffffff; stroke-width: 0.8; stroke-linecap: square"/>
     </g>
     <g id="line2d_52">
      <g>
       <use xlink:href="#m612aae4fa2" x="117.168104" y="333.36" style="fill: #555555; stroke: #555555; stroke-width: 0.8"/>
      </g>
     </g>
     <g id="text_12">
      <!-- −2 -->
      <g style="fill: #555555" transform="translate(109.797011 347.958438)scale(0.1 -0.1)">
       <use xlink:href="#DejaVuSans-2212"/>
       <use xlink:href="#DejaVuSans-32" x="83.789062"/>
      </g>
     </g>
    </g>
    <g id="xtick_13">
     <g id="line2d_53">
      <path d="M 163.283807 333.36 
L 163.283807 185.105455 
" clip-path="url(#p4eaa9a6237)" style="fill: none; stroke: #ffffff; stroke-width: 0.8; stroke-linecap: square"/>
     </g>
     <g id="line2d_54">
      <g>
       <use xlink:href="#m612aae4fa2" x="163.283807" y="333.36" style="fill: #555555; stroke: #555555; stroke-width: 0.8"/>
      </g>
     </g>
     <g id="text_13">
      <!-- 0 -->
      <g style="fill: #555555" transform="translate(160.102557 347.958438)scale(0.1 -0.1)">
       <use xlink:href="#DejaVuSans-30"/>
      </g>
     </g>
    </g>
    <g id="xtick_14">
     <g id="line2d_55">
      <path d="M 209.399509 333.36 
L 209.399509 185.105455 
" clip-path="url(#p4eaa9a6237)" style="fill: none; stroke: #ffffff; stroke-width: 0.8; stroke-linecap: square"/>
     </g>
     <g id="line2d_56">
      <g>
       <use xlink:href="#m612aae4fa2" x="209.399509" y="333.36" style="fill: #555555; stroke: #555555; stroke-width: 0.8"/>
      </g>
     </g>
     <g id="text_14">
      <!-- 2 -->
      <g style="fill: #555555" transform="translate(206.218259 347.958438)scale(0.1 -0.1)">
       <use xlink:href="#DejaVuSans-32"/>
      </g>
     </g>
    </g>
    <g id="xtick_15">
     <g id="line2d_57">
      <path d="M 255.515212 333.36 
L 255.515212 185.105455 
" clip-path="url(#p4eaa9a6237)" style="fill: none; stroke: #ffffff; stroke-width: 0.8; stroke-linecap: square"/>
     </g>
     <g id="line2d_58">
      <g>
       <use xlink:href="#m612aae4fa2" x="255.515212" y="333.36" style="fill: #555555; stroke: #555555; stroke-width: 0.8"/>
      </g>
     </g>
     <g id="text_15">
      <!-- 4 -->
      <g style="fill: #555555" transform="translate(252.333962 347.958438)scale(0.1 -0.1)">
       <use xlink:href="#DejaVuSans-34"/>
      </g>
     </g>
    </g>
   </g>
   <g id="matplotlib.axis_6">
    <g id="ytick_13">
     <g id="line2d_59">
      <path d="M 36.465625 333.36 
L 290.101989 333.36 
" clip-path="url(#p4eaa9a6237)" style="fill: none; stroke: #ffffff; stroke-width: 0.8; stroke-linecap: square"/>
     </g>
     <g id="line2d_60">
      <g>
       <use xlink:href="#mb9ce405a99" x="36.465625" y="333.36" style="fill: #555555; stroke: #555555; stroke-width: 0.8"/>
      </g>
     </g>
     <g id="text_16">
      <!-- 0.00 -->
      <g style="fill: #555555" transform="translate(7.2 337.159219)scale(0.1 -0.1)">
       <use xlink:href="#DejaVuSans-30"/>
       <use xlink:href="#DejaVuSans-2e" x="63.623047"/>
       <use xlink:href="#DejaVuSans-30" x="95.410156"/>
       <use xlink:href="#DejaVuSans-30" x="159.033203"/>
      </g>
     </g>
    </g>
    <g id="ytick_14">
     <g id="line2d_61">
      <path d="M 36.465625 306.952828 
L 290.101989 306.952828 
" clip-path="url(#p4eaa9a6237)" style="fill: none; stroke: #ffffff; stroke-width: 0.8; stroke-linecap: square"/>
     </g>
     <g id="line2d_62">
      <g>
       <use xlink:href="#mb9ce405a99" x="36.465625" y="306.952828" style="fill: #555555; stroke: #555555; stroke-width: 0.8"/>
      </g>
     </g>
     <g id="text_17">
      <!-- 0.25 -->
      <g style="fill: #555555" transform="translate(7.2 310.752046)scale(0.1 -0.1)">
       <use xlink:href="#DejaVuSans-30"/>
       <use xlink:href="#DejaVuSans-2e" x="63.623047"/>
       <use xlink:href="#DejaVuSans-32" x="95.410156"/>
       <use xlink:href="#DejaVuSans-35" x="159.033203"/>
      </g>
     </g>
    </g>
    <g id="ytick_15">
     <g id="line2d_63">
      <path d="M 36.465625 280.545655 
L 290.101989 280.545655 
" clip-path="url(#p4eaa9a6237)" style="fill: none; stroke: #ffffff; stroke-width: 0.8; stroke-linecap: square"/>
     </g>
     <g id="line2d_64">
      <g>
       <use xlink:href="#mb9ce405a99" x="36.465625" y="280.545655" style="fill: #555555; stroke: #555555; stroke-width: 0.8"/>
      </g>
     </g>
     <g id="text_18">
      <!-- 0.50 -->
      <g style="fill: #555555" transform="translate(7.2 284.344874)scale(0.1 -0.1)">
       <use xlink:href="#DejaVuSans-30"/>
       <use xlink:href="#DejaVuSans-2e" x="63.623047"/>
       <use xlink:href="#DejaVuSans-35" x="95.410156"/>
       <use xlink:href="#DejaVuSans-30" x="159.033203"/>
      </g>
     </g>
    </g>
    <g id="ytick_16">
     <g id="line2d_65">
      <path d="M 36.465625 254.138483 
L 290.101989 254.138483 
" clip-path="url(#p4eaa9a6237)" style="fill: none; stroke: #ffffff; stroke-width: 0.8; stroke-linecap: square"/>
     </g>
     <g id="line2d_66">
      <g>
       <use xlink:href="#mb9ce405a99" x="36.465625" y="254.138483" style="fill: #555555; stroke: #555555; stroke-width: 0.8"/>
      </g>
     </g>
     <g id="text_19">
      <!-- 0.75 -->
      <g style="fill: #555555" transform="translate(7.2 257.937702)scale(0.1 -0.1)">
       <use xlink:href="#DejaVuSans-30"/>
       <use xlink:href="#DejaVuSans-2e" x="63.623047"/>
       <use xlink:href="#DejaVuSans-37" x="95.410156"/>
       <use xlink:href="#DejaVuSans-35" x="159.033203"/>
      </g>
     </g>
    </g>
    <g id="ytick_17">
     <g id="line2d_67">
      <path d="M 36.465625 227.731311 
L 290.101989 227.731311 
" clip-path="url(#p4eaa9a6237)" style="fill: none; stroke: #ffffff; stroke-width: 0.8; stroke-linecap: square"/>
     </g>
     <g id="line2d_68">
      <g>
       <use xlink:href="#mb9ce405a99" x="36.465625" y="227.731311" style="fill: #555555; stroke: #555555; stroke-width: 0.8"/>
      </g>
     </g>
     <g id="text_20">
      <!-- 1.00 -->
      <g style="fill: #555555" transform="translate(7.2 231.530529)scale(0.1 -0.1)">
       <use xlink:href="#DejaVuSans-31"/>
       <use xlink:href="#DejaVuSans-2e" x="63.623047"/>
       <use xlink:href="#DejaVuSans-30" x="95.410156"/>
       <use xlink:href="#DejaVuSans-30" x="159.033203"/>
      </g>
     </g>
    </g>
    <g id="ytick_18">
     <g id="line2d_69">
      <path d="M 36.465625 201.324138 
L 290.101989 201.324138 
" clip-path="url(#p4eaa9a6237)" style="fill: none; stroke: #ffffff; stroke-width: 0.8; stroke-linecap: square"/>
     </g>
     <g id="line2d_70">
      <g>
       <use xlink:href="#mb9ce405a99" x="36.465625" y="201.324138" style="fill: #555555; stroke: #555555; stroke-width: 0.8"/>
      </g>
     </g>
     <g id="text_21">
      <!-- 1.25 -->
      <g style="fill: #555555" transform="translate(7.2 205.123357)scale(0.1 -0.1)">
       <use xlink:href="#DejaVuSans-31"/>
       <use xlink:href="#DejaVuSans-2e" x="63.623047"/>
       <use xlink:href="#DejaVuSans-32" x="95.410156"/>
       <use xlink:href="#DejaVuSans-35" x="159.033203"/>
      </g>
     </g>
    </g>
   </g>
   <g id="patch_61">
    <path d="M 47.994551 333.36 
L 58.475392 333.36 
L 58.475392 333.36 
L 47.994551 333.36 
z
" clip-path="url(#p4eaa9a6237)" style="fill: #348abd"/>
   </g>
   <g id="patch_62">
    <path d="M 58.475392 333.36 
L 68.956234 333.36 
L 68.956234 333.36 
L 58.475392 333.36 
z
" clip-path="url(#p4eaa9a6237)" style="fill: #348abd"/>
   </g>
   <g id="patch_63">
    <path d="M 68.956234 333.36 
L 79.437075 333.36 
L 79.437075 332.86974 
L 68.956234 332.86974 
z
" clip-path="url(#p4eaa9a6237)" style="fill: #348abd"/>
   </g>
   <g id="patch_64">
    <path d="M 79.437075 333.36 
L 89.917917 333.36 
L 89.917917 333.36 
L 79.437075 333.36 
z
" clip-path="url(#p4eaa9a6237)" style="fill: #348abd"/>
   </g>
   <g id="patch_65">
    <path d="M 89.917917 333.36 
L 100.398758 333.36 
L 100.398758 333.36 
L 89.917917 333.36 
z
" clip-path="url(#p4eaa9a6237)" style="fill: #348abd"/>
   </g>
   <g id="patch_66">
    <path d="M 100.398758 333.36 
L 110.879599 333.36 
L 110.879599 332.379481 
L 100.398758 332.379481 
z
" clip-path="url(#p4eaa9a6237)" style="fill: #348abd"/>
   </g>
   <g id="patch_67">
    <path d="M 110.879599 333.36 
L 121.360441 333.36 
L 121.360441 329.437922 
L 110.879599 329.437922 
z
" clip-path="url(#p4eaa9a6237)" style="fill: #348abd"/>
   </g>
   <g id="patch_68">
    <path d="M 121.360441 333.36 
L 131.841282 333.36 
L 131.841282 317.181429 
L 121.360441 317.181429 
z
" clip-path="url(#p4eaa9a6237)" style="fill: #348abd"/>
   </g>
   <g id="patch_69">
    <path d="M 131.841282 333.36 
L 142.322124 333.36 
L 142.322124 312.769091 
L 131.841282 312.769091 
z
" clip-path="url(#p4eaa9a6237)" style="fill: #348abd"/>
   </g>
   <g id="patch_70">
    <path d="M 142.322124 333.36 
L 152.802965 333.36 
L 152.802965 298.061299 
L 142.322124 298.061299 
z
" clip-path="url(#p4eaa9a6237)" style="fill: #348abd"/>
   </g>
   <g id="patch_71">
    <path d="M 152.802965 333.36 
L 163.283807 333.36 
L 163.283807 294.629481 
L 152.802965 294.629481 
z
" clip-path="url(#p4eaa9a6237)" style="fill: #348abd"/>
   </g>
   <g id="patch_72">
    <path d="M 163.283807 333.36 
L 173.764648 333.36 
L 173.764648 295.61 
L 163.283807 295.61 
z
" clip-path="url(#p4eaa9a6237)" style="fill: #348abd"/>
   </g>
   <g id="patch_73">
    <path d="M 173.764648 333.36 
L 184.24549 333.36 
L 184.24549 297.571039 
L 173.764648 297.571039 
z
" clip-path="url(#p4eaa9a6237)" style="fill: #348abd"/>
   </g>
   <g id="patch_74">
    <path d="M 184.24549 333.36 
L 194.726331 333.36 
L 194.726331 312.278831 
L 184.24549 312.278831 
z
" clip-path="url(#p4eaa9a6237)" style="fill: #348abd"/>
   </g>
   <g id="patch_75">
    <path d="M 194.726331 333.36 
L 205.207173 333.36 
L 205.207173 319.632727 
L 194.726331 319.632727 
z
" clip-path="url(#p4eaa9a6237)" style="fill: #348abd"/>
   </g>
   <g id="patch_76">
    <path d="M 205.207173 333.36 
L 215.688014 333.36 
L 215.688014 328.457403 
L 205.207173 328.457403 
z
" clip-path="url(#p4eaa9a6237)" style="fill: #348abd"/>
   </g>
   <g id="patch_77">
    <path d="M 215.688014 333.36 
L 226.168856 333.36 
L 226.168856 330.908701 
L 215.688014 330.908701 
z
" clip-path="url(#p4eaa9a6237)" style="fill: #348abd"/>
   </g>
   <g id="patch_78">
    <path d="M 226.168856 333.36 
L 236.649697 333.36 
L 236.649697 332.86974 
L 226.168856 332.86974 
z
" clip-path="url(#p4eaa9a6237)" style="fill: #348abd"/>
   </g>
   <g id="patch_79">
    <path d="M 236.649697 333.36 
L 247.130539 333.36 
L 247.130539 333.36 
L 236.649697 333.36 
z
" clip-path="url(#p4eaa9a6237)" style="fill: #348abd"/>
   </g>
   <g id="patch_80">
    <path d="M 247.130539 333.36 
L 257.61138 333.36 
L 257.61138 333.36 
L 247.130539 333.36 
z
" clip-path="url(#p4eaa9a6237)" style="fill: #348abd"/>
   </g>
   <g id="patch_81">
    <path d="M 257.61138 333.36 
L 268.092222 333.36 
L 268.092222 333.36 
L 257.61138 333.36 
z
" clip-path="url(#p4eaa9a6237)" style="fill: #348abd"/>
   </g>
   <g id="patch_82">
    <path d="M 268.092222 333.36 
L 278.573063 333.36 
L 278.573063 333.36 
L 268.092222 333.36 
z
" clip-path="url(#p4eaa9a6237)" style="fill: #348abd"/>
   </g>
   <g id="line2d_71">
    <path d="M 47.994551 333.359843 
L 58.475392 333.358625 
L 68.956234 333.350214 
L 79.437075 333.303334 
L 89.917917 333.09313 
L 100.398758 332.337773 
L 110.879599 330.175336 
L 121.360441 325.29044 
L 131.841282 316.729482 
L 142.322124 305.483938 
L 152.802965 295.356217 
L 163.283807 291.22025 
L 173.764648 295.356217 
L 184.24549 305.483938 
L 194.726331 316.729482 
L 205.207173 325.29044 
L 215.688014 330.175336 
L 226.168856 332.337773 
L 236.649697 333.09313 
L 247.130539 333.303334 
L 257.61138 333.350214 
L 268.092222 333.358625 
L 278.573063 333.359843 
" clip-path="url(#p4eaa9a6237)" style="fill: none; stroke: #e24a33; stroke-width: 1.5; stroke-linecap: square"/>
   </g>
   <g id="patch_83">
    <path d="M 36.465625 333.36 
L 36.465625 185.105455 
" style="fill: none; stroke: #ffffff; stroke-linejoin: miter; stroke-linecap: square"/>
   </g>
   <g id="patch_84">
    <path d="M 290.101989 333.36 
L 290.101989 185.105455 
" style="fill: none; stroke: #ffffff; stroke-linejoin: miter; stroke-linecap: square"/>
   </g>
   <g id="patch_85">
    <path d="M 36.465625 333.36 
L 290.101989 333.36 
" style="fill: none; stroke: #ffffff; stroke-linejoin: miter; stroke-linecap: square"/>
   </g>
   <g id="patch_86">
    <path d="M 36.465625 185.105455 
L 290.101989 185.105455 
" style="fill: none; stroke: #ffffff; stroke-linejoin: miter; stroke-linecap: square"/>
   </g>
   <g id="legend_3">
    <g id="patch_87">
     <path d="M 169.216051 222.461705 
L 283.101989 222.461705 
Q 285.101989 222.461705 285.101989 220.461705 
L 285.101989 192.105455 
Q 285.101989 190.105455 283.101989 190.105455 
L 169.216051 190.105455 
Q 167.216051 190.105455 167.216051 192.105455 
L 167.216051 220.461705 
Q 167.216051 222.461705 169.216051 222.461705 
z
" style="fill: #e5e5e5; opacity: 0.8; stroke: #cccccc; stroke-width: 0.5; stroke-linejoin: miter"/>
    </g>
    <g id="line2d_72">
     <path d="M 171.216051 198.203892 
L 181.216051 198.203892 
L 191.216051 198.203892 
" style="fill: none; stroke: #e24a33; stroke-width: 1.5; stroke-linecap: square"/>
    </g>
    <g id="text_22">
     <!-- Porter-Thomas -->
     <g transform="translate(199.216051 201.703892)scale(0.1 -0.1)">
      <use xlink:href="#DejaVuSans-50"/>
      <use xlink:href="#DejaVuSans-6f" x="56.677734"/>
      <use xlink:href="#DejaVuSans-72" x="117.859375"/>
      <use xlink:href="#DejaVuSans-74" x="158.972656"/>
      <use xlink:href="#DejaVuSans-65" x="198.181641"/>
      <use xlink:href="#DejaVuSans-72" x="259.705078"/>
      <use xlink:href="#DejaVuSans-2d" x="294.443359"/>
      <use xlink:href="#DejaVuSans-54" x="321.402344"/>
      <use xlink:href="#DejaVuSans-68" x="382.486328"/>
      <use xlink:href="#DejaVuSans-6f" x="445.865234"/>
      <use xlink:href="#DejaVuSans-6d" x="507.046875"/>
      <use xlink:href="#DejaVuSans-61" x="604.458984"/>
      <use xlink:href="#DejaVuSans-73" x="665.738281"/>
     </g>
    </g>
    <g id="patch_88">
     <path d="M 171.216051 216.382017 
L 191.216051 216.382017 
L 191.216051 209.382017 
L 171.216051 209.382017 
z
" style="fill: #348abd"/>
    </g>
    <g id="text_23">
     <!-- Shuffled: Typical -->
     <g transform="translate(199.216051 216.382017)scale(0.1 -0.1)">
      <defs>
       <path id="DejaVuSans-53" d="M 3425 4513 
L 3425 3897 
Q 3066 4069 2747 4153 
Q 2428 4238 2131 4238 
Q 1616 4238 1336 4038 
Q 1056 3838 1056 3469 
Q 1056 3159 1242 3001 
Q 1428 2844 1947 2747 
L 2328 2669 
Q 3034 2534 3370 2195 
Q 3706 1856 3706 1288 
Q 3706 609 3251 259 
Q 2797 -91 1919 -91 
Q 1588 -91 1214 -16 
Q 841 59 441 206 
L 441 856 
Q 825 641 1194 531 
Q 1563 422 1919 422 
Q 2459 422 2753 634 
Q 3047 847 3047 1241 
Q 3047 1584 2836 1778 
Q 2625 1972 2144 2069 
L 1759 2144 
Q 1053 2284 737 2584 
Q 422 2884 422 3419 
Q 422 4038 858 4394 
Q 1294 4750 2059 4750 
Q 2388 4750 2728 4690 
Q 3069 4631 3425 4513 
z
" transform="scale(0.015625)"/>
       <path id="DejaVuSans-75" d="M 544 1381 
L 544 3500 
L 1119 3500 
L 1119 1403 
Q 1119 906 1312 657 
Q 1506 409 1894 409 
Q 2359 409 2629 706 
Q 2900 1003 2900 1516 
L 2900 3500 
L 3475 3500 
L 3475 0 
L 2900 0 
L 2900 538 
Q 2691 219 2414 64 
Q 2138 -91 1772 -91 
Q 1169 -91 856 284 
Q 544 659 544 1381 
z
M 1991 3584 
L 1991 3584 
z
" transform="scale(0.015625)"/>
       <path id="DejaVuSans-66" d="M 2375 4863 
L 2375 4384 
L 1825 4384 
Q 1516 4384 1395 4259 
Q 1275 4134 1275 3809 
L 1275 3500 
L 2222 3500 
L 2222 3053 
L 1275 3053 
L 1275 0 
L 697 0 
L 697 3053 
L 147 3053 
L 147 3500 
L 697 3500 
L 697 3744 
Q 697 4328 969 4595 
Q 1241 4863 1831 4863 
L 2375 4863 
z
" transform="scale(0.015625)"/>
      </defs>
      <use xlink:href="#DejaVuSans-53"/>
      <use xlink:href="#DejaVuSans-68" x="63.476562"/>
      <use xlink:href="#DejaVuSans-75" x="126.855469"/>
      <use xlink:href="#DejaVuSans-66" x="190.234375"/>
      <use xlink:href="#DejaVuSans-66" x="225.439453"/>
      <use xlink:href="#DejaVuSans-6c" x="260.644531"/>
      <use xlink:href="#DejaVuSans-65" x="288.427734"/>
      <use xlink:href="#DejaVuSans-64" x="349.951172"/>
      <use xlink:href="#DejaVuSans-3a" x="413.427734"/>
      <use xlink:href="#DejaVuSans-20" x="447.119141"/>
      <use xlink:href="#DejaVuSans-54" x="478.90625"/>
      <use xlink:href="#DejaVuSans-79" x="524.365234"/>
      <use xlink:href="#DejaVuSans-70" x="583.544922"/>
      <use xlink:href="#DejaVuSans-69" x="647.021484"/>
      <use xlink:href="#DejaVuSans-63" x="674.804688"/>
      <use xlink:href="#DejaVuSans-61" x="729.785156"/>
      <use xlink:href="#DejaVuSans-6c" x="791.064453"/>
     </g>
    </g>
   </g>
  </g>
  <g id="axes_4">
   <g id="patch_89">
    <path d="M 340.829261 333.36 
L 594.465625 333.36 
L 594.465625 185.105455 
L 340.829261 185.105455 
z
" style="fill: #e5e5e5"/>
   </g>
   <g id="matplotlib.axis_7">
    <g id="xtick_16">
     <g id="line2d_73">
      <path d="M 375.416038 333.36 
L 375.416038 185.105455 
" clip-path="url(#p84f77fa5b4)" style="fill: none; stroke: #ffffff; stroke-width: 0.8; stroke-linecap: square"/>
     </g>
     <g id="line2d_74">
      <g>
       <use xlink:href="#m612aae4fa2" x="375.416038" y="333.36" style="fill: #555555; stroke: #555555; stroke-width: 0.8"/>
      </g>
     </g>
     <g id="text_24">
      <!-- −4 -->
      <g style="fill: #555555" transform="translate(368.044944 347.958438)scale(0.1 -0.1)">
       <use xlink:href="#DejaVuSans-2212"/>
       <use xlink:href="#DejaVuSans-34" x="83.789062"/>
      </g>
     </g>
    </g>
    <g id="xtick_17">
     <g id="line2d_75">
      <path d="M 421.531741 333.36 
L 421.531741 185.105455 
" clip-path="url(#p84f77fa5b4)" style="fill: none; stroke: #ffffff; stroke-width: 0.8; stroke-linecap: square"/>
     </g>
     <g id="line2d_76">
      <g>
       <use xlink:href="#m612aae4fa2" x="421.531741" y="333.36" style="fill: #555555; stroke: #555555; stroke-width: 0.8"/>
      </g>
     </g>
     <g id="text_25">
      <!-- −2 -->
      <g style="fill: #555555" transform="translate(414.160647 347.958438)scale(0.1 -0.1)">
       <use xlink:href="#DejaVuSans-2212"/>
       <use xlink:href="#DejaVuSans-32" x="83.789062"/>
      </g>
     </g>
    </g>
    <g id="xtick_18">
     <g id="line2d_77">
      <path d="M 467.647443 333.36 
L 467.647443 185.105455 
" clip-path="url(#p84f77fa5b4)" style="fill: none; stroke: #ffffff; stroke-width: 0.8; stroke-linecap: square"/>
     </g>
     <g id="line2d_78">
      <g>
       <use xlink:href="#m612aae4fa2" x="467.647443" y="333.36" style="fill: #555555; stroke: #555555; stroke-width: 0.8"/>
      </g>
     </g>
     <g id="text_26">
      <!-- 0 -->
      <g style="fill: #555555" transform="translate(464.466193 347.958438)scale(0.1 -0.1)">
       <use xlink:href="#DejaVuSans-30"/>
      </g>
     </g>
    </g>
    <g id="xtick_19">
     <g id="line2d_79">
      <path d="M 513.763146 333.36 
L 513.763146 185.105455 
" clip-path="url(#p84f77fa5b4)" style="fill: none; stroke: #ffffff; stroke-width: 0.8; stroke-linecap: square"/>
     </g>
     <g id="line2d_80">
      <g>
       <use xlink:href="#m612aae4fa2" x="513.763146" y="333.36" style="fill: #555555; stroke: #555555; stroke-width: 0.8"/>
      </g>
     </g>
     <g id="text_27">
      <!-- 2 -->
      <g style="fill: #555555" transform="translate(510.581896 347.958438)scale(0.1 -0.1)">
       <use xlink:href="#DejaVuSans-32"/>
      </g>
     </g>
    </g>
    <g id="xtick_20">
     <g id="line2d_81">
      <path d="M 559.878848 333.36 
L 559.878848 185.105455 
" clip-path="url(#p84f77fa5b4)" style="fill: none; stroke: #ffffff; stroke-width: 0.8; stroke-linecap: square"/>
     </g>
     <g id="line2d_82">
      <g>
       <use xlink:href="#m612aae4fa2" x="559.878848" y="333.36" style="fill: #555555; stroke: #555555; stroke-width: 0.8"/>
      </g>
     </g>
     <g id="text_28">
      <!-- 4 -->
      <g style="fill: #555555" transform="translate(556.697598 347.958438)scale(0.1 -0.1)">
       <use xlink:href="#DejaVuSans-34"/>
      </g>
     </g>
    </g>
   </g>
   <g id="matplotlib.axis_8">
    <g id="ytick_19">
     <g id="line2d_83">
      <path d="M 340.829261 333.36 
L 594.465625 333.36 
" clip-path="url(#p84f77fa5b4)" style="fill: none; stroke: #ffffff; stroke-width: 0.8; stroke-linecap: square"/>
     </g>
     <g id="line2d_84">
      <g>
       <use xlink:href="#mb9ce405a99" x="340.829261" y="333.36" style="fill: #555555; stroke: #555555; stroke-width: 0.8"/>
      </g>
     </g>
    </g>
    <g id="ytick_20">
     <g id="line2d_85">
      <path d="M 340.829261 306.952828 
L 594.465625 306.952828 
" clip-path="url(#p84f77fa5b4)" style="fill: none; stroke: #ffffff; stroke-width: 0.8; stroke-linecap: square"/>
     </g>
     <g id="line2d_86">
      <g>
       <use xlink:href="#mb9ce405a99" x="340.829261" y="306.952828" style="fill: #555555; stroke: #555555; stroke-width: 0.8"/>
      </g>
     </g>
    </g>
    <g id="ytick_21">
     <g id="line2d_87">
      <path d="M 340.829261 280.545655 
L 594.465625 280.545655 
" clip-path="url(#p84f77fa5b4)" style="fill: none; stroke: #ffffff; stroke-width: 0.8; stroke-linecap: square"/>
     </g>
     <g id="line2d_88">
      <g>
       <use xlink:href="#mb9ce405a99" x="340.829261" y="280.545655" style="fill: #555555; stroke: #555555; stroke-width: 0.8"/>
      </g>
     </g>
    </g>
    <g id="ytick_22">
     <g id="line2d_89">
      <path d="M 340.829261 254.138483 
L 594.465625 254.138483 
" clip-path="url(#p84f77fa5b4)" style="fill: none; stroke: #ffffff; stroke-width: 0.8; stroke-linecap: square"/>
     </g>
     <g id="line2d_90">
      <g>
       <use xlink:href="#mb9ce405a99" x="340.829261" y="254.138483" style="fill: #555555; stroke: #555555; stroke-width: 0.8"/>
      </g>
     </g>
    </g>
    <g id="ytick_23">
     <g id="line2d_91">
      <path d="M 340.829261 227.731311 
L 594.465625 227.731311 
" clip-path="url(#p84f77fa5b4)" style="fill: none; stroke: #ffffff; stroke-width: 0.8; stroke-linecap: square"/>
     </g>
     <g id="line2d_92">
      <g>
       <use xlink:href="#mb9ce405a99" x="340.829261" y="227.731311" style="fill: #555555; stroke: #555555; stroke-width: 0.8"/>
      </g>
     </g>
    </g>
    <g id="ytick_24">
     <g id="line2d_93">
      <path d="M 340.829261 201.324138 
L 594.465625 201.324138 
" clip-path="url(#p84f77fa5b4)" style="fill: none; stroke: #ffffff; stroke-width: 0.8; stroke-linecap: square"/>
     </g>
     <g id="line2d_94">
      <g>
       <use xlink:href="#mb9ce405a99" x="340.829261" y="201.324138" style="fill: #555555; stroke: #555555; stroke-width: 0.8"/>
      </g>
     </g>
    </g>
   </g>
   <g id="patch_90">
    <path d="M 352.358187 333.36 
L 362.839028 333.36 
L 362.839028 333.36 
L 352.358187 333.36 
z
" clip-path="url(#p84f77fa5b4)" style="fill: #348abd"/>
   </g>
   <g id="patch_91">
    <path d="M 362.839028 333.36 
L 373.31987 333.36 
L 373.31987 333.36 
L 362.839028 333.36 
z
" clip-path="url(#p84f77fa5b4)" style="fill: #348abd"/>
   </g>
   <g id="patch_92">
    <path d="M 373.31987 333.36 
L 383.800711 333.36 
L 383.800711 333.36 
L 373.31987 333.36 
z
" clip-path="url(#p84f77fa5b4)" style="fill: #348abd"/>
   </g>
   <g id="patch_93">
    <path d="M 383.800711 333.36 
L 394.281553 333.36 
L 394.281553 332.379481 
L 383.800711 332.379481 
z
" clip-path="url(#p84f77fa5b4)" style="fill: #348abd"/>
   </g>
   <g id="patch_94">
    <path d="M 394.281553 333.36 
L 404.762394 333.36 
L 404.762394 332.86974 
L 394.281553 332.86974 
z
" clip-path="url(#p84f77fa5b4)" style="fill: #348abd"/>
   </g>
   <g id="patch_95">
    <path d="M 404.762394 333.36 
L 415.243236 333.36 
L 415.243236 331.398961 
L 404.762394 331.398961 
z
" clip-path="url(#p84f77fa5b4)" style="fill: #348abd"/>
   </g>
   <g id="patch_96">
    <path d="M 415.243236 333.36 
L 425.724077 333.36 
L 425.724077 330.908701 
L 415.243236 330.908701 
z
" clip-path="url(#p84f77fa5b4)" style="fill: #348abd"/>
   </g>
   <g id="patch_97">
    <path d="M 425.724077 333.36 
L 436.204919 333.36 
L 436.204919 323.554805 
L 425.724077 323.554805 
z
" clip-path="url(#p84f77fa5b4)" style="fill: #348abd"/>
   </g>
   <g id="patch_98">
    <path d="M 436.204919 333.36 
L 446.68576 333.36 
L 446.68576 311.788571 
L 436.204919 311.788571 
z
" clip-path="url(#p84f77fa5b4)" style="fill: #348abd"/>
   </g>
   <g id="patch_99">
    <path d="M 446.68576 333.36 
L 457.166602 333.36 
L 457.166602 305.415195 
L 446.68576 305.415195 
z
" clip-path="url(#p84f77fa5b4)" style="fill: #348abd"/>
   </g>
   <g id="patch_100">
    <path d="M 457.166602 333.36 
L 467.647443 333.36 
L 467.647443 289.726883 
L 457.166602 289.726883 
z
" clip-path="url(#p84f77fa5b4)" style="fill: #348abd"/>
   </g>
   <g id="patch_101">
    <path d="M 467.647443 333.36 
L 478.128285 333.36 
L 478.128285 291.687922 
L 467.647443 291.687922 
z
" clip-path="url(#p84f77fa5b4)" style="fill: #348abd"/>
   </g>
   <g id="patch_102">
    <path d="M 478.128285 333.36 
L 488.609126 333.36 
L 488.609126 295.61 
L 478.128285 295.61 
z
" clip-path="url(#p84f77fa5b4)" style="fill: #348abd"/>
   </g>
   <g id="patch_103">
    <path d="M 488.609126 333.36 
L 499.089968 333.36 
L 499.089968 311.788571 
L 488.609126 311.788571 
z
" clip-path="url(#p84f77fa5b4)" style="fill: #348abd"/>
   </g>
   <g id="patch_104">
    <path d="M 499.089968 333.36 
L 509.570809 333.36 
L 509.570809 318.161948 
L 499.089968 318.161948 
z
" clip-path="url(#p84f77fa5b4)" style="fill: #348abd"/>
   </g>
   <g id="patch_105">
    <path d="M 509.570809 333.36 
L 520.051651 333.36 
L 520.051651 329.437922 
L 509.570809 329.437922 
z
" clip-path="url(#p84f77fa5b4)" style="fill: #348abd"/>
   </g>
   <g id="patch_106">
    <path d="M 520.051651 333.36 
L 530.532492 333.36 
L 530.532492 331.398961 
L 520.051651 331.398961 
z
" clip-path="url(#p84f77fa5b4)" style="fill: #348abd"/>
   </g>
   <g id="patch_107">
    <path d="M 530.532492 333.36 
L 541.013333 333.36 
L 541.013333 331.889221 
L 530.532492 331.889221 
z
" clip-path="url(#p84f77fa5b4)" style="fill: #348abd"/>
   </g>
   <g id="patch_108">
    <path d="M 541.013333 333.36 
L 551.494175 333.36 
L 551.494175 333.36 
L 541.013333 333.36 
z
" clip-path="url(#p84f77fa5b4)" style="fill: #348abd"/>
   </g>
   <g id="patch_109">
    <path d="M 551.494175 333.36 
L 561.975016 333.36 
L 561.975016 333.36 
L 551.494175 333.36 
z
" clip-path="url(#p84f77fa5b4)" style="fill: #348abd"/>
   </g>
   <g id="patch_110">
    <path d="M 561.975016 333.36 
L 572.455858 333.36 
L 572.455858 333.36 
L 561.975016 333.36 
z
" clip-path="url(#p84f77fa5b4)" style="fill: #348abd"/>
   </g>
   <g id="patch_111">
    <path d="M 572.455858 333.36 
L 582.936699 333.36 
L 582.936699 333.36 
L 572.455858 333.36 
z
" clip-path="url(#p84f77fa5b4)" style="fill: #348abd"/>
   </g>
   <g id="line2d_95">
    <path d="M 352.358187 333.359843 
L 362.839028 333.358625 
L 373.31987 333.350214 
L 383.800711 333.303334 
L 394.281553 333.09313 
L 404.762394 332.337773 
L 415.243236 330.175336 
L 425.724077 325.29044 
L 436.204919 316.729482 
L 446.68576 305.483938 
L 457.166602 295.356217 
L 467.647443 291.22025 
L 478.128285 295.356217 
L 488.609126 305.483938 
L 499.089968 316.729482 
L 509.570809 325.29044 
L 520.051651 330.175336 
L 530.532492 332.337773 
L 541.013333 333.09313 
L 551.494175 333.303334 
L 561.975016 333.350214 
L 572.455858 333.358625 
L 582.936699 333.359843 
" clip-path="url(#p84f77fa5b4)" style="fill: none; stroke: #e24a33; stroke-width: 1.5; stroke-linecap: square"/>
   </g>
   <g id="patch_112">
    <path d="M 340.829261 333.36 
L 340.829261 185.105455 
" style="fill: none; stroke: #ffffff; stroke-linejoin: miter; stroke-linecap: square"/>
   </g>
   <g id="patch_113">
    <path d="M 594.465625 333.36 
L 594.465625 185.105455 
" style="fill: none; stroke: #ffffff; stroke-linejoin: miter; stroke-linecap: square"/>
   </g>
   <g id="patch_114">
    <path d="M 340.829261 333.36 
L 594.465625 333.36 
" style="fill: none; stroke: #ffffff; stroke-linejoin: miter; stroke-linecap: square"/>
   </g>
   <g id="patch_115">
    <path d="M 340.829261 185.105455 
L 594.465625 185.105455 
" style="fill: none; stroke: #ffffff; stroke-linejoin: miter; stroke-linecap: square"/>
   </g>
   <g id="legend_4">
    <g id="patch_116">
     <path d="M 469.307812 222.461705 
L 587.465625 222.461705 
Q 589.465625 222.461705 589.465625 220.461705 
L 589.465625 192.105455 
Q 589.465625 190.105455 587.465625 190.105455 
L 469.307812 190.105455 
Q 467.307812 190.105455 467.307812 192.105455 
L 467.307812 220.461705 
Q 467.307812 222.461705 469.307812 222.461705 
z
" style="fill: #e5e5e5; opacity: 0.8; stroke: #cccccc; stroke-width: 0.5; stroke-linejoin: miter"/>
    </g>
    <g id="line2d_96">
     <path d="M 471.307812 198.203892 
L 481.307812 198.203892 
L 491.307812 198.203892 
" style="fill: none; stroke: #e24a33; stroke-width: 1.5; stroke-linecap: square"/>
    </g>
    <g id="text_29">
     <!-- Porter-Thomas -->
     <g transform="translate(499.307812 201.703892)scale(0.1 -0.1)">
      <use xlink:href="#DejaVuSans-50"/>
      <use xlink:href="#DejaVuSans-6f" x="56.677734"/>
      <use xlink:href="#DejaVuSans-72" x="117.859375"/>
      <use xlink:href="#DejaVuSans-74" x="158.972656"/>
      <use xlink:href="#DejaVuSans-65" x="198.181641"/>
      <use xlink:href="#DejaVuSans-72" x="259.705078"/>
      <use xlink:href="#DejaVuSans-2d" x="294.443359"/>
      <use xlink:href="#DejaVuSans-54" x="321.402344"/>
      <use xlink:href="#DejaVuSans-68" x="382.486328"/>
      <use xlink:href="#DejaVuSans-6f" x="445.865234"/>
      <use xlink:href="#DejaVuSans-6d" x="507.046875"/>
      <use xlink:href="#DejaVuSans-61" x="604.458984"/>
      <use xlink:href="#DejaVuSans-73" x="665.738281"/>
     </g>
    </g>
    <g id="patch_117">
     <path d="M 471.307812 216.382017 
L 491.307812 216.382017 
L 491.307812 209.382017 
L 471.307812 209.382017 
z
" style="fill: #348abd"/>
    </g>
    <g id="text_30">
     <!-- Shuffled: Highest -->
     <g transform="translate(499.307812 216.382017)scale(0.1 -0.1)">
      <use xlink:href="#DejaVuSans-53"/>
      <use xlink:href="#DejaVuSans-68" x="63.476562"/>
      <use xlink:href="#DejaVuSans-75" x="126.855469"/>
      <use xlink:href="#DejaVuSans-66" x="190.234375"/>
      <use xlink:href="#DejaVuSans-66" x="225.439453"/>
      <use xlink:href="#DejaVuSans-6c" x="260.644531"/>
      <use xlink:href="#DejaVuSans-65" x="288.427734"/>
      <use xlink:href="#DejaVuSans-64" x="349.951172"/>
      <use xlink:href="#DejaVuSans-3a" x="413.427734"/>
      <use xlink:href="#DejaVuSans-20" x="447.119141"/>
      <use xlink:href="#DejaVuSans-48" x="478.90625"/>
      <use xlink:href="#DejaVuSans-69" x="554.101562"/>
      <use xlink:href="#DejaVuSans-67" x="581.884766"/>
      <use xlink:href="#DejaVuSans-68" x="645.361328"/>
      <use xlink:href="#DejaVuSans-65" x="708.740234"/>
      <use xlink:href="#DejaVuSans-73" x="770.263672"/>
      <use xlink:href="#DejaVuSans-74" x="822.363281"/>
     </g>
    </g>
   </g>
  </g>
 </g>
 <defs>
  <clipPath id="pb42ed47853">
   <rect x="36.465625" y="7.2" width="253.636364" height="148.254545"/>
  </clipPath>
  <clipPath id="pb59472a618">
   <rect x="340.829261" y="7.2" width="253.636364" height="148.254545"/>
  </clipPath>
  <clipPath id="p4eaa9a6237">
   <rect x="36.465625" y="185.105455" width="253.636364" height="148.254545"/>
  </clipPath>
  <clipPath id="p84f77fa5b4">
   <rect x="340.829261" y="185.105455" width="253.636364" height="148.254545"/>
  </clipPath>
 </defs>
</svg>
