<?xml version="1.0" encoding="utf-8" standalone="no"?>
<!DOCTYPE svg PUBLIC "-//W3C//DTD SVG 1.1//EN"
  "http://www.w3.org/Graphics/SVG/1.1/DTD/svg11.dtd">
<svg xmlns:xlink="http://www.w3.org/1999/xlink" width="362.5625pt" height="264.86821pt" viewBox="0 0 362.5625 264.86821" xmlns="http://www.w3.org/2000/svg" version="1.1">
 <metadata>
  <rdf:RDF xmlns:dc="http://purl.org/dc/elements/1.1/" xmlns:cc="http://creativecommons.org/ns#" xmlns:rdf="http://www.w3.org/1999/02/22-rdf-syntax-ns#">
   <cc:Work>
    <dc:type rdf:resource="http://purl.org/dc/dcmitype/StillImage"/>
    <dc:date>2022-05-11T19:33:58.026546</dc:date>
    <dc:format>image/svg+xml</dc:format>
    <dc:creator>
     <cc:Agent>
      <dc:title>Matplotlib v3.5.1, https://matplotlib.org/</dc:title>
     </cc:Agent>
    </dc:creator>
   </cc:Work>
  </rdf:RDF>
 </metadata>
 <defs>
  <style type="text/css">*{stroke-linejoin: round; stroke-linecap: butt}</style>
 </defs>
 <g id="figure_1">
  <g id="patch_1">
   <path d="M 0 264.86821 
L 362.5625 264.86821 
L 362.5625 0 
L 0 0 
z
" style="fill: #ffffff"/>
  </g>
  <g id="axes_1">
   <g id="patch_2">
    <path d="M 20.5625 225.376335 
L 355.3625 225.376335 
L 355.3625 7.936335 
L 20.5625 7.936335 
z
" style="fill: #e5e5e5"/>
   </g>
   <g id="matplotlib.axis_1">
    <g id="xtick_1">
     <g id="line2d_1">
      <path d="M 35.780682 225.376335 
L 35.780682 7.936335 
" clip-path="url(#p474535eb06)" style="fill: none; stroke: #ffffff; stroke-width: 0.8; stroke-linecap: square"/>
     </g>
     <g id="line2d_2">
      <defs>
       <path id="m6602bae761" d="M 0 0 
L 0 3.5 
" style="stroke: #555555; stroke-width: 0.8"/>
      </defs>
      <g>
       <use xlink:href="#m6602bae761" x="35.780682" y="225.376335" style="fill: #555555; stroke: #555555; stroke-width: 0.8"/>
      </g>
     </g>
     <g id="text_1">
      <!-- 0 -->
      <g style="fill: #555555" transform="translate(32.599432 239.974773)scale(0.1 -0.1)">
       <defs>
        <path id="DejaVuSans-30" d="M 2034 4250 
Q 1547 4250 1301 3770 
Q 1056 3291 1056 2328 
Q 1056 1369 1301 889 
Q 1547 409 2034 409 
Q 2525 409 2770 889 
Q 3016 1369 3016 2328 
Q 3016 3291 2770 3770 
Q 2525 4250 2034 4250 
z
M 2034 4750 
Q 2819 4750 3233 4129 
Q 3647 3509 3647 2328 
Q 3647 1150 3233 529 
Q 2819 -91 2034 -91 
Q 1250 -91 836 529 
Q 422 1150 422 2328 
Q 422 3509 836 4129 
Q 1250 4750 2034 4750 
z
" transform="scale(0.015625)"/>
       </defs>
       <use xlink:href="#DejaVuSans-30"/>
      </g>
     </g>
    </g>
    <g id="xtick_2">
     <g id="line2d_3">
      <path d="M 84.262777 225.376335 
L 84.262777 7.936335 
" clip-path="url(#p474535eb06)" style="fill: none; stroke: #ffffff; stroke-width: 0.8; stroke-linecap: square"/>
     </g>
     <g id="line2d_4">
      <g>
       <use xlink:href="#m6602bae761" x="84.262777" y="225.376335" style="fill: #555555; stroke: #555555; stroke-width: 0.8"/>
      </g>
     </g>
     <g id="text_2">
      <!-- 1 -->
      <g style="fill: #555555" transform="translate(81.081527 239.974773)scale(0.1 -0.1)">
       <defs>
        <path id="DejaVuSans-31" d="M 794 531 
L 1825 531 
L 1825 4091 
L 703 3866 
L 703 4441 
L 1819 4666 
L 2450 4666 
L 2450 531 
L 3481 531 
L 3481 0 
L 794 0 
L 794 531 
z
" transform="scale(0.015625)"/>
       </defs>
       <use xlink:href="#DejaVuSans-31"/>
      </g>
     </g>
    </g>
    <g id="xtick_3">
     <g id="line2d_5">
      <path d="M 132.744872 225.376335 
L 132.744872 7.936335 
" clip-path="url(#p474535eb06)" style="fill: none; stroke: #ffffff; stroke-width: 0.8; stroke-linecap: square"/>
     </g>
     <g id="line2d_6">
      <g>
       <use xlink:href="#m6602bae761" x="132.744872" y="225.376335" style="fill: #555555; stroke: #555555; stroke-width: 0.8"/>
      </g>
     </g>
     <g id="text_3">
      <!-- 2 -->
      <g style="fill: #555555" transform="translate(129.563622 239.974773)scale(0.1 -0.1)">
       <defs>
        <path id="DejaVuSans-32" d="M 1228 531 
L 3431 531 
L 3431 0 
L 469 0 
L 469 531 
Q 828 903 1448 1529 
Q 2069 2156 2228 2338 
Q 2531 2678 2651 2914 
Q 2772 3150 2772 3378 
Q 2772 3750 2511 3984 
Q 2250 4219 1831 4219 
Q 1534 4219 1204 4116 
Q 875 4013 500 3803 
L 500 4441 
Q 881 4594 1212 4672 
Q 1544 4750 1819 4750 
Q 2544 4750 2975 4387 
Q 3406 4025 3406 3419 
Q 3406 3131 3298 2873 
Q 3191 2616 2906 2266 
Q 2828 2175 2409 1742 
Q 1991 1309 1228 531 
z
" transform="scale(0.015625)"/>
       </defs>
       <use xlink:href="#DejaVuSans-32"/>
      </g>
     </g>
    </g>
    <g id="xtick_4">
     <g id="line2d_7">
      <path d="M 181.226967 225.376335 
L 181.226967 7.936335 
" clip-path="url(#p474535eb06)" style="fill: none; stroke: #ffffff; stroke-width: 0.8; stroke-linecap: square"/>
     </g>
     <g id="line2d_8">
      <g>
       <use xlink:href="#m6602bae761" x="181.226967" y="225.376335" style="fill: #555555; stroke: #555555; stroke-width: 0.8"/>
      </g>
     </g>
     <g id="text_4">
      <!-- 3 -->
      <g style="fill: #555555" transform="translate(178.045717 239.974773)scale(0.1 -0.1)">
       <defs>
        <path id="DejaVuSans-33" d="M 2597 2516 
Q 3050 2419 3304 2112 
Q 3559 1806 3559 1356 
Q 3559 666 3084 287 
Q 2609 -91 1734 -91 
Q 1441 -91 1130 -33 
Q 819 25 488 141 
L 488 750 
Q 750 597 1062 519 
Q 1375 441 1716 441 
Q 2309 441 2620 675 
Q 2931 909 2931 1356 
Q 2931 1769 2642 2001 
Q 2353 2234 1838 2234 
L 1294 2234 
L 1294 2753 
L 1863 2753 
Q 2328 2753 2575 2939 
Q 2822 3125 2822 3475 
Q 2822 3834 2567 4026 
Q 2313 4219 1838 4219 
Q 1578 4219 1281 4162 
Q 984 4106 628 3988 
L 628 4550 
Q 988 4650 1302 4700 
Q 1616 4750 1894 4750 
Q 2613 4750 3031 4423 
Q 3450 4097 3450 3541 
Q 3450 3153 3228 2886 
Q 3006 2619 2597 2516 
z
" transform="scale(0.015625)"/>
       </defs>
       <use xlink:href="#DejaVuSans-33"/>
      </g>
     </g>
    </g>
    <g id="xtick_5">
     <g id="line2d_9">
      <path d="M 229.709062 225.376335 
L 229.709062 7.936335 
" clip-path="url(#p474535eb06)" style="fill: none; stroke: #ffffff; stroke-width: 0.8; stroke-linecap: square"/>
     </g>
     <g id="line2d_10">
      <g>
       <use xlink:href="#m6602bae761" x="229.709062" y="225.376335" style="fill: #555555; stroke: #555555; stroke-width: 0.8"/>
      </g>
     </g>
     <g id="text_5">
      <!-- 4 -->
      <g style="fill: #555555" transform="translate(226.527812 239.974773)scale(0.1 -0.1)">
       <defs>
        <path id="DejaVuSans-34" d="M 2419 4116 
L 825 1625 
L 2419 1625 
L 2419 4116 
z
M 2253 4666 
L 3047 4666 
L 3047 1625 
L 3713 1625 
L 3713 1100 
L 3047 1100 
L 3047 0 
L 2419 0 
L 2419 1100 
L 313 1100 
L 313 1709 
L 2253 4666 
z
" transform="scale(0.015625)"/>
       </defs>
       <use xlink:href="#DejaVuSans-34"/>
      </g>
     </g>
    </g>
    <g id="xtick_6">
     <g id="line2d_11">
      <path d="M 278.191158 225.376335 
L 278.191158 7.936335 
" clip-path="url(#p474535eb06)" style="fill: none; stroke: #ffffff; stroke-width: 0.8; stroke-linecap: square"/>
     </g>
     <g id="line2d_12">
      <g>
       <use xlink:href="#m6602bae761" x="278.191158" y="225.376335" style="fill: #555555; stroke: #555555; stroke-width: 0.8"/>
      </g>
     </g>
     <g id="text_6">
      <!-- 5 -->
      <g style="fill: #555555" transform="translate(275.009908 239.974773)scale(0.1 -0.1)">
       <defs>
        <path id="DejaVuSans-35" d="M 691 4666 
L 3169 4666 
L 3169 4134 
L 1269 4134 
L 1269 2991 
Q 1406 3038 1543 3061 
Q 1681 3084 1819 3084 
Q 2600 3084 3056 2656 
Q 3513 2228 3513 1497 
Q 3513 744 3044 326 
Q 2575 -91 1722 -91 
Q 1428 -91 1123 -41 
Q 819 9 494 109 
L 494 744 
Q 775 591 1075 516 
Q 1375 441 1709 441 
Q 2250 441 2565 725 
Q 2881 1009 2881 1497 
Q 2881 1984 2565 2268 
Q 2250 2553 1709 2553 
Q 1456 2553 1204 2497 
Q 953 2441 691 2322 
L 691 4666 
z
" transform="scale(0.015625)"/>
       </defs>
       <use xlink:href="#DejaVuSans-35"/>
      </g>
     </g>
    </g>
    <g id="xtick_7">
     <g id="line2d_13">
      <path d="M 326.673253 225.376335 
L 326.673253 7.936335 
" clip-path="url(#p474535eb06)" style="fill: none; stroke: #ffffff; stroke-width: 0.8; stroke-linecap: square"/>
     </g>
     <g id="line2d_14">
      <g>
       <use xlink:href="#m6602bae761" x="326.673253" y="225.376335" style="fill: #555555; stroke: #555555; stroke-width: 0.8"/>
      </g>
     </g>
     <g id="text_7">
      <!-- 6 -->
      <g style="fill: #555555" transform="translate(323.492003 239.974773)scale(0.1 -0.1)">
       <defs>
        <path id="DejaVuSans-36" d="M 2113 2584 
Q 1688 2584 1439 2293 
Q 1191 2003 1191 1497 
Q 1191 994 1439 701 
Q 1688 409 2113 409 
Q 2538 409 2786 701 
Q 3034 994 3034 1497 
Q 3034 2003 2786 2293 
Q 2538 2584 2113 2584 
z
M 3366 4563 
L 3366 3988 
Q 3128 4100 2886 4159 
Q 2644 4219 2406 4219 
Q 1781 4219 1451 3797 
Q 1122 3375 1075 2522 
Q 1259 2794 1537 2939 
Q 1816 3084 2150 3084 
Q 2853 3084 3261 2657 
Q 3669 2231 3669 1497 
Q 3669 778 3244 343 
Q 2819 -91 2113 -91 
Q 1303 -91 875 529 
Q 447 1150 447 2328 
Q 447 3434 972 4092 
Q 1497 4750 2381 4750 
Q 2619 4750 2861 4703 
Q 3103 4656 3366 4563 
z
" transform="scale(0.015625)"/>
       </defs>
       <use xlink:href="#DejaVuSans-36"/>
      </g>
     </g>
    </g>
    <g id="text_8">
     <!-- Eigenvalue -->
     <g style="fill: #555555" transform="translate(154.811563 255.172585)scale(0.12 -0.12)">
      <defs>
       <path id="DejaVuSans-45" d="M 628 4666 
L 3578 4666 
L 3578 4134 
L 1259 4134 
L 1259 2753 
L 3481 2753 
L 3481 2222 
L 1259 2222 
L 1259 531 
L 3634 531 
L 3634 0 
L 628 0 
L 628 4666 
z
" transform="scale(0.015625)"/>
       <path id="DejaVuSans-69" d="M 603 3500 
L 1178 3500 
L 1178 0 
L 603 0 
L 603 3500 
z
M 603 4863 
L 1178 4863 
L 1178 4134 
L 603 4134 
L 603 4863 
z
" transform="scale(0.015625)"/>
       <path id="DejaVuSans-67" d="M 2906 1791 
Q 2906 2416 2648 2759 
Q 2391 3103 1925 3103 
Q 1463 3103 1205 2759 
Q 947 2416 947 1791 
Q 947 1169 1205 825 
Q 1463 481 1925 481 
Q 2391 481 2648 825 
Q 2906 1169 2906 1791 
z
M 3481 434 
Q 3481 -459 3084 -895 
Q 2688 -1331 1869 -1331 
Q 1566 -1331 1297 -1286 
Q 1028 -1241 775 -1147 
L 775 -588 
Q 1028 -725 1275 -790 
Q 1522 -856 1778 -856 
Q 2344 -856 2625 -561 
Q 2906 -266 2906 331 
L 2906 616 
Q 2728 306 2450 153 
Q 2172 0 1784 0 
Q 1141 0 747 490 
Q 353 981 353 1791 
Q 353 2603 747 3093 
Q 1141 3584 1784 3584 
Q 2172 3584 2450 3431 
Q 2728 3278 2906 2969 
L 2906 3500 
L 3481 3500 
L 3481 434 
z
" transform="scale(0.015625)"/>
       <path id="DejaVuSans-65" d="M 3597 1894 
L 3597 1613 
L 953 1613 
Q 991 1019 1311 708 
Q 1631 397 2203 397 
Q 2534 397 2845 478 
Q 3156 559 3463 722 
L 3463 178 
Q 3153 47 2828 -22 
Q 2503 -91 2169 -91 
Q 1331 -91 842 396 
Q 353 884 353 1716 
Q 353 2575 817 3079 
Q 1281 3584 2069 3584 
Q 2775 3584 3186 3129 
Q 3597 2675 3597 1894 
z
M 3022 2063 
Q 3016 2534 2758 2815 
Q 2500 3097 2075 3097 
Q 1594 3097 1305 2825 
Q 1016 2553 972 2059 
L 3022 2063 
z
" transform="scale(0.015625)"/>
       <path id="DejaVuSans-6e" d="M 3513 2113 
L 3513 0 
L 2938 0 
L 2938 2094 
Q 2938 2591 2744 2837 
Q 2550 3084 2163 3084 
Q 1697 3084 1428 2787 
Q 1159 2491 1159 1978 
L 1159 0 
L 581 0 
L 581 3500 
L 1159 3500 
L 1159 2956 
Q 1366 3272 1645 3428 
Q 1925 3584 2291 3584 
Q 2894 3584 3203 3211 
Q 3513 2838 3513 2113 
z
" transform="scale(0.015625)"/>
       <path id="DejaVuSans-76" d="M 191 3500 
L 800 3500 
L 1894 563 
L 2988 3500 
L 3597 3500 
L 2284 0 
L 1503 0 
L 191 3500 
z
" transform="scale(0.015625)"/>
       <path id="DejaVuSans-61" d="M 2194 1759 
Q 1497 1759 1228 1600 
Q 959 1441 959 1056 
Q 959 750 1161 570 
Q 1363 391 1709 391 
Q 2188 391 2477 730 
Q 2766 1069 2766 1631 
L 2766 1759 
L 2194 1759 
z
M 3341 1997 
L 3341 0 
L 2766 0 
L 2766 531 
Q 2569 213 2275 61 
Q 1981 -91 1556 -91 
Q 1019 -91 701 211 
Q 384 513 384 1019 
Q 384 1609 779 1909 
Q 1175 2209 1959 2209 
L 2766 2209 
L 2766 2266 
Q 2766 2663 2505 2880 
Q 2244 3097 1772 3097 
Q 1472 3097 1187 3025 
Q 903 2953 641 2809 
L 641 3341 
Q 956 3463 1253 3523 
Q 1550 3584 1831 3584 
Q 2591 3584 2966 3190 
Q 3341 2797 3341 1997 
z
" transform="scale(0.015625)"/>
       <path id="DejaVuSans-6c" d="M 603 4863 
L 1178 4863 
L 1178 0 
L 603 0 
L 603 4863 
z
" transform="scale(0.015625)"/>
       <path id="DejaVuSans-75" d="M 544 1381 
L 544 3500 
L 1119 3500 
L 1119 1403 
Q 1119 906 1312 657 
Q 1506 409 1894 409 
Q 2359 409 2629 706 
Q 2900 1003 2900 1516 
L 2900 3500 
L 3475 3500 
L 3475 0 
L 2900 0 
L 2900 538 
Q 2691 219 2414 64 
Q 2138 -91 1772 -91 
Q 1169 -91 856 284 
Q 544 659 544 1381 
z
M 1991 3584 
L 1991 3584 
z
" transform="scale(0.015625)"/>
      </defs>
      <use xlink:href="#DejaVuSans-45"/>
      <use xlink:href="#DejaVuSans-69" x="63.183594"/>
      <use xlink:href="#DejaVuSans-67" x="90.966797"/>
      <use xlink:href="#DejaVuSans-65" x="154.443359"/>
      <use xlink:href="#DejaVuSans-6e" x="215.966797"/>
      <use xlink:href="#DejaVuSans-76" x="279.345703"/>
      <use xlink:href="#DejaVuSans-61" x="338.525391"/>
      <use xlink:href="#DejaVuSans-6c" x="399.804688"/>
      <use xlink:href="#DejaVuSans-75" x="427.587891"/>
      <use xlink:href="#DejaVuSans-65" x="490.966797"/>
     </g>
    </g>
   </g>
   <g id="matplotlib.axis_2">
    <g id="ytick_1">
     <g id="line2d_15">
      <path d="M 20.5625 225.376335 
L 355.3625 225.376335 
" clip-path="url(#p474535eb06)" style="fill: none; stroke: #ffffff; stroke-width: 0.8; stroke-linecap: square"/>
     </g>
     <g id="line2d_16">
      <defs>
       <path id="m5d0fc12263" d="M 0 0 
L -3.5 0 
" style="stroke: #555555; stroke-width: 0.8"/>
      </defs>
      <g>
       <use xlink:href="#m5d0fc12263" x="20.5625" y="225.376335" style="fill: #555555; stroke: #555555; stroke-width: 0.8"/>
      </g>
     </g>
     <g id="text_9">
      <!-- 0 -->
      <g style="fill: #555555" transform="translate(7.2 229.175554)scale(0.1 -0.1)">
       <use xlink:href="#DejaVuSans-30"/>
      </g>
     </g>
    </g>
    <g id="ytick_2">
     <g id="line2d_17">
      <path d="M 20.5625 182.500912 
L 355.3625 182.500912 
" clip-path="url(#p474535eb06)" style="fill: none; stroke: #ffffff; stroke-width: 0.8; stroke-linecap: square"/>
     </g>
     <g id="line2d_18">
      <g>
       <use xlink:href="#m5d0fc12263" x="20.5625" y="182.500912" style="fill: #555555; stroke: #555555; stroke-width: 0.8"/>
      </g>
     </g>
     <g id="text_10">
      <!-- 1 -->
      <g style="fill: #555555" transform="translate(7.2 186.300131)scale(0.1 -0.1)">
       <use xlink:href="#DejaVuSans-31"/>
      </g>
     </g>
    </g>
    <g id="ytick_3">
     <g id="line2d_19">
      <path d="M 20.5625 139.625489 
L 355.3625 139.625489 
" clip-path="url(#p474535eb06)" style="fill: none; stroke: #ffffff; stroke-width: 0.8; stroke-linecap: square"/>
     </g>
     <g id="line2d_20">
      <g>
       <use xlink:href="#m5d0fc12263" x="20.5625" y="139.625489" style="fill: #555555; stroke: #555555; stroke-width: 0.8"/>
      </g>
     </g>
     <g id="text_11">
      <!-- 2 -->
      <g style="fill: #555555" transform="translate(7.2 143.424707)scale(0.1 -0.1)">
       <use xlink:href="#DejaVuSans-32"/>
      </g>
     </g>
    </g>
    <g id="ytick_4">
     <g id="line2d_21">
      <path d="M 20.5625 96.750065 
L 355.3625 96.750065 
" clip-path="url(#p474535eb06)" style="fill: none; stroke: #ffffff; stroke-width: 0.8; stroke-linecap: square"/>
     </g>
     <g id="line2d_22">
      <g>
       <use xlink:href="#m5d0fc12263" x="20.5625" y="96.750065" style="fill: #555555; stroke: #555555; stroke-width: 0.8"/>
      </g>
     </g>
     <g id="text_12">
      <!-- 3 -->
      <g style="fill: #555555" transform="translate(7.2 100.549284)scale(0.1 -0.1)">
       <use xlink:href="#DejaVuSans-33"/>
      </g>
     </g>
    </g>
    <g id="ytick_5">
     <g id="line2d_23">
      <path d="M 20.5625 53.874642 
L 355.3625 53.874642 
" clip-path="url(#p474535eb06)" style="fill: none; stroke: #ffffff; stroke-width: 0.8; stroke-linecap: square"/>
     </g>
     <g id="line2d_24">
      <g>
       <use xlink:href="#m5d0fc12263" x="20.5625" y="53.874642" style="fill: #555555; stroke: #555555; stroke-width: 0.8"/>
      </g>
     </g>
     <g id="text_13">
      <!-- 4 -->
      <g style="fill: #555555" transform="translate(7.2 57.673861)scale(0.1 -0.1)">
       <use xlink:href="#DejaVuSans-34"/>
      </g>
     </g>
    </g>
    <g id="ytick_6">
     <g id="line2d_25">
      <path d="M 20.5625 10.999219 
L 355.3625 10.999219 
" clip-path="url(#p474535eb06)" style="fill: none; stroke: #ffffff; stroke-width: 0.8; stroke-linecap: square"/>
     </g>
     <g id="line2d_26">
      <g>
       <use xlink:href="#m5d0fc12263" x="20.5625" y="10.999219" style="fill: #555555; stroke: #555555; stroke-width: 0.8"/>
      </g>
     </g>
     <g id="text_14">
      <!-- 5 -->
      <g style="fill: #555555" transform="translate(7.2 14.798437)scale(0.1 -0.1)">
       <use xlink:href="#DejaVuSans-35"/>
      </g>
     </g>
    </g>
   </g>
   <g id="patch_3">
    <path d="M 35.985468 225.376335 
L 41.515629 225.376335 
L 41.515629 148.436647 
L 35.985468 148.436647 
z
" clip-path="url(#p474535eb06)" style="fill: #348abd; opacity: 0.8"/>
   </g>
   <g id="patch_4">
    <path d="M 41.515629 225.376335 
L 47.04579 225.376335 
L 47.04579 156.451198 
L 41.515629 156.451198 
z
" clip-path="url(#p474535eb06)" style="fill: #348abd; opacity: 0.8"/>
   </g>
   <g id="patch_5">
    <path d="M 47.04579 225.376335 
L 52.575951 225.376335 
L 52.575951 178.89194 
L 47.04579 178.89194 
z
" clip-path="url(#p474535eb06)" style="fill: #348abd; opacity: 0.8"/>
   </g>
   <g id="patch_6">
    <path d="M 52.575951 225.376335 
L 58.106112 225.376335 
L 58.106112 190.913766 
L 52.575951 190.913766 
z
" clip-path="url(#p474535eb06)" style="fill: #348abd; opacity: 0.8"/>
   </g>
   <g id="patch_7">
    <path d="M 58.106112 225.376335 
L 63.636273 225.376335 
L 63.636273 196.523952 
L 58.106112 196.523952 
z
" clip-path="url(#p474535eb06)" style="fill: #348abd; opacity: 0.8"/>
   </g>
   <g id="patch_8">
    <path d="M 63.636273 225.376335 
L 69.166434 225.376335 
L 69.166434 204.538503 
L 63.636273 204.538503 
z
" clip-path="url(#p474535eb06)" style="fill: #348abd; opacity: 0.8"/>
   </g>
   <g id="patch_9">
    <path d="M 69.166434 225.376335 
L 74.696595 225.376335 
L 74.696595 206.942868 
L 69.166434 206.942868 
z
" clip-path="url(#p474535eb06)" style="fill: #348abd; opacity: 0.8"/>
   </g>
   <g id="patch_10">
    <path d="M 74.696595 225.376335 
L 80.226756 225.376335 
L 80.226756 210.148688 
L 74.696595 210.148688 
z
" clip-path="url(#p474535eb06)" style="fill: #348abd; opacity: 0.8"/>
   </g>
   <g id="patch_11">
    <path d="M 80.226756 225.376335 
L 85.756916 225.376335 
L 85.756916 214.155964 
L 80.226756 214.155964 
z
" clip-path="url(#p474535eb06)" style="fill: #348abd; opacity: 0.8"/>
   </g>
   <g id="patch_12">
    <path d="M 85.756916 225.376335 
L 91.287077 225.376335 
L 91.287077 216.560329 
L 85.756916 216.560329 
z
" clip-path="url(#p474535eb06)" style="fill: #348abd; opacity: 0.8"/>
   </g>
   <g id="patch_13">
    <path d="M 91.287077 225.376335 
L 96.817238 225.376335 
L 96.817238 217.361784 
L 91.287077 217.361784 
z
" clip-path="url(#p474535eb06)" style="fill: #348abd; opacity: 0.8"/>
   </g>
   <g id="patch_14">
    <path d="M 96.817238 225.376335 
L 102.347399 225.376335 
L 102.347399 219.76615 
L 96.817238 219.76615 
z
" clip-path="url(#p474535eb06)" style="fill: #348abd; opacity: 0.8"/>
   </g>
   <g id="patch_15">
    <path d="M 102.347399 225.376335 
L 107.87756 225.376335 
L 107.87756 218.964694 
L 102.347399 218.964694 
z
" clip-path="url(#p474535eb06)" style="fill: #348abd; opacity: 0.8"/>
   </g>
   <g id="patch_16">
    <path d="M 107.87756 225.376335 
L 113.407721 225.376335 
L 113.407721 222.170515 
L 107.87756 222.170515 
z
" clip-path="url(#p474535eb06)" style="fill: #348abd; opacity: 0.8"/>
   </g>
   <g id="patch_17">
    <path d="M 113.407721 225.376335 
L 118.937882 225.376335 
L 118.937882 222.170515 
L 113.407721 222.170515 
z
" clip-path="url(#p474535eb06)" style="fill: #348abd; opacity: 0.8"/>
   </g>
   <g id="patch_18">
    <path d="M 118.937882 225.376335 
L 124.468043 225.376335 
L 124.468043 222.97197 
L 118.937882 222.97197 
z
" clip-path="url(#p474535eb06)" style="fill: #348abd; opacity: 0.8"/>
   </g>
   <g id="patch_19">
    <path d="M 124.468043 225.376335 
L 129.998204 225.376335 
L 129.998204 222.170515 
L 124.468043 222.170515 
z
" clip-path="url(#p474535eb06)" style="fill: #348abd; opacity: 0.8"/>
   </g>
   <g id="patch_20">
    <path d="M 129.998204 225.376335 
L 135.528365 225.376335 
L 135.528365 224.57488 
L 129.998204 224.57488 
z
" clip-path="url(#p474535eb06)" style="fill: #348abd; opacity: 0.8"/>
   </g>
   <g id="patch_21">
    <path d="M 135.528365 225.376335 
L 141.058526 225.376335 
L 141.058526 223.773425 
L 135.528365 223.773425 
z
" clip-path="url(#p474535eb06)" style="fill: #348abd; opacity: 0.8"/>
   </g>
   <g id="patch_22">
    <path d="M 141.058526 225.376335 
L 146.588686 225.376335 
L 146.588686 224.57488 
L 141.058526 224.57488 
z
" clip-path="url(#p474535eb06)" style="fill: #348abd; opacity: 0.8"/>
   </g>
   <g id="patch_23">
    <path d="M 146.588686 225.376335 
L 152.118847 225.376335 
L 152.118847 223.773425 
L 146.588686 223.773425 
z
" clip-path="url(#p474535eb06)" style="fill: #348abd; opacity: 0.8"/>
   </g>
   <g id="patch_24">
    <path d="M 152.118847 225.376335 
L 157.649008 225.376335 
L 157.649008 225.376335 
L 152.118847 225.376335 
z
" clip-path="url(#p474535eb06)" style="fill: #348abd; opacity: 0.8"/>
   </g>
   <g id="patch_25">
    <path d="M 157.649008 225.376335 
L 163.179169 225.376335 
L 163.179169 224.57488 
L 157.649008 224.57488 
z
" clip-path="url(#p474535eb06)" style="fill: #348abd; opacity: 0.8"/>
   </g>
   <g id="patch_26">
    <path d="M 163.179169 225.376335 
L 168.70933 225.376335 
L 168.70933 223.773425 
L 163.179169 223.773425 
z
" clip-path="url(#p474535eb06)" style="fill: #348abd; opacity: 0.8"/>
   </g>
   <g id="patch_27">
    <path d="M 168.70933 225.376335 
L 174.239491 225.376335 
L 174.239491 225.376335 
L 168.70933 225.376335 
z
" clip-path="url(#p474535eb06)" style="fill: #348abd; opacity: 0.8"/>
   </g>
   <g id="patch_28">
    <path d="M 174.239491 225.376335 
L 179.769652 225.376335 
L 179.769652 224.57488 
L 174.239491 224.57488 
z
" clip-path="url(#p474535eb06)" style="fill: #348abd; opacity: 0.8"/>
   </g>
   <g id="patch_29">
    <path d="M 179.769652 225.376335 
L 185.299813 225.376335 
L 185.299813 224.57488 
L 179.769652 224.57488 
z
" clip-path="url(#p474535eb06)" style="fill: #348abd; opacity: 0.8"/>
   </g>
   <g id="patch_30">
    <path d="M 185.299813 225.376335 
L 190.829974 225.376335 
L 190.829974 225.376335 
L 185.299813 225.376335 
z
" clip-path="url(#p474535eb06)" style="fill: #348abd; opacity: 0.8"/>
   </g>
   <g id="patch_31">
    <path d="M 190.829974 225.376335 
L 196.360135 225.376335 
L 196.360135 225.376335 
L 190.829974 225.376335 
z
" clip-path="url(#p474535eb06)" style="fill: #348abd; opacity: 0.8"/>
   </g>
   <g id="patch_32">
    <path d="M 196.360135 225.376335 
L 201.890296 225.376335 
L 201.890296 225.376335 
L 196.360135 225.376335 
z
" clip-path="url(#p474535eb06)" style="fill: #348abd; opacity: 0.8"/>
   </g>
   <g id="patch_33">
    <path d="M 201.890296 225.376335 
L 207.420456 225.376335 
L 207.420456 224.57488 
L 201.890296 224.57488 
z
" clip-path="url(#p474535eb06)" style="fill: #348abd; opacity: 0.8"/>
   </g>
   <g id="patch_34">
    <path d="M 207.420456 225.376335 
L 212.950617 225.376335 
L 212.950617 225.376335 
L 207.420456 225.376335 
z
" clip-path="url(#p474535eb06)" style="fill: #348abd; opacity: 0.8"/>
   </g>
   <g id="patch_35">
    <path d="M 212.950617 225.376335 
L 218.480778 225.376335 
L 218.480778 225.376335 
L 212.950617 225.376335 
z
" clip-path="url(#p474535eb06)" style="fill: #348abd; opacity: 0.8"/>
   </g>
   <g id="patch_36">
    <path d="M 218.480778 225.376335 
L 224.010939 225.376335 
L 224.010939 225.376335 
L 218.480778 225.376335 
z
" clip-path="url(#p474535eb06)" style="fill: #348abd; opacity: 0.8"/>
   </g>
   <g id="patch_37">
    <path d="M 224.010939 225.376335 
L 229.5411 225.376335 
L 229.5411 225.376335 
L 224.010939 225.376335 
z
" clip-path="url(#p474535eb06)" style="fill: #348abd; opacity: 0.8"/>
   </g>
   <g id="patch_38">
    <path d="M 229.5411 225.376335 
L 235.071261 225.376335 
L 235.071261 225.376335 
L 229.5411 225.376335 
z
" clip-path="url(#p474535eb06)" style="fill: #348abd; opacity: 0.8"/>
   </g>
   <g id="patch_39">
    <path d="M 235.071261 225.376335 
L 240.601422 225.376335 
L 240.601422 225.376335 
L 235.071261 225.376335 
z
" clip-path="url(#p474535eb06)" style="fill: #348abd; opacity: 0.8"/>
   </g>
   <g id="patch_40">
    <path d="M 240.601422 225.376335 
L 246.131583 225.376335 
L 246.131583 224.57488 
L 240.601422 224.57488 
z
" clip-path="url(#p474535eb06)" style="fill: #348abd; opacity: 0.8"/>
   </g>
   <g id="patch_41">
    <path d="M 246.131583 225.376335 
L 251.661744 225.376335 
L 251.661744 225.376335 
L 246.131583 225.376335 
z
" clip-path="url(#p474535eb06)" style="fill: #348abd; opacity: 0.8"/>
   </g>
   <g id="patch_42">
    <path d="M 251.661744 225.376335 
L 257.191905 225.376335 
L 257.191905 224.57488 
L 251.661744 224.57488 
z
" clip-path="url(#p474535eb06)" style="fill: #348abd; opacity: 0.8"/>
   </g>
   <g id="patch_43">
    <path d="M 257.191905 225.376335 
L 262.722065 225.376335 
L 262.722065 225.376335 
L 257.191905 225.376335 
z
" clip-path="url(#p474535eb06)" style="fill: #348abd; opacity: 0.8"/>
   </g>
   <g id="patch_44">
    <path d="M 262.722065 225.376335 
L 268.252226 225.376335 
L 268.252226 225.376335 
L 262.722065 225.376335 
z
" clip-path="url(#p474535eb06)" style="fill: #348abd; opacity: 0.8"/>
   </g>
   <g id="patch_45">
    <path d="M 268.252226 225.376335 
L 273.782387 225.376335 
L 273.782387 224.57488 
L 268.252226 224.57488 
z
" clip-path="url(#p474535eb06)" style="fill: #348abd; opacity: 0.8"/>
   </g>
   <g id="patch_46">
    <path d="M 273.782387 225.376335 
L 279.312548 225.376335 
L 279.312548 225.376335 
L 273.782387 225.376335 
z
" clip-path="url(#p474535eb06)" style="fill: #348abd; opacity: 0.8"/>
   </g>
   <g id="patch_47">
    <path d="M 279.312548 225.376335 
L 284.842709 225.376335 
L 284.842709 225.376335 
L 279.312548 225.376335 
z
" clip-path="url(#p474535eb06)" style="fill: #348abd; opacity: 0.8"/>
   </g>
   <g id="patch_48">
    <path d="M 284.842709 225.376335 
L 290.37287 225.376335 
L 290.37287 225.376335 
L 284.842709 225.376335 
z
" clip-path="url(#p474535eb06)" style="fill: #348abd; opacity: 0.8"/>
   </g>
   <g id="patch_49">
    <path d="M 290.37287 225.376335 
L 295.903031 225.376335 
L 295.903031 225.376335 
L 290.37287 225.376335 
z
" clip-path="url(#p474535eb06)" style="fill: #348abd; opacity: 0.8"/>
   </g>
   <g id="patch_50">
    <path d="M 295.903031 225.376335 
L 301.433192 225.376335 
L 301.433192 225.376335 
L 295.903031 225.376335 
z
" clip-path="url(#p474535eb06)" style="fill: #348abd; opacity: 0.8"/>
   </g>
   <g id="patch_51">
    <path d="M 301.433192 225.376335 
L 306.963353 225.376335 
L 306.963353 225.376335 
L 301.433192 225.376335 
z
" clip-path="url(#p474535eb06)" style="fill: #348abd; opacity: 0.8"/>
   </g>
   <g id="patch_52">
    <path d="M 306.963353 225.376335 
L 312.493514 225.376335 
L 312.493514 225.376335 
L 306.963353 225.376335 
z
" clip-path="url(#p474535eb06)" style="fill: #348abd; opacity: 0.8"/>
   </g>
   <g id="patch_53">
    <path d="M 312.493514 225.376335 
L 318.023675 225.376335 
L 318.023675 225.376335 
L 312.493514 225.376335 
z
" clip-path="url(#p474535eb06)" style="fill: #348abd; opacity: 0.8"/>
   </g>
   <g id="patch_54">
    <path d="M 318.023675 225.376335 
L 323.553835 225.376335 
L 323.553835 225.376335 
L 318.023675 225.376335 
z
" clip-path="url(#p474535eb06)" style="fill: #348abd; opacity: 0.8"/>
   </g>
   <g id="patch_55">
    <path d="M 323.553835 225.376335 
L 329.083996 225.376335 
L 329.083996 225.376335 
L 323.553835 225.376335 
z
" clip-path="url(#p474535eb06)" style="fill: #348abd; opacity: 0.8"/>
   </g>
   <g id="patch_56">
    <path d="M 329.083996 225.376335 
L 334.614157 225.376335 
L 334.614157 225.376335 
L 329.083996 225.376335 
z
" clip-path="url(#p474535eb06)" style="fill: #348abd; opacity: 0.8"/>
   </g>
   <g id="patch_57">
    <path d="M 334.614157 225.376335 
L 340.144318 225.376335 
L 340.144318 223.773425 
L 334.614157 223.773425 
z
" clip-path="url(#p474535eb06)" style="fill: #348abd; opacity: 0.8"/>
   </g>
   <g id="line2d_27">
    <path d="M 35.780682 225.376335 
L 36.017642 25.9683 
L 36.254603 18.290621 
L 36.728523 60.99986 
L 37.202444 86.993512 
L 37.913325 110.545296 
L 38.624206 125.430246 
L 39.335088 135.921252 
L 40.282929 146.073779 
L 41.230771 153.600368 
L 42.178612 159.480442 
L 43.363414 165.306473 
L 44.548216 169.978452 
L 45.733018 173.843033 
L 47.15478 177.7138 
L 48.576543 180.9698 
L 50.235265 184.195533 
L 51.893988 186.957343 
L 53.789671 189.684652 
L 55.922315 192.336889 
L 58.291919 194.892479 
L 60.898483 197.34362 
L 63.742007 199.692152 
L 66.822493 201.946663 
L 70.376898 204.267788 
L 74.405225 206.633072 
L 79.381393 209.288284 
L 86.490205 212.803038 
L 94.783818 216.941065 
L 98.101264 218.830984 
L 100.233907 220.260086 
L 101.89263 221.640651 
L 102.840471 222.68508 
L 103.551352 223.849439 
L 104.025273 225.376335 
L 278.191158 225.376335 
L 278.191158 225.376335 
" clip-path="url(#p474535eb06)" style="fill: none; stroke: #e24a33; stroke-width: 1.5; stroke-linecap: square"/>
   </g>
   <g id="patch_58">
    <path d="M 20.5625 225.376335 
L 20.5625 7.936335 
" style="fill: none; stroke: #ffffff; stroke-linejoin: miter; stroke-linecap: square"/>
   </g>
   <g id="patch_59">
    <path d="M 355.3625 225.376335 
L 355.3625 7.936335 
" style="fill: none; stroke: #ffffff; stroke-linejoin: miter; stroke-linecap: square"/>
   </g>
   <g id="patch_60">
    <path d="M 20.5625 225.376335 
L 355.3625 225.376335 
" style="fill: none; stroke: #ffffff; stroke-linejoin: miter; stroke-linecap: square"/>
   </g>
   <g id="patch_61">
    <path d="M 20.5625 7.936335 
L 355.3625 7.936335 
" style="fill: none; stroke: #ffffff; stroke-linejoin: miter; stroke-linecap: square"/>
   </g>
   <g id="legend_1">
    <g id="patch_62">
     <path d="M 222.2875 45.292585 
L 348.3625 45.292585 
Q 350.3625 45.292585 350.3625 43.292585 
L 350.3625 14.936335 
Q 350.3625 12.936335 348.3625 12.936335 
L 222.2875 12.936335 
Q 220.2875 12.936335 220.2875 14.936335 
L 220.2875 43.292585 
Q 220.2875 45.292585 222.2875 45.292585 
z
" style="fill: #e5e5e5; opacity: 0.8; stroke: #cccccc; stroke-width: 0.5; stroke-linejoin: miter"/>
    </g>
    <g id="line2d_28">
     <path d="M 224.2875 21.034773 
L 234.2875 21.034773 
L 244.2875 21.034773 
" style="fill: none; stroke: #e24a33; stroke-width: 1.5; stroke-linecap: square"/>
    </g>
    <g id="text_15">
     <!-- Best fit -->
     <g transform="translate(252.2875 24.534773)scale(0.1 -0.1)">
      <defs>
       <path id="DejaVuSans-42" d="M 1259 2228 
L 1259 519 
L 2272 519 
Q 2781 519 3026 730 
Q 3272 941 3272 1375 
Q 3272 1813 3026 2020 
Q 2781 2228 2272 2228 
L 1259 2228 
z
M 1259 4147 
L 1259 2741 
L 2194 2741 
Q 2656 2741 2882 2914 
Q 3109 3088 3109 3444 
Q 3109 3797 2882 3972 
Q 2656 4147 2194 4147 
L 1259 4147 
z
M 628 4666 
L 2241 4666 
Q 2963 4666 3353 4366 
Q 3744 4066 3744 3513 
Q 3744 3084 3544 2831 
Q 3344 2578 2956 2516 
Q 3422 2416 3680 2098 
Q 3938 1781 3938 1306 
Q 3938 681 3513 340 
Q 3088 0 2303 0 
L 628 0 
L 628 4666 
z
" transform="scale(0.015625)"/>
       <path id="DejaVuSans-73" d="M 2834 3397 
L 2834 2853 
Q 2591 2978 2328 3040 
Q 2066 3103 1784 3103 
Q 1356 3103 1142 2972 
Q 928 2841 928 2578 
Q 928 2378 1081 2264 
Q 1234 2150 1697 2047 
L 1894 2003 
Q 2506 1872 2764 1633 
Q 3022 1394 3022 966 
Q 3022 478 2636 193 
Q 2250 -91 1575 -91 
Q 1294 -91 989 -36 
Q 684 19 347 128 
L 347 722 
Q 666 556 975 473 
Q 1284 391 1588 391 
Q 1994 391 2212 530 
Q 2431 669 2431 922 
Q 2431 1156 2273 1281 
Q 2116 1406 1581 1522 
L 1381 1569 
Q 847 1681 609 1914 
Q 372 2147 372 2553 
Q 372 3047 722 3315 
Q 1072 3584 1716 3584 
Q 2034 3584 2315 3537 
Q 2597 3491 2834 3397 
z
" transform="scale(0.015625)"/>
       <path id="DejaVuSans-74" d="M 1172 4494 
L 1172 3500 
L 2356 3500 
L 2356 3053 
L 1172 3053 
L 1172 1153 
Q 1172 725 1289 603 
Q 1406 481 1766 481 
L 2356 481 
L 2356 0 
L 1766 0 
Q 1100 0 847 248 
Q 594 497 594 1153 
L 594 3053 
L 172 3053 
L 172 3500 
L 594 3500 
L 594 4494 
L 1172 4494 
z
" transform="scale(0.015625)"/>
       <path id="DejaVuSans-20" transform="scale(0.015625)"/>
       <path id="DejaVuSans-66" d="M 2375 4863 
L 2375 4384 
L 1825 4384 
Q 1516 4384 1395 4259 
Q 1275 4134 1275 3809 
L 1275 3500 
L 2222 3500 
L 2222 3053 
L 1275 3053 
L 1275 0 
L 697 0 
L 697 3053 
L 147 3053 
L 147 3500 
L 697 3500 
L 697 3744 
Q 697 4328 969 4595 
Q 1241 4863 1831 4863 
L 2375 4863 
z
" transform="scale(0.015625)"/>
      </defs>
      <use xlink:href="#DejaVuSans-42"/>
      <use xlink:href="#DejaVuSans-65" x="68.603516"/>
      <use xlink:href="#DejaVuSans-73" x="130.126953"/>
      <use xlink:href="#DejaVuSans-74" x="182.226562"/>
      <use xlink:href="#DejaVuSans-20" x="221.435547"/>
      <use xlink:href="#DejaVuSans-66" x="253.222656"/>
      <use xlink:href="#DejaVuSans-69" x="288.427734"/>
      <use xlink:href="#DejaVuSans-74" x="316.210938"/>
     </g>
    </g>
    <g id="patch_63">
     <path d="M 224.2875 39.212898 
L 244.2875 39.212898 
L 244.2875 32.212898 
L 224.2875 32.212898 
z
" style="fill: #348abd; opacity: 0.8"/>
    </g>
    <g id="text_16">
     <!-- Correlated eigvals. -->
     <g transform="translate(252.2875 39.212898)scale(0.1 -0.1)">
      <defs>
       <path id="DejaVuSans-43" d="M 4122 4306 
L 4122 3641 
Q 3803 3938 3442 4084 
Q 3081 4231 2675 4231 
Q 1875 4231 1450 3742 
Q 1025 3253 1025 2328 
Q 1025 1406 1450 917 
Q 1875 428 2675 428 
Q 3081 428 3442 575 
Q 3803 722 4122 1019 
L 4122 359 
Q 3791 134 3420 21 
Q 3050 -91 2638 -91 
Q 1578 -91 968 557 
Q 359 1206 359 2328 
Q 359 3453 968 4101 
Q 1578 4750 2638 4750 
Q 3056 4750 3426 4639 
Q 3797 4528 4122 4306 
z
" transform="scale(0.015625)"/>
       <path id="DejaVuSans-6f" d="M 1959 3097 
Q 1497 3097 1228 2736 
Q 959 2375 959 1747 
Q 959 1119 1226 758 
Q 1494 397 1959 397 
Q 2419 397 2687 759 
Q 2956 1122 2956 1747 
Q 2956 2369 2687 2733 
Q 2419 3097 1959 3097 
z
M 1959 3584 
Q 2709 3584 3137 3096 
Q 3566 2609 3566 1747 
Q 3566 888 3137 398 
Q 2709 -91 1959 -91 
Q 1206 -91 779 398 
Q 353 888 353 1747 
Q 353 2609 779 3096 
Q 1206 3584 1959 3584 
z
" transform="scale(0.015625)"/>
       <path id="DejaVuSans-72" d="M 2631 2963 
Q 2534 3019 2420 3045 
Q 2306 3072 2169 3072 
Q 1681 3072 1420 2755 
Q 1159 2438 1159 1844 
L 1159 0 
L 581 0 
L 581 3500 
L 1159 3500 
L 1159 2956 
Q 1341 3275 1631 3429 
Q 1922 3584 2338 3584 
Q 2397 3584 2469 3576 
Q 2541 3569 2628 3553 
L 2631 2963 
z
" transform="scale(0.015625)"/>
       <path id="DejaVuSans-64" d="M 2906 2969 
L 2906 4863 
L 3481 4863 
L 3481 0 
L 2906 0 
L 2906 525 
Q 2725 213 2448 61 
Q 2172 -91 1784 -91 
Q 1150 -91 751 415 
Q 353 922 353 1747 
Q 353 2572 751 3078 
Q 1150 3584 1784 3584 
Q 2172 3584 2448 3432 
Q 2725 3281 2906 2969 
z
M 947 1747 
Q 947 1113 1208 752 
Q 1469 391 1925 391 
Q 2381 391 2643 752 
Q 2906 1113 2906 1747 
Q 2906 2381 2643 2742 
Q 2381 3103 1925 3103 
Q 1469 3103 1208 2742 
Q 947 2381 947 1747 
z
" transform="scale(0.015625)"/>
       <path id="DejaVuSans-2e" d="M 684 794 
L 1344 794 
L 1344 0 
L 684 0 
L 684 794 
z
" transform="scale(0.015625)"/>
      </defs>
      <use xlink:href="#DejaVuSans-43"/>
      <use xlink:href="#DejaVuSans-6f" x="69.824219"/>
      <use xlink:href="#DejaVuSans-72" x="131.005859"/>
      <use xlink:href="#DejaVuSans-72" x="170.369141"/>
      <use xlink:href="#DejaVuSans-65" x="209.232422"/>
      <use xlink:href="#DejaVuSans-6c" x="270.755859"/>
      <use xlink:href="#DejaVuSans-61" x="298.539062"/>
      <use xlink:href="#DejaVuSans-74" x="359.818359"/>
      <use xlink:href="#DejaVuSans-65" x="399.027344"/>
      <use xlink:href="#DejaVuSans-64" x="460.550781"/>
      <use xlink:href="#DejaVuSans-20" x="524.027344"/>
      <use xlink:href="#DejaVuSans-65" x="555.814453"/>
      <use xlink:href="#DejaVuSans-69" x="617.337891"/>
      <use xlink:href="#DejaVuSans-67" x="645.121094"/>
      <use xlink:href="#DejaVuSans-76" x="708.597656"/>
      <use xlink:href="#DejaVuSans-61" x="767.777344"/>
      <use xlink:href="#DejaVuSans-6c" x="829.056641"/>
      <use xlink:href="#DejaVuSans-73" x="856.839844"/>
      <use xlink:href="#DejaVuSans-2e" x="908.939453"/>
     </g>
    </g>
   </g>
  </g>
 </g>
 <defs>
  <clipPath id="p474535eb06">
   <rect x="20.5625" y="7.936335" width="334.8" height="217.44"/>
  </clipPath>
 </defs>
</svg>
