<?xml version="1.0" encoding="utf-8" standalone="no"?>
<!DOCTYPE svg PUBLIC "-//W3C//DTD SVG 1.1//EN"
  "http://www.w3.org/Graphics/SVG/1.1/DTD/svg11.dtd">
<svg xmlns:xlink="http://www.w3.org/1999/xlink" width="706.903125pt" height="213.571094pt" viewBox="0 0 706.903125 213.571094" xmlns="http://www.w3.org/2000/svg" version="1.1">
 <metadata>
  <rdf:RDF xmlns:dc="http://purl.org/dc/elements/1.1/" xmlns:cc="http://creativecommons.org/ns#" xmlns:rdf="http://www.w3.org/1999/02/22-rdf-syntax-ns#">
   <cc:Work>
    <dc:type rdf:resource="http://purl.org/dc/dcmitype/StillImage"/>
    <dc:date>2022-05-11T19:33:57.606921</dc:date>
    <dc:format>image/svg+xml</dc:format>
    <dc:creator>
     <cc:Agent>
      <dc:title>Matplotlib v3.5.1, https://matplotlib.org/</dc:title>
     </cc:Agent>
    </dc:creator>
   </cc:Work>
  </rdf:RDF>
 </metadata>
 <defs>
  <style type="text/css">*{stroke-linejoin: round; stroke-linecap: butt}</style>
 </defs>
 <g id="figure_1">
  <g id="patch_1">
   <path d="M 0 213.571094 
L 706.903125 213.571094 
L 706.903125 0 
L 0 0 
z
" style="fill: #ffffff"/>
  </g>
  <g id="axes_1">
   <g id="patch_2">
    <path d="M 30.103125 174.079219 
L 227.044301 174.079219 
L 227.044301 10.999219 
L 30.103125 10.999219 
z
" style="fill: #e5e5e5"/>
   </g>
   <g id="matplotlib.axis_1">
    <g id="xtick_1">
     <g id="line2d_1">
      <path d="M 39.054997 174.079219 
L 39.054997 10.999219 
" clip-path="url(#p5e012473fe)" style="fill: none; stroke: #ffffff; stroke-width: 0.8; stroke-linecap: square"/>
     </g>
     <g id="line2d_2">
      <defs>
       <path id="m1026e27100" d="M 0 0 
L 0 3.5 
" style="stroke: #555555; stroke-width: 0.8"/>
      </defs>
      <g>
       <use xlink:href="#m1026e27100" x="39.054997" y="174.079219" style="fill: #555555; stroke: #555555; stroke-width: 0.8"/>
      </g>
     </g>
     <g id="text_1">
      <!-- 0 -->
      <g style="fill: #555555" transform="translate(35.873747 188.677656)scale(0.1 -0.1)">
       <defs>
        <path id="DejaVuSans-30" d="M 2034 4250 
Q 1547 4250 1301 3770 
Q 1056 3291 1056 2328 
Q 1056 1369 1301 889 
Q 1547 409 2034 409 
Q 2525 409 2770 889 
Q 3016 1369 3016 2328 
Q 3016 3291 2770 3770 
Q 2525 4250 2034 4250 
z
M 2034 4750 
Q 2819 4750 3233 4129 
Q 3647 3509 3647 2328 
Q 3647 1150 3233 529 
Q 2819 -91 2034 -91 
Q 1250 -91 836 529 
Q 422 1150 422 2328 
Q 422 3509 836 4129 
Q 1250 4750 2034 4750 
z
" transform="scale(0.015625)"/>
       </defs>
       <use xlink:href="#DejaVuSans-30"/>
      </g>
     </g>
    </g>
    <g id="xtick_2">
     <g id="line2d_3">
      <path d="M 74.862483 174.079219 
L 74.862483 10.999219 
" clip-path="url(#p5e012473fe)" style="fill: none; stroke: #ffffff; stroke-width: 0.8; stroke-linecap: square"/>
     </g>
     <g id="line2d_4">
      <g>
       <use xlink:href="#m1026e27100" x="74.862483" y="174.079219" style="fill: #555555; stroke: #555555; stroke-width: 0.8"/>
      </g>
     </g>
     <g id="text_2">
      <!-- 1 -->
      <g style="fill: #555555" transform="translate(71.681233 188.677656)scale(0.1 -0.1)">
       <defs>
        <path id="DejaVuSans-31" d="M 794 531 
L 1825 531 
L 1825 4091 
L 703 3866 
L 703 4441 
L 1819 4666 
L 2450 4666 
L 2450 531 
L 3481 531 
L 3481 0 
L 794 0 
L 794 531 
z
" transform="scale(0.015625)"/>
       </defs>
       <use xlink:href="#DejaVuSans-31"/>
      </g>
     </g>
    </g>
    <g id="xtick_3">
     <g id="line2d_5">
      <path d="M 110.66997 174.079219 
L 110.66997 10.999219 
" clip-path="url(#p5e012473fe)" style="fill: none; stroke: #ffffff; stroke-width: 0.8; stroke-linecap: square"/>
     </g>
     <g id="line2d_6">
      <g>
       <use xlink:href="#m1026e27100" x="110.66997" y="174.079219" style="fill: #555555; stroke: #555555; stroke-width: 0.8"/>
      </g>
     </g>
     <g id="text_3">
      <!-- 2 -->
      <g style="fill: #555555" transform="translate(107.48872 188.677656)scale(0.1 -0.1)">
       <defs>
        <path id="DejaVuSans-32" d="M 1228 531 
L 3431 531 
L 3431 0 
L 469 0 
L 469 531 
Q 828 903 1448 1529 
Q 2069 2156 2228 2338 
Q 2531 2678 2651 2914 
Q 2772 3150 2772 3378 
Q 2772 3750 2511 3984 
Q 2250 4219 1831 4219 
Q 1534 4219 1204 4116 
Q 875 4013 500 3803 
L 500 4441 
Q 881 4594 1212 4672 
Q 1544 4750 1819 4750 
Q 2544 4750 2975 4387 
Q 3406 4025 3406 3419 
Q 3406 3131 3298 2873 
Q 3191 2616 2906 2266 
Q 2828 2175 2409 1742 
Q 1991 1309 1228 531 
z
" transform="scale(0.015625)"/>
       </defs>
       <use xlink:href="#DejaVuSans-32"/>
      </g>
     </g>
    </g>
    <g id="xtick_4">
     <g id="line2d_7">
      <path d="M 146.477457 174.079219 
L 146.477457 10.999219 
" clip-path="url(#p5e012473fe)" style="fill: none; stroke: #ffffff; stroke-width: 0.8; stroke-linecap: square"/>
     </g>
     <g id="line2d_8">
      <g>
       <use xlink:href="#m1026e27100" x="146.477457" y="174.079219" style="fill: #555555; stroke: #555555; stroke-width: 0.8"/>
      </g>
     </g>
     <g id="text_4">
      <!-- 3 -->
      <g style="fill: #555555" transform="translate(143.296207 188.677656)scale(0.1 -0.1)">
       <defs>
        <path id="DejaVuSans-33" d="M 2597 2516 
Q 3050 2419 3304 2112 
Q 3559 1806 3559 1356 
Q 3559 666 3084 287 
Q 2609 -91 1734 -91 
Q 1441 -91 1130 -33 
Q 819 25 488 141 
L 488 750 
Q 750 597 1062 519 
Q 1375 441 1716 441 
Q 2309 441 2620 675 
Q 2931 909 2931 1356 
Q 2931 1769 2642 2001 
Q 2353 2234 1838 2234 
L 1294 2234 
L 1294 2753 
L 1863 2753 
Q 2328 2753 2575 2939 
Q 2822 3125 2822 3475 
Q 2822 3834 2567 4026 
Q 2313 4219 1838 4219 
Q 1578 4219 1281 4162 
Q 984 4106 628 3988 
L 628 4550 
Q 988 4650 1302 4700 
Q 1616 4750 1894 4750 
Q 2613 4750 3031 4423 
Q 3450 4097 3450 3541 
Q 3450 3153 3228 2886 
Q 3006 2619 2597 2516 
z
" transform="scale(0.015625)"/>
       </defs>
       <use xlink:href="#DejaVuSans-33"/>
      </g>
     </g>
    </g>
    <g id="xtick_5">
     <g id="line2d_9">
      <path d="M 182.284943 174.079219 
L 182.284943 10.999219 
" clip-path="url(#p5e012473fe)" style="fill: none; stroke: #ffffff; stroke-width: 0.8; stroke-linecap: square"/>
     </g>
     <g id="line2d_10">
      <g>
       <use xlink:href="#m1026e27100" x="182.284943" y="174.079219" style="fill: #555555; stroke: #555555; stroke-width: 0.8"/>
      </g>
     </g>
     <g id="text_5">
      <!-- 4 -->
      <g style="fill: #555555" transform="translate(179.103693 188.677656)scale(0.1 -0.1)">
       <defs>
        <path id="DejaVuSans-34" d="M 2419 4116 
L 825 1625 
L 2419 1625 
L 2419 4116 
z
M 2253 4666 
L 3047 4666 
L 3047 1625 
L 3713 1625 
L 3713 1100 
L 3047 1100 
L 3047 0 
L 2419 0 
L 2419 1100 
L 313 1100 
L 313 1709 
L 2253 4666 
z
" transform="scale(0.015625)"/>
       </defs>
       <use xlink:href="#DejaVuSans-34"/>
      </g>
     </g>
    </g>
    <g id="xtick_6">
     <g id="line2d_11">
      <path d="M 218.09243 174.079219 
L 218.09243 10.999219 
" clip-path="url(#p5e012473fe)" style="fill: none; stroke: #ffffff; stroke-width: 0.8; stroke-linecap: square"/>
     </g>
     <g id="line2d_12">
      <g>
       <use xlink:href="#m1026e27100" x="218.09243" y="174.079219" style="fill: #555555; stroke: #555555; stroke-width: 0.8"/>
      </g>
     </g>
     <g id="text_6">
      <!-- 5 -->
      <g style="fill: #555555" transform="translate(214.91118 188.677656)scale(0.1 -0.1)">
       <defs>
        <path id="DejaVuSans-35" d="M 691 4666 
L 3169 4666 
L 3169 4134 
L 1269 4134 
L 1269 2991 
Q 1406 3038 1543 3061 
Q 1681 3084 1819 3084 
Q 2600 3084 3056 2656 
Q 3513 2228 3513 1497 
Q 3513 744 3044 326 
Q 2575 -91 1722 -91 
Q 1428 -91 1123 -41 
Q 819 9 494 109 
L 494 744 
Q 775 591 1075 516 
Q 1375 441 1709 441 
Q 2250 441 2565 725 
Q 2881 1009 2881 1497 
Q 2881 1984 2565 2268 
Q 2250 2553 1709 2553 
Q 1456 2553 1204 2497 
Q 953 2441 691 2322 
L 691 4666 
z
" transform="scale(0.015625)"/>
       </defs>
       <use xlink:href="#DejaVuSans-35"/>
      </g>
     </g>
    </g>
    <g id="text_7">
     <!-- Eigenvalue -->
     <g style="fill: #555555" transform="translate(95.422776 203.875469)scale(0.12 -0.12)">
      <defs>
       <path id="DejaVuSans-45" d="M 628 4666 
L 3578 4666 
L 3578 4134 
L 1259 4134 
L 1259 2753 
L 3481 2753 
L 3481 2222 
L 1259 2222 
L 1259 531 
L 3634 531 
L 3634 0 
L 628 0 
L 628 4666 
z
" transform="scale(0.015625)"/>
       <path id="DejaVuSans-69" d="M 603 3500 
L 1178 3500 
L 1178 0 
L 603 0 
L 603 3500 
z
M 603 4863 
L 1178 4863 
L 1178 4134 
L 603 4134 
L 603 4863 
z
" transform="scale(0.015625)"/>
       <path id="DejaVuSans-67" d="M 2906 1791 
Q 2906 2416 2648 2759 
Q 2391 3103 1925 3103 
Q 1463 3103 1205 2759 
Q 947 2416 947 1791 
Q 947 1169 1205 825 
Q 1463 481 1925 481 
Q 2391 481 2648 825 
Q 2906 1169 2906 1791 
z
M 3481 434 
Q 3481 -459 3084 -895 
Q 2688 -1331 1869 -1331 
Q 1566 -1331 1297 -1286 
Q 1028 -1241 775 -1147 
L 775 -588 
Q 1028 -725 1275 -790 
Q 1522 -856 1778 -856 
Q 2344 -856 2625 -561 
Q 2906 -266 2906 331 
L 2906 616 
Q 2728 306 2450 153 
Q 2172 0 1784 0 
Q 1141 0 747 490 
Q 353 981 353 1791 
Q 353 2603 747 3093 
Q 1141 3584 1784 3584 
Q 2172 3584 2450 3431 
Q 2728 3278 2906 2969 
L 2906 3500 
L 3481 3500 
L 3481 434 
z
" transform="scale(0.015625)"/>
       <path id="DejaVuSans-65" d="M 3597 1894 
L 3597 1613 
L 953 1613 
Q 991 1019 1311 708 
Q 1631 397 2203 397 
Q 2534 397 2845 478 
Q 3156 559 3463 722 
L 3463 178 
Q 3153 47 2828 -22 
Q 2503 -91 2169 -91 
Q 1331 -91 842 396 
Q 353 884 353 1716 
Q 353 2575 817 3079 
Q 1281 3584 2069 3584 
Q 2775 3584 3186 3129 
Q 3597 2675 3597 1894 
z
M 3022 2063 
Q 3016 2534 2758 2815 
Q 2500 3097 2075 3097 
Q 1594 3097 1305 2825 
Q 1016 2553 972 2059 
L 3022 2063 
z
" transform="scale(0.015625)"/>
       <path id="DejaVuSans-6e" d="M 3513 2113 
L 3513 0 
L 2938 0 
L 2938 2094 
Q 2938 2591 2744 2837 
Q 2550 3084 2163 3084 
Q 1697 3084 1428 2787 
Q 1159 2491 1159 1978 
L 1159 0 
L 581 0 
L 581 3500 
L 1159 3500 
L 1159 2956 
Q 1366 3272 1645 3428 
Q 1925 3584 2291 3584 
Q 2894 3584 3203 3211 
Q 3513 2838 3513 2113 
z
" transform="scale(0.015625)"/>
       <path id="DejaVuSans-76" d="M 191 3500 
L 800 3500 
L 1894 563 
L 2988 3500 
L 3597 3500 
L 2284 0 
L 1503 0 
L 191 3500 
z
" transform="scale(0.015625)"/>
       <path id="DejaVuSans-61" d="M 2194 1759 
Q 1497 1759 1228 1600 
Q 959 1441 959 1056 
Q 959 750 1161 570 
Q 1363 391 1709 391 
Q 2188 391 2477 730 
Q 2766 1069 2766 1631 
L 2766 1759 
L 2194 1759 
z
M 3341 1997 
L 3341 0 
L 2766 0 
L 2766 531 
Q 2569 213 2275 61 
Q 1981 -91 1556 -91 
Q 1019 -91 701 211 
Q 384 513 384 1019 
Q 384 1609 779 1909 
Q 1175 2209 1959 2209 
L 2766 2209 
L 2766 2266 
Q 2766 2663 2505 2880 
Q 2244 3097 1772 3097 
Q 1472 3097 1187 3025 
Q 903 2953 641 2809 
L 641 3341 
Q 956 3463 1253 3523 
Q 1550 3584 1831 3584 
Q 2591 3584 2966 3190 
Q 3341 2797 3341 1997 
z
" transform="scale(0.015625)"/>
       <path id="DejaVuSans-6c" d="M 603 4863 
L 1178 4863 
L 1178 0 
L 603 0 
L 603 4863 
z
" transform="scale(0.015625)"/>
       <path id="DejaVuSans-75" d="M 544 1381 
L 544 3500 
L 1119 3500 
L 1119 1403 
Q 1119 906 1312 657 
Q 1506 409 1894 409 
Q 2359 409 2629 706 
Q 2900 1003 2900 1516 
L 2900 3500 
L 3475 3500 
L 3475 0 
L 2900 0 
L 2900 538 
Q 2691 219 2414 64 
Q 2138 -91 1772 -91 
Q 1169 -91 856 284 
Q 544 659 544 1381 
z
M 1991 3584 
L 1991 3584 
z
" transform="scale(0.015625)"/>
      </defs>
      <use xlink:href="#DejaVuSans-45"/>
      <use xlink:href="#DejaVuSans-69" x="63.183594"/>
      <use xlink:href="#DejaVuSans-67" x="90.966797"/>
      <use xlink:href="#DejaVuSans-65" x="154.443359"/>
      <use xlink:href="#DejaVuSans-6e" x="215.966797"/>
      <use xlink:href="#DejaVuSans-76" x="279.345703"/>
      <use xlink:href="#DejaVuSans-61" x="338.525391"/>
      <use xlink:href="#DejaVuSans-6c" x="399.804688"/>
      <use xlink:href="#DejaVuSans-75" x="427.587891"/>
      <use xlink:href="#DejaVuSans-65" x="490.966797"/>
     </g>
    </g>
   </g>
   <g id="matplotlib.axis_2">
    <g id="ytick_1">
     <g id="line2d_13">
      <path d="M 30.103125 174.079219 
L 227.044301 174.079219 
" clip-path="url(#p5e012473fe)" style="fill: none; stroke: #ffffff; stroke-width: 0.8; stroke-linecap: square"/>
     </g>
     <g id="line2d_14">
      <defs>
       <path id="mdbb3398809" d="M 0 0 
L -3.5 0 
" style="stroke: #555555; stroke-width: 0.8"/>
      </defs>
      <g>
       <use xlink:href="#mdbb3398809" x="30.103125" y="174.079219" style="fill: #555555; stroke: #555555; stroke-width: 0.8"/>
      </g>
     </g>
     <g id="text_8">
      <!-- 0.0 -->
      <g style="fill: #555555" transform="translate(7.2 177.878438)scale(0.1 -0.1)">
       <defs>
        <path id="DejaVuSans-2e" d="M 684 794 
L 1344 794 
L 1344 0 
L 684 0 
L 684 794 
z
" transform="scale(0.015625)"/>
       </defs>
       <use xlink:href="#DejaVuSans-30"/>
       <use xlink:href="#DejaVuSans-2e" x="63.623047"/>
       <use xlink:href="#DejaVuSans-30" x="95.410156"/>
      </g>
     </g>
    </g>
    <g id="ytick_2">
     <g id="line2d_15">
      <path d="M 30.103125 137.377935 
L 227.044301 137.377935 
" clip-path="url(#p5e012473fe)" style="fill: none; stroke: #ffffff; stroke-width: 0.8; stroke-linecap: square"/>
     </g>
     <g id="line2d_16">
      <g>
       <use xlink:href="#mdbb3398809" x="30.103125" y="137.377935" style="fill: #555555; stroke: #555555; stroke-width: 0.8"/>
      </g>
     </g>
     <g id="text_9">
      <!-- 0.2 -->
      <g style="fill: #555555" transform="translate(7.2 141.177154)scale(0.1 -0.1)">
       <use xlink:href="#DejaVuSans-30"/>
       <use xlink:href="#DejaVuSans-2e" x="63.623047"/>
       <use xlink:href="#DejaVuSans-32" x="95.410156"/>
      </g>
     </g>
    </g>
    <g id="ytick_3">
     <g id="line2d_17">
      <path d="M 30.103125 100.676652 
L 227.044301 100.676652 
" clip-path="url(#p5e012473fe)" style="fill: none; stroke: #ffffff; stroke-width: 0.8; stroke-linecap: square"/>
     </g>
     <g id="line2d_18">
      <g>
       <use xlink:href="#mdbb3398809" x="30.103125" y="100.676652" style="fill: #555555; stroke: #555555; stroke-width: 0.8"/>
      </g>
     </g>
     <g id="text_10">
      <!-- 0.4 -->
      <g style="fill: #555555" transform="translate(7.2 104.475871)scale(0.1 -0.1)">
       <use xlink:href="#DejaVuSans-30"/>
       <use xlink:href="#DejaVuSans-2e" x="63.623047"/>
       <use xlink:href="#DejaVuSans-34" x="95.410156"/>
      </g>
     </g>
    </g>
    <g id="ytick_4">
     <g id="line2d_19">
      <path d="M 30.103125 63.975368 
L 227.044301 63.975368 
" clip-path="url(#p5e012473fe)" style="fill: none; stroke: #ffffff; stroke-width: 0.8; stroke-linecap: square"/>
     </g>
     <g id="line2d_20">
      <g>
       <use xlink:href="#mdbb3398809" x="30.103125" y="63.975368" style="fill: #555555; stroke: #555555; stroke-width: 0.8"/>
      </g>
     </g>
     <g id="text_11">
      <!-- 0.6 -->
      <g style="fill: #555555" transform="translate(7.2 67.774587)scale(0.1 -0.1)">
       <defs>
        <path id="DejaVuSans-36" d="M 2113 2584 
Q 1688 2584 1439 2293 
Q 1191 2003 1191 1497 
Q 1191 994 1439 701 
Q 1688 409 2113 409 
Q 2538 409 2786 701 
Q 3034 994 3034 1497 
Q 3034 2003 2786 2293 
Q 2538 2584 2113 2584 
z
M 3366 4563 
L 3366 3988 
Q 3128 4100 2886 4159 
Q 2644 4219 2406 4219 
Q 1781 4219 1451 3797 
Q 1122 3375 1075 2522 
Q 1259 2794 1537 2939 
Q 1816 3084 2150 3084 
Q 2853 3084 3261 2657 
Q 3669 2231 3669 1497 
Q 3669 778 3244 343 
Q 2819 -91 2113 -91 
Q 1303 -91 875 529 
Q 447 1150 447 2328 
Q 447 3434 972 4092 
Q 1497 4750 2381 4750 
Q 2619 4750 2861 4703 
Q 3103 4656 3366 4563 
z
" transform="scale(0.015625)"/>
       </defs>
       <use xlink:href="#DejaVuSans-30"/>
       <use xlink:href="#DejaVuSans-2e" x="63.623047"/>
       <use xlink:href="#DejaVuSans-36" x="95.410156"/>
      </g>
     </g>
    </g>
    <g id="ytick_5">
     <g id="line2d_21">
      <path d="M 30.103125 27.274085 
L 227.044301 27.274085 
" clip-path="url(#p5e012473fe)" style="fill: none; stroke: #ffffff; stroke-width: 0.8; stroke-linecap: square"/>
     </g>
     <g id="line2d_22">
      <g>
       <use xlink:href="#mdbb3398809" x="30.103125" y="27.274085" style="fill: #555555; stroke: #555555; stroke-width: 0.8"/>
      </g>
     </g>
     <g id="text_12">
      <!-- 0.8 -->
      <g style="fill: #555555" transform="translate(7.2 31.073304)scale(0.1 -0.1)">
       <defs>
        <path id="DejaVuSans-38" d="M 2034 2216 
Q 1584 2216 1326 1975 
Q 1069 1734 1069 1313 
Q 1069 891 1326 650 
Q 1584 409 2034 409 
Q 2484 409 2743 651 
Q 3003 894 3003 1313 
Q 3003 1734 2745 1975 
Q 2488 2216 2034 2216 
z
M 1403 2484 
Q 997 2584 770 2862 
Q 544 3141 544 3541 
Q 544 4100 942 4425 
Q 1341 4750 2034 4750 
Q 2731 4750 3128 4425 
Q 3525 4100 3525 3541 
Q 3525 3141 3298 2862 
Q 3072 2584 2669 2484 
Q 3125 2378 3379 2068 
Q 3634 1759 3634 1313 
Q 3634 634 3220 271 
Q 2806 -91 2034 -91 
Q 1263 -91 848 271 
Q 434 634 434 1313 
Q 434 1759 690 2068 
Q 947 2378 1403 2484 
z
M 1172 3481 
Q 1172 3119 1398 2916 
Q 1625 2713 2034 2713 
Q 2441 2713 2670 2916 
Q 2900 3119 2900 3481 
Q 2900 3844 2670 4047 
Q 2441 4250 2034 4250 
Q 1625 4250 1398 4047 
Q 1172 3844 1172 3481 
z
" transform="scale(0.015625)"/>
       </defs>
       <use xlink:href="#DejaVuSans-30"/>
       <use xlink:href="#DejaVuSans-2e" x="63.623047"/>
       <use xlink:href="#DejaVuSans-38" x="95.410156"/>
      </g>
     </g>
    </g>
   </g>
   <g id="patch_3">
    <path d="M 43.652577 174.079219 
L 48.268173 174.079219 
L 48.268173 32.917549 
L 43.652577 32.917549 
z
" clip-path="url(#p5e012473fe)" style="fill: #348abd; opacity: 0.8"/>
   </g>
   <g id="patch_4">
    <path d="M 48.268173 174.079219 
L 52.88377 174.079219 
L 52.88377 29.914109 
L 48.268173 29.914109 
z
" clip-path="url(#p5e012473fe)" style="fill: #348abd; opacity: 0.8"/>
   </g>
   <g id="patch_5">
    <path d="M 52.88377 174.079219 
L 57.499366 174.079219 
L 57.499366 35.920989 
L 52.88377 35.920989 
z
" clip-path="url(#p5e012473fe)" style="fill: #348abd; opacity: 0.8"/>
   </g>
   <g id="patch_6">
    <path d="M 57.499366 174.079219 
L 62.114962 174.079219 
L 62.114962 59.948507 
L 57.499366 59.948507 
z
" clip-path="url(#p5e012473fe)" style="fill: #348abd; opacity: 0.8"/>
   </g>
   <g id="patch_7">
    <path d="M 62.114962 174.079219 
L 66.730559 174.079219 
L 66.730559 62.951947 
L 62.114962 62.951947 
z
" clip-path="url(#p5e012473fe)" style="fill: #348abd; opacity: 0.8"/>
   </g>
   <g id="patch_8">
    <path d="M 66.730559 174.079219 
L 71.346155 174.079219 
L 71.346155 80.972585 
L 66.730559 80.972585 
z
" clip-path="url(#p5e012473fe)" style="fill: #348abd; opacity: 0.8"/>
   </g>
   <g id="patch_9">
    <path d="M 71.346155 174.079219 
L 75.961751 174.079219 
L 75.961751 83.976025 
L 71.346155 83.976025 
z
" clip-path="url(#p5e012473fe)" style="fill: #348abd; opacity: 0.8"/>
   </g>
   <g id="patch_10">
    <path d="M 75.961751 174.079219 
L 80.577348 174.079219 
L 80.577348 92.986345 
L 75.961751 92.986345 
z
" clip-path="url(#p5e012473fe)" style="fill: #348abd; opacity: 0.8"/>
   </g>
   <g id="patch_11">
    <path d="M 80.577348 174.079219 
L 85.192944 174.079219 
L 85.192944 105.000104 
L 80.577348 105.000104 
z
" clip-path="url(#p5e012473fe)" style="fill: #348abd; opacity: 0.8"/>
   </g>
   <g id="patch_12">
    <path d="M 85.192944 174.079219 
L 89.808541 174.079219 
L 89.808541 101.996664 
L 85.192944 101.996664 
z
" clip-path="url(#p5e012473fe)" style="fill: #348abd; opacity: 0.8"/>
   </g>
   <g id="patch_13">
    <path d="M 89.808541 174.079219 
L 94.424137 174.079219 
L 94.424137 117.013863 
L 89.808541 117.013863 
z
" clip-path="url(#p5e012473fe)" style="fill: #348abd; opacity: 0.8"/>
   </g>
   <g id="patch_14">
    <path d="M 94.424137 174.079219 
L 99.039733 174.079219 
L 99.039733 120.017303 
L 94.424137 120.017303 
z
" clip-path="url(#p5e012473fe)" style="fill: #348abd; opacity: 0.8"/>
   </g>
   <g id="patch_15">
    <path d="M 99.039733 174.079219 
L 103.65533 174.079219 
L 103.65533 123.020742 
L 99.039733 123.020742 
z
" clip-path="url(#p5e012473fe)" style="fill: #348abd; opacity: 0.8"/>
   </g>
   <g id="patch_16">
    <path d="M 103.65533 174.079219 
L 108.270926 174.079219 
L 108.270926 129.027622 
L 103.65533 129.027622 
z
" clip-path="url(#p5e012473fe)" style="fill: #348abd; opacity: 0.8"/>
   </g>
   <g id="patch_17">
    <path d="M 108.270926 174.079219 
L 112.886523 174.079219 
L 112.886523 129.027622 
L 108.270926 129.027622 
z
" clip-path="url(#p5e012473fe)" style="fill: #348abd; opacity: 0.8"/>
   </g>
   <g id="patch_18">
    <path d="M 112.886523 174.079219 
L 117.502119 174.079219 
L 117.502119 141.041381 
L 112.886523 141.041381 
z
" clip-path="url(#p5e012473fe)" style="fill: #348abd; opacity: 0.8"/>
   </g>
   <g id="patch_19">
    <path d="M 117.502119 174.079219 
L 122.117715 174.079219 
L 122.117715 147.048261 
L 117.502119 147.048261 
z
" clip-path="url(#p5e012473fe)" style="fill: #348abd; opacity: 0.8"/>
   </g>
   <g id="patch_20">
    <path d="M 122.117715 174.079219 
L 126.733312 174.079219 
L 126.733312 147.048261 
L 122.117715 147.048261 
z
" clip-path="url(#p5e012473fe)" style="fill: #348abd; opacity: 0.8"/>
   </g>
   <g id="patch_21">
    <path d="M 126.733312 174.079219 
L 131.348908 174.079219 
L 131.348908 156.05858 
L 126.733312 156.05858 
z
" clip-path="url(#p5e012473fe)" style="fill: #348abd; opacity: 0.8"/>
   </g>
   <g id="patch_22">
    <path d="M 131.348908 174.079219 
L 135.964504 174.079219 
L 135.964504 162.06546 
L 131.348908 162.06546 
z
" clip-path="url(#p5e012473fe)" style="fill: #348abd; opacity: 0.8"/>
   </g>
   <g id="line2d_23">
    <path d="M 39.054997 174.079219 
L 43.267642 174.079219 
L 43.96975 81.469342 
L 44.671857 45.970589 
L 45.373965 30.459888 
L 46.076072 23.035328 
L 46.77818 19.737343 
L 47.480288 18.764933 
L 48.182395 19.17547 
L 48.884503 20.432871 
L 49.58661 22.214867 
L 50.990826 26.618395 
L 57.309794 48.084092 
L 60.118224 56.438916 
L 62.926654 63.936641 
L 65.735085 70.68446 
L 68.543515 76.79522 
L 71.351945 82.369035 
L 74.160376 87.490268 
L 77.670914 93.360812 
L 81.181452 98.743662 
L 84.691989 103.7274 
L 88.904635 109.281263 
L 93.11728 114.464348 
L 98.032033 120.153422 
L 104.351002 127.074913 
L 122.605799 146.697234 
L 126.116337 150.941225 
L 128.924767 154.7074 
L 131.03109 157.91505 
L 132.435305 160.367831 
L 133.83952 163.272381 
L 134.541628 165.027838 
L 135.243735 167.183465 
L 136.64795 174.079219 
L 218.09243 174.079219 
L 218.09243 174.079219 
" clip-path="url(#p5e012473fe)" style="fill: none; stroke: #e24a33; stroke-width: 1.5; stroke-linecap: square"/>
   </g>
   <g id="patch_23">
    <path d="M 30.103125 174.079219 
L 30.103125 10.999219 
" style="fill: none; stroke: #ffffff; stroke-linejoin: miter; stroke-linecap: square"/>
   </g>
   <g id="patch_24">
    <path d="M 227.044301 174.079219 
L 227.044301 10.999219 
" style="fill: none; stroke: #ffffff; stroke-linejoin: miter; stroke-linecap: square"/>
   </g>
   <g id="patch_25">
    <path d="M 30.103125 174.079219 
L 227.044301 174.079219 
" style="fill: none; stroke: #ffffff; stroke-linejoin: miter; stroke-linecap: square"/>
   </g>
   <g id="patch_26">
    <path d="M 30.103125 10.999219 
L 227.044301 10.999219 
" style="fill: none; stroke: #ffffff; stroke-linejoin: miter; stroke-linecap: square"/>
   </g>
   <g id="legend_1">
    <g id="patch_27">
     <path d="M 105.030239 48.355469 
L 220.044301 48.355469 
Q 222.044301 48.355469 222.044301 46.355469 
L 222.044301 17.999219 
Q 222.044301 15.999219 220.044301 15.999219 
L 105.030239 15.999219 
Q 103.030239 15.999219 103.030239 17.999219 
L 103.030239 46.355469 
Q 103.030239 48.355469 105.030239 48.355469 
z
" style="fill: #e5e5e5; opacity: 0.8; stroke: #cccccc; stroke-width: 0.5; stroke-linejoin: miter"/>
    </g>
    <g id="line2d_24">
     <path d="M 107.030239 24.097656 
L 117.030239 24.097656 
L 127.030239 24.097656 
" style="fill: none; stroke: #e24a33; stroke-width: 1.5; stroke-linecap: square"/>
    </g>
    <g id="text_13">
     <!-- MP -->
     <g transform="translate(135.030239 27.597656)scale(0.1 -0.1)">
      <defs>
       <path id="DejaVuSans-4d" d="M 628 4666 
L 1569 4666 
L 2759 1491 
L 3956 4666 
L 4897 4666 
L 4897 0 
L 4281 0 
L 4281 4097 
L 3078 897 
L 2444 897 
L 1241 4097 
L 1241 0 
L 628 0 
L 628 4666 
z
" transform="scale(0.015625)"/>
       <path id="DejaVuSans-50" d="M 1259 4147 
L 1259 2394 
L 2053 2394 
Q 2494 2394 2734 2622 
Q 2975 2850 2975 3272 
Q 2975 3691 2734 3919 
Q 2494 4147 2053 4147 
L 1259 4147 
z
M 628 4666 
L 2053 4666 
Q 2838 4666 3239 4311 
Q 3641 3956 3641 3272 
Q 3641 2581 3239 2228 
Q 2838 1875 2053 1875 
L 1259 1875 
L 1259 0 
L 628 0 
L 628 4666 
z
" transform="scale(0.015625)"/>
      </defs>
      <use xlink:href="#DejaVuSans-4d"/>
      <use xlink:href="#DejaVuSans-50" x="86.279297"/>
     </g>
    </g>
    <g id="patch_28">
     <path d="M 107.030239 42.275781 
L 127.030239 42.275781 
L 127.030239 35.275781 
L 107.030239 35.275781 
z
" style="fill: #348abd; opacity: 0.8"/>
    </g>
    <g id="text_14">
     <!-- Shuffled eigvals. -->
     <g transform="translate(135.030239 42.275781)scale(0.1 -0.1)">
      <defs>
       <path id="DejaVuSans-53" d="M 3425 4513 
L 3425 3897 
Q 3066 4069 2747 4153 
Q 2428 4238 2131 4238 
Q 1616 4238 1336 4038 
Q 1056 3838 1056 3469 
Q 1056 3159 1242 3001 
Q 1428 2844 1947 2747 
L 2328 2669 
Q 3034 2534 3370 2195 
Q 3706 1856 3706 1288 
Q 3706 609 3251 259 
Q 2797 -91 1919 -91 
Q 1588 -91 1214 -16 
Q 841 59 441 206 
L 441 856 
Q 825 641 1194 531 
Q 1563 422 1919 422 
Q 2459 422 2753 634 
Q 3047 847 3047 1241 
Q 3047 1584 2836 1778 
Q 2625 1972 2144 2069 
L 1759 2144 
Q 1053 2284 737 2584 
Q 422 2884 422 3419 
Q 422 4038 858 4394 
Q 1294 4750 2059 4750 
Q 2388 4750 2728 4690 
Q 3069 4631 3425 4513 
z
" transform="scale(0.015625)"/>
       <path id="DejaVuSans-68" d="M 3513 2113 
L 3513 0 
L 2938 0 
L 2938 2094 
Q 2938 2591 2744 2837 
Q 2550 3084 2163 3084 
Q 1697 3084 1428 2787 
Q 1159 2491 1159 1978 
L 1159 0 
L 581 0 
L 581 4863 
L 1159 4863 
L 1159 2956 
Q 1366 3272 1645 3428 
Q 1925 3584 2291 3584 
Q 2894 3584 3203 3211 
Q 3513 2838 3513 2113 
z
" transform="scale(0.015625)"/>
       <path id="DejaVuSans-66" d="M 2375 4863 
L 2375 4384 
L 1825 4384 
Q 1516 4384 1395 4259 
Q 1275 4134 1275 3809 
L 1275 3500 
L 2222 3500 
L 2222 3053 
L 1275 3053 
L 1275 0 
L 697 0 
L 697 3053 
L 147 3053 
L 147 3500 
L 697 3500 
L 697 3744 
Q 697 4328 969 4595 
Q 1241 4863 1831 4863 
L 2375 4863 
z
" transform="scale(0.015625)"/>
       <path id="DejaVuSans-64" d="M 2906 2969 
L 2906 4863 
L 3481 4863 
L 3481 0 
L 2906 0 
L 2906 525 
Q 2725 213 2448 61 
Q 2172 -91 1784 -91 
Q 1150 -91 751 415 
Q 353 922 353 1747 
Q 353 2572 751 3078 
Q 1150 3584 1784 3584 
Q 2172 3584 2448 3432 
Q 2725 3281 2906 2969 
z
M 947 1747 
Q 947 1113 1208 752 
Q 1469 391 1925 391 
Q 2381 391 2643 752 
Q 2906 1113 2906 1747 
Q 2906 2381 2643 2742 
Q 2381 3103 1925 3103 
Q 1469 3103 1208 2742 
Q 947 2381 947 1747 
z
" transform="scale(0.015625)"/>
       <path id="DejaVuSans-20" transform="scale(0.015625)"/>
       <path id="DejaVuSans-73" d="M 2834 3397 
L 2834 2853 
Q 2591 2978 2328 3040 
Q 2066 3103 1784 3103 
Q 1356 3103 1142 2972 
Q 928 2841 928 2578 
Q 928 2378 1081 2264 
Q 1234 2150 1697 2047 
L 1894 2003 
Q 2506 1872 2764 1633 
Q 3022 1394 3022 966 
Q 3022 478 2636 193 
Q 2250 -91 1575 -91 
Q 1294 -91 989 -36 
Q 684 19 347 128 
L 347 722 
Q 666 556 975 473 
Q 1284 391 1588 391 
Q 1994 391 2212 530 
Q 2431 669 2431 922 
Q 2431 1156 2273 1281 
Q 2116 1406 1581 1522 
L 1381 1569 
Q 847 1681 609 1914 
Q 372 2147 372 2553 
Q 372 3047 722 3315 
Q 1072 3584 1716 3584 
Q 2034 3584 2315 3537 
Q 2597 3491 2834 3397 
z
" transform="scale(0.015625)"/>
      </defs>
      <use xlink:href="#DejaVuSans-53"/>
      <use xlink:href="#DejaVuSans-68" x="63.476562"/>
      <use xlink:href="#DejaVuSans-75" x="126.855469"/>
      <use xlink:href="#DejaVuSans-66" x="190.234375"/>
      <use xlink:href="#DejaVuSans-66" x="225.439453"/>
      <use xlink:href="#DejaVuSans-6c" x="260.644531"/>
      <use xlink:href="#DejaVuSans-65" x="288.427734"/>
      <use xlink:href="#DejaVuSans-64" x="349.951172"/>
      <use xlink:href="#DejaVuSans-20" x="413.427734"/>
      <use xlink:href="#DejaVuSans-65" x="445.214844"/>
      <use xlink:href="#DejaVuSans-69" x="506.738281"/>
      <use xlink:href="#DejaVuSans-67" x="534.521484"/>
      <use xlink:href="#DejaVuSans-76" x="597.998047"/>
      <use xlink:href="#DejaVuSans-61" x="657.177734"/>
      <use xlink:href="#DejaVuSans-6c" x="718.457031"/>
      <use xlink:href="#DejaVuSans-73" x="746.240234"/>
      <use xlink:href="#DejaVuSans-2e" x="798.339844"/>
     </g>
    </g>
   </g>
  </g>
  <g id="axes_2">
   <g id="patch_29">
    <path d="M 266.432537 174.079219 
L 463.373713 174.079219 
L 463.373713 10.999219 
L 266.432537 10.999219 
z
" style="fill: #e5e5e5"/>
   </g>
   <g id="matplotlib.axis_3">
    <g id="xtick_7">
     <g id="line2d_25">
      <path d="M 275.384408 174.079219 
L 275.384408 10.999219 
" clip-path="url(#pfc5cee8ff9)" style="fill: none; stroke: #ffffff; stroke-width: 0.8; stroke-linecap: square"/>
     </g>
     <g id="line2d_26">
      <g>
       <use xlink:href="#m1026e27100" x="275.384408" y="174.079219" style="fill: #555555; stroke: #555555; stroke-width: 0.8"/>
      </g>
     </g>
     <g id="text_15">
      <!-- 0 -->
      <g style="fill: #555555" transform="translate(272.203158 188.677656)scale(0.1 -0.1)">
       <use xlink:href="#DejaVuSans-30"/>
      </g>
     </g>
    </g>
    <g id="xtick_8">
     <g id="line2d_27">
      <path d="M 336.114334 174.079219 
L 336.114334 10.999219 
" clip-path="url(#pfc5cee8ff9)" style="fill: none; stroke: #ffffff; stroke-width: 0.8; stroke-linecap: square"/>
     </g>
     <g id="line2d_28">
      <g>
       <use xlink:href="#m1026e27100" x="336.114334" y="174.079219" style="fill: #555555; stroke: #555555; stroke-width: 0.8"/>
      </g>
     </g>
     <g id="text_16">
      <!-- 50 -->
      <g style="fill: #555555" transform="translate(329.751834 188.677656)scale(0.1 -0.1)">
       <use xlink:href="#DejaVuSans-35"/>
       <use xlink:href="#DejaVuSans-30" x="63.623047"/>
      </g>
     </g>
    </g>
    <g id="xtick_9">
     <g id="line2d_29">
      <path d="M 396.844259 174.079219 
L 396.844259 10.999219 
" clip-path="url(#pfc5cee8ff9)" style="fill: none; stroke: #ffffff; stroke-width: 0.8; stroke-linecap: square"/>
     </g>
     <g id="line2d_30">
      <g>
       <use xlink:href="#m1026e27100" x="396.844259" y="174.079219" style="fill: #555555; stroke: #555555; stroke-width: 0.8"/>
      </g>
     </g>
     <g id="text_17">
      <!-- 100 -->
      <g style="fill: #555555" transform="translate(387.300509 188.677656)scale(0.1 -0.1)">
       <use xlink:href="#DejaVuSans-31"/>
       <use xlink:href="#DejaVuSans-30" x="63.623047"/>
       <use xlink:href="#DejaVuSans-30" x="127.246094"/>
      </g>
     </g>
    </g>
    <g id="xtick_10">
     <g id="line2d_31">
      <path d="M 457.574184 174.079219 
L 457.574184 10.999219 
" clip-path="url(#pfc5cee8ff9)" style="fill: none; stroke: #ffffff; stroke-width: 0.8; stroke-linecap: square"/>
     </g>
     <g id="line2d_32">
      <g>
       <use xlink:href="#m1026e27100" x="457.574184" y="174.079219" style="fill: #555555; stroke: #555555; stroke-width: 0.8"/>
      </g>
     </g>
     <g id="text_18">
      <!-- 150 -->
      <g style="fill: #555555" transform="translate(448.030434 188.677656)scale(0.1 -0.1)">
       <use xlink:href="#DejaVuSans-31"/>
       <use xlink:href="#DejaVuSans-35" x="63.623047"/>
       <use xlink:href="#DejaVuSans-30" x="127.246094"/>
      </g>
     </g>
    </g>
    <g id="text_19">
     <!-- Eigenvalue -->
     <g style="fill: #555555" transform="translate(331.752187 203.875469)scale(0.12 -0.12)">
      <use xlink:href="#DejaVuSans-45"/>
      <use xlink:href="#DejaVuSans-69" x="63.183594"/>
      <use xlink:href="#DejaVuSans-67" x="90.966797"/>
      <use xlink:href="#DejaVuSans-65" x="154.443359"/>
      <use xlink:href="#DejaVuSans-6e" x="215.966797"/>
      <use xlink:href="#DejaVuSans-76" x="279.345703"/>
      <use xlink:href="#DejaVuSans-61" x="338.525391"/>
      <use xlink:href="#DejaVuSans-6c" x="399.804688"/>
      <use xlink:href="#DejaVuSans-75" x="427.587891"/>
      <use xlink:href="#DejaVuSans-65" x="490.966797"/>
     </g>
    </g>
   </g>
   <g id="matplotlib.axis_4">
    <g id="ytick_6">
     <g id="line2d_33">
      <path d="M 266.432537 174.079219 
L 463.373713 174.079219 
" clip-path="url(#pfc5cee8ff9)" style="fill: none; stroke: #ffffff; stroke-width: 0.8; stroke-linecap: square"/>
     </g>
     <g id="line2d_34">
      <g>
       <use xlink:href="#mdbb3398809" x="266.432537" y="174.079219" style="fill: #555555; stroke: #555555; stroke-width: 0.8"/>
      </g>
     </g>
     <g id="text_20">
      <!-- 0.0000 -->
      <g style="fill: #555555" transform="translate(224.441912 177.878438)scale(0.1 -0.1)">
       <use xlink:href="#DejaVuSans-30"/>
       <use xlink:href="#DejaVuSans-2e" x="63.623047"/>
       <use xlink:href="#DejaVuSans-30" x="95.410156"/>
       <use xlink:href="#DejaVuSans-30" x="159.033203"/>
       <use xlink:href="#DejaVuSans-30" x="222.65625"/>
       <use xlink:href="#DejaVuSans-30" x="286.279297"/>
      </g>
     </g>
    </g>
    <g id="ytick_7">
     <g id="line2d_35">
      <path d="M 266.432537 153.694219 
L 463.373713 153.694219 
" clip-path="url(#pfc5cee8ff9)" style="fill: none; stroke: #ffffff; stroke-width: 0.8; stroke-linecap: square"/>
     </g>
     <g id="line2d_36">
      <g>
       <use xlink:href="#mdbb3398809" x="266.432537" y="153.694219" style="fill: #555555; stroke: #555555; stroke-width: 0.8"/>
      </g>
     </g>
     <g id="text_21">
      <!-- 0.0025 -->
      <g style="fill: #555555" transform="translate(224.441912 157.493438)scale(0.1 -0.1)">
       <use xlink:href="#DejaVuSans-30"/>
       <use xlink:href="#DejaVuSans-2e" x="63.623047"/>
       <use xlink:href="#DejaVuSans-30" x="95.410156"/>
       <use xlink:href="#DejaVuSans-30" x="159.033203"/>
       <use xlink:href="#DejaVuSans-32" x="222.65625"/>
       <use xlink:href="#DejaVuSans-35" x="286.279297"/>
      </g>
     </g>
    </g>
    <g id="ytick_8">
     <g id="line2d_37">
      <path d="M 266.432537 133.309219 
L 463.373713 133.309219 
" clip-path="url(#pfc5cee8ff9)" style="fill: none; stroke: #ffffff; stroke-width: 0.8; stroke-linecap: square"/>
     </g>
     <g id="line2d_38">
      <g>
       <use xlink:href="#mdbb3398809" x="266.432537" y="133.309219" style="fill: #555555; stroke: #555555; stroke-width: 0.8"/>
      </g>
     </g>
     <g id="text_22">
      <!-- 0.0050 -->
      <g style="fill: #555555" transform="translate(224.441912 137.108438)scale(0.1 -0.1)">
       <use xlink:href="#DejaVuSans-30"/>
       <use xlink:href="#DejaVuSans-2e" x="63.623047"/>
       <use xlink:href="#DejaVuSans-30" x="95.410156"/>
       <use xlink:href="#DejaVuSans-30" x="159.033203"/>
       <use xlink:href="#DejaVuSans-35" x="222.65625"/>
       <use xlink:href="#DejaVuSans-30" x="286.279297"/>
      </g>
     </g>
    </g>
    <g id="ytick_9">
     <g id="line2d_39">
      <path d="M 266.432537 112.924219 
L 463.373713 112.924219 
" clip-path="url(#pfc5cee8ff9)" style="fill: none; stroke: #ffffff; stroke-width: 0.8; stroke-linecap: square"/>
     </g>
     <g id="line2d_40">
      <g>
       <use xlink:href="#mdbb3398809" x="266.432537" y="112.924219" style="fill: #555555; stroke: #555555; stroke-width: 0.8"/>
      </g>
     </g>
     <g id="text_23">
      <!-- 0.0075 -->
      <g style="fill: #555555" transform="translate(224.441912 116.723438)scale(0.1 -0.1)">
       <defs>
        <path id="DejaVuSans-37" d="M 525 4666 
L 3525 4666 
L 3525 4397 
L 1831 0 
L 1172 0 
L 2766 4134 
L 525 4134 
L 525 4666 
z
" transform="scale(0.015625)"/>
       </defs>
       <use xlink:href="#DejaVuSans-30"/>
       <use xlink:href="#DejaVuSans-2e" x="63.623047"/>
       <use xlink:href="#DejaVuSans-30" x="95.410156"/>
       <use xlink:href="#DejaVuSans-30" x="159.033203"/>
       <use xlink:href="#DejaVuSans-37" x="222.65625"/>
       <use xlink:href="#DejaVuSans-35" x="286.279297"/>
      </g>
     </g>
    </g>
    <g id="ytick_10">
     <g id="line2d_41">
      <path d="M 266.432537 92.539219 
L 463.373713 92.539219 
" clip-path="url(#pfc5cee8ff9)" style="fill: none; stroke: #ffffff; stroke-width: 0.8; stroke-linecap: square"/>
     </g>
     <g id="line2d_42">
      <g>
       <use xlink:href="#mdbb3398809" x="266.432537" y="92.539219" style="fill: #555555; stroke: #555555; stroke-width: 0.8"/>
      </g>
     </g>
     <g id="text_24">
      <!-- 0.0100 -->
      <g style="fill: #555555" transform="translate(224.441912 96.338437)scale(0.1 -0.1)">
       <use xlink:href="#DejaVuSans-30"/>
       <use xlink:href="#DejaVuSans-2e" x="63.623047"/>
       <use xlink:href="#DejaVuSans-30" x="95.410156"/>
       <use xlink:href="#DejaVuSans-31" x="159.033203"/>
       <use xlink:href="#DejaVuSans-30" x="222.65625"/>
       <use xlink:href="#DejaVuSans-30" x="286.279297"/>
      </g>
     </g>
    </g>
    <g id="ytick_11">
     <g id="line2d_43">
      <path d="M 266.432537 72.154219 
L 463.373713 72.154219 
" clip-path="url(#pfc5cee8ff9)" style="fill: none; stroke: #ffffff; stroke-width: 0.8; stroke-linecap: square"/>
     </g>
     <g id="line2d_44">
      <g>
       <use xlink:href="#mdbb3398809" x="266.432537" y="72.154219" style="fill: #555555; stroke: #555555; stroke-width: 0.8"/>
      </g>
     </g>
     <g id="text_25">
      <!-- 0.0125 -->
      <g style="fill: #555555" transform="translate(224.441912 75.953438)scale(0.1 -0.1)">
       <use xlink:href="#DejaVuSans-30"/>
       <use xlink:href="#DejaVuSans-2e" x="63.623047"/>
       <use xlink:href="#DejaVuSans-30" x="95.410156"/>
       <use xlink:href="#DejaVuSans-31" x="159.033203"/>
       <use xlink:href="#DejaVuSans-32" x="222.65625"/>
       <use xlink:href="#DejaVuSans-35" x="286.279297"/>
      </g>
     </g>
    </g>
    <g id="ytick_12">
     <g id="line2d_45">
      <path d="M 266.432537 51.769219 
L 463.373713 51.769219 
" clip-path="url(#pfc5cee8ff9)" style="fill: none; stroke: #ffffff; stroke-width: 0.8; stroke-linecap: square"/>
     </g>
     <g id="line2d_46">
      <g>
       <use xlink:href="#mdbb3398809" x="266.432537" y="51.769219" style="fill: #555555; stroke: #555555; stroke-width: 0.8"/>
      </g>
     </g>
     <g id="text_26">
      <!-- 0.0150 -->
      <g style="fill: #555555" transform="translate(224.441912 55.568438)scale(0.1 -0.1)">
       <use xlink:href="#DejaVuSans-30"/>
       <use xlink:href="#DejaVuSans-2e" x="63.623047"/>
       <use xlink:href="#DejaVuSans-30" x="95.410156"/>
       <use xlink:href="#DejaVuSans-31" x="159.033203"/>
       <use xlink:href="#DejaVuSans-35" x="222.65625"/>
       <use xlink:href="#DejaVuSans-30" x="286.279297"/>
      </g>
     </g>
    </g>
    <g id="ytick_13">
     <g id="line2d_47">
      <path d="M 266.432537 31.384219 
L 463.373713 31.384219 
" clip-path="url(#pfc5cee8ff9)" style="fill: none; stroke: #ffffff; stroke-width: 0.8; stroke-linecap: square"/>
     </g>
     <g id="line2d_48">
      <g>
       <use xlink:href="#mdbb3398809" x="266.432537" y="31.384219" style="fill: #555555; stroke: #555555; stroke-width: 0.8"/>
      </g>
     </g>
     <g id="text_27">
      <!-- 0.0175 -->
      <g style="fill: #555555" transform="translate(224.441912 35.183437)scale(0.1 -0.1)">
       <use xlink:href="#DejaVuSans-30"/>
       <use xlink:href="#DejaVuSans-2e" x="63.623047"/>
       <use xlink:href="#DejaVuSans-30" x="95.410156"/>
       <use xlink:href="#DejaVuSans-31" x="159.033203"/>
       <use xlink:href="#DejaVuSans-37" x="222.65625"/>
       <use xlink:href="#DejaVuSans-35" x="286.279297"/>
      </g>
     </g>
    </g>
    <g id="ytick_14">
     <g id="line2d_49">
      <path d="M 266.432537 10.999219 
L 463.373713 10.999219 
" clip-path="url(#pfc5cee8ff9)" style="fill: none; stroke: #ffffff; stroke-width: 0.8; stroke-linecap: square"/>
     </g>
     <g id="line2d_50">
      <g>
       <use xlink:href="#mdbb3398809" x="266.432537" y="10.999219" style="fill: #555555; stroke: #555555; stroke-width: 0.8"/>
      </g>
     </g>
     <g id="text_28">
      <!-- 0.0200 -->
      <g style="fill: #555555" transform="translate(224.441912 14.798438)scale(0.1 -0.1)">
       <use xlink:href="#DejaVuSans-30"/>
       <use xlink:href="#DejaVuSans-2e" x="63.623047"/>
       <use xlink:href="#DejaVuSans-30" x="95.410156"/>
       <use xlink:href="#DejaVuSans-32" x="159.033203"/>
       <use xlink:href="#DejaVuSans-30" x="222.65625"/>
       <use xlink:href="#DejaVuSans-30" x="286.279297"/>
      </g>
     </g>
    </g>
   </g>
   <g id="patch_30">
    <path d="M 275.389539 174.079219 
L 277.179862 174.079219 
L 277.179862 -4914.308527 
L 275.389539 -4914.308527 
z
" clip-path="url(#pfc5cee8ff9)" style="fill: #348abd; opacity: 0.8"/>
   </g>
   <g id="patch_31">
    <path d="M 277.179862 174.079219 
L 278.970185 174.079219 
L 278.970185 -129.356748 
L 277.179862 -129.356748 
z
" clip-path="url(#pfc5cee8ff9)" style="fill: #348abd; opacity: 0.8"/>
   </g>
   <g id="patch_32">
    <path d="M 278.970185 174.079219 
L 280.760508 174.079219 
L 280.760508 139.067376 
L 278.970185 139.067376 
z
" clip-path="url(#pfc5cee8ff9)" style="fill: #348abd; opacity: 0.8"/>
   </g>
   <g id="patch_33">
    <path d="M 280.760508 174.079219 
L 282.550831 174.079219 
L 282.550831 150.737991 
L 280.760508 150.737991 
z
" clip-path="url(#pfc5cee8ff9)" style="fill: #348abd; opacity: 0.8"/>
   </g>
   <g id="patch_34">
    <path d="M 282.550831 174.079219 
L 284.341154 174.079219 
L 284.341154 139.067376 
L 282.550831 139.067376 
z
" clip-path="url(#pfc5cee8ff9)" style="fill: #348abd; opacity: 0.8"/>
   </g>
   <g id="patch_35">
    <path d="M 284.341154 174.079219 
L 286.131477 174.079219 
L 286.131477 174.079219 
L 284.341154 174.079219 
z
" clip-path="url(#pfc5cee8ff9)" style="fill: #348abd; opacity: 0.8"/>
   </g>
   <g id="patch_36">
    <path d="M 286.131477 174.079219 
L 287.9218 174.079219 
L 287.9218 174.079219 
L 286.131477 174.079219 
z
" clip-path="url(#pfc5cee8ff9)" style="fill: #348abd; opacity: 0.8"/>
   </g>
   <g id="patch_37">
    <path d="M 287.9218 174.079219 
L 289.712123 174.079219 
L 289.712123 162.408605 
L 287.9218 162.408605 
z
" clip-path="url(#pfc5cee8ff9)" style="fill: #348abd; opacity: 0.8"/>
   </g>
   <g id="patch_38">
    <path d="M 289.712123 174.079219 
L 291.502446 174.079219 
L 291.502446 162.408605 
L 289.712123 162.408605 
z
" clip-path="url(#pfc5cee8ff9)" style="fill: #348abd; opacity: 0.8"/>
   </g>
   <g id="patch_39">
    <path d="M 291.502446 174.079219 
L 293.292769 174.079219 
L 293.292769 174.079219 
L 291.502446 174.079219 
z
" clip-path="url(#pfc5cee8ff9)" style="fill: #348abd; opacity: 0.8"/>
   </g>
   <g id="patch_40">
    <path d="M 293.292769 174.079219 
L 295.083092 174.079219 
L 295.083092 174.079219 
L 293.292769 174.079219 
z
" clip-path="url(#pfc5cee8ff9)" style="fill: #348abd; opacity: 0.8"/>
   </g>
   <g id="patch_41">
    <path d="M 295.083092 174.079219 
L 296.873415 174.079219 
L 296.873415 174.079219 
L 295.083092 174.079219 
z
" clip-path="url(#pfc5cee8ff9)" style="fill: #348abd; opacity: 0.8"/>
   </g>
   <g id="patch_42">
    <path d="M 296.873415 174.079219 
L 298.663738 174.079219 
L 298.663738 174.079219 
L 296.873415 174.079219 
z
" clip-path="url(#pfc5cee8ff9)" style="fill: #348abd; opacity: 0.8"/>
   </g>
   <g id="patch_43">
    <path d="M 298.663738 174.079219 
L 300.454061 174.079219 
L 300.454061 174.079219 
L 298.663738 174.079219 
z
" clip-path="url(#pfc5cee8ff9)" style="fill: #348abd; opacity: 0.8"/>
   </g>
   <g id="patch_44">
    <path d="M 300.454061 174.079219 
L 302.244384 174.079219 
L 302.244384 174.079219 
L 300.454061 174.079219 
z
" clip-path="url(#pfc5cee8ff9)" style="fill: #348abd; opacity: 0.8"/>
   </g>
   <g id="patch_45">
    <path d="M 302.244384 174.079219 
L 304.034707 174.079219 
L 304.034707 174.079219 
L 302.244384 174.079219 
z
" clip-path="url(#pfc5cee8ff9)" style="fill: #348abd; opacity: 0.8"/>
   </g>
   <g id="patch_46">
    <path d="M 304.034707 174.079219 
L 305.82503 174.079219 
L 305.82503 174.079219 
L 304.034707 174.079219 
z
" clip-path="url(#pfc5cee8ff9)" style="fill: #348abd; opacity: 0.8"/>
   </g>
   <g id="patch_47">
    <path d="M 305.82503 174.079219 
L 307.615353 174.079219 
L 307.615353 174.079219 
L 305.82503 174.079219 
z
" clip-path="url(#pfc5cee8ff9)" style="fill: #348abd; opacity: 0.8"/>
   </g>
   <g id="patch_48">
    <path d="M 307.615353 174.079219 
L 309.405676 174.079219 
L 309.405676 174.079219 
L 307.615353 174.079219 
z
" clip-path="url(#pfc5cee8ff9)" style="fill: #348abd; opacity: 0.8"/>
   </g>
   <g id="patch_49">
    <path d="M 309.405676 174.079219 
L 311.195999 174.079219 
L 311.195999 174.079219 
L 309.405676 174.079219 
z
" clip-path="url(#pfc5cee8ff9)" style="fill: #348abd; opacity: 0.8"/>
   </g>
   <g id="patch_50">
    <path d="M 311.195999 174.079219 
L 312.986322 174.079219 
L 312.986322 174.079219 
L 311.195999 174.079219 
z
" clip-path="url(#pfc5cee8ff9)" style="fill: #348abd; opacity: 0.8"/>
   </g>
   <g id="patch_51">
    <path d="M 312.986322 174.079219 
L 314.776645 174.079219 
L 314.776645 162.408605 
L 312.986322 162.408605 
z
" clip-path="url(#pfc5cee8ff9)" style="fill: #348abd; opacity: 0.8"/>
   </g>
   <g id="patch_52">
    <path d="M 314.776645 174.079219 
L 316.566968 174.079219 
L 316.566968 174.079219 
L 314.776645 174.079219 
z
" clip-path="url(#pfc5cee8ff9)" style="fill: #348abd; opacity: 0.8"/>
   </g>
   <g id="patch_53">
    <path d="M 316.566968 174.079219 
L 318.357291 174.079219 
L 318.357291 174.079219 
L 316.566968 174.079219 
z
" clip-path="url(#pfc5cee8ff9)" style="fill: #348abd; opacity: 0.8"/>
   </g>
   <g id="patch_54">
    <path d="M 318.357291 174.079219 
L 320.147615 174.079219 
L 320.147615 174.079219 
L 318.357291 174.079219 
z
" clip-path="url(#pfc5cee8ff9)" style="fill: #348abd; opacity: 0.8"/>
   </g>
   <g id="patch_55">
    <path d="M 320.147615 174.079219 
L 321.937938 174.079219 
L 321.937938 174.079219 
L 320.147615 174.079219 
z
" clip-path="url(#pfc5cee8ff9)" style="fill: #348abd; opacity: 0.8"/>
   </g>
   <g id="patch_56">
    <path d="M 321.937938 174.079219 
L 323.728261 174.079219 
L 323.728261 174.079219 
L 321.937938 174.079219 
z
" clip-path="url(#pfc5cee8ff9)" style="fill: #348abd; opacity: 0.8"/>
   </g>
   <g id="patch_57">
    <path d="M 323.728261 174.079219 
L 325.518584 174.079219 
L 325.518584 174.079219 
L 323.728261 174.079219 
z
" clip-path="url(#pfc5cee8ff9)" style="fill: #348abd; opacity: 0.8"/>
   </g>
   <g id="patch_58">
    <path d="M 325.518584 174.079219 
L 327.308907 174.079219 
L 327.308907 174.079219 
L 325.518584 174.079219 
z
" clip-path="url(#pfc5cee8ff9)" style="fill: #348abd; opacity: 0.8"/>
   </g>
   <g id="patch_59">
    <path d="M 327.308907 174.079219 
L 329.09923 174.079219 
L 329.09923 174.079219 
L 327.308907 174.079219 
z
" clip-path="url(#pfc5cee8ff9)" style="fill: #348abd; opacity: 0.8"/>
   </g>
   <g id="patch_60">
    <path d="M 329.09923 174.079219 
L 330.889553 174.079219 
L 330.889553 174.079219 
L 329.09923 174.079219 
z
" clip-path="url(#pfc5cee8ff9)" style="fill: #348abd; opacity: 0.8"/>
   </g>
   <g id="patch_61">
    <path d="M 330.889553 174.079219 
L 332.679876 174.079219 
L 332.679876 174.079219 
L 330.889553 174.079219 
z
" clip-path="url(#pfc5cee8ff9)" style="fill: #348abd; opacity: 0.8"/>
   </g>
   <g id="patch_62">
    <path d="M 332.679876 174.079219 
L 334.470199 174.079219 
L 334.470199 174.079219 
L 332.679876 174.079219 
z
" clip-path="url(#pfc5cee8ff9)" style="fill: #348abd; opacity: 0.8"/>
   </g>
   <g id="patch_63">
    <path d="M 334.470199 174.079219 
L 336.260522 174.079219 
L 336.260522 174.079219 
L 334.470199 174.079219 
z
" clip-path="url(#pfc5cee8ff9)" style="fill: #348abd; opacity: 0.8"/>
   </g>
   <g id="patch_64">
    <path d="M 336.260522 174.079219 
L 338.050845 174.079219 
L 338.050845 174.079219 
L 336.260522 174.079219 
z
" clip-path="url(#pfc5cee8ff9)" style="fill: #348abd; opacity: 0.8"/>
   </g>
   <g id="patch_65">
    <path d="M 338.050845 174.079219 
L 339.841168 174.079219 
L 339.841168 174.079219 
L 338.050845 174.079219 
z
" clip-path="url(#pfc5cee8ff9)" style="fill: #348abd; opacity: 0.8"/>
   </g>
   <g id="patch_66">
    <path d="M 339.841168 174.079219 
L 341.631491 174.079219 
L 341.631491 174.079219 
L 339.841168 174.079219 
z
" clip-path="url(#pfc5cee8ff9)" style="fill: #348abd; opacity: 0.8"/>
   </g>
   <g id="patch_67">
    <path d="M 341.631491 174.079219 
L 343.421814 174.079219 
L 343.421814 174.079219 
L 341.631491 174.079219 
z
" clip-path="url(#pfc5cee8ff9)" style="fill: #348abd; opacity: 0.8"/>
   </g>
   <g id="patch_68">
    <path d="M 343.421814 174.079219 
L 345.212137 174.079219 
L 345.212137 174.079219 
L 343.421814 174.079219 
z
" clip-path="url(#pfc5cee8ff9)" style="fill: #348abd; opacity: 0.8"/>
   </g>
   <g id="patch_69">
    <path d="M 345.212137 174.079219 
L 347.00246 174.079219 
L 347.00246 174.079219 
L 345.212137 174.079219 
z
" clip-path="url(#pfc5cee8ff9)" style="fill: #348abd; opacity: 0.8"/>
   </g>
   <g id="patch_70">
    <path d="M 347.00246 174.079219 
L 348.792783 174.079219 
L 348.792783 174.079219 
L 347.00246 174.079219 
z
" clip-path="url(#pfc5cee8ff9)" style="fill: #348abd; opacity: 0.8"/>
   </g>
   <g id="patch_71">
    <path d="M 348.792783 174.079219 
L 350.583106 174.079219 
L 350.583106 174.079219 
L 348.792783 174.079219 
z
" clip-path="url(#pfc5cee8ff9)" style="fill: #348abd; opacity: 0.8"/>
   </g>
   <g id="patch_72">
    <path d="M 350.583106 174.079219 
L 352.373429 174.079219 
L 352.373429 174.079219 
L 350.583106 174.079219 
z
" clip-path="url(#pfc5cee8ff9)" style="fill: #348abd; opacity: 0.8"/>
   </g>
   <g id="patch_73">
    <path d="M 352.373429 174.079219 
L 354.163752 174.079219 
L 354.163752 174.079219 
L 352.373429 174.079219 
z
" clip-path="url(#pfc5cee8ff9)" style="fill: #348abd; opacity: 0.8"/>
   </g>
   <g id="patch_74">
    <path d="M 354.163752 174.079219 
L 355.954075 174.079219 
L 355.954075 174.079219 
L 354.163752 174.079219 
z
" clip-path="url(#pfc5cee8ff9)" style="fill: #348abd; opacity: 0.8"/>
   </g>
   <g id="patch_75">
    <path d="M 355.954075 174.079219 
L 357.744398 174.079219 
L 357.744398 174.079219 
L 355.954075 174.079219 
z
" clip-path="url(#pfc5cee8ff9)" style="fill: #348abd; opacity: 0.8"/>
   </g>
   <g id="patch_76">
    <path d="M 357.744398 174.079219 
L 359.534721 174.079219 
L 359.534721 174.079219 
L 357.744398 174.079219 
z
" clip-path="url(#pfc5cee8ff9)" style="fill: #348abd; opacity: 0.8"/>
   </g>
   <g id="patch_77">
    <path d="M 359.534721 174.079219 
L 361.325044 174.079219 
L 361.325044 174.079219 
L 359.534721 174.079219 
z
" clip-path="url(#pfc5cee8ff9)" style="fill: #348abd; opacity: 0.8"/>
   </g>
   <g id="patch_78">
    <path d="M 361.325044 174.079219 
L 363.115367 174.079219 
L 363.115367 174.079219 
L 361.325044 174.079219 
z
" clip-path="url(#pfc5cee8ff9)" style="fill: #348abd; opacity: 0.8"/>
   </g>
   <g id="patch_79">
    <path d="M 363.115367 174.079219 
L 364.90569 174.079219 
L 364.90569 174.079219 
L 363.115367 174.079219 
z
" clip-path="url(#pfc5cee8ff9)" style="fill: #348abd; opacity: 0.8"/>
   </g>
   <g id="patch_80">
    <path d="M 364.90569 174.079219 
L 366.696013 174.079219 
L 366.696013 174.079219 
L 364.90569 174.079219 
z
" clip-path="url(#pfc5cee8ff9)" style="fill: #348abd; opacity: 0.8"/>
   </g>
   <g id="patch_81">
    <path d="M 366.696013 174.079219 
L 368.486336 174.079219 
L 368.486336 174.079219 
L 366.696013 174.079219 
z
" clip-path="url(#pfc5cee8ff9)" style="fill: #348abd; opacity: 0.8"/>
   </g>
   <g id="patch_82">
    <path d="M 368.486336 174.079219 
L 370.276659 174.079219 
L 370.276659 174.079219 
L 368.486336 174.079219 
z
" clip-path="url(#pfc5cee8ff9)" style="fill: #348abd; opacity: 0.8"/>
   </g>
   <g id="patch_83">
    <path d="M 370.276659 174.079219 
L 372.066982 174.079219 
L 372.066982 174.079219 
L 370.276659 174.079219 
z
" clip-path="url(#pfc5cee8ff9)" style="fill: #348abd; opacity: 0.8"/>
   </g>
   <g id="patch_84">
    <path d="M 372.066982 174.079219 
L 373.857305 174.079219 
L 373.857305 174.079219 
L 372.066982 174.079219 
z
" clip-path="url(#pfc5cee8ff9)" style="fill: #348abd; opacity: 0.8"/>
   </g>
   <g id="patch_85">
    <path d="M 373.857305 174.079219 
L 375.647628 174.079219 
L 375.647628 174.079219 
L 373.857305 174.079219 
z
" clip-path="url(#pfc5cee8ff9)" style="fill: #348abd; opacity: 0.8"/>
   </g>
   <g id="patch_86">
    <path d="M 375.647628 174.079219 
L 377.437951 174.079219 
L 377.437951 174.079219 
L 375.647628 174.079219 
z
" clip-path="url(#pfc5cee8ff9)" style="fill: #348abd; opacity: 0.8"/>
   </g>
   <g id="patch_87">
    <path d="M 377.437951 174.079219 
L 379.228274 174.079219 
L 379.228274 174.079219 
L 377.437951 174.079219 
z
" clip-path="url(#pfc5cee8ff9)" style="fill: #348abd; opacity: 0.8"/>
   </g>
   <g id="patch_88">
    <path d="M 379.228274 174.079219 
L 381.018597 174.079219 
L 381.018597 174.079219 
L 379.228274 174.079219 
z
" clip-path="url(#pfc5cee8ff9)" style="fill: #348abd; opacity: 0.8"/>
   </g>
   <g id="patch_89">
    <path d="M 381.018597 174.079219 
L 382.80892 174.079219 
L 382.80892 174.079219 
L 381.018597 174.079219 
z
" clip-path="url(#pfc5cee8ff9)" style="fill: #348abd; opacity: 0.8"/>
   </g>
   <g id="patch_90">
    <path d="M 382.80892 174.079219 
L 384.599244 174.079219 
L 384.599244 174.079219 
L 382.80892 174.079219 
z
" clip-path="url(#pfc5cee8ff9)" style="fill: #348abd; opacity: 0.8"/>
   </g>
   <g id="patch_91">
    <path d="M 384.599244 174.079219 
L 386.389567 174.079219 
L 386.389567 174.079219 
L 384.599244 174.079219 
z
" clip-path="url(#pfc5cee8ff9)" style="fill: #348abd; opacity: 0.8"/>
   </g>
   <g id="patch_92">
    <path d="M 386.389567 174.079219 
L 388.17989 174.079219 
L 388.17989 174.079219 
L 386.389567 174.079219 
z
" clip-path="url(#pfc5cee8ff9)" style="fill: #348abd; opacity: 0.8"/>
   </g>
   <g id="patch_93">
    <path d="M 388.17989 174.079219 
L 389.970213 174.079219 
L 389.970213 174.079219 
L 388.17989 174.079219 
z
" clip-path="url(#pfc5cee8ff9)" style="fill: #348abd; opacity: 0.8"/>
   </g>
   <g id="patch_94">
    <path d="M 389.970213 174.079219 
L 391.760536 174.079219 
L 391.760536 174.079219 
L 389.970213 174.079219 
z
" clip-path="url(#pfc5cee8ff9)" style="fill: #348abd; opacity: 0.8"/>
   </g>
   <g id="patch_95">
    <path d="M 391.760536 174.079219 
L 393.550859 174.079219 
L 393.550859 174.079219 
L 391.760536 174.079219 
z
" clip-path="url(#pfc5cee8ff9)" style="fill: #348abd; opacity: 0.8"/>
   </g>
   <g id="patch_96">
    <path d="M 393.550859 174.079219 
L 395.341182 174.079219 
L 395.341182 174.079219 
L 393.550859 174.079219 
z
" clip-path="url(#pfc5cee8ff9)" style="fill: #348abd; opacity: 0.8"/>
   </g>
   <g id="patch_97">
    <path d="M 395.341182 174.079219 
L 397.131505 174.079219 
L 397.131505 174.079219 
L 395.341182 174.079219 
z
" clip-path="url(#pfc5cee8ff9)" style="fill: #348abd; opacity: 0.8"/>
   </g>
   <g id="patch_98">
    <path d="M 397.131505 174.079219 
L 398.921828 174.079219 
L 398.921828 174.079219 
L 397.131505 174.079219 
z
" clip-path="url(#pfc5cee8ff9)" style="fill: #348abd; opacity: 0.8"/>
   </g>
   <g id="patch_99">
    <path d="M 398.921828 174.079219 
L 400.712151 174.079219 
L 400.712151 174.079219 
L 398.921828 174.079219 
z
" clip-path="url(#pfc5cee8ff9)" style="fill: #348abd; opacity: 0.8"/>
   </g>
   <g id="patch_100">
    <path d="M 400.712151 174.079219 
L 402.502474 174.079219 
L 402.502474 174.079219 
L 400.712151 174.079219 
z
" clip-path="url(#pfc5cee8ff9)" style="fill: #348abd; opacity: 0.8"/>
   </g>
   <g id="patch_101">
    <path d="M 402.502474 174.079219 
L 404.292797 174.079219 
L 404.292797 174.079219 
L 402.502474 174.079219 
z
" clip-path="url(#pfc5cee8ff9)" style="fill: #348abd; opacity: 0.8"/>
   </g>
   <g id="patch_102">
    <path d="M 404.292797 174.079219 
L 406.08312 174.079219 
L 406.08312 174.079219 
L 404.292797 174.079219 
z
" clip-path="url(#pfc5cee8ff9)" style="fill: #348abd; opacity: 0.8"/>
   </g>
   <g id="patch_103">
    <path d="M 406.08312 174.079219 
L 407.873443 174.079219 
L 407.873443 174.079219 
L 406.08312 174.079219 
z
" clip-path="url(#pfc5cee8ff9)" style="fill: #348abd; opacity: 0.8"/>
   </g>
   <g id="patch_104">
    <path d="M 407.873443 174.079219 
L 409.663766 174.079219 
L 409.663766 174.079219 
L 407.873443 174.079219 
z
" clip-path="url(#pfc5cee8ff9)" style="fill: #348abd; opacity: 0.8"/>
   </g>
   <g id="patch_105">
    <path d="M 409.663766 174.079219 
L 411.454089 174.079219 
L 411.454089 174.079219 
L 409.663766 174.079219 
z
" clip-path="url(#pfc5cee8ff9)" style="fill: #348abd; opacity: 0.8"/>
   </g>
   <g id="patch_106">
    <path d="M 411.454089 174.079219 
L 413.244412 174.079219 
L 413.244412 174.079219 
L 411.454089 174.079219 
z
" clip-path="url(#pfc5cee8ff9)" style="fill: #348abd; opacity: 0.8"/>
   </g>
   <g id="patch_107">
    <path d="M 413.244412 174.079219 
L 415.034735 174.079219 
L 415.034735 174.079219 
L 413.244412 174.079219 
z
" clip-path="url(#pfc5cee8ff9)" style="fill: #348abd; opacity: 0.8"/>
   </g>
   <g id="patch_108">
    <path d="M 415.034735 174.079219 
L 416.825058 174.079219 
L 416.825058 174.079219 
L 415.034735 174.079219 
z
" clip-path="url(#pfc5cee8ff9)" style="fill: #348abd; opacity: 0.8"/>
   </g>
   <g id="patch_109">
    <path d="M 416.825058 174.079219 
L 418.615381 174.079219 
L 418.615381 174.079219 
L 416.825058 174.079219 
z
" clip-path="url(#pfc5cee8ff9)" style="fill: #348abd; opacity: 0.8"/>
   </g>
   <g id="patch_110">
    <path d="M 418.615381 174.079219 
L 420.405704 174.079219 
L 420.405704 174.079219 
L 418.615381 174.079219 
z
" clip-path="url(#pfc5cee8ff9)" style="fill: #348abd; opacity: 0.8"/>
   </g>
   <g id="patch_111">
    <path d="M 420.405704 174.079219 
L 422.196027 174.079219 
L 422.196027 174.079219 
L 420.405704 174.079219 
z
" clip-path="url(#pfc5cee8ff9)" style="fill: #348abd; opacity: 0.8"/>
   </g>
   <g id="patch_112">
    <path d="M 422.196027 174.079219 
L 423.98635 174.079219 
L 423.98635 174.079219 
L 422.196027 174.079219 
z
" clip-path="url(#pfc5cee8ff9)" style="fill: #348abd; opacity: 0.8"/>
   </g>
   <g id="patch_113">
    <path d="M 423.98635 174.079219 
L 425.776673 174.079219 
L 425.776673 174.079219 
L 423.98635 174.079219 
z
" clip-path="url(#pfc5cee8ff9)" style="fill: #348abd; opacity: 0.8"/>
   </g>
   <g id="patch_114">
    <path d="M 425.776673 174.079219 
L 427.566996 174.079219 
L 427.566996 174.079219 
L 425.776673 174.079219 
z
" clip-path="url(#pfc5cee8ff9)" style="fill: #348abd; opacity: 0.8"/>
   </g>
   <g id="patch_115">
    <path d="M 427.566996 174.079219 
L 429.357319 174.079219 
L 429.357319 174.079219 
L 427.566996 174.079219 
z
" clip-path="url(#pfc5cee8ff9)" style="fill: #348abd; opacity: 0.8"/>
   </g>
   <g id="patch_116">
    <path d="M 429.357319 174.079219 
L 431.147642 174.079219 
L 431.147642 174.079219 
L 429.357319 174.079219 
z
" clip-path="url(#pfc5cee8ff9)" style="fill: #348abd; opacity: 0.8"/>
   </g>
   <g id="patch_117">
    <path d="M 431.147642 174.079219 
L 432.937965 174.079219 
L 432.937965 174.079219 
L 431.147642 174.079219 
z
" clip-path="url(#pfc5cee8ff9)" style="fill: #348abd; opacity: 0.8"/>
   </g>
   <g id="patch_118">
    <path d="M 432.937965 174.079219 
L 434.728288 174.079219 
L 434.728288 174.079219 
L 432.937965 174.079219 
z
" clip-path="url(#pfc5cee8ff9)" style="fill: #348abd; opacity: 0.8"/>
   </g>
   <g id="patch_119">
    <path d="M 434.728288 174.079219 
L 436.518611 174.079219 
L 436.518611 174.079219 
L 434.728288 174.079219 
z
" clip-path="url(#pfc5cee8ff9)" style="fill: #348abd; opacity: 0.8"/>
   </g>
   <g id="patch_120">
    <path d="M 436.518611 174.079219 
L 438.308934 174.079219 
L 438.308934 174.079219 
L 436.518611 174.079219 
z
" clip-path="url(#pfc5cee8ff9)" style="fill: #348abd; opacity: 0.8"/>
   </g>
   <g id="patch_121">
    <path d="M 438.308934 174.079219 
L 440.099257 174.079219 
L 440.099257 174.079219 
L 438.308934 174.079219 
z
" clip-path="url(#pfc5cee8ff9)" style="fill: #348abd; opacity: 0.8"/>
   </g>
   <g id="patch_122">
    <path d="M 440.099257 174.079219 
L 441.88958 174.079219 
L 441.88958 174.079219 
L 440.099257 174.079219 
z
" clip-path="url(#pfc5cee8ff9)" style="fill: #348abd; opacity: 0.8"/>
   </g>
   <g id="patch_123">
    <path d="M 441.88958 174.079219 
L 443.679903 174.079219 
L 443.679903 174.079219 
L 441.88958 174.079219 
z
" clip-path="url(#pfc5cee8ff9)" style="fill: #348abd; opacity: 0.8"/>
   </g>
   <g id="patch_124">
    <path d="M 443.679903 174.079219 
L 445.470226 174.079219 
L 445.470226 174.079219 
L 443.679903 174.079219 
z
" clip-path="url(#pfc5cee8ff9)" style="fill: #348abd; opacity: 0.8"/>
   </g>
   <g id="patch_125">
    <path d="M 445.470226 174.079219 
L 447.260549 174.079219 
L 447.260549 174.079219 
L 445.470226 174.079219 
z
" clip-path="url(#pfc5cee8ff9)" style="fill: #348abd; opacity: 0.8"/>
   </g>
   <g id="patch_126">
    <path d="M 447.260549 174.079219 
L 449.050872 174.079219 
L 449.050872 174.079219 
L 447.260549 174.079219 
z
" clip-path="url(#pfc5cee8ff9)" style="fill: #348abd; opacity: 0.8"/>
   </g>
   <g id="patch_127">
    <path d="M 449.050872 174.079219 
L 450.841196 174.079219 
L 450.841196 174.079219 
L 449.050872 174.079219 
z
" clip-path="url(#pfc5cee8ff9)" style="fill: #348abd; opacity: 0.8"/>
   </g>
   <g id="patch_128">
    <path d="M 450.841196 174.079219 
L 452.631519 174.079219 
L 452.631519 174.079219 
L 450.841196 174.079219 
z
" clip-path="url(#pfc5cee8ff9)" style="fill: #348abd; opacity: 0.8"/>
   </g>
   <g id="patch_129">
    <path d="M 452.631519 174.079219 
L 454.421842 174.079219 
L 454.421842 162.408605 
L 452.631519 162.408605 
z
" clip-path="url(#pfc5cee8ff9)" style="fill: #348abd; opacity: 0.8"/>
   </g>
   <g id="line2d_51">
    <path d="M 275.384408 174.079219 
L 275.527302 174.079219 
L 275.528316 -1 
M 278.669142 -1 
L 278.790047 174.079219 
L 281.457401 174.079219 
L 281.457401 174.079219 
" clip-path="url(#pfc5cee8ff9)" style="fill: none; stroke: #e24a33; stroke-width: 1.5; stroke-linecap: square"/>
   </g>
   <g id="patch_130">
    <path d="M 266.432537 174.079219 
L 266.432537 10.999219 
" style="fill: none; stroke: #ffffff; stroke-linejoin: miter; stroke-linecap: square"/>
   </g>
   <g id="patch_131">
    <path d="M 463.373713 174.079219 
L 463.373713 10.999219 
" style="fill: none; stroke: #ffffff; stroke-linejoin: miter; stroke-linecap: square"/>
   </g>
   <g id="patch_132">
    <path d="M 266.432537 174.079219 
L 463.373713 174.079219 
" style="fill: none; stroke: #ffffff; stroke-linejoin: miter; stroke-linecap: square"/>
   </g>
   <g id="patch_133">
    <path d="M 266.432537 10.999219 
L 463.373713 10.999219 
" style="fill: none; stroke: #ffffff; stroke-linejoin: miter; stroke-linecap: square"/>
   </g>
   <g id="legend_2">
    <g id="patch_134">
     <path d="M 330.298713 48.355469 
L 456.373713 48.355469 
Q 458.373713 48.355469 458.373713 46.355469 
L 458.373713 17.999219 
Q 458.373713 15.999219 456.373713 15.999219 
L 330.298713 15.999219 
Q 328.298713 15.999219 328.298713 17.999219 
L 328.298713 46.355469 
Q 328.298713 48.355469 330.298713 48.355469 
z
" style="fill: #e5e5e5; opacity: 0.8; stroke: #cccccc; stroke-width: 0.5; stroke-linejoin: miter"/>
    </g>
    <g id="line2d_52">
     <path d="M 332.298713 24.097656 
L 342.298713 24.097656 
L 352.298713 24.097656 
" style="fill: none; stroke: #e24a33; stroke-width: 1.5; stroke-linecap: square"/>
    </g>
    <g id="text_29">
     <!-- MP -->
     <g transform="translate(360.298713 27.597656)scale(0.1 -0.1)">
      <use xlink:href="#DejaVuSans-4d"/>
      <use xlink:href="#DejaVuSans-50" x="86.279297"/>
     </g>
    </g>
    <g id="patch_135">
     <path d="M 332.298713 42.275781 
L 352.298713 42.275781 
L 352.298713 35.275781 
L 332.298713 35.275781 
z
" style="fill: #348abd; opacity: 0.8"/>
    </g>
    <g id="text_30">
     <!-- Correlated eigvals. -->
     <g transform="translate(360.298713 42.275781)scale(0.1 -0.1)">
      <defs>
       <path id="DejaVuSans-43" d="M 4122 4306 
L 4122 3641 
Q 3803 3938 3442 4084 
Q 3081 4231 2675 4231 
Q 1875 4231 1450 3742 
Q 1025 3253 1025 2328 
Q 1025 1406 1450 917 
Q 1875 428 2675 428 
Q 3081 428 3442 575 
Q 3803 722 4122 1019 
L 4122 359 
Q 3791 134 3420 21 
Q 3050 -91 2638 -91 
Q 1578 -91 968 557 
Q 359 1206 359 2328 
Q 359 3453 968 4101 
Q 1578 4750 2638 4750 
Q 3056 4750 3426 4639 
Q 3797 4528 4122 4306 
z
" transform="scale(0.015625)"/>
       <path id="DejaVuSans-6f" d="M 1959 3097 
Q 1497 3097 1228 2736 
Q 959 2375 959 1747 
Q 959 1119 1226 758 
Q 1494 397 1959 397 
Q 2419 397 2687 759 
Q 2956 1122 2956 1747 
Q 2956 2369 2687 2733 
Q 2419 3097 1959 3097 
z
M 1959 3584 
Q 2709 3584 3137 3096 
Q 3566 2609 3566 1747 
Q 3566 888 3137 398 
Q 2709 -91 1959 -91 
Q 1206 -91 779 398 
Q 353 888 353 1747 
Q 353 2609 779 3096 
Q 1206 3584 1959 3584 
z
" transform="scale(0.015625)"/>
       <path id="DejaVuSans-72" d="M 2631 2963 
Q 2534 3019 2420 3045 
Q 2306 3072 2169 3072 
Q 1681 3072 1420 2755 
Q 1159 2438 1159 1844 
L 1159 0 
L 581 0 
L 581 3500 
L 1159 3500 
L 1159 2956 
Q 1341 3275 1631 3429 
Q 1922 3584 2338 3584 
Q 2397 3584 2469 3576 
Q 2541 3569 2628 3553 
L 2631 2963 
z
" transform="scale(0.015625)"/>
       <path id="DejaVuSans-74" d="M 1172 4494 
L 1172 3500 
L 2356 3500 
L 2356 3053 
L 1172 3053 
L 1172 1153 
Q 1172 725 1289 603 
Q 1406 481 1766 481 
L 2356 481 
L 2356 0 
L 1766 0 
Q 1100 0 847 248 
Q 594 497 594 1153 
L 594 3053 
L 172 3053 
L 172 3500 
L 594 3500 
L 594 4494 
L 1172 4494 
z
" transform="scale(0.015625)"/>
      </defs>
      <use xlink:href="#DejaVuSans-43"/>
      <use xlink:href="#DejaVuSans-6f" x="69.824219"/>
      <use xlink:href="#DejaVuSans-72" x="131.005859"/>
      <use xlink:href="#DejaVuSans-72" x="170.369141"/>
      <use xlink:href="#DejaVuSans-65" x="209.232422"/>
      <use xlink:href="#DejaVuSans-6c" x="270.755859"/>
      <use xlink:href="#DejaVuSans-61" x="298.539062"/>
      <use xlink:href="#DejaVuSans-74" x="359.818359"/>
      <use xlink:href="#DejaVuSans-65" x="399.027344"/>
      <use xlink:href="#DejaVuSans-64" x="460.550781"/>
      <use xlink:href="#DejaVuSans-20" x="524.027344"/>
      <use xlink:href="#DejaVuSans-65" x="555.814453"/>
      <use xlink:href="#DejaVuSans-69" x="617.337891"/>
      <use xlink:href="#DejaVuSans-67" x="645.121094"/>
      <use xlink:href="#DejaVuSans-76" x="708.597656"/>
      <use xlink:href="#DejaVuSans-61" x="767.777344"/>
      <use xlink:href="#DejaVuSans-6c" x="829.056641"/>
      <use xlink:href="#DejaVuSans-73" x="856.839844"/>
      <use xlink:href="#DejaVuSans-2e" x="908.939453"/>
     </g>
    </g>
   </g>
  </g>
  <g id="axes_3">
   <g id="patch_136">
    <path d="M 502.761949 174.079219 
L 699.703125 174.079219 
L 699.703125 10.999219 
L 502.761949 10.999219 
z
" style="fill: #e5e5e5"/>
   </g>
   <g id="matplotlib.axis_5">
    <g id="xtick_11">
     <g id="line2d_53">
      <path d="M 511.71382 174.079219 
L 511.71382 10.999219 
" clip-path="url(#pfe800339ad)" style="fill: none; stroke: #ffffff; stroke-width: 0.8; stroke-linecap: square"/>
     </g>
     <g id="line2d_54">
      <g>
       <use xlink:href="#m1026e27100" x="511.71382" y="174.079219" style="fill: #555555; stroke: #555555; stroke-width: 0.8"/>
      </g>
     </g>
     <g id="text_31">
      <!-- 0 -->
      <g style="fill: #555555" transform="translate(508.53257 188.677656)scale(0.1 -0.1)">
       <use xlink:href="#DejaVuSans-30"/>
      </g>
     </g>
    </g>
    <g id="xtick_12">
     <g id="line2d_55">
      <path d="M 568.751579 174.079219 
L 568.751579 10.999219 
" clip-path="url(#pfe800339ad)" style="fill: none; stroke: #ffffff; stroke-width: 0.8; stroke-linecap: square"/>
     </g>
     <g id="line2d_56">
      <g>
       <use xlink:href="#m1026e27100" x="568.751579" y="174.079219" style="fill: #555555; stroke: #555555; stroke-width: 0.8"/>
      </g>
     </g>
     <g id="text_32">
      <!-- 2 -->
      <g style="fill: #555555" transform="translate(565.570329 188.677656)scale(0.1 -0.1)">
       <use xlink:href="#DejaVuSans-32"/>
      </g>
     </g>
    </g>
    <g id="xtick_13">
     <g id="line2d_57">
      <path d="M 625.789338 174.079219 
L 625.789338 10.999219 
" clip-path="url(#pfe800339ad)" style="fill: none; stroke: #ffffff; stroke-width: 0.8; stroke-linecap: square"/>
     </g>
     <g id="line2d_58">
      <g>
       <use xlink:href="#m1026e27100" x="625.789338" y="174.079219" style="fill: #555555; stroke: #555555; stroke-width: 0.8"/>
      </g>
     </g>
     <g id="text_33">
      <!-- 4 -->
      <g style="fill: #555555" transform="translate(622.608088 188.677656)scale(0.1 -0.1)">
       <use xlink:href="#DejaVuSans-34"/>
      </g>
     </g>
    </g>
    <g id="xtick_14">
     <g id="line2d_59">
      <path d="M 682.827097 174.079219 
L 682.827097 10.999219 
" clip-path="url(#pfe800339ad)" style="fill: none; stroke: #ffffff; stroke-width: 0.8; stroke-linecap: square"/>
     </g>
     <g id="line2d_60">
      <g>
       <use xlink:href="#m1026e27100" x="682.827097" y="174.079219" style="fill: #555555; stroke: #555555; stroke-width: 0.8"/>
      </g>
     </g>
     <g id="text_34">
      <!-- 6 -->
      <g style="fill: #555555" transform="translate(679.645847 188.677656)scale(0.1 -0.1)">
       <use xlink:href="#DejaVuSans-36"/>
      </g>
     </g>
    </g>
    <g id="text_35">
     <!-- Eigenvalue -->
     <g style="fill: #555555" transform="translate(568.081599 203.875469)scale(0.12 -0.12)">
      <use xlink:href="#DejaVuSans-45"/>
      <use xlink:href="#DejaVuSans-69" x="63.183594"/>
      <use xlink:href="#DejaVuSans-67" x="90.966797"/>
      <use xlink:href="#DejaVuSans-65" x="154.443359"/>
      <use xlink:href="#DejaVuSans-6e" x="215.966797"/>
      <use xlink:href="#DejaVuSans-76" x="279.345703"/>
      <use xlink:href="#DejaVuSans-61" x="338.525391"/>
      <use xlink:href="#DejaVuSans-6c" x="399.804688"/>
      <use xlink:href="#DejaVuSans-75" x="427.587891"/>
      <use xlink:href="#DejaVuSans-65" x="490.966797"/>
     </g>
    </g>
   </g>
   <g id="matplotlib.axis_6">
    <g id="ytick_15">
     <g id="line2d_61">
      <path d="M 502.761949 174.079219 
L 699.703125 174.079219 
" clip-path="url(#pfe800339ad)" style="fill: none; stroke: #ffffff; stroke-width: 0.8; stroke-linecap: square"/>
     </g>
     <g id="line2d_62">
      <g>
       <use xlink:href="#mdbb3398809" x="502.761949" y="174.079219" style="fill: #555555; stroke: #555555; stroke-width: 0.8"/>
      </g>
     </g>
     <g id="text_36">
      <!-- 0.00 -->
      <g style="fill: #555555" transform="translate(473.496324 177.878438)scale(0.1 -0.1)">
       <use xlink:href="#DejaVuSans-30"/>
       <use xlink:href="#DejaVuSans-2e" x="63.623047"/>
       <use xlink:href="#DejaVuSans-30" x="95.410156"/>
       <use xlink:href="#DejaVuSans-30" x="159.033203"/>
      </g>
     </g>
    </g>
    <g id="ytick_16">
     <g id="line2d_63">
      <path d="M 502.761949 152.17191 
L 699.703125 152.17191 
" clip-path="url(#pfe800339ad)" style="fill: none; stroke: #ffffff; stroke-width: 0.8; stroke-linecap: square"/>
     </g>
     <g id="line2d_64">
      <g>
       <use xlink:href="#mdbb3398809" x="502.761949" y="152.17191" style="fill: #555555; stroke: #555555; stroke-width: 0.8"/>
      </g>
     </g>
     <g id="text_37">
      <!-- 0.25 -->
      <g style="fill: #555555" transform="translate(473.496324 155.971129)scale(0.1 -0.1)">
       <use xlink:href="#DejaVuSans-30"/>
       <use xlink:href="#DejaVuSans-2e" x="63.623047"/>
       <use xlink:href="#DejaVuSans-32" x="95.410156"/>
       <use xlink:href="#DejaVuSans-35" x="159.033203"/>
      </g>
     </g>
    </g>
    <g id="ytick_17">
     <g id="line2d_65">
      <path d="M 502.761949 130.264602 
L 699.703125 130.264602 
" clip-path="url(#pfe800339ad)" style="fill: none; stroke: #ffffff; stroke-width: 0.8; stroke-linecap: square"/>
     </g>
     <g id="line2d_66">
      <g>
       <use xlink:href="#mdbb3398809" x="502.761949" y="130.264602" style="fill: #555555; stroke: #555555; stroke-width: 0.8"/>
      </g>
     </g>
     <g id="text_38">
      <!-- 0.50 -->
      <g style="fill: #555555" transform="translate(473.496324 134.063821)scale(0.1 -0.1)">
       <use xlink:href="#DejaVuSans-30"/>
       <use xlink:href="#DejaVuSans-2e" x="63.623047"/>
       <use xlink:href="#DejaVuSans-35" x="95.410156"/>
       <use xlink:href="#DejaVuSans-30" x="159.033203"/>
      </g>
     </g>
    </g>
    <g id="ytick_18">
     <g id="line2d_67">
      <path d="M 502.761949 108.357294 
L 699.703125 108.357294 
" clip-path="url(#pfe800339ad)" style="fill: none; stroke: #ffffff; stroke-width: 0.8; stroke-linecap: square"/>
     </g>
     <g id="line2d_68">
      <g>
       <use xlink:href="#mdbb3398809" x="502.761949" y="108.357294" style="fill: #555555; stroke: #555555; stroke-width: 0.8"/>
      </g>
     </g>
     <g id="text_39">
      <!-- 0.75 -->
      <g style="fill: #555555" transform="translate(473.496324 112.156513)scale(0.1 -0.1)">
       <use xlink:href="#DejaVuSans-30"/>
       <use xlink:href="#DejaVuSans-2e" x="63.623047"/>
       <use xlink:href="#DejaVuSans-37" x="95.410156"/>
       <use xlink:href="#DejaVuSans-35" x="159.033203"/>
      </g>
     </g>
    </g>
    <g id="ytick_19">
     <g id="line2d_69">
      <path d="M 502.761949 86.449986 
L 699.703125 86.449986 
" clip-path="url(#pfe800339ad)" style="fill: none; stroke: #ffffff; stroke-width: 0.8; stroke-linecap: square"/>
     </g>
     <g id="line2d_70">
      <g>
       <use xlink:href="#mdbb3398809" x="502.761949" y="86.449986" style="fill: #555555; stroke: #555555; stroke-width: 0.8"/>
      </g>
     </g>
     <g id="text_40">
      <!-- 1.00 -->
      <g style="fill: #555555" transform="translate(473.496324 90.249204)scale(0.1 -0.1)">
       <use xlink:href="#DejaVuSans-31"/>
       <use xlink:href="#DejaVuSans-2e" x="63.623047"/>
       <use xlink:href="#DejaVuSans-30" x="95.410156"/>
       <use xlink:href="#DejaVuSans-30" x="159.033203"/>
      </g>
     </g>
    </g>
    <g id="ytick_20">
     <g id="line2d_71">
      <path d="M 502.761949 64.542677 
L 699.703125 64.542677 
" clip-path="url(#pfe800339ad)" style="fill: none; stroke: #ffffff; stroke-width: 0.8; stroke-linecap: square"/>
     </g>
     <g id="line2d_72">
      <g>
       <use xlink:href="#mdbb3398809" x="502.761949" y="64.542677" style="fill: #555555; stroke: #555555; stroke-width: 0.8"/>
      </g>
     </g>
     <g id="text_41">
      <!-- 1.25 -->
      <g style="fill: #555555" transform="translate(473.496324 68.341896)scale(0.1 -0.1)">
       <use xlink:href="#DejaVuSans-31"/>
       <use xlink:href="#DejaVuSans-2e" x="63.623047"/>
       <use xlink:href="#DejaVuSans-32" x="95.410156"/>
       <use xlink:href="#DejaVuSans-35" x="159.033203"/>
      </g>
     </g>
    </g>
    <g id="ytick_21">
     <g id="line2d_73">
      <path d="M 502.761949 42.635369 
L 699.703125 42.635369 
" clip-path="url(#pfe800339ad)" style="fill: none; stroke: #ffffff; stroke-width: 0.8; stroke-linecap: square"/>
     </g>
     <g id="line2d_74">
      <g>
       <use xlink:href="#mdbb3398809" x="502.761949" y="42.635369" style="fill: #555555; stroke: #555555; stroke-width: 0.8"/>
      </g>
     </g>
     <g id="text_42">
      <!-- 1.50 -->
      <g style="fill: #555555" transform="translate(473.496324 46.434588)scale(0.1 -0.1)">
       <use xlink:href="#DejaVuSans-31"/>
       <use xlink:href="#DejaVuSans-2e" x="63.623047"/>
       <use xlink:href="#DejaVuSans-35" x="95.410156"/>
       <use xlink:href="#DejaVuSans-30" x="159.033203"/>
      </g>
     </g>
    </g>
    <g id="ytick_22">
     <g id="line2d_75">
      <path d="M 502.761949 20.728061 
L 699.703125 20.728061 
" clip-path="url(#pfe800339ad)" style="fill: none; stroke: #ffffff; stroke-width: 0.8; stroke-linecap: square"/>
     </g>
     <g id="line2d_76">
      <g>
       <use xlink:href="#mdbb3398809" x="502.761949" y="20.728061" style="fill: #555555; stroke: #555555; stroke-width: 0.8"/>
      </g>
     </g>
     <g id="text_43">
      <!-- 1.75 -->
      <g style="fill: #555555" transform="translate(473.496324 24.527279)scale(0.1 -0.1)">
       <use xlink:href="#DejaVuSans-31"/>
       <use xlink:href="#DejaVuSans-2e" x="63.623047"/>
       <use xlink:href="#DejaVuSans-37" x="95.410156"/>
       <use xlink:href="#DejaVuSans-35" x="159.033203"/>
      </g>
     </g>
    </g>
   </g>
   <g id="patch_137">
    <path d="M 511.834283 174.079219 
L 516.946196 174.079219 
L 516.946196 18.764933 
L 511.834283 18.764933 
z
" clip-path="url(#pfe800339ad)" style="fill: #348abd; opacity: 0.8"/>
   </g>
   <g id="patch_138">
    <path d="M 516.946196 174.079219 
L 522.05811 174.079219 
L 522.05811 70.883821 
L 516.946196 70.883821 
z
" clip-path="url(#pfe800339ad)" style="fill: #348abd; opacity: 0.8"/>
   </g>
   <g id="patch_139">
    <path d="M 522.05811 174.079219 
L 527.170023 174.079219 
L 527.170023 111.536553 
L 522.05811 111.536553 
z
" clip-path="url(#pfe800339ad)" style="fill: #348abd; opacity: 0.8"/>
   </g>
   <g id="patch_140">
    <path d="M 527.170023 174.079219 
L 532.281937 174.079219 
L 532.281937 128.214597 
L 527.170023 128.214597 
z
" clip-path="url(#pfe800339ad)" style="fill: #348abd; opacity: 0.8"/>
   </g>
   <g id="patch_141">
    <path d="M 532.281937 174.079219 
L 537.39385 174.079219 
L 537.39385 140.723131 
L 532.281937 140.723131 
z
" clip-path="url(#pfe800339ad)" style="fill: #348abd; opacity: 0.8"/>
   </g>
   <g id="patch_142">
    <path d="M 537.39385 174.079219 
L 542.505763 174.079219 
L 542.505763 151.146908 
L 537.39385 151.146908 
z
" clip-path="url(#pfe800339ad)" style="fill: #348abd; opacity: 0.8"/>
   </g>
   <g id="patch_143">
    <path d="M 542.505763 174.079219 
L 547.617677 174.079219 
L 547.617677 157.401175 
L 542.505763 157.401175 
z
" clip-path="url(#pfe800339ad)" style="fill: #348abd; opacity: 0.8"/>
   </g>
   <g id="patch_144">
    <path d="M 547.617677 174.079219 
L 552.72959 174.079219 
L 552.72959 162.613063 
L 547.617677 162.613063 
z
" clip-path="url(#pfe800339ad)" style="fill: #348abd; opacity: 0.8"/>
   </g>
   <g id="patch_145">
    <path d="M 552.72959 174.079219 
L 557.841504 174.079219 
L 557.841504 163.655441 
L 552.72959 163.655441 
z
" clip-path="url(#pfe800339ad)" style="fill: #348abd; opacity: 0.8"/>
   </g>
   <g id="patch_146">
    <path d="M 557.841504 174.079219 
L 562.953417 174.079219 
L 562.953417 168.86733 
L 557.841504 168.86733 
z
" clip-path="url(#pfe800339ad)" style="fill: #348abd; opacity: 0.8"/>
   </g>
   <g id="patch_147">
    <path d="M 562.953417 174.079219 
L 568.065331 174.079219 
L 568.065331 169.909708 
L 562.953417 169.909708 
z
" clip-path="url(#pfe800339ad)" style="fill: #348abd; opacity: 0.8"/>
   </g>
   <g id="patch_148">
    <path d="M 568.065331 174.079219 
L 573.177244 174.079219 
L 573.177244 170.952085 
L 568.065331 170.952085 
z
" clip-path="url(#pfe800339ad)" style="fill: #348abd; opacity: 0.8"/>
   </g>
   <g id="patch_149">
    <path d="M 573.177244 174.079219 
L 578.289158 174.079219 
L 578.289158 171.994463 
L 573.177244 171.994463 
z
" clip-path="url(#pfe800339ad)" style="fill: #348abd; opacity: 0.8"/>
   </g>
   <g id="patch_150">
    <path d="M 578.289158 174.079219 
L 583.401071 174.079219 
L 583.401071 173.036841 
L 578.289158 173.036841 
z
" clip-path="url(#pfe800339ad)" style="fill: #348abd; opacity: 0.8"/>
   </g>
   <g id="patch_151">
    <path d="M 583.401071 174.079219 
L 588.512984 174.079219 
L 588.512984 171.994463 
L 583.401071 171.994463 
z
" clip-path="url(#pfe800339ad)" style="fill: #348abd; opacity: 0.8"/>
   </g>
   <g id="patch_152">
    <path d="M 588.512984 174.079219 
L 593.624898 174.079219 
L 593.624898 173.036841 
L 588.512984 173.036841 
z
" clip-path="url(#pfe800339ad)" style="fill: #348abd; opacity: 0.8"/>
   </g>
   <g id="patch_153">
    <path d="M 593.624898 174.079219 
L 598.736811 174.079219 
L 598.736811 173.036841 
L 593.624898 173.036841 
z
" clip-path="url(#pfe800339ad)" style="fill: #348abd; opacity: 0.8"/>
   </g>
   <g id="patch_154">
    <path d="M 598.736811 174.079219 
L 603.848725 174.079219 
L 603.848725 173.036841 
L 598.736811 173.036841 
z
" clip-path="url(#pfe800339ad)" style="fill: #348abd; opacity: 0.8"/>
   </g>
   <g id="patch_155">
    <path d="M 603.848725 174.079219 
L 608.960638 174.079219 
L 608.960638 174.079219 
L 603.848725 174.079219 
z
" clip-path="url(#pfe800339ad)" style="fill: #348abd; opacity: 0.8"/>
   </g>
   <g id="patch_156">
    <path d="M 608.960638 174.079219 
L 614.072552 174.079219 
L 614.072552 173.036841 
L 608.960638 173.036841 
z
" clip-path="url(#pfe800339ad)" style="fill: #348abd; opacity: 0.8"/>
   </g>
   <g id="patch_157">
    <path d="M 614.072552 174.079219 
L 619.184465 174.079219 
L 619.184465 174.079219 
L 614.072552 174.079219 
z
" clip-path="url(#pfe800339ad)" style="fill: #348abd; opacity: 0.8"/>
   </g>
   <g id="patch_158">
    <path d="M 619.184465 174.079219 
L 624.296379 174.079219 
L 624.296379 174.079219 
L 619.184465 174.079219 
z
" clip-path="url(#pfe800339ad)" style="fill: #348abd; opacity: 0.8"/>
   </g>
   <g id="patch_159">
    <path d="M 624.296379 174.079219 
L 629.408292 174.079219 
L 629.408292 174.079219 
L 624.296379 174.079219 
z
" clip-path="url(#pfe800339ad)" style="fill: #348abd; opacity: 0.8"/>
   </g>
   <g id="patch_160">
    <path d="M 629.408292 174.079219 
L 634.520205 174.079219 
L 634.520205 173.036841 
L 629.408292 173.036841 
z
" clip-path="url(#pfe800339ad)" style="fill: #348abd; opacity: 0.8"/>
   </g>
   <g id="patch_161">
    <path d="M 634.520205 174.079219 
L 639.632119 174.079219 
L 639.632119 174.079219 
L 634.520205 174.079219 
z
" clip-path="url(#pfe800339ad)" style="fill: #348abd; opacity: 0.8"/>
   </g>
   <g id="patch_162">
    <path d="M 639.632119 174.079219 
L 644.744032 174.079219 
L 644.744032 173.036841 
L 639.632119 173.036841 
z
" clip-path="url(#pfe800339ad)" style="fill: #348abd; opacity: 0.8"/>
   </g>
   <g id="patch_163">
    <path d="M 644.744032 174.079219 
L 649.855946 174.079219 
L 649.855946 174.079219 
L 644.744032 174.079219 
z
" clip-path="url(#pfe800339ad)" style="fill: #348abd; opacity: 0.8"/>
   </g>
   <g id="patch_164">
    <path d="M 649.855946 174.079219 
L 654.967859 174.079219 
L 654.967859 173.036841 
L 649.855946 173.036841 
z
" clip-path="url(#pfe800339ad)" style="fill: #348abd; opacity: 0.8"/>
   </g>
   <g id="patch_165">
    <path d="M 654.967859 174.079219 
L 660.079773 174.079219 
L 660.079773 174.079219 
L 654.967859 174.079219 
z
" clip-path="url(#pfe800339ad)" style="fill: #348abd; opacity: 0.8"/>
   </g>
   <g id="patch_166">
    <path d="M 660.079773 174.079219 
L 665.191686 174.079219 
L 665.191686 174.079219 
L 660.079773 174.079219 
z
" clip-path="url(#pfe800339ad)" style="fill: #348abd; opacity: 0.8"/>
   </g>
   <g id="patch_167">
    <path d="M 665.191686 174.079219 
L 670.3036 174.079219 
L 670.3036 174.079219 
L 665.191686 174.079219 
z
" clip-path="url(#pfe800339ad)" style="fill: #348abd; opacity: 0.8"/>
   </g>
   <g id="patch_168">
    <path d="M 670.3036 174.079219 
L 675.415513 174.079219 
L 675.415513 174.079219 
L 670.3036 174.079219 
z
" clip-path="url(#pfe800339ad)" style="fill: #348abd; opacity: 0.8"/>
   </g>
   <g id="patch_169">
    <path d="M 675.415513 174.079219 
L 680.527426 174.079219 
L 680.527426 174.079219 
L 675.415513 174.079219 
z
" clip-path="url(#pfe800339ad)" style="fill: #348abd; opacity: 0.8"/>
   </g>
   <g id="patch_170">
    <path d="M 680.527426 174.079219 
L 685.63934 174.079219 
L 685.63934 174.079219 
L 680.527426 174.079219 
z
" clip-path="url(#pfe800339ad)" style="fill: #348abd; opacity: 0.8"/>
   </g>
   <g id="patch_171">
    <path d="M 685.63934 174.079219 
L 690.751253 174.079219 
L 690.751253 171.994463 
L 685.63934 171.994463 
z
" clip-path="url(#pfe800339ad)" style="fill: #348abd; opacity: 0.8"/>
   </g>
   <g id="line2d_77">
    <path d="M 511.71382 174.079219 
L 515.068982 174.079219 
L 515.628176 129.85552 
L 516.18737 112.903914 
L 516.746564 105.497139 
L 517.305757 101.951712 
L 517.864951 100.376836 
L 518.424145 99.912484 
L 518.983338 100.108527 
L 519.542532 100.708969 
L 520.66092 102.565148 
L 522.897695 107.165769 
L 525.693663 112.848226 
L 527.930438 116.945428 
L 530.167213 120.623835 
L 532.403988 123.930433 
L 535.199956 127.623502 
L 537.995925 130.915376 
L 540.791893 133.883073 
L 544.147056 137.101323 
L 547.502218 140.02187 
L 551.416574 143.136458 
L 555.890124 146.40427 
L 561.482061 150.184631 
L 569.869967 155.531276 
L 577.139485 160.236119 
L 581.053841 163.030206 
L 583.84981 165.316723 
L 585.527391 166.926229 
L 586.645778 168.189115 
L 587.764166 169.756942 
L 588.323359 170.786312 
L 589.441747 174.079219 
L 654.308218 174.079219 
L 654.308218 174.079219 
" clip-path="url(#pfe800339ad)" style="fill: none; stroke: #e24a33; stroke-width: 1.5; stroke-linecap: square"/>
   </g>
   <g id="patch_172">
    <path d="M 502.761949 174.079219 
L 502.761949 10.999219 
" style="fill: none; stroke: #ffffff; stroke-linejoin: miter; stroke-linecap: square"/>
   </g>
   <g id="patch_173">
    <path d="M 699.703125 174.079219 
L 699.703125 10.999219 
" style="fill: none; stroke: #ffffff; stroke-linejoin: miter; stroke-linecap: square"/>
   </g>
   <g id="patch_174">
    <path d="M 502.761949 174.079219 
L 699.703125 174.079219 
" style="fill: none; stroke: #ffffff; stroke-linejoin: miter; stroke-linecap: square"/>
   </g>
   <g id="patch_175">
    <path d="M 502.761949 10.999219 
L 699.703125 10.999219 
" style="fill: none; stroke: #ffffff; stroke-linejoin: miter; stroke-linecap: square"/>
   </g>
   <g id="legend_3">
    <g id="patch_176">
     <path d="M 566.628125 48.355469 
L 692.703125 48.355469 
Q 694.703125 48.355469 694.703125 46.355469 
L 694.703125 17.999219 
Q 694.703125 15.999219 692.703125 15.999219 
L 566.628125 15.999219 
Q 564.628125 15.999219 564.628125 17.999219 
L 564.628125 46.355469 
Q 564.628125 48.355469 566.628125 48.355469 
z
" style="fill: #e5e5e5; opacity: 0.8; stroke: #cccccc; stroke-width: 0.5; stroke-linejoin: miter"/>
    </g>
    <g id="line2d_78">
     <path d="M 568.628125 24.097656 
L 578.628125 24.097656 
L 588.628125 24.097656 
" style="fill: none; stroke: #e24a33; stroke-width: 1.5; stroke-linecap: square"/>
    </g>
    <g id="text_44">
     <!-- MP -->
     <g transform="translate(596.628125 27.597656)scale(0.1 -0.1)">
      <use xlink:href="#DejaVuSans-4d"/>
      <use xlink:href="#DejaVuSans-50" x="86.279297"/>
     </g>
    </g>
    <g id="patch_177">
     <path d="M 568.628125 42.275781 
L 588.628125 42.275781 
L 588.628125 35.275781 
L 568.628125 35.275781 
z
" style="fill: #348abd; opacity: 0.8"/>
    </g>
    <g id="text_45">
     <!-- Correlated eigvals. -->
     <g transform="translate(596.628125 42.275781)scale(0.1 -0.1)">
      <use xlink:href="#DejaVuSans-43"/>
      <use xlink:href="#DejaVuSans-6f" x="69.824219"/>
      <use xlink:href="#DejaVuSans-72" x="131.005859"/>
      <use xlink:href="#DejaVuSans-72" x="170.369141"/>
      <use xlink:href="#DejaVuSans-65" x="209.232422"/>
      <use xlink:href="#DejaVuSans-6c" x="270.755859"/>
      <use xlink:href="#DejaVuSans-61" x="298.539062"/>
      <use xlink:href="#DejaVuSans-74" x="359.818359"/>
      <use xlink:href="#DejaVuSans-65" x="399.027344"/>
      <use xlink:href="#DejaVuSans-64" x="460.550781"/>
      <use xlink:href="#DejaVuSans-20" x="524.027344"/>
      <use xlink:href="#DejaVuSans-65" x="555.814453"/>
      <use xlink:href="#DejaVuSans-69" x="617.337891"/>
      <use xlink:href="#DejaVuSans-67" x="645.121094"/>
      <use xlink:href="#DejaVuSans-76" x="708.597656"/>
      <use xlink:href="#DejaVuSans-61" x="767.777344"/>
      <use xlink:href="#DejaVuSans-6c" x="829.056641"/>
      <use xlink:href="#DejaVuSans-73" x="856.839844"/>
      <use xlink:href="#DejaVuSans-2e" x="908.939453"/>
     </g>
    </g>
   </g>
  </g>
 </g>
 <defs>
  <clipPath id="p5e012473fe">
   <rect x="30.103125" y="10.999219" width="196.941176" height="163.08"/>
  </clipPath>
  <clipPath id="pfc5cee8ff9">
   <rect x="266.432537" y="10.999219" width="196.941176" height="163.08"/>
  </clipPath>
  <clipPath id="pfe800339ad">
   <rect x="502.761949" y="10.999219" width="196.941176" height="163.08"/>
  </clipPath>
 </defs>
</svg>
