<?xml version="1.0" encoding="utf-8" standalone="no"?>
<!DOCTYPE svg PUBLIC "-//W3C//DTD SVG 1.1//EN"
  "http://www.w3.org/Graphics/SVG/1.1/DTD/svg11.dtd">
<svg xmlns:xlink="http://www.w3.org/1999/xlink" width="399.732384pt" height="264.131875pt" viewBox="0 0 399.732384 264.131875" xmlns="http://www.w3.org/2000/svg" version="1.1">
 <metadata>
  <rdf:RDF xmlns:dc="http://purl.org/dc/elements/1.1/" xmlns:cc="http://creativecommons.org/ns#" xmlns:rdf="http://www.w3.org/1999/02/22-rdf-syntax-ns#">
   <cc:Work>
    <dc:type rdf:resource="http://purl.org/dc/dcmitype/StillImage"/>
    <dc:date>2022-11-09T10:59:48.989740</dc:date>
    <dc:format>image/svg+xml</dc:format>
    <dc:creator>
     <cc:Agent>
      <dc:title>Matplotlib v3.5.2, https://matplotlib.org/</dc:title>
     </cc:Agent>
    </dc:creator>
   </cc:Work>
  </rdf:RDF>
 </metadata>
 <defs>
  <style type="text/css">*{stroke-linejoin: round; stroke-linecap: butt}</style>
 </defs>
 <g id="figure_1">
  <g id="patch_1">
   <path d="M 0 264.131875 
L 399.732384 264.131875 
L 399.732384 0 
L 0 0 
L 0 264.131875 
z
" style="fill: none"/>
  </g>
  <g id="axes_1">
   <g id="patch_2">
    <path d="M 45.716875 224.64 
L 380.516875 224.64 
L 380.516875 7.2 
L 45.716875 7.2 
z
" style="fill: #e5e5e5"/>
   </g>
   <g id="matplotlib.axis_1">
    <g id="xtick_1">
     <g id="line2d_1">
      <path d="M 60.935057 224.64 
L 60.935057 7.2 
" clip-path="url(#p0dc4d196c4)" style="fill: none; stroke: #ffffff; stroke-width: 0.8; stroke-linecap: square"/>
     </g>
     <g id="line2d_2">
      <defs>
       <path id="m61a27a8f09" d="M 0 0 
L 0 3.5 
" style="stroke: #555555; stroke-width: 0.8"/>
      </defs>
      <g>
       <use xlink:href="#m61a27a8f09" x="60.935057" y="224.64" style="fill: #555555; stroke: #555555; stroke-width: 0.8"/>
      </g>
     </g>
     <g id="text_1">
      <!-- 0 -->
      <g style="fill: #555555" transform="translate(57.753807 239.238437)scale(0.1 -0.1)">
       <defs>
        <path id="DejaVuSans-30" d="M 2034 4250 
Q 1547 4250 1301 3770 
Q 1056 3291 1056 2328 
Q 1056 1369 1301 889 
Q 1547 409 2034 409 
Q 2525 409 2770 889 
Q 3016 1369 3016 2328 
Q 3016 3291 2770 3770 
Q 2525 4250 2034 4250 
z
M 2034 4750 
Q 2819 4750 3233 4129 
Q 3647 3509 3647 2328 
Q 3647 1150 3233 529 
Q 2819 -91 2034 -91 
Q 1250 -91 836 529 
Q 422 1150 422 2328 
Q 422 3509 836 4129 
Q 1250 4750 2034 4750 
z
" transform="scale(0.015625)"/>
       </defs>
       <use xlink:href="#DejaVuSans-30"/>
      </g>
     </g>
    </g>
    <g id="xtick_2">
     <g id="line2d_3">
      <path d="M 100.794098 224.64 
L 100.794098 7.2 
" clip-path="url(#p0dc4d196c4)" style="fill: none; stroke: #ffffff; stroke-width: 0.8; stroke-linecap: square"/>
     </g>
     <g id="line2d_4">
      <g>
       <use xlink:href="#m61a27a8f09" x="100.794098" y="224.64" style="fill: #555555; stroke: #555555; stroke-width: 0.8"/>
      </g>
     </g>
     <g id="text_2">
      <!-- 250 -->
      <g style="fill: #555555" transform="translate(91.250348 239.238437)scale(0.1 -0.1)">
       <defs>
        <path id="DejaVuSans-32" d="M 1228 531 
L 3431 531 
L 3431 0 
L 469 0 
L 469 531 
Q 828 903 1448 1529 
Q 2069 2156 2228 2338 
Q 2531 2678 2651 2914 
Q 2772 3150 2772 3378 
Q 2772 3750 2511 3984 
Q 2250 4219 1831 4219 
Q 1534 4219 1204 4116 
Q 875 4013 500 3803 
L 500 4441 
Q 881 4594 1212 4672 
Q 1544 4750 1819 4750 
Q 2544 4750 2975 4387 
Q 3406 4025 3406 3419 
Q 3406 3131 3298 2873 
Q 3191 2616 2906 2266 
Q 2828 2175 2409 1742 
Q 1991 1309 1228 531 
z
" transform="scale(0.015625)"/>
        <path id="DejaVuSans-35" d="M 691 4666 
L 3169 4666 
L 3169 4134 
L 1269 4134 
L 1269 2991 
Q 1406 3038 1543 3061 
Q 1681 3084 1819 3084 
Q 2600 3084 3056 2656 
Q 3513 2228 3513 1497 
Q 3513 744 3044 326 
Q 2575 -91 1722 -91 
Q 1428 -91 1123 -41 
Q 819 9 494 109 
L 494 744 
Q 775 591 1075 516 
Q 1375 441 1709 441 
Q 2250 441 2565 725 
Q 2881 1009 2881 1497 
Q 2881 1984 2565 2268 
Q 2250 2553 1709 2553 
Q 1456 2553 1204 2497 
Q 953 2441 691 2322 
L 691 4666 
z
" transform="scale(0.015625)"/>
       </defs>
       <use xlink:href="#DejaVuSans-32"/>
       <use xlink:href="#DejaVuSans-35" x="63.623047"/>
       <use xlink:href="#DejaVuSans-30" x="127.246094"/>
      </g>
     </g>
    </g>
    <g id="xtick_3">
     <g id="line2d_5">
      <path d="M 140.653139 224.64 
L 140.653139 7.2 
" clip-path="url(#p0dc4d196c4)" style="fill: none; stroke: #ffffff; stroke-width: 0.8; stroke-linecap: square"/>
     </g>
     <g id="line2d_6">
      <g>
       <use xlink:href="#m61a27a8f09" x="140.653139" y="224.64" style="fill: #555555; stroke: #555555; stroke-width: 0.8"/>
      </g>
     </g>
     <g id="text_3">
      <!-- 500 -->
      <g style="fill: #555555" transform="translate(131.109389 239.238437)scale(0.1 -0.1)">
       <use xlink:href="#DejaVuSans-35"/>
       <use xlink:href="#DejaVuSans-30" x="63.623047"/>
       <use xlink:href="#DejaVuSans-30" x="127.246094"/>
      </g>
     </g>
    </g>
    <g id="xtick_4">
     <g id="line2d_7">
      <path d="M 180.51218 224.64 
L 180.51218 7.2 
" clip-path="url(#p0dc4d196c4)" style="fill: none; stroke: #ffffff; stroke-width: 0.8; stroke-linecap: square"/>
     </g>
     <g id="line2d_8">
      <g>
       <use xlink:href="#m61a27a8f09" x="180.51218" y="224.64" style="fill: #555555; stroke: #555555; stroke-width: 0.8"/>
      </g>
     </g>
     <g id="text_4">
      <!-- 750 -->
      <g style="fill: #555555" transform="translate(170.96843 239.238437)scale(0.1 -0.1)">
       <defs>
        <path id="DejaVuSans-37" d="M 525 4666 
L 3525 4666 
L 3525 4397 
L 1831 0 
L 1172 0 
L 2766 4134 
L 525 4134 
L 525 4666 
z
" transform="scale(0.015625)"/>
       </defs>
       <use xlink:href="#DejaVuSans-37"/>
       <use xlink:href="#DejaVuSans-35" x="63.623047"/>
       <use xlink:href="#DejaVuSans-30" x="127.246094"/>
      </g>
     </g>
    </g>
    <g id="xtick_5">
     <g id="line2d_9">
      <path d="M 220.37122 224.64 
L 220.37122 7.2 
" clip-path="url(#p0dc4d196c4)" style="fill: none; stroke: #ffffff; stroke-width: 0.8; stroke-linecap: square"/>
     </g>
     <g id="line2d_10">
      <g>
       <use xlink:href="#m61a27a8f09" x="220.37122" y="224.64" style="fill: #555555; stroke: #555555; stroke-width: 0.8"/>
      </g>
     </g>
     <g id="text_5">
      <!-- 1000 -->
      <g style="fill: #555555" transform="translate(207.64622 239.238437)scale(0.1 -0.1)">
       <defs>
        <path id="DejaVuSans-31" d="M 794 531 
L 1825 531 
L 1825 4091 
L 703 3866 
L 703 4441 
L 1819 4666 
L 2450 4666 
L 2450 531 
L 3481 531 
L 3481 0 
L 794 0 
L 794 531 
z
" transform="scale(0.015625)"/>
       </defs>
       <use xlink:href="#DejaVuSans-31"/>
       <use xlink:href="#DejaVuSans-30" x="63.623047"/>
       <use xlink:href="#DejaVuSans-30" x="127.246094"/>
       <use xlink:href="#DejaVuSans-30" x="190.869141"/>
      </g>
     </g>
    </g>
    <g id="xtick_6">
     <g id="line2d_11">
      <path d="M 260.230261 224.64 
L 260.230261 7.2 
" clip-path="url(#p0dc4d196c4)" style="fill: none; stroke: #ffffff; stroke-width: 0.8; stroke-linecap: square"/>
     </g>
     <g id="line2d_12">
      <g>
       <use xlink:href="#m61a27a8f09" x="260.230261" y="224.64" style="fill: #555555; stroke: #555555; stroke-width: 0.8"/>
      </g>
     </g>
     <g id="text_6">
      <!-- 1250 -->
      <g style="fill: #555555" transform="translate(247.505261 239.238437)scale(0.1 -0.1)">
       <use xlink:href="#DejaVuSans-31"/>
       <use xlink:href="#DejaVuSans-32" x="63.623047"/>
       <use xlink:href="#DejaVuSans-35" x="127.246094"/>
       <use xlink:href="#DejaVuSans-30" x="190.869141"/>
      </g>
     </g>
    </g>
    <g id="xtick_7">
     <g id="line2d_13">
      <path d="M 300.089302 224.64 
L 300.089302 7.2 
" clip-path="url(#p0dc4d196c4)" style="fill: none; stroke: #ffffff; stroke-width: 0.8; stroke-linecap: square"/>
     </g>
     <g id="line2d_14">
      <g>
       <use xlink:href="#m61a27a8f09" x="300.089302" y="224.64" style="fill: #555555; stroke: #555555; stroke-width: 0.8"/>
      </g>
     </g>
     <g id="text_7">
      <!-- 1500 -->
      <g style="fill: #555555" transform="translate(287.364302 239.238437)scale(0.1 -0.1)">
       <use xlink:href="#DejaVuSans-31"/>
       <use xlink:href="#DejaVuSans-35" x="63.623047"/>
       <use xlink:href="#DejaVuSans-30" x="127.246094"/>
       <use xlink:href="#DejaVuSans-30" x="190.869141"/>
      </g>
     </g>
    </g>
    <g id="xtick_8">
     <g id="line2d_15">
      <path d="M 339.948343 224.64 
L 339.948343 7.2 
" clip-path="url(#p0dc4d196c4)" style="fill: none; stroke: #ffffff; stroke-width: 0.8; stroke-linecap: square"/>
     </g>
     <g id="line2d_16">
      <g>
       <use xlink:href="#m61a27a8f09" x="339.948343" y="224.64" style="fill: #555555; stroke: #555555; stroke-width: 0.8"/>
      </g>
     </g>
     <g id="text_8">
      <!-- 1750 -->
      <g style="fill: #555555" transform="translate(327.223343 239.238437)scale(0.1 -0.1)">
       <use xlink:href="#DejaVuSans-31"/>
       <use xlink:href="#DejaVuSans-37" x="63.623047"/>
       <use xlink:href="#DejaVuSans-35" x="127.246094"/>
       <use xlink:href="#DejaVuSans-30" x="190.869141"/>
      </g>
     </g>
    </g>
    <g id="xtick_9">
     <g id="line2d_17">
      <path d="M 379.807384 224.64 
L 379.807384 7.2 
" clip-path="url(#p0dc4d196c4)" style="fill: none; stroke: #ffffff; stroke-width: 0.8; stroke-linecap: square"/>
     </g>
     <g id="line2d_18">
      <g>
       <use xlink:href="#m61a27a8f09" x="379.807384" y="224.64" style="fill: #555555; stroke: #555555; stroke-width: 0.8"/>
      </g>
     </g>
     <g id="text_9">
      <!-- 2000 -->
      <g style="fill: #555555" transform="translate(367.082384 239.238437)scale(0.1 -0.1)">
       <use xlink:href="#DejaVuSans-32"/>
       <use xlink:href="#DejaVuSans-30" x="63.623047"/>
       <use xlink:href="#DejaVuSans-30" x="127.246094"/>
       <use xlink:href="#DejaVuSans-30" x="190.869141"/>
      </g>
     </g>
    </g>
    <g id="text_10">
     <!-- SGD Step -->
     <g style="fill: #555555" transform="translate(184.469688 254.43625)scale(0.12 -0.12)">
      <defs>
       <path id="DejaVuSans-53" d="M 3425 4513 
L 3425 3897 
Q 3066 4069 2747 4153 
Q 2428 4238 2131 4238 
Q 1616 4238 1336 4038 
Q 1056 3838 1056 3469 
Q 1056 3159 1242 3001 
Q 1428 2844 1947 2747 
L 2328 2669 
Q 3034 2534 3370 2195 
Q 3706 1856 3706 1288 
Q 3706 609 3251 259 
Q 2797 -91 1919 -91 
Q 1588 -91 1214 -16 
Q 841 59 441 206 
L 441 856 
Q 825 641 1194 531 
Q 1563 422 1919 422 
Q 2459 422 2753 634 
Q 3047 847 3047 1241 
Q 3047 1584 2836 1778 
Q 2625 1972 2144 2069 
L 1759 2144 
Q 1053 2284 737 2584 
Q 422 2884 422 3419 
Q 422 4038 858 4394 
Q 1294 4750 2059 4750 
Q 2388 4750 2728 4690 
Q 3069 4631 3425 4513 
z
" transform="scale(0.015625)"/>
       <path id="DejaVuSans-47" d="M 3809 666 
L 3809 1919 
L 2778 1919 
L 2778 2438 
L 4434 2438 
L 4434 434 
Q 4069 175 3628 42 
Q 3188 -91 2688 -91 
Q 1594 -91 976 548 
Q 359 1188 359 2328 
Q 359 3472 976 4111 
Q 1594 4750 2688 4750 
Q 3144 4750 3555 4637 
Q 3966 4525 4313 4306 
L 4313 3634 
Q 3963 3931 3569 4081 
Q 3175 4231 2741 4231 
Q 1884 4231 1454 3753 
Q 1025 3275 1025 2328 
Q 1025 1384 1454 906 
Q 1884 428 2741 428 
Q 3075 428 3337 486 
Q 3600 544 3809 666 
z
" transform="scale(0.015625)"/>
       <path id="DejaVuSans-44" d="M 1259 4147 
L 1259 519 
L 2022 519 
Q 2988 519 3436 956 
Q 3884 1394 3884 2338 
Q 3884 3275 3436 3711 
Q 2988 4147 2022 4147 
L 1259 4147 
z
M 628 4666 
L 1925 4666 
Q 3281 4666 3915 4102 
Q 4550 3538 4550 2338 
Q 4550 1131 3912 565 
Q 3275 0 1925 0 
L 628 0 
L 628 4666 
z
" transform="scale(0.015625)"/>
       <path id="DejaVuSans-20" transform="scale(0.015625)"/>
       <path id="DejaVuSans-74" d="M 1172 4494 
L 1172 3500 
L 2356 3500 
L 2356 3053 
L 1172 3053 
L 1172 1153 
Q 1172 725 1289 603 
Q 1406 481 1766 481 
L 2356 481 
L 2356 0 
L 1766 0 
Q 1100 0 847 248 
Q 594 497 594 1153 
L 594 3053 
L 172 3053 
L 172 3500 
L 594 3500 
L 594 4494 
L 1172 4494 
z
" transform="scale(0.015625)"/>
       <path id="DejaVuSans-65" d="M 3597 1894 
L 3597 1613 
L 953 1613 
Q 991 1019 1311 708 
Q 1631 397 2203 397 
Q 2534 397 2845 478 
Q 3156 559 3463 722 
L 3463 178 
Q 3153 47 2828 -22 
Q 2503 -91 2169 -91 
Q 1331 -91 842 396 
Q 353 884 353 1716 
Q 353 2575 817 3079 
Q 1281 3584 2069 3584 
Q 2775 3584 3186 3129 
Q 3597 2675 3597 1894 
z
M 3022 2063 
Q 3016 2534 2758 2815 
Q 2500 3097 2075 3097 
Q 1594 3097 1305 2825 
Q 1016 2553 972 2059 
L 3022 2063 
z
" transform="scale(0.015625)"/>
       <path id="DejaVuSans-70" d="M 1159 525 
L 1159 -1331 
L 581 -1331 
L 581 3500 
L 1159 3500 
L 1159 2969 
Q 1341 3281 1617 3432 
Q 1894 3584 2278 3584 
Q 2916 3584 3314 3078 
Q 3713 2572 3713 1747 
Q 3713 922 3314 415 
Q 2916 -91 2278 -91 
Q 1894 -91 1617 61 
Q 1341 213 1159 525 
z
M 3116 1747 
Q 3116 2381 2855 2742 
Q 2594 3103 2138 3103 
Q 1681 3103 1420 2742 
Q 1159 2381 1159 1747 
Q 1159 1113 1420 752 
Q 1681 391 2138 391 
Q 2594 391 2855 752 
Q 3116 1113 3116 1747 
z
" transform="scale(0.015625)"/>
      </defs>
      <use xlink:href="#DejaVuSans-53"/>
      <use xlink:href="#DejaVuSans-47" x="63.476562"/>
      <use xlink:href="#DejaVuSans-44" x="140.966797"/>
      <use xlink:href="#DejaVuSans-20" x="217.96875"/>
      <use xlink:href="#DejaVuSans-53" x="249.755859"/>
      <use xlink:href="#DejaVuSans-74" x="313.232422"/>
      <use xlink:href="#DejaVuSans-65" x="352.441406"/>
      <use xlink:href="#DejaVuSans-70" x="413.964844"/>
     </g>
    </g>
   </g>
   <g id="matplotlib.axis_2">
    <g id="ytick_1">
     <g id="line2d_19">
      <path d="M 45.716875 179.380083 
L 380.516875 179.380083 
" clip-path="url(#p0dc4d196c4)" style="fill: none; stroke: #ffffff; stroke-width: 0.8; stroke-linecap: square"/>
     </g>
     <g id="line2d_20">
      <defs>
       <path id="mfd4098cf2e" d="M 0 0 
L -3.5 0 
" style="stroke: #555555; stroke-width: 0.8"/>
      </defs>
      <g>
       <use xlink:href="#mfd4098cf2e" x="45.716875" y="179.380083" style="fill: #555555; stroke: #555555; stroke-width: 0.8"/>
      </g>
     </g>
     <g id="text_11">
      <!-- 0.2 -->
      <g style="fill: #555555" transform="translate(22.81375 183.179302)scale(0.1 -0.1)">
       <defs>
        <path id="DejaVuSans-2e" d="M 684 794 
L 1344 794 
L 1344 0 
L 684 0 
L 684 794 
z
" transform="scale(0.015625)"/>
       </defs>
       <use xlink:href="#DejaVuSans-30"/>
       <use xlink:href="#DejaVuSans-2e" x="63.623047"/>
       <use xlink:href="#DejaVuSans-32" x="95.410156"/>
      </g>
     </g>
    </g>
    <g id="ytick_2">
     <g id="line2d_21">
      <path d="M 45.716875 131.90139 
L 380.516875 131.90139 
" clip-path="url(#p0dc4d196c4)" style="fill: none; stroke: #ffffff; stroke-width: 0.8; stroke-linecap: square"/>
     </g>
     <g id="line2d_22">
      <g>
       <use xlink:href="#mfd4098cf2e" x="45.716875" y="131.90139" style="fill: #555555; stroke: #555555; stroke-width: 0.8"/>
      </g>
     </g>
     <g id="text_12">
      <!-- 0.4 -->
      <g style="fill: #555555" transform="translate(22.81375 135.700609)scale(0.1 -0.1)">
       <defs>
        <path id="DejaVuSans-34" d="M 2419 4116 
L 825 1625 
L 2419 1625 
L 2419 4116 
z
M 2253 4666 
L 3047 4666 
L 3047 1625 
L 3713 1625 
L 3713 1100 
L 3047 1100 
L 3047 0 
L 2419 0 
L 2419 1100 
L 313 1100 
L 313 1709 
L 2253 4666 
z
" transform="scale(0.015625)"/>
       </defs>
       <use xlink:href="#DejaVuSans-30"/>
       <use xlink:href="#DejaVuSans-2e" x="63.623047"/>
       <use xlink:href="#DejaVuSans-34" x="95.410156"/>
      </g>
     </g>
    </g>
    <g id="ytick_3">
     <g id="line2d_23">
      <path d="M 45.716875 84.422697 
L 380.516875 84.422697 
" clip-path="url(#p0dc4d196c4)" style="fill: none; stroke: #ffffff; stroke-width: 0.8; stroke-linecap: square"/>
     </g>
     <g id="line2d_24">
      <g>
       <use xlink:href="#mfd4098cf2e" x="45.716875" y="84.422697" style="fill: #555555; stroke: #555555; stroke-width: 0.8"/>
      </g>
     </g>
     <g id="text_13">
      <!-- 0.6 -->
      <g style="fill: #555555" transform="translate(22.81375 88.221916)scale(0.1 -0.1)">
       <defs>
        <path id="DejaVuSans-36" d="M 2113 2584 
Q 1688 2584 1439 2293 
Q 1191 2003 1191 1497 
Q 1191 994 1439 701 
Q 1688 409 2113 409 
Q 2538 409 2786 701 
Q 3034 994 3034 1497 
Q 3034 2003 2786 2293 
Q 2538 2584 2113 2584 
z
M 3366 4563 
L 3366 3988 
Q 3128 4100 2886 4159 
Q 2644 4219 2406 4219 
Q 1781 4219 1451 3797 
Q 1122 3375 1075 2522 
Q 1259 2794 1537 2939 
Q 1816 3084 2150 3084 
Q 2853 3084 3261 2657 
Q 3669 2231 3669 1497 
Q 3669 778 3244 343 
Q 2819 -91 2113 -91 
Q 1303 -91 875 529 
Q 447 1150 447 2328 
Q 447 3434 972 4092 
Q 1497 4750 2381 4750 
Q 2619 4750 2861 4703 
Q 3103 4656 3366 4563 
z
" transform="scale(0.015625)"/>
       </defs>
       <use xlink:href="#DejaVuSans-30"/>
       <use xlink:href="#DejaVuSans-2e" x="63.623047"/>
       <use xlink:href="#DejaVuSans-36" x="95.410156"/>
      </g>
     </g>
    </g>
    <g id="ytick_4">
     <g id="line2d_25">
      <path d="M 45.716875 36.944005 
L 380.516875 36.944005 
" clip-path="url(#p0dc4d196c4)" style="fill: none; stroke: #ffffff; stroke-width: 0.8; stroke-linecap: square"/>
     </g>
     <g id="line2d_26">
      <g>
       <use xlink:href="#mfd4098cf2e" x="45.716875" y="36.944005" style="fill: #555555; stroke: #555555; stroke-width: 0.8"/>
      </g>
     </g>
     <g id="text_14">
      <!-- 0.8 -->
      <g style="fill: #555555" transform="translate(22.81375 40.743223)scale(0.1 -0.1)">
       <defs>
        <path id="DejaVuSans-38" d="M 2034 2216 
Q 1584 2216 1326 1975 
Q 1069 1734 1069 1313 
Q 1069 891 1326 650 
Q 1584 409 2034 409 
Q 2484 409 2743 651 
Q 3003 894 3003 1313 
Q 3003 1734 2745 1975 
Q 2488 2216 2034 2216 
z
M 1403 2484 
Q 997 2584 770 2862 
Q 544 3141 544 3541 
Q 544 4100 942 4425 
Q 1341 4750 2034 4750 
Q 2731 4750 3128 4425 
Q 3525 4100 3525 3541 
Q 3525 3141 3298 2862 
Q 3072 2584 2669 2484 
Q 3125 2378 3379 2068 
Q 3634 1759 3634 1313 
Q 3634 634 3220 271 
Q 2806 -91 2034 -91 
Q 1263 -91 848 271 
Q 434 634 434 1313 
Q 434 1759 690 2068 
Q 947 2378 1403 2484 
z
M 1172 3481 
Q 1172 3119 1398 2916 
Q 1625 2713 2034 2713 
Q 2441 2713 2670 2916 
Q 2900 3119 2900 3481 
Q 2900 3844 2670 4047 
Q 2441 4250 2034 4250 
Q 1625 4250 1398 4047 
Q 1172 3844 1172 3481 
z
" transform="scale(0.015625)"/>
       </defs>
       <use xlink:href="#DejaVuSans-30"/>
       <use xlink:href="#DejaVuSans-2e" x="63.623047"/>
       <use xlink:href="#DejaVuSans-38" x="95.410156"/>
      </g>
     </g>
    </g>
    <g id="text_15">
     <!-- Valid. Err. Rate -->
     <g style="fill: #555555" transform="translate(16.318125 159.833438)rotate(-90)scale(0.12 -0.12)">
      <defs>
       <path id="DejaVuSans-56" d="M 1831 0 
L 50 4666 
L 709 4666 
L 2188 738 
L 3669 4666 
L 4325 4666 
L 2547 0 
L 1831 0 
z
" transform="scale(0.015625)"/>
       <path id="DejaVuSans-61" d="M 2194 1759 
Q 1497 1759 1228 1600 
Q 959 1441 959 1056 
Q 959 750 1161 570 
Q 1363 391 1709 391 
Q 2188 391 2477 730 
Q 2766 1069 2766 1631 
L 2766 1759 
L 2194 1759 
z
M 3341 1997 
L 3341 0 
L 2766 0 
L 2766 531 
Q 2569 213 2275 61 
Q 1981 -91 1556 -91 
Q 1019 -91 701 211 
Q 384 513 384 1019 
Q 384 1609 779 1909 
Q 1175 2209 1959 2209 
L 2766 2209 
L 2766 2266 
Q 2766 2663 2505 2880 
Q 2244 3097 1772 3097 
Q 1472 3097 1187 3025 
Q 903 2953 641 2809 
L 641 3341 
Q 956 3463 1253 3523 
Q 1550 3584 1831 3584 
Q 2591 3584 2966 3190 
Q 3341 2797 3341 1997 
z
" transform="scale(0.015625)"/>
       <path id="DejaVuSans-6c" d="M 603 4863 
L 1178 4863 
L 1178 0 
L 603 0 
L 603 4863 
z
" transform="scale(0.015625)"/>
       <path id="DejaVuSans-69" d="M 603 3500 
L 1178 3500 
L 1178 0 
L 603 0 
L 603 3500 
z
M 603 4863 
L 1178 4863 
L 1178 4134 
L 603 4134 
L 603 4863 
z
" transform="scale(0.015625)"/>
       <path id="DejaVuSans-64" d="M 2906 2969 
L 2906 4863 
L 3481 4863 
L 3481 0 
L 2906 0 
L 2906 525 
Q 2725 213 2448 61 
Q 2172 -91 1784 -91 
Q 1150 -91 751 415 
Q 353 922 353 1747 
Q 353 2572 751 3078 
Q 1150 3584 1784 3584 
Q 2172 3584 2448 3432 
Q 2725 3281 2906 2969 
z
M 947 1747 
Q 947 1113 1208 752 
Q 1469 391 1925 391 
Q 2381 391 2643 752 
Q 2906 1113 2906 1747 
Q 2906 2381 2643 2742 
Q 2381 3103 1925 3103 
Q 1469 3103 1208 2742 
Q 947 2381 947 1747 
z
" transform="scale(0.015625)"/>
       <path id="DejaVuSans-45" d="M 628 4666 
L 3578 4666 
L 3578 4134 
L 1259 4134 
L 1259 2753 
L 3481 2753 
L 3481 2222 
L 1259 2222 
L 1259 531 
L 3634 531 
L 3634 0 
L 628 0 
L 628 4666 
z
" transform="scale(0.015625)"/>
       <path id="DejaVuSans-72" d="M 2631 2963 
Q 2534 3019 2420 3045 
Q 2306 3072 2169 3072 
Q 1681 3072 1420 2755 
Q 1159 2438 1159 1844 
L 1159 0 
L 581 0 
L 581 3500 
L 1159 3500 
L 1159 2956 
Q 1341 3275 1631 3429 
Q 1922 3584 2338 3584 
Q 2397 3584 2469 3576 
Q 2541 3569 2628 3553 
L 2631 2963 
z
" transform="scale(0.015625)"/>
       <path id="DejaVuSans-52" d="M 2841 2188 
Q 3044 2119 3236 1894 
Q 3428 1669 3622 1275 
L 4263 0 
L 3584 0 
L 2988 1197 
Q 2756 1666 2539 1819 
Q 2322 1972 1947 1972 
L 1259 1972 
L 1259 0 
L 628 0 
L 628 4666 
L 2053 4666 
Q 2853 4666 3247 4331 
Q 3641 3997 3641 3322 
Q 3641 2881 3436 2590 
Q 3231 2300 2841 2188 
z
M 1259 4147 
L 1259 2491 
L 2053 2491 
Q 2509 2491 2742 2702 
Q 2975 2913 2975 3322 
Q 2975 3731 2742 3939 
Q 2509 4147 2053 4147 
L 1259 4147 
z
" transform="scale(0.015625)"/>
      </defs>
      <use xlink:href="#DejaVuSans-56"/>
      <use xlink:href="#DejaVuSans-61" x="60.658203"/>
      <use xlink:href="#DejaVuSans-6c" x="121.9375"/>
      <use xlink:href="#DejaVuSans-69" x="149.720703"/>
      <use xlink:href="#DejaVuSans-64" x="177.503906"/>
      <use xlink:href="#DejaVuSans-2e" x="240.980469"/>
      <use xlink:href="#DejaVuSans-20" x="272.767578"/>
      <use xlink:href="#DejaVuSans-45" x="304.554688"/>
      <use xlink:href="#DejaVuSans-72" x="367.738281"/>
      <use xlink:href="#DejaVuSans-72" x="407.101562"/>
      <use xlink:href="#DejaVuSans-2e" x="439.089844"/>
      <use xlink:href="#DejaVuSans-20" x="470.876953"/>
      <use xlink:href="#DejaVuSans-52" x="502.664062"/>
      <use xlink:href="#DejaVuSans-61" x="569.896484"/>
      <use xlink:href="#DejaVuSans-74" x="631.175781"/>
      <use xlink:href="#DejaVuSans-65" x="670.384766"/>
     </g>
    </g>
   </g>
   <g id="line2d_27">
    <path d="M 60.935057 17.083636 
L 61.094493 23.290001 
L 61.253929 21.73841 
L 61.413365 40.047187 
L 61.572801 20.186819 
L 61.732238 26.082866 
L 61.891674 42.840051 
L 62.05111 40.667824 
L 62.210546 45.943234 
L 62.369982 44.701961 
L 62.529418 42.529733 
L 62.688855 27.324139 
L 63.007727 54.632145 
L 63.486035 64.872647 
L 63.804908 54.942463 
L 63.964344 61.148828 
L 64.12378 80.38856 
L 64.283216 79.147287 
L 64.602089 93.111608 
L 64.761525 93.732245 
L 65.080397 82.871106 
L 65.399269 106.455293 
L 65.558706 97.766382 
L 65.718142 105.524339 
L 66.19645 108.627521 
L 66.355886 103.662429 
L 66.515323 117.316432 
L 66.674759 115.144204 
L 66.834195 120.729933 
L 66.993631 130.660117 
L 67.153067 131.280754 
L 67.47194 123.522797 
L 67.631376 131.280754 
L 67.790812 132.522027 
L 68.109684 141.210938 
L 68.26912 143.383165 
L 68.428557 142.452211 
L 68.587993 136.556164 
L 68.906865 146.486348 
L 69.066301 144.31412 
L 69.225737 144.31412 
L 69.54461 143.693484 
L 69.704046 149.279212 
L 70.022918 143.693484 
L 70.182354 145.245075 
L 70.34179 141.521256 
L 70.501227 154.244304 
L 70.660663 149.899849 
L 70.820099 151.141122 
L 70.979535 143.072847 
L 71.138971 142.141892 
L 71.298407 152.692713 
L 71.457844 154.244304 
L 71.61728 151.761758 
L 71.776716 158.58876 
L 71.936152 154.864941 
L 72.095588 156.106214 
L 72.414461 148.968894 
L 72.573897 154.554623 
L 72.733333 164.484807 
L 72.892769 163.553852 
L 73.052205 166.036398 
L 73.211641 170.691172 
L 73.371078 171.311808 
L 73.530514 169.13958 
L 73.68995 169.449899 
L 73.849386 168.829262 
L 74.008822 169.13958 
L 74.168258 165.105443 
L 74.327695 167.587989 
L 74.487131 163.553852 
L 74.646567 166.036398 
L 74.806003 166.657034 
L 74.965439 164.484807 
L 75.603184 175.345945 
L 75.76262 172.553081 
L 75.922056 173.173718 
L 76.081492 175.345945 
L 76.400365 170.070535 
L 76.559801 171.622126 
L 76.719237 170.380853 
L 76.878673 172.863399 
L 77.356982 167.587989 
L 77.516418 158.899078 
L 77.675854 161.691942 
L 77.994726 175.966582 
L 78.154162 176.2769 
L 78.473035 173.484036 
L 78.632471 181.862629 
L 78.791907 173.794354 
L 78.951343 176.2769 
L 79.110779 175.966582 
L 79.270216 177.207855 
L 79.429652 181.241992 
L 79.748524 177.828492 
L 79.90796 180.931674 
L 80.067396 178.449128 
L 80.226833 181.241992 
L 80.386269 172.863399 
L 80.545705 175.345945 
L 80.705141 184.655493 
L 81.024013 178.13881 
L 81.18345 180.311038 
L 81.342886 179.690401 
L 81.502322 182.793584 
L 81.661758 178.759446 
L 81.821194 177.828492 
L 81.98063 174.725309 
L 82.140067 175.966582 
L 82.299503 174.104672 
L 82.618375 183.724538 
L 82.777811 184.034857 
L 82.937247 188.68963 
L 83.096684 186.207084 
L 83.25612 187.448357 
L 83.574992 181.552311 
L 83.734428 184.655493 
L 83.893864 184.345175 
L 84.212737 184.345175 
L 84.372173 188.999949 
L 84.691045 179.069765 
L 84.850481 182.483265 
L 85.169354 175.035627 
L 85.488226 180.621356 
L 86.125971 185.896766 
L 86.444843 185.896766 
L 86.604279 173.484036 
L 86.923151 188.068994 
L 87.082588 187.758676 
L 87.242024 187.758676 
L 87.40146 189.310267 
L 87.560896 187.448357 
L 87.720332 188.379312 
L 88.198641 182.483265 
L 88.358077 182.483265 
L 88.517513 184.965811 
L 88.676949 184.965811 
L 88.836385 186.207084 
L 89.155258 180.931674 
L 89.314694 182.793584 
L 89.47413 181.862629 
L 89.633566 188.68963 
L 89.793002 188.68963 
L 90.111875 180.621356 
L 90.271311 188.379312 
L 90.430747 186.827721 
L 90.590183 174.414991 
L 90.909056 184.034857 
L 91.227928 187.758676 
L 91.706236 182.483265 
L 91.865673 187.758676 
L 92.025109 185.896766 
L 92.184545 177.828492 
L 92.343981 188.999949 
L 92.503417 190.241222 
L 92.662853 188.999949 
L 92.82229 193.034086 
L 92.981726 193.034086 
L 93.141162 194.895995 
L 93.460034 193.034086 
L 93.61947 193.034086 
L 93.778907 194.585677 
L 93.938343 189.310267 
L 94.097779 189.930903 
L 94.257215 184.965811 
L 94.576087 193.965041 
L 94.735524 194.275359 
L 94.89496 193.965041 
L 95.054396 192.103131 
L 95.213832 193.344404 
L 95.373268 190.861858 
L 95.532704 194.895995 
L 95.851577 186.207084 
L 96.011013 190.55154 
L 96.170449 191.792813 
L 96.329885 195.82695 
L 96.489321 195.82695 
L 96.648757 194.275359 
L 96.808194 194.275359 
L 96.96763 196.137268 
L 97.127066 195.516632 
L 97.445938 192.103131 
L 97.605374 195.516632 
L 97.764811 189.930903 
L 98.083683 191.172176 
L 98.243119 191.172176 
L 98.721428 194.275359 
L 98.880864 188.068994 
L 99.359172 193.034086 
L 99.518608 193.344404 
L 99.837481 199.240451 
L 99.996917 195.82695 
L 100.315789 195.82695 
L 100.475225 199.240451 
L 100.634662 196.137268 
L 100.794098 197.068223 
L 100.953534 194.895995 
L 101.11297 196.757905 
L 101.272406 192.723768 
L 101.431842 195.82695 
L 101.591279 193.965041 
L 101.750715 194.585677 
L 102.069587 194.585677 
L 102.229023 194.275359 
L 102.388459 192.103131 
L 102.547896 195.516632 
L 102.707332 194.275359 
L 103.026204 194.275359 
L 103.18564 196.137268 
L 103.345076 194.585677 
L 103.982821 194.585677 
L 104.142257 196.137268 
L 104.461129 196.137268 
L 104.620566 197.68886 
L 104.780002 194.585677 
L 104.939438 194.585677 
L 105.098874 193.034086 
L 105.417746 195.516632 
L 105.577183 191.172176 
L 105.896055 195.82695 
L 106.055491 196.757905 
L 106.214927 194.895995 
L 106.374363 196.447587 
L 106.5338 195.82695 
L 106.693236 196.757905 
L 106.852672 194.895995 
L 107.012108 194.895995 
L 107.171544 194.585677 
L 107.33098 191.172176 
L 107.490417 197.378541 
L 107.649853 184.655493 
L 107.968725 197.378541 
L 108.128161 196.137268 
L 108.287597 196.137268 
L 108.447034 193.344404 
L 108.60647 194.895995 
L 108.765906 194.895995 
L 108.925342 195.82695 
L 109.244214 193.965041 
L 109.403651 193.965041 
L 109.881959 195.82695 
L 110.041395 194.585677 
L 110.360268 197.068223 
L 110.67914 197.068223 
L 110.838576 194.895995 
L 110.998012 197.068223 
L 111.157448 197.068223 
L 111.316885 197.999178 
L 111.476321 196.137268 
L 111.635757 190.55154 
L 111.795193 190.861858 
L 111.954629 194.275359 
L 112.114065 194.275359 
L 112.273502 196.757905 
L 112.432938 195.516632 
L 112.592374 195.516632 
L 112.75181 197.68886 
L 112.911246 197.68886 
L 113.070682 196.757905 
L 113.230118 199.861087 
L 113.389555 199.861087 
L 113.548991 198.930133 
L 113.708427 198.930133 
L 113.867863 198.309496 
L 114.027299 201.10236 
L 114.186735 198.619814 
L 114.346172 199.861087 
L 114.505608 193.654722 
L 114.665044 197.999178 
L 114.82448 194.585677 
L 114.983916 194.585677 
L 115.143352 188.999949 
L 115.302789 189.620585 
L 115.462225 197.68886 
L 115.621661 196.447587 
L 115.781097 197.999178 
L 115.940533 195.82695 
L 116.099969 197.68886 
L 116.259406 197.68886 
L 116.418842 198.930133 
L 116.578278 199.240451 
L 116.737714 201.10236 
L 116.89715 201.10236 
L 117.216023 197.999178 
L 117.375459 201.10236 
L 117.534895 199.550769 
L 117.694331 199.861087 
L 117.853767 196.137268 
L 118.013203 197.378541 
L 118.17264 199.550769 
L 118.332076 199.550769 
L 118.650948 194.585677 
L 118.810384 196.137268 
L 118.96982 199.861087 
L 119.129257 199.861087 
L 119.288693 197.999178 
L 119.448129 198.619814 
L 119.607565 198.619814 
L 119.767001 198.309496 
L 119.926437 198.619814 
L 120.24531 201.10236 
L 120.564182 199.550769 
L 120.723618 201.412679 
L 120.883054 201.412679 
L 121.042491 203.274588 
L 121.201927 202.033315 
L 121.361363 202.033315 
L 121.520799 196.137268 
L 121.839671 197.999178 
L 121.999107 197.999178 
L 122.158544 195.82695 
L 122.31798 195.82695 
L 122.477416 196.757905 
L 122.636852 198.619814 
L 122.796288 197.68886 
L 122.955724 200.171406 
L 123.115161 198.309496 
L 123.274597 194.895995 
L 123.593469 204.205543 
L 123.752905 204.515861 
L 123.912341 203.584907 
L 124.071778 201.10236 
L 124.231214 203.584907 
L 124.39065 199.861087 
L 124.550086 198.930133 
L 124.868958 202.653952 
L 125.028395 200.171406 
L 125.187831 201.722997 
L 125.347267 200.792042 
L 125.506703 204.205543 
L 125.666139 200.792042 
L 125.825575 199.861087 
L 125.985012 195.82695 
L 126.144448 197.999178 
L 126.303884 197.999178 
L 126.46332 198.309496 
L 126.622756 197.999178 
L 126.782192 199.550769 
L 126.941629 197.068223 
L 127.260501 197.068223 
L 127.419937 202.033315 
L 127.579373 202.033315 
L 127.738809 202.653952 
L 128.057682 202.653952 
L 128.217118 201.10236 
L 128.376554 202.343634 
L 128.53599 199.240451 
L 128.854863 202.343634 
L 129.333171 197.68886 
L 129.492607 197.68886 
L 129.652043 194.585677 
L 129.81148 200.171406 
L 129.970916 200.792042 
L 130.289788 200.792042 
L 130.449224 200.481724 
L 130.60866 200.481724 
L 130.768096 196.757905 
L 130.927533 196.137268 
L 131.246405 198.930133 
L 131.405841 199.240451 
L 131.565277 200.171406 
L 131.724713 202.96427 
L 131.88415 200.481724 
L 132.043586 200.481724 
L 132.203022 200.792042 
L 132.362458 205.136498 
L 132.68133 202.343634 
L 132.840767 202.96427 
L 133.000203 204.515861 
L 133.159639 204.205543 
L 133.319075 203.584907 
L 133.478511 202.033315 
L 133.637947 202.033315 
L 133.797384 199.861087 
L 133.95682 199.550769 
L 134.116256 199.550769 
L 134.275692 200.792042 
L 134.435128 200.481724 
L 134.594564 198.619814 
L 134.754001 200.171406 
L 134.913437 200.171406 
L 135.072873 205.136498 
L 135.232309 201.722997 
L 135.391745 201.722997 
L 135.551181 202.653952 
L 135.710618 202.343634 
L 135.870054 202.343634 
L 136.02949 200.171406 
L 136.188926 200.171406 
L 136.348362 201.412679 
L 136.507798 195.516632 
L 136.667235 201.10236 
L 136.826671 201.412679 
L 137.304979 201.412679 
L 137.464415 202.033315 
L 137.623852 205.757134 
L 137.783288 198.930133 
L 137.942724 198.930133 
L 138.10216 200.792042 
L 138.261596 200.792042 
L 138.421032 198.619814 
L 138.580469 204.82618 
L 138.739905 206.377771 
L 138.899341 202.96427 
L 139.058777 205.446816 
L 139.218213 205.446816 
L 139.377649 202.96427 
L 139.537085 203.584907 
L 139.696522 204.82618 
L 140.015394 199.550769 
L 140.17483 203.584907 
L 140.334266 203.274588 
L 140.493702 202.653952 
L 140.653139 201.10236 
L 140.812575 201.10236 
L 140.972011 202.033315 
L 141.290883 199.240451 
L 141.450319 199.240451 
L 141.609756 197.378541 
L 141.769192 199.550769 
L 141.928628 199.240451 
L 142.088064 192.723768 
L 142.406936 202.96427 
L 142.566373 202.96427 
L 142.725809 198.309496 
L 142.885245 200.481724 
L 143.044681 198.619814 
L 143.363553 198.619814 
L 143.52299 203.895225 
L 143.682426 203.895225 
L 143.841862 203.274588 
L 144.001298 201.722997 
L 144.32017 201.722997 
L 144.479607 203.584907 
L 144.639043 203.895225 
L 144.798479 201.10236 
L 144.957915 205.136498 
L 145.276787 205.136498 
L 145.436224 205.446816 
L 145.59566 202.343634 
L 145.755096 202.343634 
L 145.914532 203.584907 
L 146.073968 202.96427 
L 146.233404 199.240451 
L 146.392841 202.653952 
L 146.552277 202.653952 
L 146.711713 197.68886 
L 146.871149 197.68886 
L 147.030585 198.619814 
L 147.190021 203.274588 
L 147.349458 200.792042 
L 147.508894 202.343634 
L 147.66833 202.653952 
L 147.827766 202.653952 
L 147.987202 204.515861 
L 148.306074 197.999178 
L 148.624947 202.96427 
L 148.784383 200.481724 
L 149.103255 206.067453 
L 149.262691 205.757134 
L 149.422128 204.82618 
L 149.581564 204.82618 
L 149.741 201.722997 
L 149.900436 204.205543 
L 150.059872 203.895225 
L 150.219308 202.343634 
L 150.538181 204.82618 
L 150.697617 202.653952 
L 150.857053 202.96427 
L 151.016489 201.10236 
L 151.175925 202.033315 
L 151.335362 202.033315 
L 151.654234 194.275359 
L 151.81367 198.309496 
L 151.973106 198.309496 
L 152.132542 201.722997 
L 152.291979 200.171406 
L 152.451415 200.481724 
L 152.770287 207.619044 
L 152.929723 207.308726 
L 153.248596 207.308726 
L 153.408032 202.653952 
L 153.567468 205.136498 
L 153.726904 204.205543 
L 153.88634 204.82618 
L 154.045776 203.584907 
L 154.364649 203.584907 
L 154.524085 205.757134 
L 154.842957 205.757134 
L 155.002393 205.446816 
L 155.16183 208.23968 
L 155.321266 207.619044 
L 155.480702 208.549999 
L 155.640138 208.549999 
L 155.799574 202.653952 
L 155.95901 203.274588 
L 156.118447 200.171406 
L 156.437319 199.240451 
L 156.596755 200.171406 
L 156.756191 203.274588 
L 157.2345 203.274588 
L 157.393936 203.584907 
L 157.553372 201.10236 
L 157.712808 202.653952 
L 158.03168 193.344404 
L 158.191117 201.10236 
L 158.350553 201.722997 
L 158.669425 204.82618 
L 158.828861 200.171406 
L 159.147734 204.205543 
L 159.30717 205.136498 
L 159.466606 204.205543 
L 159.626042 206.067453 
L 160.263787 206.067453 
L 160.423223 206.377771 
L 160.901531 206.377771 
L 161.060968 206.998407 
L 161.220404 205.757134 
L 161.37984 206.067453 
L 161.698712 198.619814 
L 161.858148 205.757134 
L 162.017585 207.308726 
L 162.177021 207.308726 
L 162.655329 205.757134 
L 162.814765 200.481724 
L 162.974202 200.792042 
L 163.133638 203.584907 
L 163.45251 204.82618 
L 163.611946 207.619044 
L 163.771382 207.619044 
L 163.930819 205.757134 
L 164.249691 198.619814 
L 164.409127 202.033315 
L 164.727999 202.033315 
L 164.887436 201.10236 
L 165.046872 201.10236 
L 165.365744 203.274588 
L 165.52518 198.930133 
L 165.684616 204.205543 
L 165.844052 201.722997 
L 166.162925 205.446816 
L 166.322361 205.446816 
L 166.481797 203.895225 
L 166.641233 205.757134 
L 166.800669 204.82618 
L 166.960106 204.82618 
L 167.278978 202.343634 
L 167.438414 203.584907 
L 167.59785 205.757134 
L 167.916723 202.343634 
L 168.235595 202.343634 
L 168.395031 200.481724 
L 168.554467 195.516632 
L 168.713903 197.378541 
L 168.87334 203.584907 
L 169.192212 204.515861 
L 169.67052 204.515861 
L 169.829957 203.274588 
L 169.989393 200.792042 
L 170.148829 202.653952 
L 170.467701 202.653952 
L 170.627137 204.205543 
L 170.786574 203.895225 
L 170.94601 208.549999 
L 171.105446 209.480953 
L 171.264882 209.480953 
L 171.424318 203.584907 
L 171.583754 209.480953 
L 171.743191 209.480953 
L 171.902627 207.308726 
L 172.062063 207.308726 
L 172.380935 210.10159 
L 172.540371 209.170635 
L 172.859244 205.757134 
L 173.01868 207.619044 
L 173.178116 207.619044 
L 173.656425 202.96427 
L 173.815861 202.96427 
L 173.975297 205.446816 
L 174.134733 205.446816 
L 174.294169 206.067453 
L 174.453605 202.343634 
L 174.772478 202.343634 
L 174.931914 209.170635 
L 175.09135 209.170635 
L 175.250786 210.411908 
L 175.410222 210.411908 
L 175.569658 208.23968 
L 175.729095 199.240451 
L 175.888531 200.792042 
L 176.047967 205.136498 
L 176.207403 205.136498 
L 176.366839 205.446816 
L 176.526275 202.653952 
L 176.685712 202.653952 
L 176.845148 203.274588 
L 177.004584 202.653952 
L 177.16402 202.653952 
L 177.323456 203.274588 
L 177.642329 203.274588 
L 177.801765 200.792042 
L 178.280073 200.792042 
L 178.439509 205.136498 
L 178.598946 206.377771 
L 178.758382 206.067453 
L 178.917818 206.067453 
L 179.077254 208.549999 
L 179.714999 208.549999 
L 179.874435 207.308726 
L 180.033871 205.136498 
L 180.193307 206.998407 
L 180.51218 205.446816 
L 180.671616 208.860317 
L 180.831052 208.23968 
L 180.990488 209.480953 
L 181.149924 208.549999 
L 181.30936 208.860317 
L 181.468797 208.860317 
L 181.787669 207.619044 
L 182.425414 207.619044 
L 182.58485 207.308726 
L 183.222594 207.308726 
L 183.38203 208.860317 
L 183.541467 207.929362 
L 183.700903 208.549999 
L 183.860339 208.549999 
L 184.019775 207.929362 
L 184.179211 209.480953 
L 184.338647 209.480953 
L 184.498084 207.929362 
L 184.65752 203.895225 
L 185.295264 203.895225 
L 185.454701 205.446816 
L 185.614137 205.757134 
L 185.773573 204.205543 
L 185.933009 206.998407 
L 186.092445 205.446816 
L 186.251881 202.653952 
L 186.411318 208.549999 
L 186.570754 208.549999 
L 186.889626 207.929362 
L 187.049062 208.23968 
L 187.208498 209.791272 
L 187.367935 209.791272 
L 187.527371 206.377771 
L 187.686807 209.791272 
L 187.846243 206.377771 
L 188.005679 206.377771 
L 188.165115 208.23968 
L 188.324552 205.757134 
L 188.483988 201.412679 
L 188.643424 201.412679 
L 188.962296 208.23968 
L 189.121732 208.860317 
L 189.440605 206.998407 
L 189.600041 210.10159 
L 189.918913 210.10159 
L 190.237786 205.136498 
L 190.397222 207.308726 
L 190.556658 206.377771 
L 190.716094 208.549999 
L 190.87553 207.619044 
L 191.034966 209.791272 
L 191.194403 209.791272 
L 191.353839 207.619044 
L 191.513275 207.619044 
L 191.672711 207.929362 
L 191.832147 207.929362 
L 191.991583 209.480953 
L 192.151019 208.23968 
L 192.310456 209.170635 
L 192.629328 209.170635 
L 192.788764 209.480953 
L 193.107636 208.549999 
L 193.267073 208.549999 
L 193.426509 211.342863 
L 193.745381 209.791272 
L 193.904817 209.791272 
L 194.064253 208.23968 
L 194.22369 210.411908 
L 194.383126 210.10159 
L 194.861434 210.10159 
L 195.02087 209.480953 
L 195.180307 209.480953 
L 195.339743 206.377771 
L 195.499179 206.688089 
L 195.658615 206.688089 
L 195.818051 204.515861 
L 195.977487 206.998407 
L 196.29636 206.998407 
L 196.455796 207.929362 
L 196.615232 205.446816 
L 196.774668 205.446816 
L 196.934104 206.067453 
L 197.093541 204.82618 
L 197.252977 204.82618 
L 197.412413 206.377771 
L 197.731285 206.377771 
L 197.890721 205.446816 
L 198.050158 205.446816 
L 198.209594 202.653952 
L 198.528466 207.308726 
L 198.687902 208.549999 
L 198.847338 205.446816 
L 199.006775 204.515861 
L 199.644519 208.860317 
L 199.803955 203.895225 
L 199.963392 210.411908 
L 200.122828 208.23968 
L 200.282264 208.23968 
L 200.4417 210.411908 
L 200.601136 209.791272 
L 201.398317 209.791272 
L 201.557753 210.411908 
L 201.876625 210.411908 
L 202.036062 206.998407 
L 202.354934 208.549999 
L 202.51437 206.067453 
L 202.673806 208.860317 
L 202.992679 208.860317 
L 203.311551 210.722226 
L 203.470987 208.860317 
L 203.630423 208.860317 
L 203.789859 209.480953 
L 203.949296 209.480953 
L 204.108732 208.860317 
L 204.268168 207.308726 
L 204.427604 207.308726 
L 204.58704 202.033315 
L 204.746476 205.757134 
L 204.905913 205.757134 
L 205.065349 205.136498 
L 205.384221 210.722226 
L 205.543657 208.549999 
L 205.703093 209.791272 
L 205.86253 206.377771 
L 206.021966 209.170635 
L 206.340838 209.170635 
L 206.500274 206.688089 
L 206.65971 207.308726 
L 206.819147 209.480953 
L 206.978583 208.549999 
L 207.456891 208.549999 
L 207.616327 207.308726 
L 207.775764 209.791272 
L 207.9352 209.480953 
L 208.094636 210.411908 
L 208.254072 210.411908 
L 208.413508 208.23968 
L 208.572944 210.10159 
L 208.891817 210.10159 
L 209.051253 208.549999 
L 209.210689 208.23968 
L 209.370125 206.998407 
L 209.529561 206.998407 
L 209.848434 202.96427 
L 210.00787 202.96427 
L 210.486178 207.308726 
L 210.645614 207.308726 
L 210.805051 208.23968 
L 210.964487 208.23968 
L 211.123923 207.619044 
L 211.283359 207.929362 
L 211.602231 207.929362 
L 211.761668 203.584907 
L 211.921104 203.584907 
L 212.08054 206.688089 
L 212.399412 206.688089 
L 212.558848 207.929362 
L 212.718285 202.033315 
L 212.877721 202.033315 
L 213.037157 203.584907 
L 213.196593 202.653952 
L 213.356029 196.757905 
L 213.834338 210.10159 
L 214.15321 210.10159 
L 214.631519 206.688089 
L 214.790955 209.170635 
L 214.950391 209.170635 
L 215.109827 207.929362 
L 215.269263 207.929362 
L 215.428699 203.584907 
L 215.588136 203.584907 
L 215.747572 207.929362 
L 215.907008 207.929362 
L 216.066444 211.342863 
L 216.22588 211.342863 
L 216.385316 205.446816 
L 216.544753 209.170635 
L 216.704189 206.377771 
L 216.863625 206.377771 
L 217.023061 208.549999 
L 217.341933 208.549999 
L 217.501369 211.653181 
L 217.660806 206.377771 
L 218.139114 206.377771 
L 218.29855 210.10159 
L 218.617423 210.10159 
L 218.776859 209.170635 
L 219.095731 209.170635 
L 219.414603 208.549999 
L 219.733476 208.549999 
L 219.892912 205.136498 
L 220.052348 205.136498 
L 220.211784 202.343634 
L 220.37122 206.377771 
L 220.530657 206.998407 
L 220.690093 206.998407 
L 220.849529 205.757134 
L 221.008965 206.998407 
L 221.168401 209.170635 
L 221.327837 209.170635 
L 221.487274 210.722226 
L 221.64671 210.722226 
L 221.806146 211.342863 
L 221.965582 208.23968 
L 222.125018 211.032545 
L 222.284454 208.860317 
L 222.603327 208.860317 
L 222.922199 204.515861 
L 223.559944 204.515861 
L 223.71938 201.722997 
L 224.038252 201.722997 
L 224.357125 205.136498 
L 224.516561 205.136498 
L 224.675997 208.860317 
L 224.994869 208.860317 
L 225.313742 202.653952 
L 225.473178 206.688089 
L 225.632614 206.688089 
L 225.79205 209.480953 
L 225.951486 207.619044 
L 226.110922 209.791272 
L 226.429795 211.342863 
L 226.589231 206.377771 
L 226.748667 206.998407 
L 226.908103 206.998407 
L 227.067539 206.067453 
L 227.545848 206.067453 
L 227.86472 211.342863 
L 228.024156 207.308726 
L 228.183592 209.170635 
L 228.343029 208.23968 
L 228.502465 210.10159 
L 228.661901 209.170635 
L 228.821337 210.10159 
L 228.980773 209.791272 
L 229.140209 210.722226 
L 229.299646 210.722226 
L 229.459082 209.791272 
L 229.618518 207.929362 
L 229.777954 207.929362 
L 230.096826 209.791272 
L 230.575135 209.791272 
L 230.894007 203.274588 
L 231.053443 203.584907 
L 231.21288 204.515861 
L 231.531752 209.791272 
L 231.691188 211.342863 
L 231.850624 207.929362 
L 232.01006 210.722226 
L 232.488369 210.722226 
L 232.807241 208.549999 
L 232.966677 208.549999 
L 233.126114 209.170635 
L 233.28555 208.23968 
L 233.604422 208.23968 
L 233.763858 208.549999 
L 233.923294 207.929362 
L 234.082731 206.688089 
L 234.242167 204.205543 
L 234.401603 209.480953 
L 234.561039 205.136498 
L 235.039347 205.136498 
L 235.35822 207.929362 
L 235.517656 207.929362 
L 235.677092 209.480953 
L 235.836528 209.480953 
L 235.995964 208.860317 
L 236.155401 207.619044 
L 236.314837 207.619044 
L 236.474273 208.23968 
L 236.633709 210.411908 
L 236.793145 206.998407 
L 237.749762 206.998407 
L 237.909198 210.10159 
L 238.068635 208.23968 
L 238.228071 211.032545 
L 238.546943 211.032545 
L 238.706379 212.894454 
L 238.865815 212.894454 
L 239.025252 208.23968 
L 239.184688 209.791272 
L 239.344124 205.446816 
L 239.50356 206.377771 
L 239.662996 206.377771 
L 239.822432 205.136498 
L 240.141305 210.10159 
L 240.300741 210.10159 
L 240.460177 208.23968 
L 240.619613 209.480953 
L 240.779049 208.23968 
L 240.938486 211.032545 
L 241.097922 211.032545 
L 241.257358 206.377771 
L 241.416794 206.998407 
L 242.054539 206.998407 
L 242.213975 210.722226 
L 242.373411 210.722226 
L 242.532847 210.411908 
L 243.011156 210.411908 
L 243.170592 211.032545 
L 243.330028 211.032545 
L 243.808336 209.480953 
L 243.967773 210.722226 
L 244.446081 210.722226 
L 244.605517 209.791272 
L 244.92439 202.653952 
L 245.243262 207.619044 
L 245.72157 210.10159 
L 245.881007 208.860317 
L 246.040443 208.860317 
L 246.199879 210.722226 
L 246.359315 210.10159 
L 246.518751 210.722226 
L 246.678187 205.446816 
L 246.837624 208.860317 
L 246.99706 204.205543 
L 247.156496 203.274588 
L 247.315932 203.274588 
L 247.475368 201.412679 
L 247.794241 206.377771 
L 247.953677 206.688089 
L 248.113113 208.860317 
L 248.431985 207.308726 
L 248.750858 207.308726 
L 248.910294 208.860317 
L 249.06973 203.584907 
L 249.229166 205.446816 
L 249.388602 205.446816 
L 249.548038 207.308726 
L 249.707475 207.308726 
L 249.866911 208.23968 
L 250.026347 208.23968 
L 250.185783 207.929362 
L 250.345219 209.480953 
L 250.504655 206.998407 
L 250.664092 207.619044 
L 250.823528 210.10159 
L 250.982964 208.23968 
L 251.1424 208.23968 
L 251.301836 207.929362 
L 251.461272 211.342863 
L 251.620709 210.722226 
L 251.939581 205.757134 
L 252.099017 211.342863 
L 252.258453 211.342863 
L 252.417889 209.170635 
L 252.577325 211.342863 
L 252.736762 209.480953 
L 253.21507 211.032545 
L 253.374506 210.10159 
L 254.012251 210.10159 
L 254.171687 208.860317 
L 254.331123 208.549999 
L 254.649996 208.549999 
L 254.809432 208.23968 
L 254.968868 205.446816 
L 255.128304 206.377771 
L 255.28774 209.791272 
L 255.447176 209.791272 
L 255.606613 209.480953 
L 255.766049 210.411908 
L 255.925485 208.549999 
L 256.084921 209.480953 
L 256.244357 209.170635 
L 256.403793 209.170635 
L 256.56323 206.688089 
L 257.041538 209.170635 
L 257.200974 212.273818 
L 257.36041 212.273818 
L 257.679283 208.23968 
L 257.838719 209.480953 
L 257.998155 209.480953 
L 258.157591 210.411908 
L 258.317027 210.411908 
L 258.476464 211.963499 
L 258.6359 211.963499 
L 258.954772 207.619044 
L 259.114208 207.619044 
L 259.273644 209.480953 
L 259.433081 208.23968 
L 259.911389 208.23968 
L 260.070825 206.998407 
L 260.549134 206.998407 
L 260.70857 208.23968 
L 261.186878 208.23968 
L 261.346314 209.480953 
L 261.505751 208.23968 
L 261.665187 204.205543 
L 261.824623 207.308726 
L 261.984059 207.308726 
L 262.143495 208.860317 
L 262.462368 208.860317 
L 262.621804 211.963499 
L 262.78124 210.10159 
L 262.940676 210.10159 
L 263.100112 209.170635 
L 263.259548 209.170635 
L 263.418985 212.584136 
L 263.578421 212.584136 
L 263.737857 210.411908 
L 263.897293 211.963499 
L 264.375602 211.963499 
L 264.535038 210.10159 
L 264.694474 213.204772 
L 264.85391 209.480953 
L 265.013346 212.273818 
L 265.172782 211.342863 
L 265.332219 212.894454 
L 265.491655 211.342863 
L 266.129399 211.342863 
L 266.288836 211.653181 
L 266.767144 211.653181 
L 266.92658 205.757134 
L 267.086016 209.791272 
L 267.404889 209.791272 
L 267.564325 211.963499 
L 267.723761 211.963499 
L 267.883197 213.204772 
L 268.20207 213.204772 
L 268.361506 213.515091 
L 268.520942 211.342863 
L 268.680378 211.032545 
L 268.839814 211.032545 
L 268.99925 209.791272 
L 269.158687 209.791272 
L 269.477559 213.204772 
L 269.636995 212.584136 
L 269.796431 213.204772 
L 269.955867 213.204772 
L 270.27474 209.170635 
L 270.593612 208.549999 
L 270.753048 212.273818 
L 270.912484 212.273818 
L 271.07192 209.170635 
L 271.231357 210.10159 
L 271.550229 210.10159 
L 271.709665 210.411908 
L 272.028537 210.411908 
L 272.187974 207.929362 
L 272.34741 207.929362 
L 272.506846 210.10159 
L 272.666282 201.412679 
L 272.825718 200.481724 
L 273.144591 211.032545 
L 273.304027 210.722226 
L 273.463463 206.998407 
L 273.622899 207.308726 
L 274.260644 207.308726 
L 274.42008 209.170635 
L 274.579516 204.82618 
L 274.738952 206.998407 
L 274.898388 206.998407 
L 275.057825 208.549999 
L 275.376697 212.894454 
L 275.536133 214.135727 
L 275.695569 214.135727 
L 276.014442 209.480953 
L 276.173878 211.032545 
L 276.333314 206.998407 
L 276.49275 210.722226 
L 277.608803 210.722226 
L 277.768239 210.10159 
L 277.927676 210.10159 
L 278.087112 206.998407 
L 278.246548 206.688089 
L 278.56542 206.688089 
L 278.724856 211.342863 
L 279.043729 207.619044 
L 279.203165 208.549999 
L 279.522037 208.549999 
L 279.681473 205.446816 
L 279.840909 205.446816 
L 280.000346 210.722226 
L 280.159782 208.23968 
L 280.319218 211.342863 
L 280.63809 211.342863 
L 280.797526 205.446816 
L 280.956963 211.342863 
L 281.275835 211.342863 
L 281.435271 209.480953 
L 281.754143 209.480953 
L 281.91358 207.929362 
L 282.073016 210.722226 
L 282.232452 210.722226 
L 282.391888 209.791272 
L 282.71076 209.791272 
L 282.870197 208.23968 
L 283.029633 208.23968 
L 283.189069 211.032545 
L 283.348505 211.032545 
L 283.507941 212.584136 
L 284.942867 212.584136 
L 285.102303 211.032545 
L 285.261739 205.757134 
L 285.580611 208.23968 
L 285.740048 207.929362 
L 285.899484 212.273818 
L 286.05892 211.653181 
L 286.377792 211.653181 
L 286.537228 211.963499 
L 286.696665 208.860317 
L 286.856101 209.170635 
L 287.015537 209.170635 
L 287.174973 210.722226 
L 287.334409 210.722226 
L 287.493845 210.411908 
L 287.812718 213.515091 
L 287.972154 205.757134 
L 288.450462 205.757134 
L 288.609898 210.722226 
L 288.769335 208.549999 
L 288.928771 213.825409 
L 289.088207 213.825409 
L 289.247643 209.170635 
L 289.407079 209.170635 
L 289.566515 210.10159 
L 289.725952 210.10159 
L 290.20426 211.653181 
L 290.363696 206.998407 
L 290.523132 206.998407 
L 290.682569 206.377771 
L 291.001441 206.377771 
L 291.160877 207.929362 
L 291.479749 207.929362 
L 291.639186 209.480953 
L 291.798622 209.480953 
L 291.958058 210.10159 
L 292.117494 210.10159 
L 292.27693 212.273818 
L 292.436366 211.963499 
L 292.595803 210.722226 
L 293.233547 210.722226 
L 293.392983 211.653181 
L 293.55242 211.032545 
L 293.871292 211.032545 
L 294.030728 208.860317 
L 294.190164 212.584136 
L 294.668473 212.584136 
L 294.827909 205.757134 
L 294.987345 204.205543 
L 295.146781 205.446816 
L 295.306217 205.446816 
L 295.465654 205.136498 
L 295.62509 207.619044 
L 295.784526 207.308726 
L 296.262834 207.308726 
L 296.42227 210.10159 
L 296.581707 210.411908 
L 296.741143 207.619044 
L 296.900579 210.10159 
L 297.060015 210.411908 
L 297.219451 210.411908 
L 297.378887 211.032545 
L 297.538324 211.032545 
L 297.857196 210.10159 
L 298.016632 210.411908 
L 298.176068 210.411908 
L 298.494941 205.757134 
L 298.654377 205.757134 
L 298.813813 203.584907 
L 298.973249 207.308726 
L 299.132685 206.688089 
L 299.292121 209.791272 
L 299.451558 208.860317 
L 299.610994 211.653181 
L 300.089302 211.653181 
L 300.408175 212.894454 
L 300.567611 212.894454 
L 301.045919 211.342863 
L 301.524228 211.342863 
L 301.683664 207.619044 
L 301.8431 207.619044 
L 302.002536 211.342863 
L 302.161972 211.342863 
L 302.321409 208.23968 
L 302.480845 208.23968 
L 302.640281 210.411908 
L 302.799717 210.411908 
L 302.959153 209.170635 
L 303.118589 210.722226 
L 303.756334 210.722226 
L 303.91577 209.480953 
L 304.075206 209.480953 
L 304.234643 209.170635 
L 304.394079 212.584136 
L 304.553515 210.722226 
L 304.712951 211.653181 
L 304.872387 210.411908 
L 305.031823 210.411908 
L 305.191259 211.653181 
L 305.350696 211.653181 
L 305.510132 210.722226 
L 305.98844 210.722226 
L 306.147876 211.342863 
L 306.307313 210.411908 
L 306.466749 213.515091 
L 306.626185 213.515091 
L 306.785621 210.411908 
L 306.945057 210.411908 
L 307.104493 213.515091 
L 307.423366 213.515091 
L 307.582802 207.619044 
L 307.742238 207.619044 
L 307.901674 213.825409 
L 308.06111 213.825409 
L 308.220547 214.135727 
L 308.539419 214.135727 
L 308.698855 212.273818 
L 309.017727 212.273818 
L 309.177164 213.825409 
L 309.3366 213.825409 
L 309.496036 214.135727 
L 309.655472 214.135727 
L 309.814908 210.411908 
L 310.133781 210.411908 
L 310.293217 212.273818 
L 310.452653 210.10159 
L 310.612089 210.10159 
L 310.771525 213.204772 
L 311.090398 213.204772 
L 311.249834 210.10159 
L 311.40927 210.10159 
L 311.568706 211.653181 
L 311.728142 211.653181 
L 312.047015 212.273818 
L 312.206451 211.342863 
L 312.365887 211.342863 
L 312.525323 211.653181 
L 312.684759 209.170635 
L 312.844195 211.653181 
L 313.003632 211.032545 
L 313.163068 209.480953 
L 313.322504 209.480953 
L 313.48194 206.998407 
L 313.641376 206.998407 
L 313.800812 209.791272 
L 313.960248 209.791272 
L 314.119685 208.549999 
L 314.279121 208.549999 
L 314.438557 203.274588 
L 314.597993 209.791272 
L 314.757429 209.791272 
L 314.916865 212.273818 
L 315.076302 212.273818 
L 315.235738 212.584136 
L 315.395174 212.584136 
L 315.714046 209.170635 
L 315.873482 209.170635 
L 316.032919 208.549999 
L 316.670663 208.549999 
L 316.830099 212.894454 
L 316.989536 212.894454 
L 317.148972 208.860317 
L 317.308408 208.860317 
L 317.467844 206.688089 
L 317.62728 198.930133 
L 317.786716 210.411908 
L 317.946153 210.411908 
L 318.105589 206.688089 
L 318.265025 212.584136 
L 318.424461 212.273818 
L 318.583897 212.273818 
L 318.743333 211.342863 
L 318.90277 209.170635 
L 319.062206 210.722226 
L 319.221642 210.722226 
L 319.381078 208.23968 
L 319.540514 208.23968 
L 319.69995 209.480953 
L 320.018823 209.480953 
L 320.178259 206.377771 
L 320.337695 206.067453 
L 320.497131 213.515091 
L 320.656567 212.894454 
L 320.816004 213.825409 
L 320.97544 213.825409 
L 321.134876 214.756364 
L 321.294312 213.204772 
L 321.772621 213.204772 
L 321.932057 212.584136 
L 322.250929 212.584136 
L 322.410365 208.23968 
L 322.569801 208.23968 
L 322.888674 212.273818 
L 323.04811 210.411908 
L 323.207546 210.411908 
L 323.366982 210.722226 
L 323.526418 210.722226 
L 323.845291 213.204772 
L 324.004727 213.515091 
L 324.164163 213.204772 
L 324.323599 211.342863 
L 324.483035 212.584136 
L 324.961344 212.584136 
L 325.12078 213.515091 
L 325.917961 213.515091 
L 326.077397 207.929362 
L 326.236833 208.860317 
L 326.396269 211.963499 
L 326.555705 210.10159 
L 326.715142 211.653181 
L 326.874578 211.653181 
L 327.034014 209.170635 
L 327.19345 209.170635 
L 327.352886 207.929362 
L 327.512322 209.170635 
L 327.671759 208.860317 
L 327.990631 212.894454 
L 328.309503 208.860317 
L 328.468939 210.10159 
L 328.628376 209.791272 
L 328.787812 209.791272 
L 328.947248 208.860317 
L 329.106684 210.10159 
L 329.26612 210.10159 
L 329.425556 211.342863 
L 329.584993 210.722226 
L 330.063301 210.722226 
L 330.382173 207.308726 
L 330.54161 210.411908 
L 330.860482 210.411908 
L 331.179354 212.584136 
L 331.33879 210.411908 
L 331.498226 213.204772 
L 331.817099 213.204772 
L 331.976535 210.10159 
L 332.295407 210.10159 
L 332.454843 209.480953 
L 332.61428 211.342863 
L 332.773716 210.10159 
L 332.933152 209.791272 
L 333.252024 212.584136 
L 333.41146 211.032545 
L 333.730333 211.032545 
L 333.889769 207.619044 
L 334.208641 213.825409 
L 334.527514 213.825409 
L 334.68695 210.722226 
L 334.846386 210.722226 
L 335.005822 210.411908 
L 335.165258 210.411908 
L 335.324694 211.963499 
L 335.484131 211.963499 
L 335.643567 209.480953 
L 335.803003 208.860317 
L 335.962439 212.273818 
L 336.600184 212.273818 
L 336.75962 207.929362 
L 336.919056 207.929362 
L 337.078492 206.067453 
L 337.397365 209.791272 
L 337.716237 209.791272 
L 337.875673 207.619044 
L 338.035109 209.480953 
L 338.194545 209.480953 
L 338.353982 209.170635 
L 338.513418 210.411908 
L 338.672854 209.480953 
L 338.83229 210.722226 
L 338.991726 209.480953 
L 339.151162 209.480953 
L 339.310599 207.308726 
L 339.629471 207.308726 
L 339.788907 207.619044 
L 339.948343 209.480953 
L 340.107779 208.860317 
L 340.267215 208.860317 
L 340.426652 211.032545 
L 340.586088 211.032545 
L 340.745524 206.998407 
L 341.064396 210.722226 
L 341.223832 211.032545 
L 341.383269 211.653181 
L 341.542705 211.032545 
L 341.861577 211.032545 
L 342.021013 209.791272 
L 342.180449 211.032545 
L 342.339886 209.791272 
L 342.499322 212.273818 
L 342.818194 212.273818 
L 342.97763 211.342863 
L 343.137066 211.342863 
L 343.296503 211.653181 
L 343.455939 211.653181 
L 343.615375 210.722226 
L 344.571992 210.722226 
L 344.731428 211.032545 
L 344.890864 211.032545 
L 345.0503 210.722226 
L 345.369173 210.722226 
L 345.528609 211.963499 
L 345.688045 210.411908 
L 345.847481 210.411908 
L 346.006917 209.480953 
L 346.166354 209.480953 
L 346.32579 210.411908 
L 346.485226 209.170635 
L 346.644662 209.170635 
L 346.963534 206.067453 
L 347.282407 208.860317 
L 347.441843 208.860317 
L 347.601279 211.653181 
L 347.920151 211.653181 
L 348.079588 210.411908 
L 348.239024 210.722226 
L 348.39846 210.722226 
L 348.557896 210.411908 
L 348.717332 205.757134 
L 348.876768 205.757134 
L 349.036204 206.998407 
L 349.195641 211.342863 
L 349.355077 211.032545 
L 349.673949 211.032545 
L 349.833385 211.342863 
L 349.992821 209.480953 
L 350.152258 211.653181 
L 350.311694 211.342863 
L 350.630566 211.342863 
L 350.790002 211.653181 
L 350.949438 211.032545 
L 351.108875 211.032545 
L 351.268311 210.411908 
L 351.427747 205.757134 
L 351.587183 208.23968 
L 351.746619 208.23968 
L 351.906055 210.411908 
L 352.065492 210.10159 
L 352.224928 210.10159 
L 352.384364 206.688089 
L 352.703236 206.688089 
L 352.862672 210.722226 
L 353.340981 210.722226 
L 353.500417 208.549999 
L 353.659853 208.549999 
L 353.819289 210.722226 
L 353.978726 210.722226 
L 354.138162 211.342863 
L 354.297598 212.584136 
L 354.457034 212.273818 
L 354.61647 212.273818 
L 354.775906 209.791272 
L 354.935343 211.653181 
L 355.094779 211.342863 
L 355.573087 211.342863 
L 355.732523 208.549999 
L 355.89196 209.480953 
L 356.051396 209.170635 
L 356.210832 209.170635 
L 356.370268 211.342863 
L 356.529704 211.342863 
L 356.68914 210.411908 
L 356.848577 210.411908 
L 357.008013 204.515861 
L 357.645757 204.515861 
L 357.805193 204.82618 
L 357.96463 204.82618 
L 358.124066 209.170635 
L 358.283502 209.170635 
L 358.442938 210.411908 
L 358.602374 212.894454 
L 358.76181 212.894454 
L 358.921247 211.342863 
L 359.080683 211.653181 
L 359.240119 211.342863 
L 359.399555 212.273818 
L 359.558991 212.273818 
L 359.877864 211.032545 
L 360.196736 212.273818 
L 360.515608 212.273818 
L 360.675044 211.032545 
L 361.153353 211.032545 
L 361.312789 211.653181 
L 361.791098 211.653181 
L 361.950534 210.722226 
L 362.10997 206.688089 
L 362.269406 207.308726 
L 362.588278 207.308726 
L 362.747715 208.549999 
L 362.907151 211.342863 
L 363.066587 208.23968 
L 363.385459 208.23968 
L 363.544895 211.653181 
L 363.704332 211.653181 
L 363.863768 212.894454 
L 364.501512 212.894454 
L 364.660949 213.204772 
L 364.820385 213.204772 
L 364.979821 212.584136 
L 365.139257 212.584136 
L 365.298693 211.032545 
L 365.298693 211.032545 
" clip-path="url(#p0dc4d196c4)" style="fill: none; stroke: #e24a33; stroke-width: 1.5; stroke-linecap: square"/>
   </g>
   <g id="patch_3">
    <path d="M 45.716875 224.64 
L 45.716875 7.2 
" style="fill: none; stroke: #ffffff; stroke-linejoin: miter; stroke-linecap: square"/>
   </g>
   <g id="patch_4">
    <path d="M 380.516875 224.64 
L 380.516875 7.2 
" style="fill: none; stroke: #ffffff; stroke-linejoin: miter; stroke-linecap: square"/>
   </g>
   <g id="patch_5">
    <path d="M 45.716875 224.64 
L 380.516875 224.64 
" style="fill: none; stroke: #ffffff; stroke-linejoin: miter; stroke-linecap: square"/>
   </g>
   <g id="patch_6">
    <path d="M 45.716875 7.2 
L 380.516875 7.2 
" style="fill: none; stroke: #ffffff; stroke-linejoin: miter; stroke-linecap: square"/>
   </g>
  </g>
 </g>
 <defs>
  <clipPath id="p0dc4d196c4">
   <rect x="45.716875" y="7.2" width="334.8" height="217.44"/>
  </clipPath>
 </defs>
</svg>
